<?xml version="1.0" encoding="utf-8"?>
<!-- Generator: Adobe Illustrator 25.2.0, SVG Export Plug-In . SVG Version: 6.00 Build 0)  -->
<svg version="1.1" id="Layer_1" xmlns="http://www.w3.org/2000/svg" xmlns:xlink="http://www.w3.org/1999/xlink" x="0px" y="0px"
	 viewBox="0 0 192.5 192.5" style="enable-background:new 0 0 192.5 192.5;" xml:space="preserve">
<style type="text/css">
	.st0{fill:#FFE900;}
	.st1{fill:none;stroke:#1D1D1B;stroke-width:0.5;stroke-linejoin:round;}
</style>
<g>
	<circle class="st0" cx="96.3" cy="96.3" r="93.2"/>
	<g>
		<g>
			<path d="M151.7,128.8l-0.4-66.2L96.7,31.2L68.9,79.8L40.9,63.6l0.4,66.6l54.1,31.2l3.4-2L98.5,102l49.8,28.8L151.7,128.8z
				 M97.3,100l0.4,58.7l-2.3,1.3l-53-30.5L42,65.5l27.3,15.8l27.8-48.6l53,30.5l0.4,64.9l-2.3,1.3L97.3,100z"/>
		</g>
		<g>
			<g>
				<path class="st1" d="M149,67.5"/>
				<polygon class="st1" points="95.4,160 95,96.1 122.4,111.9 150.1,63.3 150.5,128.2 148.3,129.5 147.9,71.8 123.2,115 97.3,100 
					97.7,158.7 				"/>
				<line class="st1" x1="95.4" y1="160" x2="42.4" y2="129.5"/>
				<line class="st1" x1="148.3" y1="129.5" x2="123.2" y2="115"/>
				<polyline class="st1" points="150.1,63.3 97.1,32.8 69.4,81.4 42,65.5 42.4,129.5 				"/>
				<line class="st1" x1="95" y1="96.1" x2="42" y2="65.5"/>
			</g>
		</g>
	</g>
</g>
<g>
</g>
<g>
</g>
<g>
</g>
<g>
</g>
<g>
</g>
<g>
</g>
<g>
</g>
<g>
</g>
<g>
</g>
<g>
</g>
<g>
</g>
<g>
</g>
<g>
</g>
<g>
</g>
<g>
</g>
</svg>
