<?xml version="1.0" encoding="utf-8"?>
<!-- Generator: Adobe Illustrator 25.1.0, SVG Export Plug-In . SVG Version: 6.00 Build 0)  -->
<svg version="1.1" id="Layer_1" xmlns="http://www.w3.org/2000/svg" xmlns:xlink="http://www.w3.org/1999/xlink" x="0px" y="0px"
	 viewBox="0 0 224.28 114.1" style="enable-background:new 0 0 224.28 114.1;" xml:space="preserve">
<style type="text/css">
	.st0{fill:none;stroke:#1D1D1B;stroke-width:0.5;stroke-linejoin:round;}
	.st1{fill:#1D1D1B;}
</style>
<g>
	<path d="M97.19,85.61l-0.36-58.07L48.98,0L24.62,42.62L0,28.37l0.36,58.4l47.49,27.33l2.99-1.73l-0.31-50.28L94.2,87.34
		L97.19,85.61z M49.52,60.35l0.32,51.45l-1.99,1.15L1.36,86.19L1.01,30.11l23.98,13.87L49.35,1.37l46.49,26.76l0.35,56.91
		l-1.99,1.15L49.52,60.35z"/>
</g>
<g>
	<g>
		<path class="st0" d="M94.86,31.85"/>
		<polygon class="st0" points="47.85,112.95 47.5,56.87 71.48,70.74 95.84,28.12 96.19,85.04 94.2,86.19 93.88,35.57 72.22,73.48 
			49.52,60.35 49.84,111.8 		"/>
		<line class="st0" x1="47.85" y1="112.95" x2="1.36" y2="86.19"/>
		<line class="st0" x1="94.2" y1="86.19" x2="72.22" y2="73.48"/>
		<polyline class="st0" points="95.84,28.12 49.35,1.37 24.99,43.98 1.01,30.11 1.36,86.19 		"/>
		<line class="st0" x1="47.5" y1="56.87" x2="1.01" y2="30.11"/>
	</g>
</g>
<g>
	<g>
		<g>
			<path class="st1" d="M114.29,83.91l-7.99-20.87h-0.13c0.15,1.65,0.23,3.62,0.23,5.89v14.98h-2.53V60.37h4.12l7.46,19.42h0.13
				l7.52-19.42h4.09v23.54h-2.74V68.74c0-1.74,0.07-3.63,0.23-5.67h-0.13l-8.05,20.84H114.29z"/>
			<path class="st1" d="M144.1,83.91l-0.53-2.51h-0.13c-0.88,1.11-1.76,1.85-2.63,2.25c-0.87,0.39-1.97,0.59-3.28,0.59
				c-1.75,0-3.12-0.45-4.11-1.35c-0.99-0.9-1.49-2.18-1.49-3.85c0-3.56,2.85-5.43,8.55-5.6l3-0.1v-1.1c0-1.38-0.3-2.41-0.89-3.07
				c-0.59-0.66-1.55-0.99-2.86-0.99c-1.47,0-3.13,0.45-4.99,1.35l-0.82-2.05c0.87-0.47,1.82-0.84,2.86-1.11
				c1.04-0.27,2.07-0.4,3.12-0.4c2.1,0,3.66,0.47,4.68,1.4c1.01,0.93,1.52,2.43,1.52,4.49v12.05H144.1z M138.06,82.03
				c1.66,0,2.97-0.46,3.92-1.37c0.95-0.91,1.42-2.19,1.42-3.83v-1.59l-2.67,0.11c-2.13,0.07-3.66,0.41-4.6,0.99
				c-0.94,0.59-1.41,1.5-1.41,2.73c0,0.97,0.29,1.7,0.88,2.21C136.19,81.78,137,82.03,138.06,82.03z"/>
			<path class="st1" d="M157.29,82.03c0.47,0,0.93-0.04,1.37-0.1c0.44-0.07,0.79-0.14,1.05-0.22v2.05
				c-0.29,0.14-0.72,0.25-1.28,0.35c-0.57,0.09-1.07,0.14-1.52,0.14c-3.41,0-5.12-1.8-5.12-5.39v-10.5h-2.53v-1.29l2.53-1.11
				l1.13-3.77h1.55v4.09h5.12v2.08h-5.12v10.39c0,1.06,0.25,1.88,0.76,2.45C155.71,81.74,156.41,82.03,157.29,82.03z"/>
			<path class="st1" d="M174.08,83.91l-0.53-2.51h-0.13c-0.88,1.11-1.76,1.85-2.63,2.25c-0.87,0.39-1.97,0.59-3.28,0.59
				c-1.75,0-3.12-0.45-4.11-1.35c-0.99-0.9-1.49-2.18-1.49-3.85c0-3.56,2.85-5.43,8.55-5.6l3-0.1v-1.1c0-1.38-0.3-2.41-0.89-3.07
				c-0.59-0.66-1.55-0.99-2.86-0.99c-1.47,0-3.13,0.45-4.99,1.35l-0.82-2.05c0.87-0.47,1.82-0.84,2.86-1.11
				c1.04-0.27,2.07-0.4,3.12-0.4c2.1,0,3.66,0.47,4.68,1.4c1.01,0.93,1.52,2.43,1.52,4.49v12.05H174.08z M168.04,82.03
				c1.66,0,2.97-0.46,3.92-1.37c0.95-0.91,1.42-2.19,1.42-3.83v-1.59l-2.67,0.11c-2.13,0.07-3.66,0.41-4.6,0.99
				c-0.94,0.59-1.41,1.5-1.41,2.73c0,0.97,0.29,1.7,0.88,2.21C166.17,81.78,166.99,82.03,168.04,82.03z"/>
			<path class="st1" d="M184.24,83.91h-2.67V58.85h2.67V83.91z"/>
			<path class="st1" d="M205.15,75.07c0,2.88-0.72,5.12-2.17,6.74c-1.45,1.62-3.45,2.42-6.01,2.42c-1.58,0-2.98-0.37-4.2-1.11
				s-2.17-1.8-2.83-3.19c-0.67-1.38-1-3.01-1-4.86c0-2.88,0.72-5.12,2.16-6.72c1.44-1.6,3.44-2.41,5.99-2.41
				c2.47,0,4.43,0.82,5.89,2.46C204.42,70.05,205.15,72.27,205.15,75.07z M191.7,75.07c0,2.25,0.45,3.97,1.35,5.15
				c0.9,1.18,2.23,1.77,3.98,1.77c1.75,0,3.08-0.59,3.99-1.76c0.91-1.17,1.36-2.9,1.36-5.16c0-2.24-0.45-3.95-1.36-5.11
				c-0.91-1.16-2.25-1.75-4.02-1.75c-1.75,0-3.07,0.57-3.96,1.72C192.14,71.08,191.7,72.79,191.7,75.07z"/>
			<path class="st1" d="M224.28,66.26v1.69l-3.27,0.39c0.3,0.38,0.57,0.87,0.81,1.47c0.24,0.61,0.35,1.29,0.35,2.05
				c0,1.73-0.59,3.11-1.77,4.14c-1.18,1.03-2.8,1.55-4.86,1.55c-0.53,0-1.02-0.04-1.48-0.13c-1.14,0.6-1.71,1.36-1.71,2.27
				c0,0.48,0.2,0.84,0.6,1.07c0.4,0.23,1.08,0.35,2.05,0.35h3.12c1.91,0,3.38,0.4,4.4,1.21c1.03,0.81,1.54,1.97,1.54,3.51
				c0,1.95-0.78,3.44-2.35,4.47c-1.57,1.02-3.85,1.54-6.86,1.54c-2.31,0-4.09-0.43-5.34-1.29c-1.25-0.86-1.88-2.07-1.88-3.64
				c0-1.07,0.34-2,1.03-2.79c0.69-0.78,1.65-1.31,2.9-1.59c-0.45-0.2-0.83-0.52-1.13-0.95c-0.31-0.43-0.46-0.93-0.46-1.5
				c0-0.64,0.17-1.21,0.52-1.69c0.34-0.48,0.89-0.95,1.63-1.4c-0.91-0.38-1.66-1.01-2.23-1.92c-0.58-0.9-0.86-1.93-0.86-3.09
				c0-1.93,0.58-3.42,1.74-4.47c1.16-1.05,2.8-1.57,4.93-1.57c0.92,0,1.76,0.11,2.5,0.32H224.28z M210.2,86.88
				c0,0.96,0.4,1.68,1.21,2.17c0.81,0.49,1.96,0.74,3.46,0.74c2.24,0,3.9-0.34,4.98-1.01c1.08-0.67,1.62-1.58,1.62-2.73
				c0-0.96-0.3-1.62-0.89-1.99c-0.59-0.37-1.7-0.55-3.33-0.55h-3.2c-1.21,0-2.16,0.29-2.83,0.87
				C210.54,84.96,210.2,85.79,210.2,86.88z M211.65,71.91c0,1.23,0.35,2.17,1.05,2.8c0.7,0.63,1.67,0.95,2.91,0.95
				c2.61,0,3.91-1.27,3.91-3.8c0-2.65-1.32-3.98-3.96-3.98c-1.26,0-2.22,0.34-2.9,1.01C211.99,69.58,211.65,70.58,211.65,71.91z"/>
		</g>
	</g>
</g>
<g>
	<path class="st1" d="M110.67,93.45c0,1.16-0.29,2.07-0.87,2.71c-0.58,0.64-1.4,0.97-2.47,0.97c-1.08,0-1.91-0.32-2.48-0.96
		c-0.58-0.64-0.87-1.55-0.87-2.73s0.29-2.08,0.87-2.71c0.58-0.63,1.41-0.95,2.49-0.95c1.06,0,1.88,0.32,2.46,0.96
		S110.67,92.29,110.67,93.45z M105.22,93.45c0,0.88,0.18,1.55,0.53,2c0.35,0.46,0.88,0.68,1.58,0.68c0.69,0,1.22-0.22,1.57-0.67
		c0.35-0.45,0.53-1.12,0.53-2.01c0-0.88-0.17-1.54-0.52-1.99c-0.35-0.45-0.87-0.68-1.57-0.68c-0.7,0-1.23,0.23-1.58,0.68
		C105.4,91.91,105.22,92.58,105.22,93.45z"/>
	<path class="st1" d="M114.82,97.13c-0.68,0-1.21-0.25-1.59-0.74h-0.07c0.05,0.46,0.07,0.73,0.07,0.83v2.21h-1.15v-7.8h0.93
		c0.03,0.1,0.08,0.34,0.16,0.72h0.06c0.36-0.55,0.9-0.82,1.61-0.82c0.67,0,1.2,0.24,1.58,0.73c0.38,0.49,0.56,1.17,0.56,2.06
		s-0.19,1.57-0.57,2.07C116.02,96.88,115.49,97.13,114.82,97.13z M114.54,92.47c-0.46,0-0.79,0.13-1,0.4
		c-0.21,0.27-0.32,0.69-0.32,1.28v0.17c0,0.66,0.1,1.13,0.31,1.43c0.21,0.29,0.55,0.44,1.02,0.44c0.4,0,0.7-0.16,0.92-0.49
		s0.32-0.79,0.32-1.39c0-0.61-0.11-1.06-0.32-1.37C115.27,92.63,114.95,92.47,114.54,92.47z"/>
	<path class="st1" d="M120.67,97.13c-0.84,0-1.5-0.25-1.97-0.73c-0.47-0.49-0.71-1.17-0.71-2.02c0-0.88,0.22-1.58,0.66-2.08
		s1.04-0.76,1.81-0.76c0.71,0,1.28,0.22,1.69,0.65s0.62,1.03,0.62,1.79v0.62h-3.6c0.02,0.52,0.16,0.93,0.42,1.21
		c0.27,0.28,0.64,0.42,1.13,0.42c0.32,0,0.62-0.03,0.89-0.09c0.28-0.06,0.57-0.16,0.89-0.3v0.93c-0.28,0.13-0.56,0.23-0.85,0.28
		S121.04,97.13,120.67,97.13z M120.46,92.4c-0.36,0-0.66,0.12-0.88,0.35c-0.22,0.23-0.35,0.57-0.39,1.01h2.45
		c-0.01-0.45-0.11-0.78-0.32-1.01C121.11,92.52,120.82,92.4,120.46,92.4z"/>
	<path class="st1" d="M128.82,97.03h-1.15v-3.32c0-0.42-0.08-0.73-0.25-0.93c-0.17-0.21-0.43-0.31-0.8-0.31
		c-0.49,0-0.84,0.14-1.06,0.43s-0.34,0.77-0.34,1.44v2.69h-1.15v-5.4h0.9l0.16,0.71h0.06c0.16-0.26,0.39-0.46,0.69-0.6
		s0.63-0.21,1-0.21c1.3,0,1.94,0.66,1.94,1.98V97.03z"/>
	<path class="st1" d="M136.22,97.03l-2.07-5.96h-0.04c0.06,0.89,0.08,1.72,0.08,2.49v3.47h-1.06v-7.14h1.65l1.98,5.68h0.03
		l2.04-5.68h1.65v7.14h-1.12V93.5c0-0.35,0.01-0.82,0.03-1.39c0.02-0.57,0.03-0.92,0.05-1.04h-0.04l-2.14,5.95H136.22z"/>
	<path class="st1" d="M145.62,97.03l-0.23-0.75h-0.04c-0.26,0.33-0.52,0.55-0.79,0.67c-0.26,0.12-0.6,0.18-1.02,0.18
		c-0.53,0-0.95-0.14-1.24-0.43c-0.3-0.29-0.45-0.69-0.45-1.22c0-0.56,0.21-0.98,0.62-1.26s1.04-0.44,1.89-0.46l0.93-0.03v-0.29
		c0-0.34-0.08-0.6-0.24-0.77c-0.16-0.17-0.41-0.26-0.75-0.26c-0.28,0-0.54,0.04-0.8,0.12s-0.5,0.18-0.73,0.29L142.42,92
		c0.29-0.15,0.61-0.27,0.96-0.35c0.35-0.08,0.68-0.12,0.99-0.12c0.69,0,1.21,0.15,1.55,0.45c0.35,0.3,0.53,0.77,0.53,1.41v3.64
		H145.62z M143.92,96.25c0.42,0,0.75-0.12,1-0.35c0.25-0.23,0.38-0.56,0.38-0.98v-0.47l-0.69,0.03c-0.54,0.02-0.93,0.11-1.18,0.27
		c-0.25,0.16-0.37,0.41-0.37,0.74c0,0.24,0.07,0.43,0.21,0.56C143.41,96.19,143.63,96.25,143.92,96.25z"/>
	<path class="st1" d="M150.06,96.2c0.28,0,0.56-0.04,0.84-0.13v0.86c-0.13,0.06-0.29,0.1-0.49,0.14c-0.2,0.04-0.41,0.06-0.62,0.06
		c-1.09,0-1.63-0.57-1.63-1.72V92.5h-0.74v-0.51l0.79-0.42l0.39-1.14h0.71v1.2h1.54v0.87h-1.54v2.89c0,0.28,0.07,0.48,0.21,0.61
		C149.65,96.14,149.83,96.2,150.06,96.2z"/>
	<path class="st1" d="M154.33,97.13c-0.84,0-1.5-0.25-1.97-0.73c-0.47-0.49-0.71-1.17-0.71-2.02c0-0.88,0.22-1.58,0.66-2.08
		s1.04-0.76,1.81-0.76c0.71,0,1.28,0.22,1.69,0.65s0.62,1.03,0.62,1.79v0.62h-3.6c0.02,0.52,0.16,0.93,0.42,1.21
		c0.27,0.28,0.64,0.42,1.13,0.42c0.32,0,0.62-0.03,0.89-0.09c0.28-0.06,0.57-0.16,0.89-0.3v0.93c-0.28,0.13-0.56,0.23-0.85,0.28
		S154.7,97.13,154.33,97.13z M154.12,92.4c-0.36,0-0.66,0.12-0.88,0.35c-0.22,0.23-0.35,0.57-0.39,1.01h2.45
		c-0.01-0.45-0.11-0.78-0.32-1.01C154.78,92.52,154.49,92.4,154.12,92.4z"/>
	<path class="st1" d="M160.48,91.54c0.23,0,0.42,0.02,0.57,0.05l-0.11,1.07c-0.16-0.04-0.33-0.06-0.51-0.06
		c-0.46,0-0.83,0.15-1.12,0.45c-0.28,0.3-0.43,0.69-0.43,1.17v2.82h-1.15v-5.4h0.9l0.15,0.95h0.06c0.18-0.32,0.41-0.58,0.7-0.77
		C159.84,91.63,160.15,91.54,160.48,91.54z"/>
	<path class="st1" d="M161.98,90.2c0-0.21,0.06-0.36,0.17-0.47c0.11-0.11,0.27-0.17,0.48-0.17c0.2,0,0.36,0.06,0.47,0.17
		c0.11,0.11,0.17,0.27,0.17,0.47c0,0.2-0.06,0.35-0.17,0.46c-0.11,0.11-0.27,0.17-0.47,0.17c-0.21,0-0.37-0.06-0.48-0.17
		C162.04,90.55,161.98,90.4,161.98,90.2z M163.2,97.03h-1.15v-5.4h1.15V97.03z"/>
	<path class="st1" d="M168.22,97.03l-0.23-0.75h-0.04c-0.26,0.33-0.52,0.55-0.79,0.67c-0.26,0.12-0.6,0.18-1.02,0.18
		c-0.53,0-0.95-0.14-1.24-0.43c-0.3-0.29-0.45-0.69-0.45-1.22c0-0.56,0.21-0.98,0.62-1.26s1.04-0.44,1.89-0.46l0.93-0.03v-0.29
		c0-0.34-0.08-0.6-0.24-0.77c-0.16-0.17-0.41-0.26-0.75-0.26c-0.28,0-0.54,0.04-0.8,0.12s-0.5,0.18-0.73,0.29L165.01,92
		c0.29-0.15,0.61-0.27,0.96-0.35c0.35-0.08,0.68-0.12,0.99-0.12c0.69,0,1.21,0.15,1.55,0.45c0.35,0.3,0.53,0.77,0.53,1.41v3.64
		H168.22z M166.51,96.25c0.42,0,0.75-0.12,1-0.35c0.25-0.23,0.38-0.56,0.38-0.98v-0.47l-0.69,0.03c-0.54,0.02-0.93,0.11-1.18,0.27
		c-0.25,0.16-0.37,0.41-0.37,0.74c0,0.24,0.07,0.43,0.21,0.56C166.01,96.19,166.22,96.25,166.51,96.25z"/>
	<path class="st1" d="M171.79,97.03h-1.15v-7.6h1.15V97.03z"/>
	<path class="st1" d="M181.95,93.4c0,1.18-0.33,2.08-0.98,2.7c-0.65,0.62-1.6,0.94-2.83,0.94h-2v-7.14h2.21
		c1.14,0,2.02,0.31,2.65,0.92S181.95,92.29,181.95,93.4z M180.72,93.43c0-1.71-0.8-2.56-2.4-2.56h-1.01v5.18h0.83
		C179.86,96.05,180.72,95.18,180.72,93.43z"/>
	<path class="st1" d="M186.74,97.03l-0.23-0.75h-0.04c-0.26,0.33-0.52,0.55-0.79,0.67c-0.26,0.12-0.6,0.18-1.02,0.18
		c-0.53,0-0.95-0.14-1.24-0.43c-0.3-0.29-0.45-0.69-0.45-1.22c0-0.56,0.21-0.98,0.62-1.26s1.04-0.44,1.89-0.46l0.93-0.03v-0.29
		c0-0.34-0.08-0.6-0.24-0.77c-0.16-0.17-0.41-0.26-0.75-0.26c-0.28,0-0.54,0.04-0.8,0.12s-0.5,0.18-0.73,0.29L183.53,92
		c0.29-0.15,0.61-0.27,0.96-0.35c0.35-0.08,0.68-0.12,0.99-0.12c0.69,0,1.21,0.15,1.55,0.45c0.35,0.3,0.53,0.77,0.53,1.41v3.64
		H186.74z M185.03,96.25c0.42,0,0.75-0.12,1-0.35c0.25-0.23,0.38-0.56,0.38-0.98v-0.47l-0.69,0.03c-0.54,0.02-0.93,0.11-1.18,0.27
		c-0.25,0.16-0.37,0.41-0.37,0.74c0,0.24,0.07,0.43,0.21,0.56C184.53,96.19,184.75,96.25,185.03,96.25z"/>
	<path class="st1" d="M191.18,96.2c0.28,0,0.56-0.04,0.84-0.13v0.86c-0.13,0.06-0.29,0.1-0.49,0.14c-0.2,0.04-0.41,0.06-0.62,0.06
		c-1.09,0-1.63-0.57-1.63-1.72V92.5h-0.74v-0.51l0.79-0.42l0.39-1.14h0.71v1.2h1.54v0.87h-1.54v2.89c0,0.28,0.07,0.48,0.21,0.61
		C190.77,96.14,190.95,96.2,191.18,96.2z"/>
	<path class="st1" d="M196.47,97.03l-0.23-0.75h-0.04c-0.26,0.33-0.52,0.55-0.79,0.67c-0.26,0.12-0.6,0.18-1.02,0.18
		c-0.53,0-0.95-0.14-1.24-0.43c-0.3-0.29-0.45-0.69-0.45-1.22c0-0.56,0.21-0.98,0.62-1.26s1.04-0.44,1.89-0.46l0.93-0.03v-0.29
		c0-0.34-0.08-0.6-0.24-0.77c-0.16-0.17-0.41-0.26-0.75-0.26c-0.28,0-0.54,0.04-0.8,0.12s-0.5,0.18-0.73,0.29L193.27,92
		c0.29-0.15,0.61-0.27,0.96-0.35c0.35-0.08,0.68-0.12,0.99-0.12c0.69,0,1.21,0.15,1.55,0.45c0.35,0.3,0.53,0.77,0.53,1.41v3.64
		H196.47z M194.76,96.25c0.42,0,0.75-0.12,1-0.35c0.25-0.23,0.38-0.56,0.38-0.98v-0.47l-0.69,0.03c-0.54,0.02-0.93,0.11-1.18,0.27
		c-0.25,0.16-0.37,0.41-0.37,0.74c0,0.24,0.07,0.43,0.21,0.56C194.26,96.19,194.48,96.25,194.76,96.25z"/>
</g>
</svg>
