<?xml version="1.0" encoding="utf-8"?>
<!-- Generator: Adobe Illustrator 25.1.0, SVG Export Plug-In . SVG Version: 6.00 Build 0)  -->
<svg version="1.1" id="Layer_1" xmlns="http://www.w3.org/2000/svg" xmlns:xlink="http://www.w3.org/1999/xlink" x="0px" y="0px"
	 viewBox="0 0 97.19 114.1" style="enable-background:new 0 0 97.19 114.1;" xml:space="preserve">
<style type="text/css">
	.st0{fill:none;stroke:#1D1D1B;stroke-width:0.5;stroke-linejoin:round;}
</style>
<g>
	<path d="M97.19,85.61l-0.36-58.07L48.98,0L24.62,42.62L0,28.37l0.36,58.4l47.49,27.33l2.99-1.73l-0.31-50.28L94.2,87.34
		L97.19,85.61z M49.52,60.35l0.32,51.45l-1.99,1.15L1.36,86.19L1.01,30.11l23.98,13.87L49.35,1.37l46.49,26.76l0.35,56.91
		l-1.99,1.15L49.52,60.35z"/>
</g>
<g>
	<g>
		<path class="st0" d="M94.86,31.85"/>
		<polygon class="st0" points="47.85,112.95 47.5,56.87 71.48,70.74 95.84,28.12 96.19,85.04 94.2,86.19 93.88,35.57 72.22,73.48 
			49.52,60.35 49.84,111.8 		"/>
		<line class="st0" x1="47.85" y1="112.95" x2="1.36" y2="86.19"/>
		<line class="st0" x1="94.2" y1="86.19" x2="72.22" y2="73.48"/>
		<polyline class="st0" points="95.84,28.12 49.35,1.37 24.99,43.98 1.01,30.11 1.36,86.19 		"/>
		<line class="st0" x1="47.5" y1="56.87" x2="1.01" y2="30.11"/>
	</g>
</g>
</svg>
