<?xml version="1.0" encoding="utf-8"?>
<!-- Generator: Adobe Illustrator 25.2.0, SVG Export Plug-In . SVG Version: 6.00 Build 0)  -->
<svg version="1.1" id="Layer_1" xmlns="http://www.w3.org/2000/svg" xmlns:xlink="http://www.w3.org/1999/xlink" x="0px" y="0px"
	 viewBox="0 0 308.83 201.99" style="enable-background:new 0 0 308.83 201.99;" xml:space="preserve">
<style type="text/css">
	.st0{fill:none;stroke:#000000;stroke-width:0.602;stroke-linecap:round;stroke-miterlimit:10;stroke-dasharray:1.205,2.411;}
	.st1{fill:none;}
	.st2{fill:none;stroke:#000000;stroke-width:0.602;stroke-linecap:round;stroke-linejoin:bevel;stroke-miterlimit:10;}
	.st3{clip-path:url(#SVGID_1_);fill:#6CE87D;}
	.st4{clip-path:url(#SVGID_1_);}
	.st5{clip-path:url(#SVGID_1_);fill:none;}
	.st6{clip-path:url(#SVGID_2_);}
	.st7{clip-path:url(#SVGID_3_);}
	.st8{clip-path:url(#SVGID_4_);}
	.st9{fill:none;stroke:#000000;stroke-width:0.602;stroke-linecap:round;stroke-miterlimit:10;}
	.st10{fill:#EDFF00;stroke:#000000;stroke-width:0.602;stroke-linecap:round;stroke-linejoin:bevel;stroke-miterlimit:10;}
	.st11{fill:none;stroke:#000000;stroke-width:0.602;stroke-linecap:round;stroke-miterlimit:10;stroke-dasharray:1.1921,2.3851;}
	.st12{clip-path:url(#SVGID_5_);fill:#6CE87D;}
	.st13{clip-path:url(#SVGID_5_);}
	.st14{clip-path:url(#SVGID_5_);fill:none;}
	.st15{clip-path:url(#SVGID_6_);}
	.st16{clip-path:url(#SVGID_7_);}
	.st17{clip-path:url(#SVGID_8_);}
	.st18{fill:none;stroke:#000000;stroke-width:0.602;stroke-linecap:round;stroke-miterlimit:10;stroke-dasharray:1.1865,2.3739;}
	.st19{clip-path:url(#SVGID_9_);fill:#6CE87D;}
	.st20{clip-path:url(#SVGID_9_);}
	.st21{clip-path:url(#SVGID_9_);fill:none;}
	.st22{clip-path:url(#SVGID_10_);}
	.st23{clip-path:url(#SVGID_11_);}
	.st24{clip-path:url(#SVGID_12_);}
	.st25{clip-path:url(#SVGID_13_);fill:#6CE87D;}
	.st26{clip-path:url(#SVGID_13_);}
	.st27{clip-path:url(#SVGID_13_);fill:none;}
	.st28{clip-path:url(#SVGID_14_);}
	.st29{clip-path:url(#SVGID_15_);}
	.st30{clip-path:url(#SVGID_16_);}
</style>
<polygon class="st0" points="291.07,64.97 17.9,64.97 17.27,0.3 290.44,0.3 "/>
<g>
	<path class="st1" d="M211.61,34.43"/>
</g>
<g>
	<path class="st1" d="M201.65,201.99"/>
</g>
<polygon class="st2" points="0.3,194.71 17.27,153.42 291.07,153.42 308.04,194.71 "/>
<polygon class="st2" points="0.79,200.84 0.3,194.71 308.04,194.71 308.53,200.84 "/>
<g>
	<g>
		<g>
			<g>
				<defs>
					<polygon id="SVGID_33_" points="34.64,32.64 60.99,17.33 87.51,32.64 61.16,47.95 					"/>
				</defs>
				<clipPath id="SVGID_1_">
					<use xlink:href="#SVGID_33_"  style="overflow:visible;"/>
				</clipPath>
				<path class="st3" d="M54.56,34.83l-0.05-0.03l-0.21,0.1l-1.11,0.37l0.58,0.33l0.63-0.64L54.56,34.83 M50.87,26.98l-0.53-0.3
					l-0.76,0.44l0.53,0.3c0.27,0.16,0.58,0.16,0.81,0.02C51.14,27.31,51.14,27.14,50.87,26.98 M55.24,29.5l-0.54-0.31l-0.71,0.41
					l0.54,0.31c0.26,0.15,0.53,0.16,0.76,0.03C55.52,29.8,55.49,29.65,55.24,29.5 M61.8,33.29l-0.54-0.31l-0.71,0.41l0.54,0.31
					c0.26,0.15,0.53,0.16,0.76,0.03C62.09,33.59,62.05,33.44,61.8,33.29 M59.52,31.91c-0.38-0.22-0.87-0.15-1.51,0.22
					c-0.64,0.37-0.77,0.66-0.38,0.88c0.38,0.22,0.87,0.15,1.51-0.22C59.78,32.42,59.9,32.14,59.52,31.91 M58.11,25.29l-0.54-0.31
					l-0.71,0.41l0.54,0.31c0.26,0.15,0.54,0.16,0.77,0.03C58.4,25.6,58.36,25.44,58.11,25.29 M55.83,23.92
					c-0.38-0.22-0.87-0.15-1.51,0.23c-0.64,0.37-0.77,0.65-0.38,0.87c0.38,0.22,0.87,0.15,1.51-0.22
					C56.09,24.42,56.21,24.14,55.83,23.92 M63.19,22.21l-0.05-0.03l-0.21,0.1l-1.11,0.37l0.57,0.33l0.63-0.64L63.19,22.21
					 M58.61,39.77l0.45-0.26l0.47,0.27l-0.45,0.26L58.61,39.77 M46,32.17c0.29,0.17,0.63,0.16,0.93-0.01l1.7-0.99l0.35,0.2
					l-1.7,0.99c-0.48,0.28-1.14,0.27-1.61,0c-0.48-0.28-0.49-0.66-0.01-0.94l1.7-0.99l0.35,0.2l-1.7,0.99
					C45.72,31.8,45.72,32,46,32.17 M51.23,33.06l0.33-0.19L53.53,34l-0.33,0.19l-0.8-0.46l-2.12,1.23l-0.35-0.2l2.12-1.23
					L51.23,33.06 M51.28,35.54l3.17-1.01l0.56,0.32l-1.73,1.84l-0.38-0.22l0.62-0.64l-0.76-0.44l-1.1,0.36L51.28,35.54 M55.8,35.67
					l0.32-0.18l1.61,0.93l-0.32,0.18l-0.63-0.36l-1.82,1.06l0.63,0.36l-0.32,0.18l-1.61-0.93l0.32-0.18l0.63,0.36l1.82-1.06
					L55.8,35.67 M57.41,38.68l0.05,0.03l2.11-1.22l0.35,0.2l-2.45,1.43l-0.57-0.33l1.17-1.36l0.29-0.23l-0.05-0.03l-2.11,1.22
					l-0.35-0.2l2.45-1.43l0.57,0.33l-1.16,1.36L57.41,38.68 M43.81,30.91c0.3,0.17,0.63,0.19,0.87,0.05
					c0.19-0.11,0.2-0.25-0.05-0.46l-0.22-0.18c-0.35-0.29-0.33-0.56,0.03-0.76c0.44-0.26,1.09-0.23,1.62,0.07
					c0.55,0.32,0.57,0.67,0.02,1l-0.38-0.22c0.35-0.2,0.37-0.39,0.02-0.6c-0.32-0.19-0.65-0.19-0.88-0.06
					c-0.19,0.11-0.19,0.25,0.06,0.46l0.22,0.19c0.34,0.29,0.33,0.56-0.03,0.77c-0.44,0.26-1.06,0.24-1.6-0.08
					c-0.57-0.33-0.6-0.67-0.02-1.01l0.38,0.22C43.48,30.5,43.46,30.71,43.81,30.91 M48.19,33.43c0.3,0.17,0.63,0.19,0.87,0.05
					c0.19-0.11,0.2-0.25-0.05-0.46l-0.22-0.18c-0.35-0.29-0.33-0.56,0.03-0.76c0.44-0.26,1.09-0.23,1.62,0.07
					c0.55,0.32,0.57,0.67,0.02,1l-0.38-0.22c0.35-0.2,0.37-0.39,0.02-0.6c-0.32-0.18-0.65-0.19-0.88-0.06
					c-0.19,0.11-0.19,0.25,0.06,0.46l0.22,0.19c0.34,0.29,0.33,0.56-0.04,0.77c-0.44,0.26-1.06,0.24-1.6-0.08
					c-0.57-0.33-0.59-0.67-0.02-1.01l0.38,0.22C47.85,33.03,47.83,33.23,48.19,33.43 M63.68,36.83l0.45-0.26l0.47,0.27l-0.45,0.26
					L63.68,36.83 M47.87,27.71l2.46-1.43l0.88,0.51c0.47,0.27,0.52,0.61,0.07,0.87c-0.44,0.26-1.03,0.23-1.5-0.04l-0.53-0.3
					l-1.03,0.6L47.87,27.71 M50.07,28.98l2.45-1.43l1.48,0.85l-0.33,0.19l-1.12-0.65l-0.73,0.42L52.91,29l-0.33,0.19l-1.09-0.63
					l-0.73,0.42l1.12,0.65l-0.33,0.19L50.07,28.98 M52.22,30.22l2.45-1.43l0.85,0.49c0.51,0.29,0.61,0.59,0.13,0.87
					c-0.44,0.26-0.95,0.18-1.41-0.07l-0.05,0.03l0.04,0.08l-0.35,0.99l-0.45-0.26l0.39-1.04l-0.16-0.09l-1.09,0.64L52.22,30.22
					 M54.51,31.54l2.45-1.43L58.51,31l-0.33,0.19l-1.19-0.69l-0.73,0.42l1.12,0.65l-0.33,0.19l-1.12-0.65l-1.06,0.62L54.51,31.54
					 M58.78,34.01l2.45-1.43l0.85,0.49c0.51,0.29,0.61,0.59,0.13,0.87c-0.44,0.26-0.95,0.18-1.41-0.07l-0.05,0.03l0.04,0.08
					l-0.35,0.99L60,34.71l0.39-1.04l-0.15-0.09l-1.09,0.64L58.78,34.01 M62.73,35.09l0.05,0.03l0.16-0.09l1.53-0.59l0.52,0.3
					l-2.45,1.43l-0.34-0.19l2.11-1.22l-0.05-0.03l-0.34,0.17l-1.34,0.49l-0.31-0.18l0.84-0.78l0.29-0.2l-0.05-0.03l-2.11,1.22
					l-0.33-0.19l2.45-1.43l0.52,0.3L62.88,35L62.73,35.09 M57.29,33.21c-0.61-0.35-0.49-0.8,0.34-1.28c0.84-0.49,1.6-0.56,2.21-0.2
					c0.61,0.35,0.49,0.8-0.35,1.28C58.67,33.49,57.91,33.56,57.29,33.21 M55.09,26.01l2.45-1.42l0.85,0.49
					c0.51,0.29,0.61,0.59,0.13,0.87c-0.44,0.26-0.95,0.18-1.41-0.07l-0.05,0.03l0.04,0.08l-0.35,0.99l-0.45-0.26l0.39-1.04
					l-0.15-0.09l-1.09,0.64L55.09,26.01 M59.36,26l0.32-0.18l1.61,0.93l-0.32,0.18l-0.63-0.36l-1.82,1.06l0.63,0.36l-0.32,0.18
					l-1.61-0.93l0.32-0.18l0.63,0.36l1.82-1.06L59.36,26 M63.74,28.53l0.32-0.18l1.61,0.93l-0.32,0.18l-0.63-0.36l-1.82,1.06
					l0.63,0.36l-0.32,0.18l-1.61-0.93l0.32-0.18l0.63,0.36l1.82-1.06L63.74,28.53 M65.35,31.53l0.05,0.03l2.11-1.22l0.35,0.2
					l-2.45,1.42l-0.57-0.33L66,30.28l0.29-0.24l-0.05-0.03l-2.11,1.22l-0.35-0.2l2.45-1.42l0.57,0.33l-1.16,1.36L65.35,31.53
					 M53.6,25.21c-0.61-0.35-0.49-0.8,0.35-1.28c0.84-0.49,1.6-0.56,2.22-0.2c0.61,0.35,0.49,0.8-0.35,1.28
					C54.98,25.49,54.21,25.57,53.6,25.21 M60.07,28.95c-0.53-0.3-0.38-0.74,0.45-1.22c0.86-0.5,1.61-0.56,2.27-0.17
					c0.51,0.29,0.48,0.71-0.06,1.02l-0.36-0.21c0.36-0.21,0.39-0.44,0.09-0.62c-0.43-0.25-0.9-0.19-1.57,0.19
					c-0.66,0.38-0.78,0.65-0.4,0.87c0.3,0.17,0.71,0.14,1.17-0.09l-0.58-0.33l0.33-0.19l0.92,0.53l-1.27,0.74l-0.35-0.2l0.63-0.26
					l-0.05-0.03C60.81,29.14,60.41,29.14,60.07,28.95 M59.47,22.27l0.05,0.03l2.11-1.22l0.35,0.2l-2.45,1.42l-0.57-0.33l1.16-1.36
					l0.29-0.24l-0.05-0.03l-2.11,1.22l-0.35-0.2l2.45-1.43l0.57,0.33l-1.16,1.36L59.47,22.27 M59.91,22.93l3.17-1.01l0.56,0.32
					l-1.73,1.84l-0.38-0.22l0.62-0.64l-0.76-0.44l-1.1,0.36L59.91,22.93 M64.1,24.15l0.05,0.03l0.16-0.09l1.53-0.59l0.52,0.3
					l-2.45,1.42l-0.33-0.19l2.11-1.22l-0.05-0.03l-0.34,0.17l-1.34,0.49l-0.31-0.18l0.84-0.78l0.29-0.2l-0.05-0.03l-2.11,1.22
					l-0.34-0.19l2.45-1.43l0.52,0.3l-1,0.89L64.1,24.15 M64.58,25.62l2.45-1.42l1.48,0.85l-0.33,0.19l-1.12-0.65l-0.73,0.42
					l1.09,0.63l-0.33,0.19l-1.09-0.63l-0.73,0.42l1.12,0.65l-0.33,0.19L64.58,25.62 M86.7,32.64L60.99,17.8L35.45,32.64l25.71,14.85
					L86.7,32.64"/>
				<path class="st4" d="M35.45,32.64L60.99,17.8L86.7,32.64L61.16,47.49L35.45,32.64z M87.51,32.64L60.99,17.33L34.64,32.64
					l26.52,15.31L87.51,32.64"/>
				<polygon class="st4" points="61.98,21.28 61.63,21.08 59.52,22.3 59.47,22.27 59.77,22.04 60.93,20.67 60.36,20.35 57.91,21.77 
					58.26,21.98 60.37,20.75 60.42,20.78 60.13,21.02 58.96,22.38 59.53,22.71 				"/>
				<path class="st4" d="M61.81,22.65l1.11-0.37l0.21-0.1l0.05,0.03l-0.17,0.12l-0.63,0.64L61.81,22.65z M63.64,22.24l-0.56-0.32
					l-3.17,1.01l0.38,0.22l1.1-0.36l0.76,0.44l-0.62,0.64l0.38,0.22L63.64,22.24"/>
				<polygon class="st4" points="66.36,23.81 65.84,23.51 64.31,24.1 64.15,24.18 64.1,24.15 64.25,24.06 65.26,23.17 64.74,22.87 
					62.29,24.3 62.62,24.49 64.73,23.27 64.78,23.3 64.48,23.49 63.64,24.27 63.95,24.45 65.29,23.96 65.63,23.79 65.68,23.82 
					63.57,25.04 63.91,25.23 				"/>
				<polygon class="st4" points="68.51,25.05 67.03,24.2 64.58,25.62 66.05,26.47 66.39,26.28 65.27,25.63 65.99,25.21 67.08,25.84 
					67.41,25.64 66.33,25.02 67.05,24.59 68.18,25.24 				"/>
				<path class="st4" d="M53.94,25.02c-0.38-0.22-0.26-0.5,0.38-0.87c0.64-0.37,1.13-0.45,1.51-0.23c0.38,0.22,0.26,0.5-0.38,0.88
					C54.81,25.17,54.32,25.24,53.94,25.02 M56.16,23.73c-0.61-0.35-1.38-0.28-2.21,0.2c-0.83,0.48-0.96,0.93-0.35,1.28
					c0.61,0.35,1.38,0.28,2.22-0.2C56.65,24.52,56.77,24.08,56.16,23.73"/>
				<path class="st4" d="M56.86,25.4l0.71-0.41l0.54,0.31c0.25,0.15,0.29,0.3,0.05,0.44c-0.23,0.13-0.51,0.12-0.77-0.03L56.86,25.4
					 M58.39,25.07l-0.85-0.49l-2.45,1.42l0.35,0.2l1.09-0.64l0.15,0.09l-0.39,1.04l0.45,0.26l0.35-0.99l-0.04-0.08l0.05-0.03
					c0.46,0.25,0.96,0.33,1.41,0.07C59,25.67,58.9,25.37,58.39,25.07"/>
				<polygon class="st4" points="61.29,26.75 59.68,25.82 59.36,26 59.99,26.37 58.17,27.42 57.54,27.06 57.23,27.24 58.84,28.17 
					59.15,27.99 58.52,27.63 60.34,26.57 60.97,26.93 				"/>
				<path class="st4" d="M62.79,27.55c-0.66-0.38-1.41-0.32-2.27,0.17c-0.83,0.48-0.98,0.92-0.45,1.22c0.34,0.19,0.74,0.19,1.2,0.01
					l0.05,0.03l-0.63,0.26l0.35,0.2l1.27-0.74l-0.92-0.53l-0.33,0.19l0.58,0.33c-0.46,0.23-0.87,0.26-1.17,0.09
					c-0.38-0.22-0.26-0.49,0.4-0.87c0.66-0.39,1.13-0.44,1.57-0.19c0.31,0.18,0.27,0.41-0.09,0.62l0.36,0.21
					C63.27,28.26,63.3,27.85,62.79,27.55"/>
				<polygon class="st4" points="65.67,29.27 64.06,28.35 63.74,28.53 64.37,28.89 62.55,29.95 61.92,29.59 61.6,29.77 63.21,30.7 
					63.53,30.52 62.9,30.15 64.72,29.09 65.35,29.46 				"/>
				<polygon class="st4" points="67.86,30.54 67.51,30.34 65.4,31.56 65.35,31.53 65.64,31.3 66.81,29.93 66.24,29.6 63.79,31.03 
					64.14,31.23 66.25,30.01 66.3,30.04 66,30.28 64.84,31.64 65.41,31.97 				"/>
				<path class="st4" d="M49.58,27.12l0.76-0.44l0.53,0.3c0.27,0.16,0.27,0.33,0.05,0.46c-0.23,0.13-0.54,0.13-0.81-0.02
					L49.58,27.12 M51.2,26.79l-0.88-0.51l-2.45,1.43l0.35,0.2l1.03-0.6l0.53,0.3c0.47,0.27,1.05,0.3,1.5,0.04
					C51.72,27.4,51.67,27.06,51.2,26.79"/>
				<polygon class="st4" points="54.01,28.4 52.53,27.55 50.07,28.98 51.55,29.83 51.88,29.64 50.76,28.99 51.49,28.57 52.58,29.19 
					52.91,29 51.82,28.37 52.55,27.95 53.67,28.6 				"/>
				<path class="st4" d="M53.98,29.6l0.71-0.41l0.54,0.31c0.25,0.14,0.29,0.3,0.05,0.44c-0.23,0.13-0.51,0.12-0.76-0.03L53.98,29.6
					 M55.52,29.28l-0.85-0.49l-2.45,1.43l0.35,0.2l1.09-0.64l0.16,0.09l-0.39,1.04l0.45,0.26l0.35-0.99l-0.04-0.08l0.05-0.03
					c0.46,0.25,0.96,0.33,1.41,0.07C56.13,29.87,56.03,29.57,55.52,29.28"/>
				<polygon class="st4" points="58.51,31 56.96,30.11 54.51,31.54 54.86,31.74 55.92,31.12 57.04,31.77 57.37,31.58 56.25,30.93 
					56.98,30.51 58.17,31.2 				"/>
				<path class="st4" d="M57.63,33.01c-0.38-0.22-0.26-0.5,0.38-0.88c0.64-0.37,1.13-0.45,1.51-0.22c0.38,0.22,0.26,0.5-0.38,0.88
					C58.5,33.16,58.01,33.24,57.63,33.01 M59.85,31.72c-0.61-0.35-1.38-0.28-2.21,0.2c-0.83,0.48-0.95,0.93-0.34,1.28
					c0.61,0.35,1.38,0.28,2.21-0.2C60.34,32.52,60.46,32.07,59.85,31.72"/>
				<path class="st4" d="M60.55,33.39l0.71-0.41l0.54,0.31c0.25,0.14,0.29,0.3,0.05,0.44c-0.23,0.13-0.51,0.12-0.76-0.03
					L60.55,33.39 M62.08,33.07l-0.85-0.49l-2.45,1.43l0.35,0.2l1.09-0.64l0.15,0.09L60,34.71l0.45,0.26l0.35-0.99l-0.04-0.08
					l0.05-0.03c0.46,0.25,0.96,0.33,1.41,0.07C62.69,33.66,62.59,33.36,62.08,33.07"/>
				<polygon class="st4" points="64.99,34.75 64.47,34.45 62.94,35.03 62.78,35.12 62.73,35.09 62.88,35 63.89,34.11 63.37,33.81 
					60.91,35.24 61.24,35.43 63.35,34.2 63.41,34.24 63.11,34.43 62.27,35.21 62.58,35.39 63.92,34.9 64.26,34.73 64.3,34.75 
					62.2,35.98 62.53,36.17 				"/>
				<polygon class="st4" points="64.6,36.84 64.13,36.57 63.68,36.83 64.14,37.1 				"/>
				<path class="st4" d="M46.05,29.62c-0.53-0.31-1.18-0.33-1.62-0.07c-0.35,0.21-0.37,0.47-0.03,0.76l0.22,0.18
					c0.25,0.21,0.24,0.35,0.05,0.46c-0.24,0.14-0.57,0.12-0.87-0.05c-0.35-0.2-0.33-0.4,0.02-0.61l-0.38-0.22
					c-0.58,0.33-0.55,0.68,0.02,1.01c0.54,0.31,1.16,0.33,1.6,0.08c0.37-0.21,0.38-0.48,0.03-0.77l-0.22-0.19
					c-0.25-0.21-0.24-0.35-0.06-0.46c0.23-0.13,0.56-0.13,0.88,0.06c0.35,0.2,0.33,0.39-0.02,0.6l0.38,0.22
					C46.63,30.29,46.61,29.94,46.05,29.62"/>
				<path class="st4" d="M48.98,31.37l-0.35-0.2l-1.7,0.99c-0.29,0.17-0.64,0.17-0.93,0.01c-0.28-0.16-0.29-0.37,0.01-0.54l1.7-0.99
					l-0.35-0.2l-1.7,0.99c-0.48,0.28-0.47,0.66,0.01,0.94c0.48,0.28,1.14,0.28,1.61,0L48.98,31.37"/>
				<path class="st4" d="M50.43,32.15c-0.53-0.31-1.18-0.33-1.62-0.07c-0.35,0.21-0.37,0.47-0.03,0.76l0.22,0.18
					c0.25,0.21,0.24,0.35,0.05,0.46c-0.24,0.14-0.57,0.12-0.87-0.05c-0.35-0.2-0.33-0.4,0.02-0.61l-0.38-0.22
					c-0.58,0.34-0.55,0.68,0.02,1.01c0.54,0.31,1.16,0.33,1.6,0.08c0.37-0.21,0.38-0.48,0.04-0.77l-0.22-0.19
					c-0.25-0.21-0.24-0.35-0.06-0.46c0.23-0.13,0.56-0.13,0.88,0.06c0.35,0.2,0.33,0.4-0.02,0.6l0.38,0.22
					C51,32.82,50.98,32.47,50.43,32.15"/>
				<polygon class="st4" points="53.53,34 51.57,32.86 51.23,33.06 52.04,33.52 49.92,34.75 50.27,34.96 52.39,33.73 53.2,34.19 
									"/>
				<path class="st4" d="M53.19,35.26l1.11-0.36l0.21-0.1l0.05,0.03l-0.17,0.12l-0.63,0.64L53.19,35.26z M55.02,34.86l-0.56-0.32
					l-3.17,1.01l0.38,0.22l1.1-0.36l0.76,0.44l-0.62,0.64l0.38,0.22L55.02,34.86"/>
				<polygon class="st4" points="57.73,36.42 56.12,35.49 55.8,35.67 56.43,36.04 54.61,37.1 53.98,36.73 53.66,36.92 55.27,37.85 
					55.59,37.66 54.96,37.3 56.79,36.24 57.41,36.6 				"/>
				<polygon class="st4" points="59.92,37.69 59.57,37.48 57.46,38.71 57.41,38.68 57.7,38.44 58.87,37.08 58.3,36.75 55.85,38.18 
					56.2,38.38 58.31,37.16 58.36,37.19 58.07,37.42 56.9,38.79 57.47,39.11 				"/>
				<polygon class="st4" points="59.53,39.78 59.07,39.51 58.61,39.77 59.08,40.04 				"/>
				<polygon class="st5" points="25.07,32.65 60.98,11.79 97.07,32.63 61.17,53.5 				"/>
			</g>
		</g>
		<g>
			<g>
				<defs>
					<polygon id="SVGID_35_" points="73.78,35.87 81.2,31.56 88.66,35.87 81.24,40.18 					"/>
				</defs>
				<clipPath id="SVGID_2_">
					<use xlink:href="#SVGID_35_"  style="overflow:visible;"/>
				</clipPath>
				<path class="st6" d="M77.92,37.8c-1.84-1.06-1.85-2.78-0.02-3.84c1.82-1.06,4.8-1.06,6.63,0c1.83,1.06,1.84,2.78,0.02,3.84
					C82.72,38.85,79.75,38.85,77.92,37.8 M84.93,33.72c-2.06-1.19-5.4-1.19-7.44,0c-2.05,1.19-2.03,3.12,0.02,4.31
					c2.06,1.19,5.39,1.19,7.44,0C87,36.84,86.99,34.91,84.93,33.72"/>
			</g>
		</g>
		<g>
			<defs>
				<rect id="SVGID_37_" x="31.82" y="30.21" width="9.25" height="5.36"/>
			</defs>
			<clipPath id="SVGID_3_">
				<use xlink:href="#SVGID_37_"  style="overflow:visible;"/>
			</clipPath>
			<g class="st7">
				<defs>
					<polygon id="SVGID_39_" points="31.82,32.89 36.43,30.21 41.07,32.89 36.46,35.57 					"/>
				</defs>
				<clipPath id="SVGID_4_">
					<use xlink:href="#SVGID_39_"  style="overflow:visible;"/>
				</clipPath>
				<path class="st8" d="M32.63,32.89l3.8-2.21l3.83,2.21l-3.8,2.21L32.63,32.89z M41.07,32.89l-4.64-2.68l-4.61,2.68l4.64,2.68
					L41.07,32.89"/>
			</g>
		</g>
	</g>
	<polygon class="st9" points="60.99,17.33 34.64,32.64 61.16,47.95 87.51,32.64 	"/>
	<polygon class="st10" points="87.51,161.08 87.51,174.29 61.16,189.6 34.64,174.29 34.64,161.08 60.99,145.77 	"/>
	<polygon class="st2" points="60.99,145.77 34.64,161.08 61.16,176.39 87.51,161.08 	"/>
	<line class="st2" x1="61.16" y1="176.39" x2="61.16" y2="189.6"/>
	<g>
		<g>
			<line class="st9" x1="60.98" y1="161.08" x2="60.98" y2="160.48"/>
			<line class="st11" x1="60.98" y1="158.09" x2="60.98" y2="51.97"/>
			<line class="st9" x1="60.98" y1="50.78" x2="60.98" y2="50.17"/>
		</g>
	</g>
</g>
<g>
	<path class="st10" d="M185.21,185.31c-1.54,0.59-2.91,0.85-4.11,0.85c-5.14,0-7.42-4.74-9.18-8.39c-0.73-1.52-1.42-2.95-2.23-4.08
		c-1.7-2.35-3.51-3.58-5.39-3.68c-2.85-0.12-5.12,2.37-5.14,2.4l-2.04-1.79c0.07-0.08,1-1.13,2.51-2.03l26.32-15.37l0,0
		c1.25-0.74,2.89-1.38,4.78-1.29c2.75,0.13,5.27,1.74,7.48,4.8c0.96,1.32,1.73,2.93,2.48,4.49c2.51,5.22,4.33,8.31,9.87,6.18
		l0.97,2.53L185.21,185.31z"/>
	<path class="st2" d="M181.1,186.17c-5.14,0-7.42-4.74-9.18-8.39c-0.73-1.52-1.42-2.95-2.23-4.08c-1.7-2.35-3.51-3.58-5.39-3.68
		c-2.85-0.12-5.12,2.37-5.14,2.4l-2.04-1.79c0.07-0.08,1-1.13,2.51-2.03c1.25-0.74,2.89-1.38,4.78-1.29
		c2.75,0.13,5.27,1.74,7.48,4.8c0.96,1.32,1.73,2.93,2.48,4.49c2.51,5.22,4.33,8.31,9.87,6.18l0.97,2.53
		C183.67,185.91,182.31,186.17,181.1,186.17z"/>
	<line class="st2" x1="184.24" y1="182.78" x2="210.56" y2="167.41"/>
	<line class="st2" x1="185.21" y1="185.31" x2="211.53" y2="169.94"/>
</g>
<g>
	<g>
		<g>
			<g>
				<defs>
					<polygon id="SVGID_41_" points="159.94,32.64 186.29,17.33 212.81,32.64 186.46,47.95 					"/>
				</defs>
				<clipPath id="SVGID_5_">
					<use xlink:href="#SVGID_41_"  style="overflow:visible;"/>
				</clipPath>
				<path class="st12" d="M179.86,34.83l-0.05-0.03l-0.21,0.1l-1.11,0.37l0.58,0.33l0.63-0.64L179.86,34.83 M176.17,26.98l-0.53-0.3
					l-0.76,0.44l0.53,0.3c0.27,0.16,0.58,0.16,0.81,0.02C176.45,27.31,176.44,27.14,176.17,26.98 M180.54,29.5l-0.54-0.31
					l-0.71,0.41l0.54,0.31c0.26,0.15,0.53,0.16,0.76,0.03C180.83,29.8,180.79,29.65,180.54,29.5 M187.1,33.29l-0.54-0.31l-0.71,0.41
					l0.54,0.31c0.26,0.15,0.53,0.16,0.76,0.03C187.39,33.59,187.35,33.44,187.1,33.29 M184.82,31.91c-0.38-0.22-0.87-0.15-1.51,0.22
					c-0.64,0.37-0.77,0.66-0.38,0.88c0.38,0.22,0.87,0.15,1.51-0.22C185.08,32.42,185.2,32.14,184.82,31.91 M183.41,25.29
					l-0.54-0.31l-0.71,0.41l0.54,0.31c0.26,0.15,0.54,0.16,0.77,0.03C183.7,25.6,183.66,25.44,183.41,25.29 M181.13,23.92
					c-0.38-0.22-0.87-0.15-1.51,0.23c-0.64,0.37-0.77,0.65-0.38,0.87c0.38,0.22,0.87,0.15,1.51-0.22
					C181.39,24.42,181.51,24.14,181.13,23.92 M188.49,22.21l-0.05-0.03l-0.21,0.1l-1.11,0.37l0.57,0.33l0.63-0.64L188.49,22.21
					 M183.92,39.77l0.45-0.26l0.47,0.27l-0.45,0.26L183.92,39.77 M171.3,32.17c0.29,0.17,0.63,0.16,0.93-0.01l1.7-0.99l0.35,0.2
					l-1.7,0.99c-0.48,0.28-1.14,0.27-1.61,0c-0.48-0.28-0.49-0.66-0.01-0.94l1.7-0.99l0.35,0.2l-1.7,0.99
					C171.02,31.8,171.02,32,171.3,32.17 M176.54,33.06l0.33-0.19l1.96,1.13l-0.33,0.19l-0.8-0.46l-2.12,1.23l-0.35-0.2l2.12-1.23
					L176.54,33.06 M176.59,35.54l3.17-1.01l0.56,0.32l-1.73,1.84l-0.38-0.22l0.62-0.64l-0.76-0.44l-1.1,0.36L176.59,35.54
					 M181.11,35.67l0.32-0.18l1.61,0.93l-0.32,0.18l-0.63-0.36l-1.82,1.06l0.63,0.36l-0.32,0.18l-1.61-0.93l0.32-0.18l0.63,0.36
					l1.82-1.06L181.11,35.67 M182.72,38.68l0.05,0.03l2.11-1.22l0.35,0.2l-2.45,1.43l-0.57-0.33l1.17-1.36l0.29-0.23l-0.05-0.03
					l-2.11,1.22l-0.35-0.2l2.45-1.43l0.57,0.33l-1.16,1.36L182.72,38.68 M169.11,30.91c0.3,0.17,0.63,0.19,0.87,0.05
					c0.19-0.11,0.2-0.25-0.05-0.46l-0.22-0.18c-0.35-0.29-0.33-0.56,0.03-0.76c0.44-0.26,1.09-0.23,1.62,0.07
					c0.55,0.32,0.57,0.67,0.02,1L171,30.4c0.35-0.2,0.37-0.39,0.02-0.6c-0.32-0.19-0.65-0.19-0.88-0.06
					c-0.19,0.11-0.19,0.25,0.06,0.46l0.22,0.19c0.34,0.29,0.33,0.56-0.03,0.77c-0.44,0.26-1.06,0.24-1.6-0.08
					c-0.57-0.33-0.6-0.67-0.02-1.01l0.38,0.22C168.78,30.5,168.76,30.71,169.11,30.91 M173.49,33.43c0.3,0.17,0.63,0.19,0.87,0.05
					c0.19-0.11,0.2-0.25-0.05-0.46l-0.22-0.18c-0.35-0.29-0.33-0.56,0.03-0.76c0.44-0.26,1.09-0.23,1.62,0.07
					c0.55,0.32,0.57,0.67,0.02,1l-0.38-0.22c0.35-0.2,0.37-0.39,0.02-0.6c-0.32-0.18-0.65-0.19-0.88-0.06
					c-0.19,0.11-0.19,0.25,0.06,0.46l0.22,0.19c0.34,0.29,0.33,0.56-0.04,0.77c-0.44,0.26-1.06,0.24-1.6-0.08
					c-0.57-0.33-0.6-0.67-0.02-1.01l0.38,0.22C173.16,33.03,173.14,33.23,173.49,33.43 M188.98,36.83l0.45-0.26l0.47,0.27
					l-0.45,0.26L188.98,36.83 M173.17,27.71l2.46-1.43l0.88,0.51c0.47,0.27,0.52,0.61,0.07,0.87c-0.44,0.26-1.03,0.23-1.5-0.04
					l-0.53-0.3l-1.03,0.6L173.17,27.71 M175.38,28.98l2.45-1.43l1.48,0.85l-0.33,0.19l-1.12-0.65l-0.73,0.42l1.09,0.63l-0.33,0.19
					l-1.09-0.63l-0.73,0.42l1.12,0.65l-0.33,0.19L175.38,28.98 M177.52,30.22l2.45-1.43l0.85,0.49c0.51,0.29,0.61,0.59,0.13,0.87
					c-0.44,0.26-0.95,0.18-1.41-0.07l-0.05,0.03l0.04,0.08l-0.35,0.99l-0.45-0.26l0.39-1.04l-0.16-0.09l-1.09,0.64L177.52,30.22
					 M179.81,31.54l2.45-1.43l1.55,0.89l-0.33,0.19l-1.19-0.69l-0.73,0.42l1.12,0.65l-0.33,0.19l-1.12-0.65l-1.06,0.62L179.81,31.54
					 M184.08,34.01l2.45-1.43l0.85,0.49c0.51,0.29,0.61,0.59,0.13,0.87c-0.44,0.26-0.95,0.18-1.41-0.07l-0.05,0.03l0.04,0.08
					l-0.35,0.99l-0.45-0.26l0.39-1.04l-0.15-0.09l-1.09,0.64L184.08,34.01 M188.03,35.09l0.05,0.03l0.16-0.09l1.53-0.59l0.52,0.3
					l-2.45,1.43l-0.34-0.19l2.11-1.22l-0.05-0.03l-0.34,0.17l-1.34,0.49l-0.31-0.18l0.84-0.78l0.29-0.2l-0.05-0.03l-2.11,1.22
					l-0.33-0.19l2.45-1.43l0.52,0.3L188.18,35L188.03,35.09 M182.6,33.21c-0.61-0.35-0.49-0.8,0.34-1.28
					c0.84-0.49,1.6-0.56,2.21-0.2c0.61,0.35,0.49,0.8-0.35,1.28C183.98,33.49,183.21,33.56,182.6,33.21 M180.4,26.01l2.45-1.42
					l0.85,0.49c0.51,0.29,0.61,0.59,0.13,0.87c-0.44,0.26-0.95,0.18-1.41-0.07l-0.05,0.03l0.04,0.08l-0.35,0.99l-0.45-0.26
					l0.39-1.04l-0.15-0.09l-1.09,0.64L180.4,26.01 M184.67,26l0.32-0.18l1.61,0.93l-0.32,0.18l-0.63-0.36l-1.82,1.06l0.63,0.36
					l-0.32,0.18l-1.61-0.93l0.32-0.18l0.63,0.36l1.82-1.06L184.67,26 M189.04,28.53l0.32-0.18l1.61,0.93l-0.32,0.18l-0.63-0.36
					l-1.82,1.06l0.63,0.36l-0.32,0.18l-1.61-0.93l0.32-0.18l0.63,0.36l1.82-1.06L189.04,28.53 M190.65,31.53l0.05,0.03l2.11-1.22
					l0.35,0.2l-2.45,1.42l-0.57-0.33l1.16-1.36l0.29-0.24l-0.05-0.03l-2.11,1.22l-0.35-0.2l2.45-1.42l0.57,0.33l-1.16,1.36
					L190.65,31.53 M178.9,25.21c-0.61-0.35-0.49-0.8,0.35-1.28c0.84-0.49,1.6-0.56,2.22-0.2c0.61,0.35,0.49,0.8-0.35,1.28
					C180.29,25.49,179.52,25.57,178.9,25.21 M185.37,28.95c-0.53-0.3-0.38-0.74,0.45-1.22c0.86-0.5,1.61-0.56,2.27-0.17
					c0.51,0.29,0.48,0.71-0.06,1.02l-0.36-0.21c0.36-0.21,0.39-0.44,0.09-0.62c-0.43-0.25-0.9-0.19-1.57,0.19
					c-0.66,0.38-0.78,0.65-0.4,0.87c0.3,0.17,0.71,0.14,1.17-0.09l-0.58-0.33l0.33-0.19l0.92,0.53l-1.27,0.74l-0.35-0.2l0.63-0.26
					l-0.05-0.03C186.11,29.14,185.71,29.14,185.37,28.95 M184.77,22.27l0.05,0.03l2.11-1.22l0.35,0.2l-2.45,1.42l-0.57-0.33
					l1.16-1.36l0.29-0.24l-0.05-0.03l-2.11,1.22l-0.35-0.2l2.45-1.43l0.57,0.33l-1.16,1.36L184.77,22.27 M185.21,22.93l3.17-1.01
					l0.56,0.32l-1.73,1.84l-0.38-0.22l0.62-0.64l-0.76-0.44l-1.1,0.36L185.21,22.93 M189.4,24.15l0.05,0.03l0.16-0.09l1.53-0.59
					l0.52,0.3l-2.45,1.42l-0.33-0.19l2.11-1.22l-0.05-0.03l-0.34,0.17l-1.34,0.49l-0.31-0.18l0.84-0.78l0.29-0.2l-0.05-0.03
					l-2.11,1.22l-0.34-0.19l2.45-1.43l0.52,0.3l-1,0.89L189.4,24.15 M189.88,25.62l2.45-1.42l1.48,0.85l-0.33,0.19l-1.12-0.65
					l-0.73,0.42l1.09,0.63l-0.33,0.19l-1.09-0.63l-0.73,0.42l1.12,0.65l-0.33,0.19L189.88,25.62 M212.01,32.64L186.29,17.8
					l-25.54,14.84l25.71,14.85L212.01,32.64"/>
				<path class="st13" d="M160.75,32.64l25.54-14.85l25.71,14.84l-25.55,14.85L160.75,32.64z M212.81,32.64l-26.52-15.31
					l-26.35,15.31l26.52,15.31L212.81,32.64"/>
				<polygon class="st13" points="187.29,21.28 186.93,21.08 184.83,22.3 184.77,22.27 185.07,22.04 186.23,20.67 185.66,20.35 
					183.21,21.77 183.56,21.98 185.67,20.75 185.72,20.78 185.43,21.02 184.27,22.38 184.84,22.71 				"/>
				<path class="st13" d="M187.11,22.65l1.11-0.37l0.21-0.1l0.05,0.03l-0.17,0.12l-0.63,0.64L187.11,22.65z M188.94,22.24
					l-0.56-0.32l-3.17,1.01l0.38,0.22l1.1-0.36l0.76,0.44l-0.62,0.64l0.38,0.22L188.94,22.24"/>
				<polygon class="st13" points="191.66,23.81 191.14,23.51 189.62,24.1 189.46,24.18 189.4,24.15 189.56,24.06 190.56,23.17 
					190.04,22.87 187.59,24.3 187.92,24.49 190.03,23.27 190.08,23.3 189.79,23.49 188.95,24.27 189.25,24.45 190.59,23.96 
					190.93,23.79 190.98,23.82 188.88,25.04 189.21,25.23 				"/>
				<polygon class="st13" points="193.81,25.05 192.33,24.2 189.88,25.62 191.36,26.47 191.69,26.28 190.57,25.63 191.29,25.21 
					192.38,25.84 192.71,25.64 191.63,25.02 192.36,24.59 193.48,25.24 				"/>
				<path class="st13" d="M179.24,25.02c-0.38-0.22-0.26-0.5,0.38-0.87c0.64-0.37,1.13-0.45,1.51-0.23c0.38,0.22,0.26,0.5-0.38,0.88
					C180.11,25.17,179.62,25.24,179.24,25.02 M181.46,23.73c-0.61-0.35-1.38-0.28-2.21,0.2c-0.83,0.48-0.96,0.93-0.35,1.28
					c0.61,0.35,1.38,0.28,2.22-0.2C181.95,24.52,182.08,24.08,181.46,23.73"/>
				<path class="st13" d="M182.16,25.4l0.71-0.41l0.54,0.31c0.25,0.15,0.29,0.3,0.05,0.44c-0.23,0.13-0.51,0.12-0.77-0.03
					L182.16,25.4 M183.69,25.07l-0.85-0.49l-2.45,1.42l0.35,0.2l1.09-0.64l0.15,0.09l-0.39,1.04l0.45,0.26l0.35-0.99l-0.04-0.08
					l0.05-0.03c0.46,0.25,0.96,0.33,1.41,0.07C184.31,25.67,184.2,25.37,183.69,25.07"/>
				<polygon class="st13" points="186.59,26.75 184.98,25.82 184.67,26 185.3,26.37 183.47,27.42 182.85,27.06 182.53,27.24 
					184.14,28.17 184.45,27.99 183.83,27.63 185.65,26.57 186.28,26.93 				"/>
				<path class="st13" d="M188.09,27.55c-0.66-0.38-1.41-0.32-2.27,0.17c-0.83,0.48-0.98,0.92-0.45,1.22
					c0.34,0.19,0.74,0.19,1.2,0.01l0.05,0.03L186,29.25l0.35,0.2l1.27-0.74l-0.92-0.53l-0.33,0.19l0.58,0.33
					c-0.46,0.23-0.87,0.26-1.17,0.09c-0.38-0.22-0.26-0.49,0.4-0.87c0.66-0.39,1.13-0.44,1.57-0.19c0.31,0.18,0.27,0.41-0.09,0.62
					l0.36,0.21C188.57,28.26,188.6,27.85,188.09,27.55"/>
				<polygon class="st13" points="190.97,29.27 189.36,28.35 189.04,28.53 189.67,28.89 187.85,29.95 187.22,29.59 186.91,29.77 
					188.52,30.7 188.83,30.52 188.2,30.15 190.02,29.09 190.65,29.46 				"/>
				<polygon class="st13" points="193.16,30.54 192.81,30.34 190.7,31.56 190.65,31.53 190.95,31.3 192.11,29.93 191.54,29.6 
					189.09,31.03 189.44,31.23 191.55,30.01 191.6,30.04 191.31,30.28 190.14,31.64 190.71,31.97 				"/>
				<path class="st13" d="M174.89,27.12l0.76-0.44l0.53,0.3c0.27,0.16,0.27,0.33,0.04,0.46c-0.23,0.13-0.54,0.13-0.81-0.02
					L174.89,27.12 M176.51,26.79l-0.88-0.51l-2.45,1.43l0.35,0.2l1.03-0.6l0.53,0.3c0.47,0.27,1.05,0.3,1.5,0.04
					C177.02,27.4,176.97,27.06,176.51,26.79"/>
				<polygon class="st13" points="179.31,28.4 177.83,27.55 175.38,28.98 176.85,29.83 177.19,29.64 176.06,28.99 176.79,28.57 
					177.88,29.19 178.21,29 177.13,28.37 177.85,27.95 178.97,28.6 				"/>
				<path class="st13" d="M179.28,29.6l0.71-0.41l0.54,0.31c0.25,0.14,0.29,0.3,0.05,0.44c-0.23,0.13-0.51,0.12-0.76-0.03
					L179.28,29.6 M180.82,29.28l-0.85-0.49l-2.45,1.43l0.35,0.2l1.09-0.64l0.16,0.09l-0.39,1.04l0.45,0.26l0.35-0.99l-0.04-0.08
					l0.05-0.03c0.46,0.25,0.96,0.33,1.41,0.07C181.43,29.87,181.33,29.57,180.82,29.28"/>
				<polygon class="st13" points="183.81,31 182.26,30.11 179.81,31.54 180.16,31.74 181.22,31.12 182.34,31.77 182.68,31.58 
					181.55,30.93 182.28,30.51 183.48,31.2 				"/>
				<path class="st13" d="M182.93,33.01c-0.38-0.22-0.26-0.5,0.38-0.88c0.64-0.37,1.13-0.45,1.51-0.22c0.38,0.22,0.26,0.5-0.38,0.88
					C183.8,33.16,183.31,33.24,182.93,33.01 M185.15,31.72c-0.61-0.35-1.38-0.28-2.21,0.2c-0.83,0.48-0.95,0.93-0.34,1.28
					c0.61,0.35,1.38,0.28,2.21-0.2C185.64,32.52,185.77,32.07,185.15,31.72"/>
				<path class="st13" d="M185.85,33.39l0.71-0.41l0.54,0.31c0.25,0.14,0.29,0.3,0.05,0.44c-0.23,0.13-0.51,0.12-0.76-0.03
					L185.85,33.39 M187.39,33.07l-0.85-0.49l-2.45,1.43l0.35,0.2l1.09-0.64l0.15,0.09l-0.39,1.04l0.45,0.26l0.35-0.99l-0.04-0.08
					l0.05-0.03c0.46,0.25,0.96,0.33,1.41,0.07C187.99,33.66,187.89,33.36,187.39,33.07"/>
				<polygon class="st13" points="190.29,34.75 189.77,34.45 188.24,35.03 188.08,35.12 188.03,35.09 188.18,35 189.19,34.11 
					188.67,33.81 186.21,35.24 186.55,35.43 188.65,34.2 188.71,34.24 188.41,34.43 187.57,35.21 187.88,35.39 189.22,34.9 
					189.56,34.73 189.61,34.75 187.5,35.98 187.84,36.17 				"/>
				<polygon class="st13" points="189.9,36.84 189.43,36.57 188.98,36.83 189.44,37.1 				"/>
				<path class="st13" d="M171.36,29.62c-0.53-0.31-1.18-0.33-1.62-0.07c-0.35,0.21-0.37,0.47-0.03,0.76l0.22,0.18
					c0.25,0.21,0.24,0.35,0.05,0.46c-0.24,0.14-0.57,0.12-0.87-0.05c-0.35-0.2-0.33-0.4,0.02-0.61l-0.38-0.22
					c-0.58,0.33-0.55,0.68,0.02,1.01c0.54,0.31,1.16,0.33,1.6,0.08c0.37-0.21,0.38-0.48,0.03-0.77l-0.22-0.19
					c-0.25-0.21-0.24-0.35-0.06-0.46c0.23-0.13,0.56-0.13,0.88,0.06c0.35,0.2,0.33,0.39-0.02,0.6l0.38,0.22
					C171.93,30.29,171.91,29.94,171.36,29.62"/>
				<path class="st13" d="M174.29,31.37l-0.35-0.2l-1.7,0.99c-0.29,0.17-0.64,0.17-0.93,0.01c-0.28-0.16-0.29-0.37,0.01-0.54
					l1.7-0.99l-0.35-0.2l-1.7,0.99c-0.48,0.28-0.47,0.66,0.01,0.94c0.48,0.28,1.14,0.28,1.61,0L174.29,31.37"/>
				<path class="st13" d="M175.73,32.15c-0.53-0.31-1.18-0.33-1.62-0.07c-0.35,0.21-0.37,0.47-0.03,0.76l0.22,0.18
					c0.25,0.21,0.24,0.35,0.05,0.46c-0.24,0.14-0.57,0.12-0.87-0.05c-0.35-0.2-0.33-0.4,0.02-0.61l-0.38-0.22
					c-0.58,0.34-0.55,0.68,0.02,1.01c0.54,0.31,1.16,0.33,1.6,0.08c0.37-0.21,0.38-0.48,0.04-0.77l-0.22-0.19
					c-0.25-0.21-0.24-0.35-0.06-0.46c0.23-0.13,0.56-0.13,0.88,0.06c0.35,0.2,0.33,0.4-0.02,0.6l0.38,0.22
					C176.31,32.82,176.29,32.47,175.73,32.15"/>
				<polygon class="st13" points="178.83,34 176.87,32.86 176.54,33.06 177.34,33.52 175.22,34.75 175.57,34.96 177.7,33.73 
					178.5,34.19 				"/>
				<path class="st13" d="M178.49,35.26l1.11-0.36l0.21-0.1l0.05,0.03l-0.17,0.12l-0.63,0.64L178.49,35.26z M180.32,34.86
					l-0.56-0.32l-3.17,1.01l0.38,0.22l1.1-0.36l0.76,0.44l-0.62,0.64l0.38,0.22L180.32,34.86"/>
				<polygon class="st13" points="183.03,36.42 181.42,35.49 181.11,35.67 181.74,36.04 179.91,37.1 179.28,36.73 178.97,36.92 
					180.58,37.85 180.89,37.66 180.27,37.3 182.09,36.24 182.72,36.6 				"/>
				<polygon class="st13" points="185.23,37.69 184.87,37.48 182.77,38.71 182.72,38.68 183.01,38.44 184.17,37.08 183.61,36.75 
					181.15,38.18 181.5,38.38 183.61,37.16 183.66,37.19 183.37,37.42 182.2,38.79 182.77,39.11 				"/>
				<polygon class="st13" points="184.83,39.78 184.37,39.51 183.92,39.77 184.38,40.04 				"/>
				<polygon class="st14" points="150.37,32.65 186.28,11.79 222.38,32.63 186.47,53.5 				"/>
			</g>
		</g>
		<g>
			<g>
				<defs>
					<polygon id="SVGID_43_" points="199.08,35.87 206.5,31.56 213.96,35.87 206.55,40.18 					"/>
				</defs>
				<clipPath id="SVGID_6_">
					<use xlink:href="#SVGID_43_"  style="overflow:visible;"/>
				</clipPath>
				<path class="st15" d="M203.22,37.8c-1.84-1.06-1.85-2.78-0.02-3.84c1.82-1.06,4.8-1.06,6.63,0c1.83,1.06,1.84,2.78,0.02,3.84
					C208.03,38.85,205.05,38.85,203.22,37.8 M210.23,33.72c-2.06-1.19-5.4-1.19-7.44,0c-2.05,1.19-2.03,3.12,0.02,4.31
					c2.06,1.19,5.39,1.19,7.44,0C212.3,36.84,212.29,34.91,210.23,33.72"/>
			</g>
		</g>
		<g>
			<defs>
				<rect id="SVGID_45_" x="157.12" y="30.21" width="9.25" height="5.36"/>
			</defs>
			<clipPath id="SVGID_7_">
				<use xlink:href="#SVGID_45_"  style="overflow:visible;"/>
			</clipPath>
			<g class="st16">
				<defs>
					<polygon id="SVGID_47_" points="157.12,32.89 161.73,30.21 166.38,32.89 161.77,35.57 					"/>
				</defs>
				<clipPath id="SVGID_8_">
					<use xlink:href="#SVGID_47_"  style="overflow:visible;"/>
				</clipPath>
				<path class="st17" d="M157.93,32.89l3.8-2.21l3.83,2.21l-3.8,2.21L157.93,32.89z M166.38,32.89l-4.64-2.68l-4.61,2.68l4.64,2.68
					L166.38,32.89"/>
			</g>
		</g>
	</g>
	<polygon class="st9" points="186.29,17.33 159.94,32.64 186.46,47.95 212.81,32.64 	"/>
	<g>
		<g>
			<line class="st9" x1="186.28" y1="167.68" x2="186.28" y2="167.08"/>
			<line class="st18" x1="186.28" y1="164.71" x2="186.28" y2="51.96"/>
			<line class="st9" x1="186.28" y1="50.78" x2="186.28" y2="50.17"/>
		</g>
	</g>
</g>
<g>
	<path class="st10" d="M122.69,149.82c-11.18,0-20.25,4.92-20.25,11v14.1c0,6.07,9.07,11,20.25,11c11.18,0,20.25-4.92,20.25-11
		v-14.1C142.94,154.74,133.87,149.82,122.69,149.82z M122.68,170.37c-4.76,0-9.18-0.96-12.54-2.5c3.36-1.55,7.77-2.5,12.54-2.5
		c4.76,0,9.18,0.96,12.54,2.5C131.87,169.41,127.45,170.37,122.68,170.37z"/>
	<ellipse class="st2" cx="122.69" cy="160.81" rx="20.25" ry="11"/>
	<path class="st2" d="M122.69,170.37c-10.19,0-18.81-4.38-18.81-9.56c0-5.18,8.61-9.55,18.81-9.55c10.19,0,18.81,4.38,18.81,9.55
		C141.49,165.99,132.88,170.37,122.69,170.37z"/>
	<path class="st2" d="M110.15,167.87c3.36-1.55,7.77-2.5,12.54-2.5c4.76,0,9.18,0.96,12.54,2.5"/>
</g>
<g>
	<g>
		<g>
			<g>
				<defs>
					<polygon id="SVGID_49_" points="222.78,32.64 249.13,17.33 275.65,32.64 249.31,47.95 					"/>
				</defs>
				<clipPath id="SVGID_9_">
					<use xlink:href="#SVGID_49_"  style="overflow:visible;"/>
				</clipPath>
				<path class="st19" d="M242.71,34.83l-0.05-0.03l-0.21,0.1l-1.11,0.37l0.58,0.33l0.63-0.64L242.71,34.83 M239.02,26.98l-0.53-0.3
					l-0.76,0.44l0.53,0.3c0.27,0.16,0.58,0.16,0.81,0.02C239.29,27.31,239.29,27.14,239.02,26.98 M243.38,29.5l-0.54-0.31
					l-0.71,0.41l0.54,0.31c0.26,0.15,0.53,0.16,0.76,0.03C243.67,29.8,243.63,29.65,243.38,29.5 M249.94,33.29l-0.54-0.31
					l-0.71,0.41l0.54,0.31c0.26,0.15,0.53,0.16,0.76,0.03C250.23,33.59,250.2,33.44,249.94,33.29 M247.66,31.91
					c-0.38-0.22-0.87-0.15-1.51,0.22c-0.64,0.37-0.77,0.66-0.38,0.88c0.38,0.22,0.87,0.15,1.51-0.22
					C247.93,32.42,248.05,32.14,247.66,31.91 M246.25,25.29l-0.54-0.31L245,25.4l0.54,0.31c0.26,0.15,0.54,0.16,0.77,0.03
					C246.55,25.6,246.51,25.44,246.25,25.29 M243.97,23.92c-0.38-0.22-0.87-0.15-1.51,0.23c-0.64,0.37-0.77,0.65-0.38,0.87
					c0.38,0.22,0.87,0.15,1.51-0.22C244.24,24.42,244.36,24.14,243.97,23.92 M251.33,22.21l-0.05-0.03l-0.21,0.1l-1.11,0.37
					l0.57,0.33l0.63-0.64L251.33,22.21 M246.76,39.77l0.45-0.26l0.47,0.27l-0.45,0.26L246.76,39.77 M234.15,32.17
					c0.29,0.17,0.63,0.16,0.93-0.01l1.7-0.99l0.35,0.2l-1.7,0.99c-0.48,0.28-1.14,0.27-1.61,0c-0.48-0.28-0.49-0.66-0.01-0.94
					l1.7-0.99l0.35,0.2l-1.7,0.99C233.86,31.8,233.86,32,234.15,32.17 M239.38,33.06l0.33-0.19l1.96,1.13l-0.33,0.19l-0.8-0.46
					l-2.12,1.23l-0.35-0.2l2.12-1.23L239.38,33.06 M239.43,35.54l3.17-1.01l0.56,0.32l-1.73,1.84l-0.38-0.22l0.62-0.64l-0.76-0.44
					l-1.1,0.36L239.43,35.54 M243.95,35.67l0.32-0.18l1.61,0.93l-0.32,0.18l-0.63-0.36l-1.82,1.06l0.63,0.36l-0.32,0.18l-1.61-0.93
					l0.32-0.18l0.63,0.36l1.82-1.06L243.95,35.67 M245.56,38.68l0.05,0.03l2.11-1.22l0.35,0.2l-2.45,1.43l-0.57-0.33l1.17-1.36
					l0.29-0.23l-0.05-0.03l-2.11,1.22l-0.35-0.2l2.45-1.43l0.57,0.33l-1.16,1.36L245.56,38.68 M231.95,30.91
					c0.3,0.17,0.63,0.19,0.87,0.05c0.19-0.11,0.2-0.25-0.05-0.46l-0.22-0.18c-0.35-0.29-0.33-0.56,0.03-0.76
					c0.44-0.26,1.09-0.23,1.62,0.07c0.55,0.32,0.57,0.67,0.02,1l-0.38-0.22c0.35-0.2,0.37-0.39,0.02-0.6
					c-0.32-0.19-0.65-0.19-0.88-0.06c-0.19,0.11-0.19,0.25,0.06,0.46l0.22,0.19c0.34,0.29,0.33,0.56-0.03,0.77
					c-0.44,0.26-1.06,0.24-1.6-0.08c-0.57-0.33-0.6-0.67-0.02-1.01l0.38,0.22C231.62,30.5,231.6,30.71,231.95,30.91 M236.33,33.43
					c0.3,0.17,0.63,0.19,0.87,0.05c0.19-0.11,0.2-0.25-0.05-0.46l-0.22-0.18c-0.35-0.29-0.33-0.56,0.03-0.76
					c0.44-0.26,1.09-0.23,1.62,0.07c0.55,0.32,0.57,0.67,0.02,1l-0.38-0.22c0.35-0.2,0.37-0.39,0.02-0.6
					c-0.32-0.18-0.65-0.19-0.88-0.06c-0.19,0.11-0.19,0.25,0.06,0.46l0.22,0.19c0.34,0.29,0.33,0.56-0.04,0.77
					c-0.44,0.26-1.06,0.24-1.6-0.08c-0.57-0.33-0.59-0.67-0.02-1.01l0.38,0.22C236,33.03,235.98,33.23,236.33,33.43 M251.82,36.83
					l0.45-0.26l0.47,0.27l-0.45,0.26L251.82,36.83 M236.02,27.71l2.46-1.43l0.88,0.51c0.47,0.27,0.52,0.61,0.07,0.87
					c-0.44,0.26-1.03,0.23-1.5-0.04l-0.53-0.3l-1.03,0.6L236.02,27.71 M238.22,28.98l2.45-1.43l1.48,0.85l-0.33,0.19l-1.12-0.65
					l-0.73,0.42l1.09,0.63l-0.33,0.19l-1.09-0.63l-0.73,0.42l1.12,0.65l-0.33,0.19L238.22,28.98 M240.37,30.22l2.45-1.43l0.85,0.49
					c0.51,0.29,0.61,0.59,0.13,0.87c-0.44,0.26-0.95,0.18-1.41-0.07l-0.05,0.03l0.04,0.08l-0.35,0.99l-0.45-0.26l0.39-1.04
					l-0.16-0.09l-1.09,0.64L240.37,30.22 M242.65,31.54l2.45-1.43l1.55,0.89l-0.33,0.19l-1.19-0.69l-0.73,0.42l1.12,0.65l-0.33,0.19
					l-1.12-0.65L243,31.74L242.65,31.54 M246.93,34.01l2.45-1.43l0.85,0.49c0.51,0.29,0.61,0.59,0.13,0.87
					c-0.44,0.26-0.95,0.18-1.41-0.07l-0.05,0.03l0.04,0.08l-0.35,0.99l-0.45-0.26l0.39-1.04l-0.15-0.09l-1.09,0.64L246.93,34.01
					 M250.87,35.09l0.05,0.03l0.16-0.09l1.53-0.59l0.52,0.3l-2.45,1.43l-0.34-0.19l2.11-1.22l-0.05-0.03l-0.34,0.17l-1.34,0.49
					l-0.31-0.18l0.84-0.78l0.29-0.2l-0.05-0.03l-2.11,1.22l-0.33-0.19l2.45-1.43l0.52,0.3L251.02,35L250.87,35.09 M245.44,33.21
					c-0.61-0.35-0.49-0.8,0.34-1.28c0.84-0.49,1.6-0.56,2.21-0.2c0.61,0.35,0.49,0.8-0.35,1.28
					C246.82,33.49,246.05,33.56,245.44,33.21 M243.24,26.01l2.45-1.42l0.85,0.49c0.51,0.29,0.61,0.59,0.13,0.87
					c-0.44,0.26-0.95,0.18-1.41-0.07l-0.05,0.03l0.04,0.08l-0.35,0.99l-0.45-0.26l0.39-1.04l-0.15-0.09l-1.09,0.64L243.24,26.01
					 M247.51,26l0.32-0.18l1.61,0.93l-0.32,0.18l-0.63-0.36l-1.82,1.06l0.63,0.36l-0.32,0.18l-1.61-0.93l0.32-0.18l0.63,0.36
					l1.82-1.06L247.51,26 M251.89,28.53l0.32-0.18l1.61,0.93l-0.32,0.18l-0.63-0.36l-1.82,1.06l0.63,0.36l-0.32,0.18l-1.61-0.93
					l0.32-0.18l0.63,0.36l1.82-1.06L251.89,28.53 M253.5,31.53l0.05,0.03l2.11-1.22l0.35,0.2l-2.45,1.42l-0.57-0.33l1.16-1.36
					l0.29-0.24l-0.05-0.03l-2.11,1.22l-0.35-0.2l2.45-1.42l0.57,0.33l-1.16,1.36L253.5,31.53 M241.75,25.21
					c-0.61-0.35-0.49-0.8,0.35-1.28c0.84-0.49,1.6-0.56,2.22-0.2c0.61,0.35,0.49,0.8-0.35,1.28
					C243.13,25.49,242.36,25.57,241.75,25.21 M248.22,28.95c-0.53-0.3-0.38-0.74,0.45-1.22c0.86-0.5,1.61-0.56,2.27-0.17
					c0.51,0.29,0.48,0.71-0.06,1.02l-0.36-0.21c0.36-0.21,0.39-0.44,0.09-0.62c-0.43-0.25-0.9-0.19-1.57,0.19
					c-0.66,0.38-0.78,0.65-0.4,0.87c0.3,0.17,0.71,0.14,1.17-0.09l-0.58-0.33l0.33-0.19l0.92,0.53l-1.27,0.74l-0.35-0.2l0.63-0.26
					l-0.05-0.03C248.95,29.14,248.55,29.14,248.22,28.95 M247.62,22.27l0.05,0.03l2.11-1.22l0.35,0.2l-2.45,1.42l-0.57-0.33
					l1.16-1.36l0.29-0.24l-0.05-0.03l-2.11,1.22l-0.35-0.2l2.45-1.43l0.57,0.33l-1.16,1.36L247.62,22.27 M248.06,22.93l3.17-1.01
					l0.56,0.32l-1.73,1.84l-0.38-0.22l0.62-0.64l-0.76-0.44l-1.1,0.36L248.06,22.93 M252.25,24.15l0.05,0.03l0.16-0.09l1.53-0.59
					l0.52,0.3l-2.45,1.42l-0.33-0.19l2.11-1.22l-0.05-0.03l-0.34,0.17l-1.34,0.49l-0.31-0.18l0.84-0.78l0.29-0.2l-0.05-0.03
					l-2.11,1.22l-0.34-0.19l2.45-1.43l0.52,0.3l-1,0.89L252.25,24.15 M252.72,25.62l2.45-1.42l1.48,0.85l-0.33,0.19l-1.12-0.65
					l-0.73,0.42l1.09,0.63l-0.33,0.19l-1.09-0.63l-0.73,0.42l1.12,0.65l-0.33,0.19L252.72,25.62 M274.85,32.64L249.14,17.8
					l-25.54,14.84l25.71,14.85L274.85,32.64"/>
				<path class="st20" d="M223.59,32.64l25.54-14.85l25.71,14.84L249.3,47.49L223.59,32.64z M275.65,32.64l-26.52-15.31
					l-26.35,15.31l26.52,15.31L275.65,32.64"/>
				<polygon class="st20" points="250.13,21.28 249.78,21.08 247.67,22.3 247.62,22.27 247.91,22.04 249.07,20.67 248.51,20.35 
					246.05,21.77 246.41,21.98 248.51,20.75 248.57,20.78 248.27,21.02 247.11,22.38 247.68,22.71 				"/>
				<path class="st20" d="M249.96,22.65l1.11-0.37l0.21-0.1l0.05,0.03l-0.17,0.12l-0.63,0.64L249.96,22.65z M251.79,22.24
					l-0.56-0.32l-3.17,1.01l0.38,0.22l1.1-0.36l0.76,0.44l-0.62,0.64l0.38,0.22L251.79,22.24"/>
				<polygon class="st20" points="254.5,23.81 253.99,23.51 252.46,24.1 252.3,24.18 252.25,24.15 252.4,24.06 253.4,23.17 
					252.88,22.87 250.43,24.3 250.77,24.49 252.87,23.27 252.92,23.3 252.63,23.49 251.79,24.27 252.1,24.45 253.44,23.96 
					253.77,23.79 253.83,23.82 251.72,25.04 252.05,25.23 				"/>
				<polygon class="st20" points="256.65,25.05 255.18,24.2 252.72,25.62 254.2,26.47 254.53,26.28 253.41,25.63 254.14,25.21 
					255.22,25.84 255.56,25.64 254.47,25.02 255.2,24.59 256.32,25.24 				"/>
				<path class="st20" d="M242.08,25.02c-0.38-0.22-0.26-0.5,0.38-0.87c0.64-0.37,1.13-0.45,1.51-0.23c0.38,0.22,0.26,0.5-0.38,0.88
					C242.95,25.17,242.47,25.24,242.08,25.02 M244.31,23.73c-0.61-0.35-1.38-0.28-2.21,0.2c-0.83,0.48-0.96,0.93-0.35,1.28
					c0.61,0.35,1.38,0.28,2.22-0.2C244.8,24.52,244.92,24.08,244.31,23.73"/>
				<path class="st20" d="M245,25.4l0.71-0.41l0.54,0.31c0.25,0.15,0.29,0.3,0.05,0.44c-0.23,0.13-0.51,0.12-0.77-0.03L245,25.4
					 M246.54,25.07l-0.85-0.49l-2.45,1.42l0.35,0.2l1.09-0.64l0.15,0.09l-0.39,1.04l0.45,0.26l0.35-0.99l-0.04-0.08l0.05-0.03
					c0.46,0.25,0.96,0.33,1.41,0.07C247.15,25.67,247.05,25.37,246.54,25.07"/>
				<polygon class="st20" points="249.43,26.75 247.83,25.82 247.51,26 248.14,26.37 246.32,27.42 245.69,27.06 245.37,27.24 
					246.98,28.17 247.3,27.99 246.67,27.63 248.49,26.57 249.12,26.93 				"/>
				<path class="st20" d="M250.94,27.55c-0.66-0.38-1.41-0.32-2.27,0.17c-0.83,0.48-0.98,0.92-0.45,1.22
					c0.34,0.19,0.74,0.19,1.2,0.01l0.05,0.03l-0.63,0.26l0.35,0.2l1.27-0.74l-0.92-0.53l-0.33,0.19l0.58,0.33
					c-0.46,0.23-0.87,0.26-1.17,0.09c-0.38-0.22-0.26-0.49,0.4-0.87c0.66-0.39,1.13-0.44,1.57-0.19c0.31,0.18,0.27,0.41-0.09,0.62
					l0.36,0.21C251.42,28.26,251.45,27.85,250.94,27.55"/>
				<polygon class="st20" points="253.81,29.27 252.2,28.35 251.89,28.53 252.52,28.89 250.69,29.95 250.07,29.59 249.75,29.77 
					251.36,30.7 251.67,30.52 251.05,30.15 252.87,29.09 253.5,29.46 				"/>
				<polygon class="st20" points="256.01,30.54 255.65,30.34 253.55,31.56 253.5,31.53 253.79,31.3 254.95,29.93 254.38,29.6 
					251.93,31.03 252.29,31.23 254.39,30.01 254.44,30.04 254.15,30.28 252.99,31.64 253.56,31.97 				"/>
				<path class="st20" d="M237.73,27.12l0.76-0.44l0.53,0.3c0.27,0.16,0.27,0.33,0.04,0.46c-0.23,0.13-0.54,0.13-0.81-0.02
					L237.73,27.12 M239.35,26.79l-0.88-0.51l-2.45,1.43l0.35,0.2l1.03-0.6l0.53,0.3c0.47,0.27,1.05,0.3,1.5,0.04
					C239.87,27.4,239.82,27.06,239.35,26.79"/>
				<polygon class="st20" points="242.15,28.4 240.68,27.55 238.22,28.98 239.7,29.83 240.03,29.64 238.91,28.99 239.64,28.57 
					240.72,29.19 241.05,29 239.97,28.37 240.7,27.95 241.82,28.6 				"/>
				<path class="st20" d="M242.13,29.6l0.71-0.41l0.54,0.31c0.25,0.14,0.29,0.3,0.05,0.44c-0.23,0.13-0.51,0.12-0.76-0.03
					L242.13,29.6 M243.67,29.28l-0.85-0.49l-2.45,1.43l0.35,0.2l1.09-0.64l0.16,0.09l-0.39,1.04l0.45,0.26l0.35-0.99l-0.04-0.08
					l0.05-0.03c0.46,0.25,0.96,0.33,1.41,0.07C244.27,29.87,244.18,29.57,243.67,29.28"/>
				<polygon class="st20" points="246.65,31 245.11,30.11 242.65,31.54 243,31.74 244.07,31.12 245.19,31.77 245.52,31.58 
					244.4,30.93 245.12,30.51 246.32,31.2 				"/>
				<path class="st20" d="M245.77,33.01c-0.38-0.22-0.26-0.5,0.38-0.88c0.64-0.37,1.13-0.45,1.51-0.22c0.38,0.22,0.26,0.5-0.38,0.88
					C246.64,33.16,246.16,33.24,245.77,33.01 M248,31.72c-0.61-0.35-1.38-0.28-2.21,0.2c-0.83,0.48-0.95,0.93-0.34,1.28
					c0.61,0.35,1.38,0.28,2.21-0.2C248.49,32.52,248.61,32.07,248,31.72"/>
				<path class="st20" d="M248.69,33.39l0.71-0.41l0.54,0.31c0.25,0.14,0.29,0.3,0.05,0.44c-0.23,0.13-0.51,0.12-0.76-0.03
					L248.69,33.39 M250.23,33.07l-0.85-0.49l-2.45,1.43l0.35,0.2l1.09-0.64l0.15,0.09l-0.39,1.04l0.45,0.26l0.35-0.99l-0.04-0.08
					l0.05-0.03c0.46,0.25,0.96,0.33,1.41,0.07C250.84,33.66,250.74,33.36,250.23,33.07"/>
				<polygon class="st20" points="253.13,34.75 252.62,34.45 251.08,35.03 250.93,35.12 250.87,35.09 251.02,35 252.03,34.11 
					251.51,33.81 249.06,35.24 249.39,35.43 251.5,34.2 251.55,34.24 251.26,34.43 250.42,35.21 250.72,35.39 252.06,34.9 
					252.4,34.73 252.45,34.75 250.34,35.98 250.68,36.17 				"/>
				<polygon class="st20" points="252.74,36.84 252.28,36.57 251.82,36.83 252.29,37.1 				"/>
				<path class="st20" d="M234.2,29.62c-0.53-0.31-1.18-0.33-1.62-0.07c-0.35,0.21-0.37,0.47-0.03,0.76l0.22,0.18
					c0.25,0.21,0.24,0.35,0.05,0.46c-0.24,0.14-0.57,0.12-0.87-0.05c-0.35-0.2-0.33-0.4,0.02-0.61l-0.38-0.22
					c-0.58,0.33-0.55,0.68,0.02,1.01c0.54,0.31,1.16,0.33,1.6,0.08c0.37-0.21,0.38-0.48,0.03-0.77l-0.22-0.19
					c-0.25-0.21-0.24-0.35-0.06-0.46c0.23-0.13,0.56-0.13,0.88,0.06c0.35,0.2,0.33,0.39-0.02,0.6l0.38,0.22
					C234.77,30.29,234.75,29.94,234.2,29.62"/>
				<path class="st20" d="M237.13,31.37l-0.35-0.2l-1.7,0.99c-0.29,0.17-0.64,0.17-0.93,0.01c-0.28-0.16-0.29-0.37,0.01-0.54
					l1.7-0.99l-0.35-0.2l-1.7,0.99c-0.48,0.28-0.47,0.66,0.01,0.94c0.48,0.28,1.14,0.28,1.61,0L237.13,31.37"/>
				<path class="st20" d="M238.58,32.15c-0.53-0.31-1.18-0.33-1.62-0.07c-0.35,0.21-0.37,0.47-0.03,0.76l0.22,0.18
					c0.25,0.21,0.24,0.35,0.05,0.46c-0.24,0.14-0.57,0.12-0.87-0.05c-0.35-0.2-0.33-0.4,0.02-0.61l-0.38-0.22
					c-0.58,0.34-0.55,0.68,0.02,1.01c0.54,0.31,1.16,0.33,1.6,0.08c0.37-0.21,0.38-0.48,0.04-0.77l-0.22-0.19
					c-0.25-0.21-0.24-0.35-0.06-0.46c0.23-0.13,0.56-0.13,0.88,0.06c0.35,0.2,0.33,0.4-0.02,0.6l0.38,0.22
					C239.15,32.82,239.13,32.47,238.58,32.15"/>
				<polygon class="st20" points="241.68,34 239.71,32.86 239.38,33.06 240.18,33.52 238.06,34.75 238.42,34.96 240.54,33.73 
					241.34,34.19 				"/>
				<path class="st20" d="M241.33,35.26l1.11-0.36l0.21-0.1l0.05,0.03l-0.17,0.12l-0.63,0.64L241.33,35.26z M243.16,34.86
					l-0.56-0.32l-3.17,1.01l0.38,0.22l1.1-0.36l0.76,0.44l-0.62,0.64l0.38,0.22L243.16,34.86"/>
				<polygon class="st20" points="245.87,36.42 244.27,35.49 243.95,35.67 244.58,36.04 242.76,37.1 242.13,36.73 241.81,36.92 
					243.42,37.85 243.73,37.66 243.11,37.3 244.93,36.24 245.56,36.6 				"/>
				<polygon class="st20" points="248.07,37.69 247.72,37.48 245.61,38.71 245.56,38.68 245.85,38.44 247.01,37.08 246.45,36.75 
					243.99,38.18 244.35,38.38 246.45,37.16 246.51,37.19 246.21,37.42 245.05,38.79 245.62,39.11 				"/>
				<polygon class="st20" points="247.68,39.78 247.21,39.51 246.76,39.77 247.22,40.04 				"/>
				<polygon class="st21" points="213.22,32.65 249.12,11.79 285.22,32.63 249.31,53.5 				"/>
			</g>
		</g>
		<g>
			<g>
				<defs>
					<polygon id="SVGID_51_" points="261.93,35.87 269.34,31.56 276.81,35.87 269.39,40.18 					"/>
				</defs>
				<clipPath id="SVGID_10_">
					<use xlink:href="#SVGID_51_"  style="overflow:visible;"/>
				</clipPath>
				<path class="st22" d="M266.06,37.8c-1.84-1.06-1.85-2.78-0.02-3.84c1.82-1.06,4.8-1.06,6.63,0c1.83,1.06,1.84,2.78,0.02,3.84
					C270.87,38.85,267.89,38.85,266.06,37.8 M273.07,33.72c-2.06-1.19-5.4-1.19-7.44,0c-2.05,1.19-2.03,3.12,0.02,4.31
					c2.06,1.19,5.39,1.19,7.44,0C275.14,36.84,275.13,34.91,273.07,33.72"/>
			</g>
		</g>
		<g>
			<defs>
				<rect id="SVGID_53_" x="219.97" y="30.21" width="9.25" height="5.36"/>
			</defs>
			<clipPath id="SVGID_11_">
				<use xlink:href="#SVGID_53_"  style="overflow:visible;"/>
			</clipPath>
			<g class="st23">
				<defs>
					<polygon id="SVGID_55_" points="219.97,32.89 224.58,30.21 229.22,32.89 224.61,35.57 					"/>
				</defs>
				<clipPath id="SVGID_12_">
					<use xlink:href="#SVGID_55_"  style="overflow:visible;"/>
				</clipPath>
				<path class="st24" d="M220.78,32.89l3.8-2.21l3.83,2.21l-3.8,2.21L220.78,32.89z M229.22,32.89l-4.64-2.68l-4.61,2.68l4.64,2.68
					L229.22,32.89"/>
			</g>
		</g>
	</g>
	<polygon class="st9" points="249.13,17.33 222.78,32.64 249.31,47.95 275.65,32.64 	"/>
	<polygon class="st10" points="275.65,168.74 275.65,174.29 249.31,189.6 222.78,174.29 222.78,168.73 249.13,153.42 	"/>
	<polygon class="st2" points="249.13,153.42 222.78,168.73 249.31,184.05 275.65,168.74 	"/>
	<line class="st2" x1="249.31" y1="184.05" x2="249.31" y2="189.6"/>
	<g>
		<g>
			<line class="st9" x1="249.12" y1="167.68" x2="249.12" y2="167.08"/>
			<line class="st18" x1="249.12" y1="164.71" x2="249.12" y2="51.96"/>
			<line class="st9" x1="249.12" y1="50.78" x2="249.12" y2="50.17"/>
		</g>
	</g>
</g>
<g>
	<g>
		<g>
			<g>
				<defs>
					<polygon id="SVGID_57_" points="96.16,32.64 122.51,17.33 149.03,32.64 122.69,47.95 					"/>
				</defs>
				<clipPath id="SVGID_13_">
					<use xlink:href="#SVGID_57_"  style="overflow:visible;"/>
				</clipPath>
				<path class="st25" d="M116.09,34.83l-0.05-0.03l-0.21,0.1l-1.11,0.37l0.58,0.33l0.63-0.64L116.09,34.83 M112.4,26.98l-0.53-0.3
					l-0.76,0.44l0.53,0.3c0.27,0.16,0.58,0.16,0.81,0.02C112.67,27.31,112.67,27.14,112.4,26.98 M116.76,29.5l-0.54-0.31l-0.71,0.41
					l0.54,0.31c0.26,0.15,0.53,0.16,0.76,0.03C117.05,29.8,117.01,29.65,116.76,29.5 M123.32,33.29l-0.54-0.31l-0.71,0.41l0.54,0.31
					c0.26,0.15,0.53,0.16,0.76,0.03C123.61,33.59,123.58,33.44,123.32,33.29 M121.04,31.91c-0.38-0.22-0.87-0.15-1.51,0.22
					c-0.64,0.37-0.77,0.66-0.38,0.88c0.38,0.22,0.87,0.15,1.51-0.22C121.31,32.42,121.43,32.14,121.04,31.91 M119.63,25.29
					l-0.54-0.31l-0.71,0.41l0.54,0.31c0.26,0.15,0.54,0.16,0.77,0.03C119.93,25.6,119.89,25.44,119.63,25.29 M117.35,23.92
					c-0.38-0.22-0.87-0.15-1.51,0.23c-0.64,0.37-0.77,0.65-0.38,0.87c0.38,0.22,0.87,0.15,1.51-0.22
					C117.62,24.42,117.74,24.14,117.35,23.92 M124.71,22.21l-0.05-0.03l-0.21,0.1l-1.11,0.37l0.57,0.33l0.63-0.64L124.71,22.21
					 M120.14,39.77l0.45-0.26l0.47,0.27l-0.45,0.26L120.14,39.77 M107.53,32.17c0.29,0.17,0.63,0.16,0.93-0.01l1.7-0.99l0.35,0.2
					l-1.7,0.99c-0.48,0.28-1.14,0.27-1.61,0c-0.48-0.28-0.49-0.66-0.01-0.94l1.7-0.99l0.35,0.2l-1.7,0.99
					C107.24,31.8,107.24,32,107.53,32.17 M112.76,33.06l0.33-0.19l1.96,1.13l-0.33,0.19l-0.8-0.46l-2.12,1.23l-0.35-0.2l2.12-1.23
					L112.76,33.06 M112.81,35.54l3.17-1.01l0.56,0.32l-1.73,1.84l-0.38-0.22l0.62-0.64l-0.76-0.44l-1.1,0.36L112.81,35.54
					 M117.33,35.67l0.32-0.18l1.61,0.93l-0.32,0.18l-0.63-0.36l-1.82,1.06l0.63,0.36l-0.32,0.18l-1.61-0.93l0.32-0.18l0.63,0.36
					l1.82-1.06L117.33,35.67 M118.94,38.68l0.05,0.03l2.11-1.22l0.35,0.2l-2.45,1.43l-0.57-0.33l1.17-1.36l0.29-0.23l-0.05-0.03
					l-2.11,1.22l-0.35-0.2l2.45-1.43l0.57,0.33l-1.16,1.36L118.94,38.68 M105.33,30.91c0.3,0.17,0.63,0.19,0.87,0.05
					c0.19-0.11,0.2-0.25-0.05-0.46l-0.22-0.18c-0.35-0.29-0.33-0.56,0.03-0.76c0.44-0.26,1.09-0.23,1.62,0.07
					c0.55,0.32,0.57,0.67,0.02,1l-0.38-0.22c0.35-0.2,0.37-0.39,0.02-0.6c-0.32-0.19-0.65-0.19-0.88-0.06
					c-0.19,0.11-0.19,0.25,0.06,0.46l0.22,0.19c0.34,0.29,0.33,0.56-0.03,0.77c-0.44,0.26-1.06,0.24-1.6-0.08
					c-0.57-0.33-0.6-0.67-0.02-1.01l0.38,0.22C105,30.5,104.98,30.71,105.33,30.91 M109.71,33.43c0.3,0.17,0.63,0.19,0.87,0.05
					c0.19-0.11,0.2-0.25-0.05-0.46l-0.22-0.18c-0.35-0.29-0.33-0.56,0.03-0.76c0.44-0.26,1.09-0.23,1.62,0.07
					c0.55,0.32,0.57,0.67,0.02,1l-0.38-0.22c0.35-0.2,0.37-0.39,0.02-0.6c-0.32-0.18-0.65-0.19-0.88-0.06
					c-0.19,0.11-0.19,0.25,0.06,0.46l0.22,0.19c0.34,0.29,0.33,0.56-0.04,0.77c-0.44,0.26-1.06,0.24-1.6-0.08
					c-0.57-0.33-0.59-0.67-0.02-1.01l0.38,0.22C109.38,33.03,109.36,33.23,109.71,33.43 M125.2,36.83l0.45-0.26l0.47,0.27
					l-0.45,0.26L125.2,36.83 M109.39,27.71l2.46-1.43l0.88,0.51c0.47,0.27,0.52,0.61,0.07,0.87c-0.44,0.26-1.03,0.23-1.5-0.04
					l-0.53-0.3l-1.03,0.6L109.39,27.71 M111.6,28.98l2.45-1.43l1.48,0.85l-0.33,0.19l-1.12-0.65l-0.73,0.42l1.09,0.63l-0.33,0.19
					l-1.09-0.63l-0.73,0.42l1.12,0.65l-0.33,0.19L111.6,28.98 M113.74,30.22l2.45-1.43l0.85,0.49c0.51,0.29,0.61,0.59,0.13,0.87
					c-0.44,0.26-0.95,0.18-1.41-0.07l-0.05,0.03l0.04,0.08l-0.35,0.99l-0.45-0.26l0.39-1.04l-0.16-0.09l-1.09,0.64L113.74,30.22
					 M116.03,31.54l2.45-1.43l1.55,0.89l-0.33,0.19l-1.19-0.69l-0.73,0.42l1.12,0.65l-0.33,0.19l-1.12-0.65l-1.06,0.62L116.03,31.54
					 M120.31,34.01l2.45-1.43l0.85,0.49c0.51,0.29,0.61,0.59,0.13,0.87c-0.44,0.26-0.95,0.18-1.41-0.07l-0.05,0.03l0.04,0.08
					l-0.35,0.99l-0.45-0.26l0.39-1.04l-0.15-0.09l-1.09,0.64L120.31,34.01 M124.25,35.09l0.05,0.03l0.16-0.09l1.53-0.59l0.52,0.3
					l-2.45,1.43l-0.34-0.19l2.11-1.22l-0.05-0.03l-0.34,0.17l-1.34,0.49l-0.31-0.18l0.84-0.78l0.29-0.2l-0.05-0.03l-2.11,1.22
					l-0.33-0.19l2.45-1.43l0.52,0.3L124.4,35L124.25,35.09 M118.82,33.21c-0.61-0.35-0.49-0.8,0.34-1.28
					c0.84-0.49,1.6-0.56,2.21-0.2c0.61,0.35,0.49,0.8-0.35,1.28C120.2,33.49,119.43,33.56,118.82,33.21 M116.62,26.01l2.45-1.42
					l0.85,0.49c0.51,0.29,0.61,0.59,0.13,0.87c-0.44,0.26-0.95,0.18-1.41-0.07l-0.05,0.03l0.04,0.08l-0.35,0.99l-0.45-0.26
					l0.39-1.04l-0.15-0.09l-1.09,0.64L116.62,26.01 M120.89,26l0.32-0.18l1.61,0.93l-0.32,0.18l-0.63-0.36l-1.82,1.06l0.63,0.36
					l-0.32,0.18l-1.61-0.93l0.32-0.18l0.63,0.36l1.82-1.06L120.89,26 M125.27,28.53l0.32-0.18l1.61,0.93l-0.32,0.18l-0.63-0.36
					l-1.82,1.06l0.63,0.36l-0.32,0.18l-1.61-0.93l0.32-0.18l0.63,0.36l1.82-1.06L125.27,28.53 M126.87,31.53l0.05,0.03l2.11-1.22
					l0.35,0.2l-2.45,1.42l-0.57-0.33l1.16-1.36l0.29-0.24l-0.05-0.03l-2.11,1.22l-0.35-0.2l2.45-1.42l0.57,0.33l-1.16,1.36
					L126.87,31.53 M115.13,25.21c-0.61-0.35-0.49-0.8,0.35-1.28c0.84-0.49,1.6-0.56,2.22-0.2c0.61,0.35,0.49,0.8-0.35,1.28
					C116.51,25.49,115.74,25.57,115.13,25.21 M121.6,28.95c-0.53-0.3-0.38-0.74,0.45-1.22c0.86-0.5,1.61-0.56,2.27-0.17
					c0.51,0.29,0.48,0.71-0.06,1.02l-0.36-0.21c0.36-0.21,0.39-0.44,0.09-0.62c-0.43-0.25-0.9-0.19-1.57,0.19
					c-0.66,0.38-0.78,0.65-0.4,0.87c0.3,0.17,0.71,0.14,1.17-0.09l-0.58-0.33l0.33-0.19l0.92,0.53l-1.27,0.74l-0.35-0.2l0.63-0.26
					l-0.05-0.03C122.33,29.14,121.93,29.14,121.6,28.95 M121,22.27l0.05,0.03l2.11-1.22l0.35,0.2l-2.45,1.42l-0.57-0.33l1.16-1.36
					l0.29-0.24l-0.05-0.03l-2.11,1.22l-0.35-0.2l2.45-1.43l0.57,0.33l-1.16,1.36L121,22.27 M121.44,22.93l3.17-1.01l0.56,0.32
					l-1.73,1.84l-0.38-0.22l0.62-0.64l-0.76-0.44l-1.1,0.36L121.44,22.93 M125.63,24.15l0.05,0.03l0.16-0.09l1.53-0.59l0.52,0.3
					l-2.45,1.42l-0.33-0.19l2.11-1.22l-0.05-0.03l-0.34,0.17l-1.34,0.49l-0.31-0.18l0.84-0.78l0.29-0.2l-0.05-0.03l-2.11,1.22
					l-0.34-0.19l2.45-1.43l0.52,0.3l-1,0.89L125.63,24.15 M126.1,25.62l2.45-1.42l1.48,0.85l-0.33,0.19l-1.12-0.65l-0.73,0.42
					l1.09,0.63l-0.33,0.19l-1.09-0.63l-0.73,0.42l1.12,0.65l-0.33,0.19L126.1,25.62 M148.23,32.64L122.52,17.8L96.97,32.64
					l25.71,14.85L148.23,32.64"/>
				<path class="st26" d="M96.97,32.64l25.54-14.85l25.71,14.84l-25.55,14.85L96.97,32.64z M149.03,32.64l-26.52-15.31L96.16,32.64
					l26.52,15.31L149.03,32.64"/>
				<polygon class="st26" points="123.51,21.28 123.16,21.08 121.05,22.3 120.99,22.27 121.29,22.04 122.45,20.67 121.89,20.35 
					119.43,21.77 119.79,21.98 121.89,20.75 121.95,20.78 121.65,21.02 120.49,22.38 121.06,22.71 				"/>
				<path class="st26" d="M123.34,22.65l1.11-0.37l0.21-0.1l0.05,0.03l-0.17,0.12l-0.63,0.64L123.34,22.65z M125.17,22.24
					l-0.56-0.32l-3.17,1.01l0.38,0.22l1.1-0.36l0.76,0.44l-0.62,0.64l0.38,0.22L125.17,22.24"/>
				<polygon class="st26" points="127.88,23.81 127.37,23.51 125.84,24.1 125.68,24.18 125.63,24.15 125.78,24.06 126.78,23.17 
					126.26,22.87 123.81,24.3 124.15,24.49 126.25,23.27 126.3,23.3 126.01,23.49 125.17,24.27 125.48,24.45 126.82,23.96 
					127.15,23.79 127.2,23.82 125.1,25.04 125.43,25.23 				"/>
				<polygon class="st26" points="130.03,25.05 128.55,24.2 126.1,25.62 127.58,26.47 127.91,26.28 126.79,25.63 127.52,25.21 
					128.6,25.84 128.94,25.64 127.85,25.02 128.58,24.59 129.7,25.24 				"/>
				<path class="st26" d="M115.46,25.02c-0.38-0.22-0.26-0.5,0.38-0.87c0.64-0.37,1.13-0.45,1.51-0.23c0.38,0.22,0.26,0.5-0.38,0.88
					C116.33,25.17,115.84,25.24,115.46,25.02 M117.69,23.73c-0.61-0.35-1.38-0.28-2.21,0.2c-0.83,0.48-0.96,0.93-0.35,1.28
					c0.61,0.35,1.38,0.28,2.22-0.2C118.18,24.52,118.3,24.08,117.69,23.73"/>
				<path class="st26" d="M118.38,25.4l0.71-0.41l0.54,0.31c0.25,0.15,0.29,0.3,0.05,0.44c-0.23,0.13-0.51,0.12-0.77-0.03
					L118.38,25.4 M119.92,25.07l-0.85-0.49l-2.45,1.42l0.35,0.2l1.09-0.64l0.15,0.09l-0.39,1.04l0.45,0.26l0.35-0.99l-0.04-0.08
					l0.05-0.03c0.46,0.25,0.96,0.33,1.41,0.07C120.53,25.67,120.42,25.37,119.92,25.07"/>
				<polygon class="st26" points="122.81,26.75 121.21,25.82 120.89,26 121.52,26.37 119.7,27.42 119.07,27.06 118.75,27.24 
					120.36,28.17 120.68,27.99 120.05,27.63 121.87,26.57 122.5,26.93 				"/>
				<path class="st26" d="M124.32,27.55c-0.66-0.38-1.41-0.32-2.27,0.17c-0.83,0.48-0.98,0.92-0.45,1.22
					c0.34,0.19,0.74,0.19,1.2,0.01l0.05,0.03l-0.63,0.26l0.35,0.2l1.27-0.74l-0.92-0.53l-0.33,0.19l0.58,0.33
					c-0.46,0.23-0.87,0.26-1.17,0.09c-0.38-0.22-0.26-0.49,0.4-0.87c0.66-0.39,1.13-0.44,1.57-0.19c0.31,0.18,0.27,0.41-0.09,0.62
					l0.36,0.21C124.8,28.26,124.82,27.85,124.32,27.55"/>
				<polygon class="st26" points="127.19,29.27 125.58,28.35 125.27,28.53 125.9,28.89 124.07,29.95 123.44,29.59 123.13,29.77 
					124.74,30.7 125.05,30.52 124.42,30.15 126.25,29.09 126.88,29.46 				"/>
				<polygon class="st26" points="129.39,30.54 129.03,30.34 126.93,31.56 126.87,31.53 127.17,31.3 128.33,29.93 127.76,29.6 
					125.31,31.03 125.66,31.23 127.77,30.01 127.82,30.04 127.53,30.28 126.37,31.64 126.93,31.97 				"/>
				<path class="st26" d="M111.11,27.12l0.76-0.44l0.53,0.3c0.27,0.16,0.27,0.33,0.05,0.46c-0.23,0.13-0.54,0.13-0.81-0.02
					L111.11,27.12 M112.73,26.79l-0.88-0.51l-2.45,1.43l0.35,0.2l1.03-0.6l0.53,0.3c0.47,0.27,1.05,0.3,1.5,0.04
					C113.25,27.4,113.2,27.06,112.73,26.79"/>
				<polygon class="st26" points="115.53,28.4 114.05,27.55 111.6,28.98 113.08,29.83 113.41,29.64 112.29,28.99 113.02,28.57 
					114.1,29.19 114.43,29 113.35,28.37 114.07,27.95 115.2,28.6 				"/>
				<path class="st26" d="M115.5,29.6l0.71-0.41l0.54,0.31c0.25,0.14,0.29,0.3,0.05,0.44c-0.23,0.13-0.51,0.12-0.76-0.03L115.5,29.6
					 M117.05,29.28l-0.85-0.49l-2.45,1.43l0.35,0.2l1.09-0.64l0.16,0.09l-0.39,1.04l0.45,0.26l0.35-0.99l-0.04-0.08l0.05-0.03
					c0.46,0.25,0.96,0.33,1.41,0.07C117.65,29.87,117.55,29.57,117.05,29.28"/>
				<polygon class="st26" points="120.03,31 118.49,30.11 116.03,31.54 116.38,31.74 117.45,31.12 118.57,31.77 118.9,31.58 
					117.78,30.93 118.5,30.51 119.7,31.2 				"/>
				<path class="st26" d="M119.15,33.01c-0.38-0.22-0.26-0.5,0.38-0.88c0.64-0.37,1.13-0.45,1.51-0.22c0.38,0.22,0.26,0.5-0.38,0.88
					C120.02,33.16,119.53,33.24,119.15,33.01 M121.38,31.72c-0.61-0.35-1.38-0.28-2.21,0.2c-0.83,0.48-0.95,0.93-0.34,1.28
					c0.61,0.35,1.38,0.28,2.21-0.2C121.87,32.52,121.99,32.07,121.38,31.72"/>
				<path class="st26" d="M122.07,33.39l0.71-0.41l0.54,0.31c0.25,0.14,0.29,0.3,0.05,0.44c-0.23,0.13-0.51,0.12-0.76-0.03
					L122.07,33.39 M123.61,33.07l-0.85-0.49l-2.45,1.43l0.35,0.2l1.09-0.64l0.15,0.09l-0.39,1.04l0.45,0.26l0.35-0.99l-0.04-0.08
					l0.05-0.03c0.46,0.25,0.96,0.33,1.41,0.07C124.22,33.66,124.12,33.36,123.61,33.07"/>
				<polygon class="st26" points="126.51,34.75 126,34.45 124.46,35.03 124.31,35.12 124.25,35.09 124.4,35 125.41,34.11 
					124.89,33.81 122.44,35.24 122.77,35.43 124.88,34.2 124.93,34.24 124.64,34.43 123.8,35.21 124.1,35.39 125.44,34.9 
					125.78,34.73 125.83,34.75 123.72,35.98 124.06,36.17 				"/>
				<polygon class="st26" points="126.12,36.84 125.66,36.57 125.2,36.83 125.67,37.1 				"/>
				<path class="st26" d="M107.58,29.62c-0.53-0.31-1.18-0.33-1.62-0.07c-0.35,0.21-0.37,0.47-0.03,0.76l0.22,0.18
					c0.25,0.21,0.24,0.35,0.05,0.46c-0.24,0.14-0.57,0.12-0.87-0.05c-0.35-0.2-0.33-0.4,0.02-0.61l-0.38-0.22
					c-0.58,0.33-0.55,0.68,0.02,1.01c0.54,0.31,1.16,0.33,1.6,0.08c0.37-0.21,0.38-0.48,0.03-0.77l-0.22-0.19
					c-0.25-0.21-0.24-0.35-0.06-0.46c0.23-0.13,0.56-0.13,0.88,0.06c0.35,0.2,0.33,0.39-0.02,0.6l0.38,0.22
					C108.15,30.29,108.13,29.94,107.58,29.62"/>
				<path class="st26" d="M110.51,31.37l-0.35-0.2l-1.7,0.99c-0.29,0.17-0.64,0.17-0.93,0.01c-0.28-0.16-0.29-0.37,0.01-0.54
					l1.7-0.99l-0.35-0.2l-1.7,0.99c-0.48,0.28-0.47,0.66,0.01,0.94c0.48,0.28,1.14,0.28,1.61,0L110.51,31.37"/>
				<path class="st26" d="M111.96,32.15c-0.53-0.31-1.18-0.33-1.62-0.07c-0.35,0.21-0.37,0.47-0.03,0.76l0.22,0.18
					c0.25,0.21,0.24,0.35,0.05,0.46c-0.24,0.14-0.57,0.12-0.87-0.05c-0.35-0.2-0.33-0.4,0.02-0.61l-0.38-0.22
					c-0.58,0.34-0.55,0.68,0.02,1.01c0.54,0.31,1.16,0.33,1.6,0.08c0.37-0.21,0.38-0.48,0.04-0.77l-0.22-0.19
					c-0.25-0.21-0.24-0.35-0.06-0.46c0.23-0.13,0.56-0.13,0.88,0.06c0.35,0.2,0.33,0.4-0.02,0.6l0.38,0.22
					C112.53,32.82,112.51,32.47,111.96,32.15"/>
				<polygon class="st26" points="115.06,34 113.09,32.86 112.76,33.06 113.56,33.52 111.44,34.75 111.8,34.96 113.92,33.73 
					114.72,34.19 				"/>
				<path class="st26" d="M114.71,35.26l1.11-0.36l0.21-0.1l0.05,0.03l-0.17,0.12l-0.63,0.64L114.71,35.26z M116.54,34.86
					l-0.56-0.32l-3.17,1.01l0.38,0.22l1.1-0.36l0.76,0.44l-0.62,0.64l0.38,0.22L116.54,34.86"/>
				<polygon class="st26" points="119.25,36.42 117.65,35.49 117.33,35.67 117.96,36.04 116.13,37.1 115.51,36.73 115.19,36.92 
					116.8,37.85 117.11,37.66 116.49,37.3 118.31,36.24 118.94,36.6 				"/>
				<polygon class="st26" points="121.45,37.69 121.1,37.48 118.99,38.71 118.94,38.68 119.23,38.44 120.39,37.08 119.83,36.75 
					117.37,38.18 117.72,38.38 119.83,37.16 119.89,37.19 119.59,37.42 118.43,38.79 118.99,39.11 				"/>
				<polygon class="st26" points="121.06,39.78 120.59,39.51 120.14,39.77 120.6,40.04 				"/>
				<polygon class="st27" points="86.6,32.65 122.5,11.79 158.6,32.63 122.69,53.5 				"/>
			</g>
		</g>
		<g>
			<g>
				<defs>
					<polygon id="SVGID_59_" points="135.31,35.87 142.72,31.56 150.19,35.87 142.77,40.18 					"/>
				</defs>
				<clipPath id="SVGID_14_">
					<use xlink:href="#SVGID_59_"  style="overflow:visible;"/>
				</clipPath>
				<path class="st28" d="M139.44,37.8c-1.84-1.06-1.85-2.78-0.02-3.84c1.82-1.06,4.8-1.06,6.63,0c1.83,1.06,1.84,2.78,0.02,3.84
					C144.25,38.85,141.27,38.85,139.44,37.8 M146.45,33.72c-2.06-1.19-5.4-1.19-7.44,0c-2.05,1.19-2.03,3.12,0.02,4.31
					c2.06,1.19,5.39,1.19,7.44,0C148.52,36.84,148.51,34.91,146.45,33.72"/>
			</g>
		</g>
		<g>
			<defs>
				<rect id="SVGID_61_" x="93.35" y="30.21" width="9.25" height="5.36"/>
			</defs>
			<clipPath id="SVGID_15_">
				<use xlink:href="#SVGID_61_"  style="overflow:visible;"/>
			</clipPath>
			<g class="st29">
				<defs>
					<polygon id="SVGID_63_" points="93.35,32.89 97.96,30.21 102.6,32.89 97.99,35.57 					"/>
				</defs>
				<clipPath id="SVGID_16_">
					<use xlink:href="#SVGID_63_"  style="overflow:visible;"/>
				</clipPath>
				<path class="st30" d="M94.15,32.89l3.8-2.21l3.83,2.21l-3.8,2.21L94.15,32.89z M102.6,32.89l-4.64-2.68l-4.61,2.68l4.64,2.68
					L102.6,32.89"/>
			</g>
		</g>
	</g>
	<polygon class="st9" points="122.51,17.33 96.16,32.64 122.69,47.95 149.03,32.64 	"/>
	<g>
		<g>
			<line class="st9" x1="122.5" y1="167.68" x2="122.5" y2="167.08"/>
			<line class="st18" x1="122.5" y1="164.71" x2="122.5" y2="51.96"/>
			<line class="st9" x1="122.5" y1="50.78" x2="122.5" y2="50.17"/>
		</g>
	</g>
</g>
<g>
</g>
<g>
</g>
<g>
</g>
<g>
</g>
<g>
</g>
<g>
</g>
<g>
</g>
<g>
</g>
<g>
</g>
<g>
</g>
<g>
</g>
<g>
</g>
<g>
</g>
<g>
</g>
<g>
</g>
</svg>
