<?xml version="1.0" encoding="utf-8"?>
<!-- Generator: Adobe Illustrator 25.2.0, SVG Export Plug-In . SVG Version: 6.00 Build 0)  -->
<svg version="1.1" id="Layer_1" xmlns="http://www.w3.org/2000/svg" xmlns:xlink="http://www.w3.org/1999/xlink" x="0px" y="0px"
	 viewBox="0 0 273.32 163.69" style="enable-background:new 0 0 273.32 163.69;" xml:space="preserve">
<style type="text/css">
	.st0{fill:#6CE87D;}
	.st1{fill:#FFB5AF;}
	.st2{fill:none;stroke:#000000;stroke-width:0.602;stroke-miterlimit:10;}
	.st3{clip-path:url(#SVGID_1_);}
	.st4{clip-path:url(#SVGID_2_);fill:#FFB5AF;}
	.st5{clip-path:url(#SVGID_2_);}
	.st6{clip-path:url(#SVGID_3_);}
	.st7{clip-path:url(#SVGID_4_);}
	.st8{clip-path:url(#SVGID_4_);fill:#FFB5AF;}
	.st9{fill:none;}
	.st10{fill:none;stroke:#000000;stroke-width:1.205;stroke-miterlimit:10;}
	.st11{fill:#FFB5AF;stroke:#020202;stroke-width:0.75;stroke-miterlimit:10;}
	.st12{opacity:0.3;fill:#FFB5AF;stroke:#020202;stroke-width:0.75;stroke-miterlimit:10;}
	.st13{clip-path:url(#SVGID_6_);fill:#6CE87D;}
	.st14{clip-path:url(#SVGID_6_);}
	.st15{clip-path:url(#SVGID_6_);fill:none;}
	.st16{clip-path:url(#SVGID_7_);}
	.st17{clip-path:url(#SVGID_8_);}
	.st18{clip-path:url(#SVGID_9_);}
	.st19{clip-path:url(#SVGID_10_);fill:#6CE87D;}
	.st20{clip-path:url(#SVGID_10_);}
	.st21{clip-path:url(#SVGID_10_);fill:none;}
	.st22{clip-path:url(#SVGID_11_);}
	.st23{clip-path:url(#SVGID_12_);}
	.st24{clip-path:url(#SVGID_13_);}
	.st25{clip-path:url(#SVGID_14_);fill:#6CE87D;}
	.st26{clip-path:url(#SVGID_14_);}
	.st27{clip-path:url(#SVGID_14_);fill:none;}
	.st28{clip-path:url(#SVGID_15_);}
	.st29{clip-path:url(#SVGID_16_);}
	.st30{clip-path:url(#SVGID_17_);}
</style>
<rect y="0.18" class="st0" width="95.63" height="163.33"/>
<rect x="177.95" y="0.18" class="st1" width="95.37" height="163.33"/>
<g>
	<polyline class="st2" points="115.82,0.18 107.79,11.06 115.82,21.95 107.79,32.84 115.82,43.73 107.79,54.61 115.82,65.49 
		107.79,76.37 115.82,87.26 107.79,98.15 115.82,109.04 107.79,119.93 115.82,130.82 107.79,141.71 115.82,152.61 107.79,163.51 	
		"/>
	<polygon class="st0" points="103.77,163.51 111.8,152.61 103.77,141.71 111.8,130.82 103.77,119.93 111.8,109.04 103.77,98.15 
		111.8,87.26 103.77,76.37 111.8,65.49 103.77,54.61 111.8,43.73 103.77,32.84 111.8,21.95 103.77,11.06 111.8,0.18 95.63,0.18 
		95.63,163.51 	"/>
	<polyline class="st2" points="165.91,0.18 157.88,11.06 165.91,21.95 157.88,32.84 165.91,43.73 157.88,54.61 165.91,65.49 
		157.88,76.37 165.91,87.26 157.88,98.15 165.91,109.04 157.88,119.93 165.91,130.82 157.88,141.71 165.91,152.61 157.88,163.51 	
		"/>
	<g>
		<path d="M143.07,131.95l-9,2.76v0.07c1.83-0.1,3.05-0.15,3.66-0.15h5.33v2.17H131.6v-3.31l8.77-2.71v-0.05l-8.77-2.88v-3.31h11.47
			v2.27h-5.43c-0.26,0-0.55,0-0.89-0.01c-0.33-0.01-1.22-0.04-2.67-0.11v0.07l8.98,2.96V131.95z"/>
		<path d="M143.07,114.63l-2.73,0.83v4.18l2.73,0.83v2.62l-11.52-4.05v-2.97l11.52-4.06V114.63z M138.3,116.04
			c-2.47,0.77-3.87,1.2-4.2,1.3s-0.58,0.17-0.77,0.21c0.67,0.17,2.33,0.67,4.97,1.48V116.04z"/>
		<path d="M143.07,106.15v2.43h-9.45v3.11h-2.02v-8.66h2.02v3.11H143.07z"/>
		<path d="M143.07,94.24l-2.73,0.83v4.18l2.73,0.83v2.62l-11.52-4.05v-2.97l11.52-4.06V94.24z M138.3,95.66
			c-2.47,0.77-3.87,1.2-4.2,1.3s-0.58,0.17-0.77,0.21c0.67,0.17,2.33,0.67,4.97,1.48V95.66z"/>
		<path d="M143.07,90.18H131.6v-2.43h9.46V83.1h2.01V90.18z"/>
		<path d="M137.32,70.7c1.9,0,3.36,0.47,4.38,1.41c1.02,0.94,1.53,2.29,1.53,4.05s-0.51,3.11-1.53,4.05
			c-1.02,0.94-2.48,1.41-4.39,1.41c-1.91,0-3.37-0.47-4.37-1.42c-1.01-0.94-1.51-2.3-1.51-4.06s0.51-3.11,1.52-4.04
			C133.95,71.16,135.41,70.7,137.32,70.7z M137.32,79.07c1.28,0,2.25-0.24,2.9-0.73s0.97-1.21,0.97-2.18c0-1.94-1.29-2.91-3.87-2.91
			c-2.58,0-3.88,0.96-3.88,2.89c0,0.97,0.33,1.7,0.98,2.19C135.07,78.82,136.04,79.07,137.32,79.07z"/>
		<path d="M136.63,63.96v-4.55h5.95c0.24,0.74,0.41,1.43,0.51,2.08c0.1,0.65,0.15,1.32,0.15,2c0,1.73-0.51,3.05-1.53,3.96
			c-1.02,0.91-2.48,1.37-4.38,1.37c-1.85,0-3.29-0.53-4.33-1.59c-1.04-1.06-1.55-2.53-1.55-4.4c0-1.18,0.24-2.31,0.71-3.4l1.95,0.81
			c-0.42,0.84-0.63,1.71-0.63,2.61c0,1.05,0.35,1.89,1.06,2.53s1.66,0.95,2.85,0.95c1.25,0,2.2-0.26,2.85-0.77s0.98-1.25,0.98-2.22
			c0-0.51-0.05-1.02-0.16-1.55h-2.39v2.17H136.63z"/>
		<path d="M143.07,45.49l-2.73,0.83v4.18l2.73,0.83v2.62l-11.52-4.05v-2.97l11.52-4.06V45.49z M138.3,46.9
			c-2.47,0.77-3.87,1.2-4.2,1.3s-0.58,0.17-0.77,0.21c0.67,0.17,2.33,0.67,4.97,1.48V46.9z"/>
		<path d="M135.17,33.5c1.23,0,2.18,0.39,2.83,1.16c0.65,0.77,0.98,1.87,0.98,3.29v1.04h4.08v2.43H131.6v-3.66
			c0-1.39,0.3-2.45,0.9-3.17C133.09,33.87,133.99,33.5,135.17,33.5z M136.99,38.99v-0.8c0-0.75-0.15-1.31-0.44-1.68
			c-0.3-0.37-0.73-0.56-1.29-0.56c-0.57,0-0.99,0.16-1.26,0.47c-0.27,0.31-0.41,0.8-0.41,1.46v1.11H136.99z"/>
		<path d="M143.07,31.34H131.6v-2.43h11.47V31.34z"/>
	</g>
	<polygon class="st1" points="169.94,0.18 161.91,11.08 169.94,21.98 161.91,32.88 169.94,43.76 161.91,54.65 169.94,65.54 
		161.91,76.43 169.94,87.32 161.91,98.21 169.94,109.08 161.91,119.97 169.94,130.85 161.91,141.74 169.94,152.63 161.91,163.51 
		178.08,163.51 178.08,0.18 	"/>
</g>
<g>
	<defs>
		<rect id="SVGID_35_" x="195.18" y="35.63" width="54.66" height="31.64"/>
	</defs>
	<clipPath id="SVGID_1_">
		<use xlink:href="#SVGID_35_"  style="overflow:visible;"/>
	</clipPath>
	<g class="st3">
		<defs>
			<polygon id="SVGID_37_" points="195.18,48.96 218.13,35.63 249.84,53.94 226.89,67.27 			"/>
		</defs>
		<clipPath id="SVGID_2_">
			<use xlink:href="#SVGID_37_"  style="overflow:visible;"/>
		</clipPath>
		<path class="st4" d="M211.57,47.72l-5.48-3.16l-5.45,3.17l5.48,3.16L211.57,47.72 M219.2,52.13l-5.48-3.16l-5.45,3.17l5.48,3.16
			L219.2,52.13 M226.84,56.54l-5.48-3.16l-5.45,3.17l5.48,3.16L226.84,56.54 M234.47,60.94l-5.48-3.16l-5.45,3.17l5.48,3.16
			L234.47,60.94 M220.9,42.3l-5.48-3.16l-5.45,3.16l5.48,3.16L220.9,42.3 M228.54,46.7l-5.48-3.16l-5.44,3.16l5.48,3.16L228.54,46.7
			 M236.17,51.11l-5.48-3.16l-5.45,3.16l5.48,3.16L236.17,51.11 M243.8,55.52l-5.48-3.16l-5.44,3.16l5.48,3.16L243.8,55.52
			 M218.63,37.38c-0.05-0.03-0.14-0.03-0.19,0c-0.05,0.03-0.05,0.08,0,0.11c0.05,0.03,0.14,0.03,0.19,0
			C218.68,37.46,218.68,37.41,218.63,37.38 M219.8,38.06c-0.05-0.03-0.14-0.03-0.2,0c-0.05,0.03-0.05,0.08,0,0.11
			c0.05,0.03,0.14,0.03,0.19,0C219.86,38.14,219.86,38.09,219.8,38.06 M220.98,38.74c-0.05-0.03-0.14-0.03-0.2,0
			c-0.05,0.03-0.05,0.08,0,0.11c0.05,0.03,0.14,0.03,0.19,0C221.03,38.82,221.03,38.77,220.98,38.74 M241.7,50.47l-17.56-10.14
			c-0.07-0.04-0.18-0.04-0.25,0l-0.33,0.19c-0.07,0.04-0.07,0.11,0,0.15l17.56,10.14c0.07,0.04,0.18,0.04,0.25,0l0.33-0.19
			C241.77,50.58,241.77,50.51,241.7,50.47 M198.35,48.82l0.29-0.17l3.33,1.92l-0.29,0.17L198.35,48.82 M205.89,53.17l0.29-0.17
			l3.33,1.92l-0.29,0.17L205.89,53.17 M213.52,57.58l0.29-0.17l3.33,1.92l-0.29,0.17L213.52,57.58 M221.16,61.99l0.29-0.17
			l3.33,1.92l-0.29,0.17L221.16,61.99 M198.94,48.48l0.29-0.17l2.74,1.58l-0.29,0.17L198.94,48.48 M206.47,52.83l0.29-0.17
			l2.74,1.58l-0.29,0.17L206.47,52.83 M214.11,57.24l0.29-0.17l2.74,1.58l-0.29,0.17L214.11,57.24 M221.74,61.65l0.29-0.17
			l2.74,1.58l-0.29,0.17L221.74,61.65 M199.52,48.15l0.29-0.17l4.31,2.49l-0.29,0.17L199.52,48.15 M207.06,52.5l0.29-0.17l4.31,2.49
			l-0.29,0.17L207.06,52.5 M214.69,56.9l0.29-0.17l4.31,2.49L219,59.39L214.69,56.9 M222.32,61.31l0.29-0.17l4.31,2.49l-0.29,0.17
			L222.32,61.31 M200.05,47.72l6.03-3.5l6.07,3.5l-6.03,3.5L200.05,47.72 M207.69,52.13l6.03-3.5l6.07,3.5l-6.03,3.5L207.69,52.13
			 M215.32,56.54l6.03-3.5l6.07,3.5l-6.03,3.5L215.32,56.54 M222.96,60.95l6.03-3.5l6.07,3.5l-6.03,3.5L222.96,60.95 M207.69,43.4
			l0.29-0.17l3.33,1.92l-0.29,0.17L207.69,43.4 M215.22,47.75l0.29-0.17l3.33,1.92l-0.29,0.17L215.22,47.75 M222.86,52.16l0.29-0.17
			l3.33,1.92l-0.29,0.17L222.86,52.16 M230.49,56.57l0.29-0.17l3.33,1.92l-0.29,0.17L230.49,56.57 M208.27,43.06l0.29-0.17
			l2.74,1.58l-0.29,0.17L208.27,43.06 M215.81,47.41l0.29-0.17l2.74,1.58l-0.29,0.17L215.81,47.41 M223.44,51.82l0.29-0.17
			l2.74,1.58l-0.29,0.17L223.44,51.82 M231.08,56.23l0.29-0.17l2.74,1.58l-0.29,0.17L231.08,56.23 M208.86,42.72l0.29-0.17
			l4.31,2.49l-0.29,0.17L208.86,42.72 M216.39,47.07l0.29-0.17l4.31,2.49l-0.29,0.17L216.39,47.07 M224.03,51.48l0.29-0.17
			l4.31,2.49l-0.29,0.17L224.03,51.48 M231.66,55.89l0.29-0.17l4.31,2.49l-0.29,0.17L231.66,55.89 M209.39,42.3l6.03-3.5l6.07,3.5
			l-6.03,3.5L209.39,42.3 M217.02,46.7l6.03-3.5l6.07,3.5l-6.03,3.5L217.02,46.7 M224.66,51.11l6.03-3.5l6.07,3.5l-6.03,3.5
			L224.66,51.11 M232.29,55.52l6.03-3.5l6.07,3.5l-6.03,3.5L232.29,55.52 M218.14,37.66c-0.22-0.12-0.22-0.33,0-0.45
			c0.22-0.13,0.57-0.13,0.78,0c0.22,0.13,0.22,0.33,0,0.45C218.71,37.79,218.36,37.79,218.14,37.66 M219.32,38.34
			c-0.22-0.13-0.22-0.33,0-0.45c0.22-0.13,0.57-0.13,0.78,0c0.22,0.13,0.22,0.33,0,0.45C219.88,38.46,219.54,38.47,219.32,38.34
			 M220.49,39.02c-0.22-0.13-0.22-0.33,0-0.45c0.22-0.13,0.57-0.13,0.78,0c0.22,0.12,0.22,0.33,0,0.45
			C221.06,39.14,220.71,39.14,220.49,39.02 M223.26,40.84c-0.23-0.13-0.23-0.35,0-0.49l0.33-0.19c0.23-0.13,0.61-0.13,0.84,0
			l17.56,10.14c0.23,0.13,0.23,0.35,0,0.49l-0.33,0.19c-0.23,0.13-0.61,0.13-0.84,0L223.26,40.84 M247.78,53.08l-28.16-16.26
			c-0.82-0.47-2.14-0.47-2.95,0l-19.42,11.29c-0.81,0.47-0.81,1.24,0.01,1.71l28.16,16.26c0.82,0.47,2.14,0.47,2.95,0l19.42-11.29
			C248.6,54.32,248.59,53.55,247.78,53.08"/>
		<path class="st5" d="M197.25,49.82c-0.82-0.47-0.82-1.24-0.01-1.71l19.42-11.29c0.81-0.47,2.14-0.47,2.95,0l28.16,16.26
			c0.82,0.47,0.82,1.24,0.01,1.71l-19.42,11.29c-0.81,0.47-2.13,0.47-2.95,0L197.25,49.82 M248.07,52.91l-28.16-16.26
			c-0.98-0.57-2.56-0.57-3.54,0l-19.42,11.29c-0.97,0.57-0.97,1.48,0.01,2.05l28.16,16.26c0.98,0.57,2.56,0.57,3.54,0l19.42-11.29
			C249.05,54.39,249.05,53.48,248.07,52.91"/>
		<path class="st5" d="M218.43,37.49c-0.05-0.03-0.05-0.08,0-0.11c0.05-0.03,0.14-0.03,0.19,0c0.06,0.03,0.06,0.08,0,0.11
			C218.58,37.52,218.49,37.52,218.43,37.49 M218.92,37.21c-0.22-0.12-0.57-0.12-0.78,0c-0.21,0.12-0.21,0.33,0,0.45
			c0.22,0.13,0.57,0.13,0.78,0C219.14,37.54,219.14,37.33,218.92,37.21"/>
		<path class="st5" d="M219.61,38.17c-0.05-0.03-0.05-0.08,0-0.11c0.05-0.03,0.14-0.03,0.2,0c0.06,0.03,0.06,0.08,0,0.11
			C219.75,38.2,219.67,38.2,219.61,38.17 M220.1,37.89c-0.22-0.13-0.57-0.13-0.78,0c-0.21,0.12-0.21,0.33,0,0.45
			c0.22,0.13,0.56,0.12,0.78,0C220.31,38.21,220.31,38.01,220.1,37.89"/>
		<path class="st5" d="M220.79,38.85c-0.05-0.03-0.06-0.08,0-0.11c0.05-0.03,0.14-0.03,0.2,0c0.05,0.03,0.05,0.08,0,0.11
			C220.93,38.88,220.84,38.88,220.79,38.85 M221.27,38.57c-0.22-0.13-0.57-0.13-0.78,0c-0.21,0.12-0.21,0.33,0,0.45
			c0.22,0.12,0.57,0.12,0.78,0C221.49,38.89,221.49,38.69,221.27,38.57"/>
		<path class="st5" d="M223.55,40.67c-0.07-0.04-0.07-0.11,0-0.15l0.33-0.19c0.07-0.04,0.18-0.04,0.25,0l17.56,10.14
			c0.07,0.04,0.07,0.11,0,0.15l-0.33,0.19c-0.07,0.04-0.18,0.04-0.25,0L223.55,40.67 M241.99,50.3l-17.56-10.14
			c-0.23-0.13-0.61-0.13-0.84,0l-0.33,0.19c-0.23,0.13-0.23,0.35,0,0.49l17.56,10.14c0.23,0.13,0.61,0.13,0.84,0l0.33-0.19
			C242.22,50.66,242.22,50.44,241.99,50.3"/>
		<path class="st5" d="M209.98,42.3l5.45-3.16l5.48,3.16l-5.45,3.16L209.98,42.3z M221.49,42.3l-6.07-3.5l-6.03,3.5l6.07,3.5
			L221.49,42.3"/>
		<path class="st5" d="M217.61,46.7l5.45-3.16l5.48,3.16l-5.45,3.16L217.61,46.7z M229.12,46.7l-6.07-3.5l-6.03,3.5l6.07,3.5
			L229.12,46.7"/>
		<path class="st5" d="M225.24,51.11l5.45-3.16l5.48,3.16l-5.45,3.16L225.24,51.11z M236.76,51.11l-6.07-3.5l-6.03,3.5l6.07,3.5
			L236.76,51.11"/>
		<path class="st5" d="M232.88,55.52l5.45-3.16l5.48,3.16l-5.45,3.16L232.88,55.52z M244.39,55.52l-6.07-3.5l-6.03,3.5l6.07,3.5
			L244.39,55.52"/>
		<path class="st5" d="M200.64,47.72l5.45-3.17l5.48,3.16l-5.45,3.17L200.64,47.72z M212.15,47.72l-6.07-3.5l-6.03,3.5l6.07,3.5
			L212.15,47.72"/>
		<path class="st5" d="M208.27,52.13l5.45-3.17l5.48,3.16l-5.45,3.17L208.27,52.13z M219.79,52.13l-6.07-3.5l-6.03,3.5l6.07,3.5
			L219.79,52.13"/>
		<path class="st5" d="M215.91,56.54l5.45-3.17l5.48,3.16l-5.45,3.17L215.91,56.54z M227.42,56.54l-6.07-3.5l-6.03,3.5l6.07,3.5
			L227.42,56.54"/>
		<path class="st5" d="M223.54,60.95l5.45-3.17l5.48,3.16l-5.45,3.17L223.54,60.95z M235.05,60.95l-6.07-3.5l-6.03,3.5l6.07,3.5
			L235.05,60.95"/>
		<polygon class="st5" points="213.45,45.04 209.15,42.55 208.86,42.72 213.16,45.21 		"/>
		<polygon class="st5" points="211.3,44.47 208.56,42.89 208.27,43.06 211.01,44.64 		"/>
		<polygon class="st5" points="211.31,45.15 207.98,43.23 207.69,43.4 211.02,45.32 		"/>
		<polygon class="st5" points="220.99,49.39 216.68,46.9 216.39,47.07 220.7,49.56 		"/>
		<polygon class="st5" points="218.84,48.82 216.1,47.24 215.81,47.41 218.55,48.99 		"/>
		<polygon class="st5" points="218.84,49.5 215.52,47.58 215.22,47.75 218.55,49.67 		"/>
		<polygon class="st5" points="228.62,53.79 224.32,51.31 224.03,51.48 228.33,53.96 		"/>
		<polygon class="st5" points="226.47,53.23 223.73,51.65 223.44,51.82 226.18,53.4 		"/>
		<polygon class="st5" points="226.48,53.91 223.15,51.99 222.86,52.16 226.19,54.08 		"/>
		<polygon class="st5" points="236.26,58.2 231.95,55.72 231.66,55.89 235.97,58.37 		"/>
		<polygon class="st5" points="234.11,57.64 231.37,56.06 231.08,56.23 233.82,57.81 		"/>
		<polygon class="st5" points="234.11,58.32 230.79,56.4 230.49,56.57 233.82,58.49 		"/>
		<polygon class="st5" points="204.12,50.46 199.81,47.98 199.52,48.15 203.82,50.63 		"/>
		<polygon class="st5" points="201.97,49.9 199.23,48.31 198.94,48.48 201.68,50.07 		"/>
		<polygon class="st5" points="201.97,50.57 198.65,48.65 198.35,48.82 201.68,50.74 		"/>
		<polygon class="st5" points="211.65,54.81 207.35,52.33 207.06,52.5 211.36,54.98 		"/>
		<polygon class="st5" points="209.51,54.25 206.77,52.67 206.47,52.83 209.21,54.42 		"/>
		<polygon class="st5" points="209.51,54.93 206.18,53 205.89,53.17 209.22,55.1 		"/>
		<polygon class="st5" points="219.29,59.22 214.98,56.73 214.69,56.9 219,59.39 		"/>
		<polygon class="st5" points="217.14,58.65 214.4,57.07 214.11,57.24 216.85,58.82 		"/>
		<polygon class="st5" points="217.14,59.33 213.82,57.41 213.52,57.58 216.85,59.5 		"/>
		<polygon class="st5" points="226.92,63.63 222.62,61.14 222.32,61.31 226.63,63.8 		"/>
		<polygon class="st5" points="224.77,63.06 222.03,61.48 221.74,61.65 224.48,63.23 		"/>
		<polygon class="st5" points="224.78,63.74 221.45,61.82 221.16,61.99 224.49,63.91 		"/>
	</g>
</g>
<g>
	<defs>
		<rect id="SVGID_39_" x="195.45" y="108.08" width="48.13" height="27.88"/>
	</defs>
	<clipPath id="SVGID_3_">
		<use xlink:href="#SVGID_39_"  style="overflow:visible;"/>
	</clipPath>
	<g class="st6">
		<defs>
			<polygon id="SVGID_41_" points="195.45,122.02 219.44,108.08 243.58,122.02 219.59,135.96 			"/>
		</defs>
		<clipPath id="SVGID_4_">
			<use xlink:href="#SVGID_41_"  style="overflow:visible;"/>
		</clipPath>
		<path class="st7" d="M219.52,123.92l-0.13-0.08l-0.13-0.08l-2.76,1.6l-9.51-5.49l-0.26,0.15l9.77,5.64L219.52,123.92z
			 M226.84,115.85l-10.42-6.02l-13.63,7.92l3.69,2.13l0.26-0.15l-3.43-1.98l13.11-7.62l10.16,5.87L226.84,115.85 M230.14,117.76
			L227.1,116l-0.26,0.15l2.78,1.6l-7.07,4.11l0.26,0.15L230.14,117.76"/>
		<path class="st7" d="M223.21,125.75l-3.43-1.98l-0.01,0l-0.13-0.08l-0.25,0.15l0.13,0.08l3.43,1.98L223.21,125.75z M219.37,120.34
			l-0.13-0.08l-0.01,0L219.37,120.34L219.37,120.34 M243.58,122.02l-13.72-7.92l-3.02,1.75l-0.26,0.15l-7.07,4.11l0.26,0.15
			l7.07-4.11l0.26-0.15l2.76-1.6l13.2,7.62l-13.11,7.62l-6.47-3.74l-0.26,0.15l6.73,3.89L243.58,122.02"/>
		<path class="st7" d="M220.62,120.76l-0.52-0.3l-0.13,0.08l0.52,0.3L220.62,120.76z M221.4,121.21l-0.52-0.3l-0.13,0.08l0.52,0.3
			L221.4,121.21 M222.19,121.66l-0.52-0.3l-0.13,0.08l0.52,0.3L222.19,121.66 M226.49,124.15l-3.69-2.13l-0.26-0.15l-0.09-0.05
			l-0.13,0.08l0.22,0.13l-0.13,0.07l3.56,2.05l-2.76,1.6l-0.26,0.15l-10.09,5.87l-13.2-7.62l7.07-4.11l0.26-0.15l5.78-3.36
			l6.47,3.73l0.13,0.08l0.13-0.07l0.2,0.12l0.13-0.08l-0.07-0.04l-0.26-0.15l-6.73-3.89l-6.04,3.51l-0.26,0.15l-7.33,4.26
			l13.72,7.92l10.35-6.02l0.26-0.15L226.49,124.15"/>
		<polygon class="st8" points="222.54,122.02 222.32,121.89 222.19,121.96 221.93,121.81 222.05,121.74 221.53,121.44 221.4,121.51 
			221.14,121.36 221.27,121.28 220.75,120.98 220.62,121.06 220.36,120.91 220.49,120.83 219.96,120.53 219.83,120.6 219.57,120.45 
			219.7,120.38 219.5,120.26 219.37,120.34 219.37,120.34 219.18,120.45 219.31,120.52 219.05,120.68 218.92,120.6 218.4,120.9 
			218.53,120.98 218.27,121.13 218.14,121.05 217.62,121.36 217.75,121.43 217.49,121.58 217.36,121.51 216.84,121.81 
			216.97,121.88 216.71,122.04 216.58,121.96 216.48,122.02 216.91,122.26 217.04,122.19 217.3,122.34 217.17,122.41 217.69,122.71 
			217.82,122.64 218.08,122.79 217.95,122.87 218.48,123.17 218.61,123.09 218.87,123.24 218.74,123.32 219.26,123.62 
			219.39,123.55 219.52,123.62 219.78,123.47 219.91,123.55 220.43,123.25 220.29,123.17 220.55,123.02 220.69,123.1 221.21,122.79 
			221.07,122.72 221.33,122.57 221.47,122.64 221.99,122.34 221.85,122.26 222.11,122.11 222.25,122.19 222.41,122.09 		"/>
		<path class="st7" d="M217.3,122.34l-0.26-0.15l-0.13,0.07l-0.13,0.08l0.26,0.15l0.13-0.08L217.3,122.34z M218.08,122.79
			l-0.26-0.15l-0.13,0.07l-0.13,0.08l0.26,0.15l0.13-0.08L218.08,122.79 M218.87,123.24l-0.26-0.15l-0.13,0.07l-0.13,0.08l0.26,0.15
			l0.13-0.08L218.87,123.24 M216.97,121.88l-0.13-0.08l-0.13-0.08l-0.26,0.15l0.13,0.08l0.13,0.08L216.97,121.88 M220.04,123.62
			l-0.13-0.08l-0.13-0.08l-0.25,0.15l-0.13-0.07l-0.13,0.07l-0.13,0.08l0.13,0.07l0.13,0.08l0.25-0.15l0.13,0.08l0.01,0
			L220.04,123.62 M217.75,121.43l-0.13-0.08l-0.13-0.08l-0.26,0.15l0.13,0.08l0.13,0.08L217.75,121.43 M220.82,123.17l-0.13-0.08
			l-0.13-0.08l-0.26,0.15l0.13,0.08l0.13,0.08L220.82,123.17 M218.53,120.98l-0.13-0.08l-0.13-0.08l-0.26,0.15l0.13,0.08l0.13,0.08
			L218.53,120.98 M221.6,122.72l-0.13-0.08l-0.13-0.08l-0.26,0.15l0.13,0.08l0.13,0.08L221.6,122.72 M219.31,120.52l-0.13-0.08
			l-0.13-0.08l-0.26,0.15l0.13,0.08l0.13,0.08L219.31,120.52 M222.38,122.27l-0.13-0.08l-0.13-0.08l-0.26,0.15l0.13,0.08l0.13,0.08
			L222.38,122.27 M220.09,120.45l-0.26-0.15l-0.13,0.08l-0.13,0.07l0.26,0.15l0.13-0.07L220.09,120.45 M220.88,120.91l-0.26-0.15
			l-0.13,0.08l-0.13,0.07l0.26,0.15l0.13-0.07L220.88,120.91 M221.66,121.36l-0.26-0.15l-0.13,0.08l-0.13,0.07l0.26,0.15l0.13-0.07
			L221.66,121.36 M222.45,121.81l-0.26-0.15l-0.13,0.08l-0.13,0.07l0.26,0.15l0.13-0.07L222.45,121.81"/>
	</g>
</g>
<g>
	<g>
		<defs>
			<polygon id="SVGID_43_" points="204.81,84.3 216.58,77.46 239.34,90.6 227.57,97.44 			"/>
		</defs>
		<clipPath id="SVGID_5_">
			<use xlink:href="#SVGID_43_"  style="overflow:visible;"/>
		</clipPath>
	</g>
	<rect x="204.81" y="77.46" class="st9" width="34.52" height="19.98"/>
	<line class="st10" x1="211.81" y1="88.38" x2="211.76" y2="88.58"/>
	<line class="st10" x1="221.14" y1="88.38" x2="221.2" y2="88.58"/>
	<ellipse transform="matrix(0.6033 -0.7975 0.7975 0.6033 17.5894 223.4751)" cx="233.44" cy="94.06" rx="1.27" ry="0.73"/>
	<path class="st11" d="M222.21,80.44c-3.1-1.79-8.14-1.79-11.22,0c-3.08,1.79-3.07,4.71,0.04,6.5c3.06,1.76,7.98,1.79,11.07,0.08
		l0.29-0.17C225.34,85.06,225.27,82.21,222.21,80.44z M222.38,86.29L222.38,86.29l-0.54,0.31l-0.21,0.13
		c-1.37,0.69-3.13,1.07-4.98,1.07c-2.04,0-3.95-0.45-5.38-1.28c-1.35-0.78-2.09-1.79-2.09-2.84c0-1.04,0.73-2.04,2.06-2.82
		c1.42-0.82,3.32-1.28,5.36-1.28c2.04,0,3.94,0.45,5.37,1.28c1.34,0.77,2.08,1.77,2.1,2.82C224.08,84.63,223.48,85.54,222.38,86.29z
		"/>
	<path class="st11" d="M224.55,83.69c0.01,1.14-0.71,2.28-2.16,3.16l-0.29,0.17c-3.09,1.71-8.02,1.68-11.07-0.08
		c-1.55-0.9-2.33-2.07-2.34-3.25h0l0,1.2c0.01,1.18,0.79,2.35,2.34,3.25c3.06,1.76,7.98,1.79,11.07,0.08l-0.02-0.01l0.29-0.17
		l0.02,0.01c1.45-0.89,2.17-2.02,2.16-3.16L224.55,83.69L224.55,83.69z"/>
	<path class="st12" d="M222.38,86.29L222.38,86.29l-0.54,0.31l-0.21,0.13c-1.37,0.69-3.13,1.07-4.98,1.07
		c-2.04,0-3.95-0.45-5.38-1.28c-1.35-0.78-2.09-1.79-2.09-2.84c0-1.04,0.73-2.04,2.06-2.82c1.42-0.82,3.32-1.28,5.36-1.28
		c2.04,0,3.94,0.45,5.37,1.28c1.34,0.77,2.08,1.77,2.1,2.82C224.08,84.63,223.48,85.54,222.38,86.29z"/>
	<polyline points="232.71,95.1 222.02,87.99 222.74,87.14 234.2,93.03 	"/>
	
		<ellipse transform="matrix(0.6033 -0.7975 0.7975 0.6033 17.5894 223.4751)" class="st1" cx="233.44" cy="94.06" rx="0.89" ry="0.51"/>
	<ellipse transform="matrix(0.6033 -0.7975 0.7975 0.6033 18.3729 212.0899)" cx="222.39" cy="87.58" rx="0.56" ry="0.32"/>
</g>
<g>
	<g>
		<g>
			<defs>
				<polygon id="SVGID_45_" points="32.56,51.44 54.05,38.95 75.69,51.44 54.2,63.93 				"/>
			</defs>
			<clipPath id="SVGID_6_">
				<use xlink:href="#SVGID_45_"  style="overflow:visible;"/>
			</clipPath>
			<path class="st13" d="M48.81,53.22l-0.04-0.02l-0.17,0.08l-0.91,0.3l0.47,0.27l0.51-0.53L48.81,53.22 M45.8,46.82l-0.43-0.25
				l-0.62,0.36l0.43,0.25c0.22,0.13,0.47,0.13,0.66,0.02C46.03,47.09,46.02,46.95,45.8,46.82 M49.36,48.88l-0.44-0.26l-0.58,0.34
				l0.44,0.26c0.21,0.12,0.44,0.13,0.62,0.02C49.6,49.13,49.57,49,49.36,48.88 M54.72,51.97l-0.44-0.26l-0.58,0.34l0.44,0.26
				c0.21,0.12,0.44,0.13,0.62,0.02C54.95,52.22,54.92,52.09,54.72,51.97 M52.86,50.85c-0.31-0.18-0.71-0.12-1.23,0.18
				c-0.52,0.3-0.62,0.53-0.31,0.72c0.31,0.18,0.71,0.12,1.23-0.18C53.07,51.26,53.17,51.03,52.86,50.85 M51.71,45.45l-0.44-0.25
				l-0.58,0.34l0.44,0.26c0.21,0.12,0.44,0.13,0.62,0.02C51.94,45.7,51.91,45.57,51.71,45.45 M49.85,44.33
				c-0.31-0.18-0.71-0.12-1.23,0.18c-0.52,0.3-0.63,0.53-0.31,0.71c0.31,0.18,0.71,0.12,1.23-0.18
				C50.06,44.74,50.16,44.51,49.85,44.33 M55.85,42.93l-0.04-0.03l-0.17,0.08l-0.91,0.3l0.47,0.27l0.52-0.53L55.85,42.93
				 M52.12,57.26l0.37-0.22l0.38,0.22l-0.37,0.22L52.12,57.26 M41.83,51.05c0.23,0.14,0.51,0.13,0.75-0.01l1.39-0.81l0.29,0.17
				l-1.39,0.81c-0.39,0.23-0.93,0.22-1.32,0c-0.39-0.23-0.4-0.54-0.01-0.76l1.39-0.81l0.29,0.17l-1.39,0.81
				C41.6,50.75,41.6,50.92,41.83,51.05 M46.1,51.78l0.27-0.16l1.6,0.92L47.7,52.7l-0.66-0.38l-1.73,1.01l-0.29-0.17l1.73-1.01
				L46.1,51.78 M46.14,53.81l2.59-0.82l0.46,0.26l-1.41,1.5l-0.31-0.18l0.51-0.52l-0.62-0.36l-0.9,0.29L46.14,53.81 M49.83,53.91
				l0.26-0.15l1.31,0.76l-0.26,0.15l-0.51-0.29l-1.49,0.86l0.51,0.29l-0.26,0.15l-1.31-0.76l0.26-0.15l0.51,0.3l1.49-0.86
				L49.83,53.91 M51.14,56.36l0.04,0.02l1.72-1l0.29,0.17l-2,1.16l-0.46-0.27l0.95-1.11l0.24-0.19l-0.04-0.03l-1.72,1l-0.29-0.17
				l2-1.16l0.46,0.27l-0.95,1.11L51.14,56.36 M40.04,50.03c0.25,0.14,0.52,0.15,0.71,0.04c0.15-0.09,0.17-0.21-0.04-0.38l-0.18-0.15
				c-0.28-0.24-0.27-0.45,0.02-0.62c0.36-0.21,0.89-0.19,1.32,0.06c0.45,0.26,0.47,0.55,0.01,0.81l-0.31-0.18
				c0.28-0.16,0.3-0.32,0.01-0.49c-0.26-0.15-0.53-0.15-0.72-0.05c-0.15,0.09-0.16,0.2,0.05,0.38l0.18,0.15
				c0.28,0.24,0.27,0.45-0.03,0.63c-0.36,0.21-0.86,0.19-1.31-0.06c-0.47-0.27-0.49-0.55-0.01-0.82l0.31,0.18
				C39.77,49.7,39.76,49.86,40.04,50.03 M43.61,52.09c0.24,0.14,0.52,0.15,0.71,0.04c0.15-0.09,0.16-0.21-0.04-0.38L44.1,51.6
				c-0.28-0.24-0.27-0.45,0.02-0.62c0.36-0.21,0.89-0.19,1.32,0.06c0.45,0.26,0.47,0.55,0.01,0.81l-0.31-0.18
				c0.28-0.16,0.3-0.32,0.01-0.49c-0.26-0.15-0.53-0.15-0.72-0.05c-0.15,0.09-0.16,0.2,0.05,0.38l0.18,0.15
				c0.28,0.24,0.27,0.45-0.03,0.63c-0.36,0.21-0.86,0.19-1.31-0.06c-0.47-0.27-0.49-0.55-0.01-0.82l0.31,0.18
				C43.34,51.76,43.33,51.92,43.61,52.09 M56.25,54.86l0.37-0.21L57,54.86l-0.37,0.22L56.25,54.86 M43.36,47.41l2-1.16l0.72,0.41
				c0.38,0.22,0.42,0.5,0.06,0.71c-0.36,0.21-0.84,0.19-1.22-0.03l-0.43-0.25l-0.84,0.49L43.36,47.41 M45.15,48.45l2-1.16l1.2,0.7
				l-0.27,0.16l-0.91-0.53l-0.59,0.34l0.89,0.51l-0.27,0.16l-0.89-0.51l-0.6,0.35l0.92,0.53l-0.27,0.16L45.15,48.45 M46.9,49.46
				l2-1.16l0.69,0.4c0.41,0.24,0.49,0.48,0.11,0.71c-0.36,0.21-0.77,0.15-1.15-0.06l-0.04,0.03l0.03,0.06l-0.29,0.81l-0.36-0.21
				l0.32-0.85l-0.13-0.07l-0.89,0.52L46.9,49.46 M48.77,50.54l2-1.16l1.26,0.73l-0.27,0.16l-0.97-0.56l-0.59,0.34l0.91,0.53
				l-0.27,0.16l-0.92-0.53l-0.87,0.5L48.77,50.54 M52.26,52.55l2-1.16l0.69,0.4c0.41,0.24,0.49,0.48,0.1,0.71
				c-0.36,0.21-0.77,0.15-1.15-0.06l-0.04,0.03l0.03,0.06l-0.29,0.81l-0.37-0.21l0.32-0.85l-0.13-0.07l-0.89,0.52L52.26,52.55
				 M55.48,53.44l0.04,0.02l0.13-0.07l1.25-0.48l0.42,0.24l-2,1.16l-0.27-0.16l1.72-1l-0.04-0.02l-0.27,0.14l-1.09,0.4l-0.25-0.14
				l0.68-0.64l0.24-0.16l-0.04-0.03l-1.72,1l-0.27-0.16l2-1.16l0.42,0.25l-0.82,0.73L55.48,53.44 M51.04,51.9
				c-0.5-0.29-0.4-0.65,0.28-1.05c0.68-0.4,1.31-0.45,1.81-0.17c0.5,0.29,0.4,0.65-0.28,1.05C52.17,52.13,51.54,52.19,51.04,51.9
				 M49.25,46.03l2-1.16l0.69,0.4c0.41,0.24,0.5,0.48,0.11,0.71c-0.36,0.21-0.78,0.15-1.15-0.06l-0.04,0.03l0.03,0.06l-0.28,0.81
				l-0.37-0.21l0.32-0.85l-0.13-0.07l-0.89,0.52L49.25,46.03 M52.73,46.02l0.26-0.15l1.31,0.76l-0.26,0.15l-0.51-0.3l-1.49,0.86
				l0.51,0.3L52.3,47.8l-1.31-0.76l0.26-0.15l0.51,0.3l1.49-0.86L52.73,46.02 M56.3,48.09l0.26-0.15l1.31,0.76l-0.26,0.15l-0.51-0.3
				l-1.49,0.86l0.51,0.3l-0.26,0.15l-1.31-0.76l0.26-0.15l0.51,0.3l1.49-0.86L56.3,48.09 M57.61,50.54l0.04,0.02l1.72-1l0.29,0.17
				l-2,1.16l-0.46-0.27l0.95-1.11l0.24-0.19l-0.04-0.02l-1.72,1l-0.29-0.17l2-1.16l0.46,0.27l-0.95,1.11L57.61,50.54 M48.03,45.38
				c-0.5-0.29-0.4-0.65,0.28-1.05c0.68-0.4,1.31-0.45,1.81-0.17c0.5,0.29,0.4,0.65-0.28,1.05C49.16,45.61,48.53,45.67,48.03,45.38
				 M53.31,48.43c-0.43-0.25-0.31-0.6,0.37-1c0.7-0.41,1.31-0.45,1.85-0.14c0.41,0.24,0.39,0.58-0.05,0.83l-0.29-0.17
				c0.29-0.17,0.32-0.36,0.07-0.5c-0.35-0.2-0.74-0.16-1.28,0.16c-0.53,0.31-0.63,0.53-0.33,0.71c0.24,0.14,0.58,0.11,0.95-0.08
				l-0.47-0.27l0.27-0.16l0.75,0.43l-1.03,0.6l-0.29-0.17l0.51-0.21l-0.04-0.03C53.91,48.58,53.58,48.59,53.31,48.43 M52.82,42.98
				l0.04,0.03l1.72-1l0.29,0.17l-2,1.16l-0.46-0.27l0.95-1.11l0.24-0.19l-0.04-0.02l-1.72,1l-0.29-0.17l2-1.16l0.46,0.27l-0.95,1.11
				L52.82,42.98 M53.18,43.52l2.58-0.82l0.46,0.27l-1.41,1.5l-0.31-0.18l0.51-0.52l-0.62-0.36l-0.9,0.29L53.18,43.52 M56.6,44.52
				l0.04,0.02l0.13-0.07l1.25-0.48l0.42,0.24l-2,1.16l-0.27-0.16l1.72-1l-0.04-0.02l-0.27,0.14l-1.09,0.4l-0.25-0.14l0.69-0.64
				l0.24-0.16l-0.04-0.02l-1.72,1l-0.27-0.16l2-1.16l0.42,0.25l-0.82,0.72L56.6,44.52 M56.98,45.71l2-1.16l1.2,0.7l-0.27,0.16
				L59,44.88l-0.59,0.34l0.89,0.51l-0.27,0.16l-0.89-0.51l-0.59,0.34l0.91,0.53l-0.27,0.16L56.98,45.71 M75.03,51.44L54.06,39.33
				L33.22,51.44l20.97,12.11L75.03,51.44"/>
			<path class="st14" d="M33.22,51.44l20.84-12.11l20.97,12.11L54.19,63.55L33.22,51.44z M75.69,51.44L54.05,38.95L32.56,51.44
				L54.2,63.93L75.69,51.44"/>
			<polygon class="st14" points="54.87,42.18 54.58,42.01 52.86,43.01 52.82,42.98 53.06,42.79 54.01,41.68 53.54,41.41 
				51.54,42.57 51.83,42.74 53.55,41.74 53.59,41.77 53.35,41.96 52.4,43.07 52.87,43.34 			"/>
			<path class="st14" d="M54.73,43.29l0.91-0.3l0.17-0.08l0.04,0.03l-0.14,0.1l-0.52,0.53L54.73,43.29z M56.22,42.96l-0.46-0.27
				l-2.58,0.82l0.31,0.18l0.9-0.29L55,43.76l-0.51,0.52l0.31,0.18L56.22,42.96"/>
			<polygon class="st14" points="58.44,44.24 58.01,43.99 56.77,44.47 56.64,44.54 56.6,44.52 56.72,44.44 57.54,43.72 57.11,43.47 
				55.11,44.63 55.39,44.79 57.11,43.79 57.15,43.82 56.91,43.98 56.22,44.61 56.47,44.76 57.57,44.36 57.84,44.22 57.88,44.24 
				56.16,45.24 56.44,45.4 			"/>
			<polygon class="st14" points="60.19,45.25 58.98,44.55 56.98,45.71 58.19,46.41 58.46,46.25 57.54,45.72 58.14,45.38 
				59.02,45.89 59.29,45.73 58.41,45.22 59,44.88 59.92,45.4 			"/>
			<path class="st14" d="M48.3,45.22c-0.31-0.18-0.21-0.41,0.31-0.71c0.52-0.3,0.92-0.36,1.23-0.18c0.31,0.18,0.21,0.41-0.31,0.71
				C49.01,45.34,48.62,45.4,48.3,45.22 M50.12,44.17c-0.5-0.29-1.13-0.23-1.81,0.17c-0.68,0.39-0.78,0.76-0.28,1.05
				c0.5,0.29,1.13,0.23,1.81-0.17C50.52,44.82,50.62,44.46,50.12,44.17"/>
			<path class="st14" d="M50.68,45.53l0.58-0.34l0.44,0.25c0.2,0.12,0.24,0.25,0.04,0.36c-0.19,0.11-0.41,0.1-0.62-0.02L50.68,45.53
				 M51.94,45.27l-0.69-0.4l-2,1.16l0.29,0.17l0.89-0.52l0.13,0.07l-0.32,0.85l0.37,0.21L50.89,46l-0.03-0.06l0.04-0.03
				c0.37,0.21,0.79,0.27,1.15,0.06C52.44,45.75,52.35,45.51,51.94,45.27"/>
			<polygon class="st14" points="54.3,46.63 52.99,45.88 52.73,46.02 53.24,46.32 51.76,47.18 51.25,46.89 50.99,47.04 52.3,47.8 
				52.56,47.65 52.04,47.35 53.53,46.49 54.04,46.78 			"/>
			<path class="st14" d="M55.53,47.29c-0.54-0.31-1.15-0.27-1.85,0.14c-0.68,0.39-0.8,0.75-0.37,1c0.27,0.16,0.6,0.16,0.98,0.01
				l0.04,0.03l-0.51,0.21l0.29,0.17l1.03-0.6l-0.75-0.43l-0.27,0.16l0.47,0.27c-0.38,0.19-0.71,0.22-0.95,0.08
				c-0.31-0.18-0.21-0.4,0.33-0.71c0.54-0.31,0.93-0.36,1.28-0.16c0.25,0.14,0.22,0.33-0.07,0.5l0.29,0.17
				C55.92,47.87,55.94,47.53,55.53,47.29"/>
			<polygon class="st14" points="57.87,48.69 56.56,47.94 56.3,48.09 56.81,48.38 55.33,49.25 54.82,48.95 54.56,49.1 55.87,49.86 
				56.13,49.71 55.61,49.41 57.1,48.55 57.61,48.84 			"/>
			<polygon class="st14" points="59.66,49.73 59.37,49.56 57.65,50.56 57.61,50.54 57.85,50.34 58.8,49.23 58.34,48.96 56.34,50.13 
				56.63,50.29 58.34,49.29 58.39,49.32 58.15,49.51 57.2,50.62 57.66,50.89 			"/>
			<path class="st14" d="M44.75,46.94l0.62-0.36l0.43,0.25c0.22,0.13,0.22,0.27,0.04,0.38c-0.19,0.11-0.44,0.11-0.66-0.02
				L44.75,46.94 M46.08,46.67l-0.72-0.41l-2,1.16l0.29,0.17l0.84-0.49l0.43,0.25c0.38,0.22,0.86,0.24,1.22,0.03
				C46.5,47.16,46.46,46.89,46.08,46.67"/>
			<polygon class="st14" points="48.36,47.98 47.16,47.29 45.15,48.45 46.36,49.15 46.63,48.99 45.71,48.46 46.31,48.12 47.2,48.63 
				47.47,48.47 46.58,47.96 47.17,47.61 48.09,48.14 			"/>
			<path class="st14" d="M48.34,48.96l0.58-0.34l0.44,0.26c0.2,0.12,0.23,0.25,0.04,0.36c-0.19,0.11-0.41,0.1-0.62-0.02L48.34,48.96
				 M49.6,48.7l-0.69-0.4l-2,1.16l0.29,0.17l0.89-0.52l0.13,0.07l-0.32,0.85l0.37,0.21l0.29-0.81l-0.03-0.06l0.04-0.03
				c0.37,0.21,0.78,0.27,1.15,0.06C50.09,49.18,50.01,48.94,49.6,48.7"/>
			<polygon class="st14" points="52.03,50.1 50.77,49.38 48.77,50.54 49.05,50.71 49.92,50.2 50.84,50.73 51.11,50.57 50.19,50.04 
				50.78,49.7 51.76,50.26 			"/>
			<path class="st14" d="M51.31,51.74c-0.31-0.18-0.21-0.41,0.31-0.71c0.52-0.3,0.92-0.36,1.23-0.18c0.31,0.18,0.21,0.41-0.31,0.72
				C52.02,51.87,51.63,51.93,51.31,51.74 M53.13,50.69c-0.5-0.29-1.13-0.23-1.81,0.17c-0.68,0.39-0.78,0.76-0.28,1.05
				c0.5,0.29,1.13,0.23,1.8-0.17C53.53,51.34,53.63,50.98,53.13,50.69"/>
			<path class="st14" d="M53.69,52.05l0.58-0.34l0.44,0.25c0.2,0.12,0.23,0.25,0.04,0.36c-0.19,0.11-0.41,0.1-0.62-0.02L53.69,52.05
				 M54.95,51.79l-0.69-0.4l-2,1.16l0.29,0.17l0.89-0.52l0.13,0.07l-0.32,0.85l0.37,0.21l0.29-0.81l-0.03-0.06l0.04-0.03
				c0.37,0.21,0.78,0.27,1.15,0.06C55.44,52.27,55.36,52.03,54.95,51.79"/>
			<polygon class="st14" points="57.32,53.16 56.9,52.91 55.64,53.39 55.52,53.46 55.47,53.44 55.6,53.36 56.42,52.64 56,52.39 
				53.99,53.56 54.26,53.71 55.98,52.71 56.03,52.74 55.79,52.9 55.1,53.54 55.35,53.68 56.45,53.28 56.72,53.14 56.76,53.16 
				55.04,54.16 55.32,54.32 			"/>
			<polygon class="st14" points="57,54.86 56.62,54.64 56.25,54.86 56.63,55.08 			"/>
			<path class="st14" d="M41.87,48.98c-0.43-0.25-0.96-0.27-1.32-0.06c-0.29,0.17-0.3,0.38-0.02,0.62l0.18,0.15
				c0.21,0.17,0.2,0.29,0.04,0.38c-0.19,0.11-0.46,0.1-0.71-0.04c-0.29-0.16-0.27-0.33,0.02-0.5l-0.31-0.18
				c-0.47,0.27-0.45,0.55,0.01,0.82c0.44,0.26,0.95,0.27,1.31,0.06c0.3-0.17,0.31-0.39,0.03-0.63l-0.18-0.15
				c-0.21-0.17-0.2-0.29-0.05-0.38c0.19-0.11,0.46-0.11,0.72,0.05c0.29,0.16,0.27,0.32-0.01,0.49l0.31,0.18
				C42.34,49.52,42.33,49.24,41.87,48.98"/>
			<path class="st14" d="M44.26,50.4l-0.29-0.17l-1.39,0.81c-0.24,0.14-0.52,0.14-0.75,0.01c-0.23-0.13-0.23-0.3,0.01-0.44
				l1.39-0.81l-0.29-0.17l-1.39,0.81c-0.39,0.23-0.38,0.54,0.01,0.76c0.39,0.23,0.93,0.23,1.32,0L44.26,50.4"/>
			<path class="st14" d="M45.44,51.04c-0.43-0.25-0.96-0.27-1.32-0.06c-0.29,0.17-0.3,0.38-0.02,0.62l0.18,0.15
				c0.2,0.17,0.2,0.29,0.04,0.38c-0.19,0.11-0.47,0.1-0.71-0.04c-0.29-0.17-0.27-0.33,0.02-0.5l-0.31-0.18
				c-0.47,0.27-0.45,0.55,0.01,0.82c0.44,0.26,0.95,0.27,1.31,0.06c0.3-0.17,0.31-0.39,0.03-0.63l-0.18-0.15
				c-0.21-0.17-0.2-0.29-0.05-0.38c0.19-0.11,0.46-0.11,0.72,0.05c0.29,0.17,0.27,0.32-0.01,0.49l0.31,0.18
				C45.91,51.59,45.9,51.3,45.44,51.04"/>
			<polygon class="st14" points="47.97,52.55 46.37,51.62 46.1,51.78 46.76,52.16 45.03,53.16 45.31,53.33 47.04,52.32 47.7,52.7 
							"/>
			<path class="st14" d="M47.69,53.58l0.91-0.3l0.17-0.08l0.04,0.02l-0.14,0.1l-0.51,0.53L47.69,53.58z M49.19,53.25l-0.46-0.26
				l-2.59,0.82l0.31,0.18l0.9-0.29l0.62,0.36l-0.51,0.52l0.31,0.18L49.19,53.25"/>
			<polygon class="st14" points="51.4,54.52 50.08,53.76 49.83,53.91 50.34,54.21 48.85,55.08 48.34,54.78 48.08,54.93 49.39,55.69 
				49.65,55.54 49.14,55.24 50.63,54.38 51.14,54.67 			"/>
			<polygon class="st14" points="53.19,55.56 52.9,55.39 51.18,56.39 51.14,56.36 51.38,56.17 52.33,55.06 51.87,54.79 49.86,55.96 
				50.15,56.12 51.87,55.12 51.91,55.15 51.67,55.34 50.72,56.45 51.19,56.72 			"/>
			<polygon class="st14" points="52.87,57.26 52.49,57.04 52.12,57.26 52.5,57.48 			"/>
			<polygon class="st15" points="24.76,51.45 54.05,34.43 83.49,51.43 54.2,68.45 			"/>
		</g>
	</g>
	<g>
		<g>
			<defs>
				<polygon id="SVGID_47_" points="64.49,54.08 70.54,50.56 76.63,54.08 70.58,57.59 				"/>
			</defs>
			<clipPath id="SVGID_7_">
				<use xlink:href="#SVGID_47_"  style="overflow:visible;"/>
			</clipPath>
			<path class="st16" d="M67.86,55.64c-1.5-0.86-1.51-2.27-0.02-3.13c1.49-0.86,3.91-0.86,5.41,0c1.49,0.86,1.5,2.27,0.02,3.13
				C71.78,56.51,69.36,56.51,67.86,55.64 M73.58,52.32c-1.68-0.97-4.4-0.97-6.07,0c-1.67,0.97-1.66,2.55,0.02,3.52
				c1.68,0.97,4.4,0.97,6.07,0C75.27,54.87,75.26,53.29,73.58,52.32"/>
		</g>
	</g>
	<g>
		<defs>
			<rect id="SVGID_49_" x="30.27" y="49.46" width="7.55" height="4.37"/>
		</defs>
		<clipPath id="SVGID_8_">
			<use xlink:href="#SVGID_49_"  style="overflow:visible;"/>
		</clipPath>
		<g class="st17">
			<defs>
				<polygon id="SVGID_51_" points="30.27,51.64 34.03,49.46 37.81,51.64 34.05,53.83 				"/>
			</defs>
			<clipPath id="SVGID_9_">
				<use xlink:href="#SVGID_51_"  style="overflow:visible;"/>
			</clipPath>
			<path class="st18" d="M30.92,51.64l3.1-1.8l3.13,1.8l-3.1,1.8L30.92,51.64z M37.81,51.64l-3.79-2.19l-3.76,2.19l3.79,2.19
				L37.81,51.64"/>
		</g>
	</g>
</g>
<g>
	<g>
		<g>
			<defs>
				<polygon id="SVGID_53_" points="32.56,85.36 54.05,72.87 75.69,85.36 54.2,97.85 				"/>
			</defs>
			<clipPath id="SVGID_10_">
				<use xlink:href="#SVGID_53_"  style="overflow:visible;"/>
			</clipPath>
			<path class="st19" d="M48.81,87.14l-0.04-0.02L48.6,87.2l-0.91,0.3l0.47,0.27l0.51-0.53L48.81,87.14 M45.8,80.75l-0.43-0.25
				l-0.62,0.36l0.43,0.25c0.22,0.13,0.47,0.13,0.66,0.02C46.03,81.02,46.02,80.87,45.8,80.75 M49.36,82.8l-0.44-0.26l-0.58,0.34
				l0.44,0.26c0.21,0.12,0.44,0.13,0.62,0.02C49.6,83.05,49.57,82.92,49.36,82.8 M54.72,85.89l-0.44-0.26l-0.58,0.34l0.44,0.26
				c0.21,0.12,0.44,0.13,0.62,0.02C54.95,86.14,54.92,86.01,54.72,85.89 M52.86,84.77c-0.31-0.18-0.71-0.12-1.23,0.18
				c-0.52,0.3-0.62,0.53-0.31,0.72c0.31,0.18,0.71,0.12,1.23-0.18C53.07,85.18,53.17,84.95,52.86,84.77 M51.71,79.37l-0.44-0.25
				l-0.58,0.34l0.44,0.26c0.21,0.12,0.44,0.13,0.62,0.02C51.94,79.62,51.91,79.49,51.71,79.37 M49.85,78.25
				c-0.31-0.18-0.71-0.12-1.23,0.18c-0.52,0.3-0.63,0.53-0.31,0.71c0.31,0.18,0.71,0.12,1.23-0.18
				C50.06,78.66,50.16,78.43,49.85,78.25 M55.85,76.85l-0.04-0.03l-0.17,0.08l-0.91,0.3l0.47,0.27l0.52-0.53L55.85,76.85
				 M52.12,91.18l0.37-0.22l0.38,0.22L52.5,91.4L52.12,91.18 M41.83,84.97c0.23,0.14,0.51,0.13,0.75-0.01l1.39-0.81l0.29,0.17
				l-1.39,0.81c-0.39,0.23-0.93,0.22-1.32,0c-0.39-0.23-0.4-0.54-0.01-0.76l1.39-0.81l0.29,0.17l-1.39,0.81
				C41.6,84.68,41.6,84.84,41.83,84.97 M46.1,85.7l0.27-0.16l1.6,0.92l-0.27,0.16l-0.66-0.38l-1.73,1.01l-0.29-0.17l1.73-1.01
				L46.1,85.7 M46.14,87.73l2.59-0.82l0.46,0.26l-1.41,1.5l-0.31-0.18l0.51-0.52l-0.62-0.36l-0.9,0.29L46.14,87.73 M49.83,87.84
				l0.26-0.15l1.31,0.76l-0.26,0.15l-0.51-0.29l-1.49,0.86l0.51,0.29l-0.26,0.15l-1.31-0.76l0.26-0.15l0.51,0.3l1.49-0.86
				L49.83,87.84 M51.14,90.29l0.04,0.02l1.72-1l0.29,0.17l-2,1.16l-0.46-0.27l0.95-1.11l0.24-0.19l-0.04-0.03l-1.72,1l-0.29-0.17
				l2-1.16l0.46,0.27l-0.95,1.11L51.14,90.29 M40.04,83.95c0.25,0.14,0.52,0.15,0.71,0.04c0.15-0.09,0.17-0.21-0.04-0.38l-0.18-0.15
				c-0.28-0.24-0.27-0.45,0.02-0.62c0.36-0.21,0.89-0.19,1.32,0.06c0.45,0.26,0.47,0.55,0.01,0.81l-0.31-0.18
				c0.28-0.16,0.3-0.32,0.01-0.49c-0.26-0.15-0.53-0.15-0.72-0.05c-0.15,0.09-0.16,0.2,0.05,0.38l0.18,0.15
				c0.28,0.24,0.27,0.45-0.03,0.63c-0.36,0.21-0.86,0.19-1.31-0.06c-0.47-0.27-0.49-0.55-0.01-0.82l0.31,0.18
				C39.77,83.62,39.76,83.78,40.04,83.95 M43.61,86.01c0.24,0.14,0.52,0.15,0.71,0.04c0.15-0.09,0.16-0.21-0.04-0.38l-0.18-0.15
				c-0.28-0.24-0.27-0.45,0.02-0.62c0.36-0.21,0.89-0.19,1.32,0.06c0.45,0.26,0.47,0.55,0.01,0.81l-0.31-0.18
				c0.28-0.16,0.3-0.32,0.01-0.49c-0.26-0.15-0.53-0.15-0.72-0.05c-0.15,0.09-0.16,0.2,0.05,0.38l0.18,0.15
				c0.28,0.24,0.27,0.45-0.03,0.63c-0.36,0.21-0.86,0.19-1.31-0.06c-0.47-0.27-0.49-0.55-0.01-0.82l0.31,0.18
				C43.34,85.68,43.33,85.84,43.61,86.01 M56.25,88.78l0.37-0.21L57,88.78L56.63,89L56.25,88.78 M43.36,81.34l2-1.16l0.72,0.41
				c0.38,0.22,0.42,0.5,0.06,0.71c-0.36,0.21-0.84,0.19-1.22-0.03l-0.43-0.25l-0.84,0.49L43.36,81.34 M45.15,82.38l2-1.16l1.2,0.7
				l-0.27,0.16l-0.91-0.53l-0.59,0.34l0.89,0.51l-0.27,0.16l-0.89-0.51l-0.6,0.35l0.92,0.53l-0.27,0.16L45.15,82.38 M46.9,83.38
				l2-1.16l0.69,0.4c0.41,0.24,0.49,0.48,0.11,0.71c-0.36,0.21-0.77,0.15-1.15-0.06l-0.04,0.03l0.03,0.06l-0.29,0.81l-0.36-0.21
				l0.32-0.85l-0.13-0.07l-0.89,0.52L46.9,83.38 M48.77,84.46l2-1.16l1.26,0.73l-0.27,0.16l-0.97-0.56l-0.59,0.34l0.91,0.53
				l-0.27,0.16l-0.92-0.53l-0.87,0.5L48.77,84.46 M52.26,86.48l2-1.16l0.69,0.4c0.41,0.24,0.49,0.48,0.1,0.71
				c-0.36,0.21-0.77,0.15-1.15-0.06l-0.04,0.03l0.03,0.06l-0.29,0.81l-0.37-0.21l0.32-0.85l-0.13-0.07l-0.89,0.52L52.26,86.48
				 M55.48,87.36l0.04,0.02l0.13-0.07l1.25-0.48l0.42,0.24l-2,1.16l-0.27-0.16l1.72-1l-0.04-0.02l-0.27,0.14l-1.09,0.4l-0.25-0.14
				l0.68-0.64l0.24-0.16l-0.04-0.03l-1.72,1l-0.27-0.16l2-1.16l0.42,0.25l-0.82,0.73L55.48,87.36 M51.04,85.82
				c-0.5-0.29-0.4-0.65,0.28-1.05c0.68-0.4,1.31-0.45,1.81-0.17c0.5,0.29,0.4,0.65-0.28,1.05C52.17,86.05,51.54,86.11,51.04,85.82
				 M49.25,79.95l2-1.16l0.69,0.4c0.41,0.24,0.5,0.48,0.11,0.71c-0.36,0.21-0.78,0.15-1.15-0.06l-0.04,0.03l0.03,0.06l-0.28,0.81
				l-0.37-0.21l0.32-0.85l-0.13-0.07l-0.89,0.52L49.25,79.95 M52.73,79.95l0.26-0.15l1.31,0.76l-0.26,0.15l-0.51-0.3l-1.49,0.86
				l0.51,0.3l-0.26,0.15l-1.31-0.76l0.26-0.15l0.51,0.3l1.49-0.86L52.73,79.95 M56.3,82.01l0.26-0.15l1.31,0.76l-0.26,0.15
				l-0.51-0.3l-1.49,0.86l0.51,0.3l-0.26,0.15l-1.31-0.76l0.26-0.15l0.51,0.3l1.49-0.86L56.3,82.01 M57.61,84.46l0.04,0.02l1.72-1
				l0.29,0.17l-2,1.16l-0.46-0.27l0.95-1.11l0.24-0.19l-0.04-0.02l-1.72,1l-0.29-0.17l2-1.16l0.46,0.27l-0.95,1.11L57.61,84.46
				 M48.03,79.3c-0.5-0.29-0.4-0.65,0.28-1.05c0.68-0.4,1.31-0.45,1.81-0.17c0.5,0.29,0.4,0.65-0.28,1.05
				C49.16,79.53,48.53,79.59,48.03,79.3 M53.31,82.35c-0.43-0.25-0.31-0.6,0.37-1c0.7-0.41,1.31-0.45,1.85-0.14
				c0.41,0.24,0.39,0.58-0.05,0.83l-0.29-0.17c0.29-0.17,0.32-0.36,0.07-0.5c-0.35-0.2-0.74-0.16-1.28,0.16
				c-0.53,0.31-0.63,0.53-0.33,0.71c0.24,0.14,0.58,0.11,0.95-0.08l-0.47-0.27l0.27-0.16l0.75,0.43l-1.03,0.6l-0.29-0.17l0.51-0.21
				l-0.04-0.03C53.91,82.51,53.58,82.51,53.31,82.35 M52.82,76.9l0.04,0.03l1.72-1l0.29,0.17l-2,1.16l-0.46-0.27l0.95-1.11
				l0.24-0.19l-0.04-0.02l-1.72,1l-0.29-0.17l2-1.16l0.46,0.27l-0.95,1.11L52.82,76.9 M53.18,77.44l2.58-0.82l0.46,0.27l-1.41,1.5
				L54.5,78.2l0.51-0.52l-0.62-0.36l-0.9,0.29L53.18,77.44 M56.6,78.44l0.04,0.02l0.13-0.07l1.25-0.48l0.42,0.24l-2,1.16l-0.27-0.16
				l1.72-1l-0.04-0.02l-0.27,0.14l-1.09,0.4l-0.25-0.14l0.69-0.64l0.24-0.16l-0.04-0.02l-1.72,1l-0.27-0.16l2-1.16l0.42,0.25
				l-0.82,0.72L56.6,78.44 M56.98,79.64l2-1.16l1.2,0.7l-0.27,0.16L59,78.8l-0.59,0.34l0.89,0.51l-0.27,0.16l-0.89-0.51l-0.59,0.34
				l0.91,0.53l-0.27,0.16L56.98,79.64 M75.03,85.36L54.06,73.25L33.22,85.36l20.97,12.11L75.03,85.36"/>
			<path class="st20" d="M33.22,85.36l20.84-12.11l20.97,12.11L54.19,97.47L33.22,85.36z M75.69,85.36L54.05,72.87L32.56,85.36
				L54.2,97.85L75.69,85.36"/>
			<polygon class="st20" points="54.87,76.1 54.58,75.93 52.86,76.93 52.82,76.9 53.06,76.71 54.01,75.6 53.54,75.33 51.54,76.5 
				51.83,76.66 53.55,75.66 53.59,75.69 53.35,75.88 52.4,76.99 52.87,77.26 			"/>
			<path class="st20" d="M54.73,77.21l0.91-0.3l0.17-0.08l0.04,0.03l-0.14,0.1l-0.52,0.53L54.73,77.21z M56.22,76.88l-0.46-0.27
				l-2.58,0.82l0.31,0.18l0.9-0.29L55,77.68L54.5,78.2l0.31,0.18L56.22,76.88"/>
			<polygon class="st20" points="58.44,78.16 58.01,77.91 56.77,78.39 56.64,78.46 56.6,78.44 56.72,78.36 57.54,77.64 57.11,77.39 
				55.11,78.56 55.39,78.71 57.11,77.72 57.15,77.74 56.91,77.9 56.22,78.54 56.47,78.68 57.57,78.28 57.84,78.14 57.88,78.16 
				56.16,79.16 56.44,79.32 			"/>
			<polygon class="st20" points="60.19,79.17 58.98,78.47 56.98,79.64 58.19,80.33 58.46,80.17 57.54,79.64 58.14,79.3 59.02,79.81 
				59.29,79.65 58.41,79.14 59,78.8 59.92,79.33 			"/>
			<path class="st20" d="M48.3,79.14c-0.31-0.18-0.21-0.41,0.31-0.71c0.52-0.3,0.92-0.36,1.23-0.18c0.31,0.18,0.21,0.41-0.31,0.71
				C49.01,79.27,48.62,79.33,48.3,79.14 M50.12,78.09c-0.5-0.29-1.13-0.23-1.81,0.17c-0.68,0.39-0.78,0.76-0.28,1.05
				c0.5,0.29,1.13,0.23,1.81-0.17C50.52,78.74,50.62,78.38,50.12,78.09"/>
			<path class="st20" d="M50.68,79.45l0.58-0.34l0.44,0.25c0.2,0.12,0.24,0.25,0.04,0.36c-0.19,0.11-0.41,0.1-0.62-0.02L50.68,79.45
				 M51.94,79.19l-0.69-0.4l-2,1.16l0.29,0.17l0.89-0.52l0.13,0.07l-0.32,0.85l0.37,0.21l0.28-0.81l-0.03-0.06l0.04-0.03
				c0.37,0.21,0.79,0.27,1.15,0.06C52.44,79.67,52.35,79.43,51.94,79.19"/>
			<polygon class="st20" points="54.3,80.55 52.99,79.8 52.73,79.95 53.24,80.24 51.76,81.11 51.25,80.81 50.99,80.96 52.3,81.72 
				52.56,81.57 52.04,81.27 53.53,80.41 54.04,80.7 			"/>
			<path class="st20" d="M55.53,81.21c-0.54-0.31-1.15-0.27-1.85,0.14c-0.68,0.39-0.8,0.75-0.37,1c0.27,0.16,0.6,0.16,0.98,0.01
				l0.04,0.03l-0.51,0.21l0.29,0.17l1.03-0.6l-0.75-0.43l-0.27,0.16l0.47,0.27c-0.38,0.19-0.71,0.22-0.95,0.08
				c-0.31-0.18-0.21-0.4,0.33-0.71c0.54-0.31,0.93-0.36,1.28-0.16c0.25,0.14,0.22,0.33-0.07,0.5l0.29,0.17
				C55.92,81.79,55.94,81.45,55.53,81.21"/>
			<polygon class="st20" points="57.87,82.62 56.56,81.86 56.3,82.01 56.81,82.3 55.33,83.17 54.82,82.87 54.56,83.02 55.87,83.78 
				56.13,83.63 55.61,83.33 57.1,82.47 57.61,82.77 			"/>
			<polygon class="st20" points="59.66,83.65 59.37,83.48 57.65,84.48 57.61,84.46 57.85,84.26 58.8,83.15 58.34,82.88 56.34,84.05 
				56.63,84.21 58.34,83.22 58.39,83.24 58.15,83.43 57.2,84.54 57.66,84.81 			"/>
			<path class="st20" d="M44.75,80.86l0.62-0.36l0.43,0.25c0.22,0.13,0.22,0.27,0.04,0.38c-0.19,0.11-0.44,0.11-0.66-0.02
				L44.75,80.86 M46.08,80.59l-0.72-0.41l-2,1.16l0.29,0.17l0.84-0.49l0.43,0.25c0.38,0.22,0.86,0.24,1.22,0.03
				C46.5,81.08,46.46,80.81,46.08,80.59"/>
			<polygon class="st20" points="48.36,81.91 47.16,81.21 45.15,82.38 46.36,83.07 46.63,82.91 45.71,82.38 46.31,82.04 47.2,82.55 
				47.47,82.39 46.58,81.88 47.17,81.54 48.09,82.06 			"/>
			<path class="st20" d="M48.34,82.88l0.58-0.34l0.44,0.26c0.2,0.12,0.23,0.25,0.04,0.36c-0.19,0.11-0.41,0.1-0.62-0.02L48.34,82.88
				 M49.6,82.62l-0.69-0.4l-2,1.16l0.29,0.17l0.89-0.52l0.13,0.07l-0.32,0.85l0.37,0.21l0.29-0.81l-0.03-0.06l0.04-0.03
				c0.37,0.21,0.78,0.27,1.15,0.06C50.09,83.1,50.01,82.86,49.6,82.62"/>
			<polygon class="st20" points="52.03,84.03 50.77,83.3 48.77,84.46 49.05,84.63 49.92,84.12 50.84,84.65 51.11,84.49 50.19,83.97 
				50.78,83.62 51.76,84.18 			"/>
			<path class="st20" d="M51.31,85.67c-0.31-0.18-0.21-0.41,0.31-0.71c0.52-0.3,0.92-0.36,1.23-0.18c0.31,0.18,0.21,0.41-0.31,0.72
				C52.02,85.79,51.63,85.85,51.31,85.67 M53.13,84.61c-0.5-0.29-1.13-0.23-1.81,0.17c-0.68,0.39-0.78,0.76-0.28,1.05
				c0.5,0.29,1.13,0.23,1.8-0.17C53.53,85.26,53.63,84.9,53.13,84.61"/>
			<path class="st20" d="M53.69,85.97l0.58-0.34l0.44,0.25c0.2,0.12,0.23,0.25,0.04,0.36c-0.19,0.11-0.41,0.1-0.62-0.02L53.69,85.97
				 M54.95,85.71l-0.69-0.4l-2,1.16l0.29,0.17l0.89-0.52l0.13,0.07l-0.32,0.85l0.37,0.21l0.29-0.81l-0.03-0.06l0.04-0.03
				c0.37,0.21,0.78,0.27,1.15,0.06C55.44,86.19,55.36,85.95,54.95,85.71"/>
			<polygon class="st20" points="57.32,87.08 56.9,86.83 55.64,87.31 55.52,87.38 55.47,87.36 55.6,87.29 56.42,86.56 56,86.31 
				53.99,87.48 54.26,87.63 55.98,86.64 56.03,86.66 55.79,86.82 55.1,87.46 55.35,87.6 56.45,87.2 56.72,87.06 56.76,87.09 
				55.04,88.08 55.32,88.24 			"/>
			<polygon class="st20" points="57,88.78 56.62,88.56 56.25,88.78 56.63,89 			"/>
			<path class="st20" d="M41.87,82.9c-0.43-0.25-0.96-0.27-1.32-0.06c-0.29,0.17-0.3,0.38-0.02,0.62l0.18,0.15
				c0.21,0.17,0.2,0.29,0.04,0.38c-0.19,0.11-0.46,0.1-0.71-0.04c-0.29-0.16-0.27-0.33,0.02-0.5l-0.31-0.18
				c-0.47,0.27-0.45,0.55,0.01,0.82c0.44,0.26,0.95,0.27,1.31,0.06c0.3-0.17,0.31-0.39,0.03-0.63l-0.18-0.15
				c-0.21-0.17-0.2-0.29-0.05-0.38c0.19-0.11,0.46-0.11,0.72,0.05c0.29,0.16,0.27,0.32-0.01,0.49l0.31,0.18
				C42.34,83.45,42.33,83.16,41.87,82.9"/>
			<path class="st20" d="M44.26,84.33l-0.29-0.17l-1.39,0.81c-0.24,0.14-0.52,0.14-0.75,0.01c-0.23-0.13-0.23-0.3,0.01-0.44
				l1.39-0.81l-0.29-0.17l-1.39,0.81c-0.39,0.23-0.38,0.54,0.01,0.76c0.39,0.23,0.93,0.23,1.32,0L44.26,84.33"/>
			<path class="st20" d="M45.44,84.96c-0.43-0.25-0.96-0.27-1.32-0.06c-0.29,0.17-0.3,0.38-0.02,0.62l0.18,0.15
				c0.2,0.17,0.2,0.29,0.04,0.38c-0.19,0.11-0.47,0.1-0.71-0.04c-0.29-0.17-0.27-0.33,0.02-0.5l-0.31-0.18
				c-0.47,0.27-0.45,0.55,0.01,0.82c0.44,0.26,0.95,0.27,1.31,0.06c0.3-0.17,0.31-0.39,0.03-0.63l-0.18-0.15
				c-0.21-0.17-0.2-0.29-0.05-0.38c0.19-0.11,0.46-0.11,0.72,0.05c0.29,0.17,0.27,0.32-0.01,0.49l0.31,0.18
				C45.91,85.51,45.9,85.22,45.44,84.96"/>
			<polygon class="st20" points="47.97,86.47 46.37,85.54 46.1,85.7 46.76,86.08 45.03,87.09 45.31,87.25 47.04,86.25 47.7,86.63 
							"/>
			<path class="st20" d="M47.69,87.5l0.91-0.3l0.17-0.08l0.04,0.02l-0.14,0.1l-0.51,0.53L47.69,87.5z M49.19,87.17l-0.46-0.26
				l-2.59,0.82l0.31,0.18l0.9-0.29l0.62,0.36l-0.51,0.52l0.31,0.18L49.19,87.17"/>
			<polygon class="st20" points="51.4,88.44 50.08,87.69 49.83,87.84 50.34,88.13 48.85,89 48.34,88.7 48.08,88.85 49.39,89.61 
				49.65,89.46 49.14,89.16 50.63,88.3 51.14,88.59 			"/>
			<polygon class="st20" points="53.19,89.48 52.9,89.31 51.18,90.31 51.14,90.29 51.38,90.09 52.33,88.98 51.87,88.71 49.86,89.88 
				50.15,90.04 51.87,89.04 51.91,89.07 51.67,89.26 50.72,90.37 51.19,90.64 			"/>
			<polygon class="st20" points="52.87,91.18 52.49,90.97 52.12,91.18 52.5,91.4 			"/>
			<polygon class="st21" points="24.76,85.37 54.05,68.35 83.49,85.35 54.2,102.37 			"/>
		</g>
	</g>
	<g>
		<g>
			<defs>
				<polygon id="SVGID_55_" points="64.49,88 70.54,84.48 76.63,88 70.58,91.51 				"/>
			</defs>
			<clipPath id="SVGID_11_">
				<use xlink:href="#SVGID_55_"  style="overflow:visible;"/>
			</clipPath>
			<path class="st22" d="M67.86,89.57c-1.5-0.86-1.51-2.27-0.02-3.13c1.49-0.86,3.91-0.86,5.41,0c1.49,0.86,1.5,2.27,0.02,3.13
				C71.78,90.43,69.36,90.43,67.86,89.57 M73.58,86.24c-1.68-0.97-4.4-0.97-6.07,0c-1.67,0.97-1.66,2.55,0.02,3.52
				c1.68,0.97,4.4,0.97,6.07,0C75.27,88.79,75.26,87.21,73.58,86.24"/>
		</g>
	</g>
	<g>
		<defs>
			<rect id="SVGID_57_" x="30.27" y="83.38" width="7.55" height="4.37"/>
		</defs>
		<clipPath id="SVGID_12_">
			<use xlink:href="#SVGID_57_"  style="overflow:visible;"/>
		</clipPath>
		<g class="st23">
			<defs>
				<polygon id="SVGID_59_" points="30.27,85.56 34.03,83.38 37.81,85.56 34.05,87.75 				"/>
			</defs>
			<clipPath id="SVGID_13_">
				<use xlink:href="#SVGID_59_"  style="overflow:visible;"/>
			</clipPath>
			<path class="st24" d="M30.92,85.56l3.1-1.8l3.13,1.8l-3.1,1.8L30.92,85.56z M37.81,85.56l-3.79-2.19l-3.76,2.19l3.79,2.19
				L37.81,85.56"/>
		</g>
	</g>
</g>
<g>
	<g>
		<g>
			<defs>
				<polygon id="SVGID_61_" points="32.56,116.17 54.05,103.68 75.69,116.17 54.2,128.66 				"/>
			</defs>
			<clipPath id="SVGID_14_">
				<use xlink:href="#SVGID_61_"  style="overflow:visible;"/>
			</clipPath>
			<path class="st25" d="M48.81,117.95l-0.04-0.02l-0.17,0.08l-0.91,0.3l0.47,0.27l0.51-0.53L48.81,117.95 M45.8,111.55l-0.43-0.25
				l-0.62,0.36l0.43,0.25c0.22,0.13,0.47,0.13,0.66,0.02C46.03,111.82,46.02,111.68,45.8,111.55 M49.36,113.61l-0.44-0.26
				l-0.58,0.34l0.44,0.26c0.21,0.12,0.44,0.13,0.62,0.02C49.6,113.85,49.57,113.72,49.36,113.61 M54.72,116.7l-0.44-0.26l-0.58,0.34
				l0.44,0.26c0.21,0.12,0.44,0.13,0.62,0.02C54.95,116.94,54.92,116.81,54.72,116.7 M52.86,115.57c-0.31-0.18-0.71-0.12-1.23,0.18
				c-0.52,0.3-0.62,0.53-0.31,0.72c0.31,0.18,0.71,0.12,1.23-0.18C53.07,115.98,53.17,115.76,52.86,115.57 M51.71,110.17l-0.44-0.25
				l-0.58,0.34l0.44,0.26c0.21,0.12,0.44,0.13,0.62,0.02C51.94,110.42,51.91,110.29,51.71,110.17 M49.85,109.05
				c-0.31-0.18-0.71-0.12-1.23,0.18c-0.52,0.3-0.63,0.53-0.31,0.71c0.31,0.18,0.71,0.12,1.23-0.18
				C50.06,109.46,50.16,109.23,49.85,109.05 M55.85,107.66l-0.04-0.03l-0.17,0.08l-0.91,0.3l0.47,0.27l0.52-0.53L55.85,107.66
				 M52.12,121.99l0.37-0.22l0.38,0.22l-0.37,0.22L52.12,121.99 M41.83,115.78c0.23,0.14,0.51,0.13,0.75-0.01l1.39-0.81l0.29,0.17
				l-1.39,0.81c-0.39,0.23-0.93,0.22-1.32,0c-0.39-0.23-0.4-0.54-0.01-0.76l1.39-0.81l0.29,0.17l-1.39,0.81
				C41.6,115.48,41.6,115.65,41.83,115.78 M46.1,116.51l0.27-0.16l1.6,0.92l-0.27,0.16l-0.66-0.38l-1.73,1.01l-0.29-0.17l1.73-1.01
				L46.1,116.51 M46.14,118.53l2.59-0.82l0.46,0.26l-1.41,1.5l-0.31-0.18l0.51-0.52l-0.62-0.36l-0.9,0.29L46.14,118.53
				 M49.83,118.64l0.26-0.15l1.31,0.76l-0.26,0.15l-0.51-0.29l-1.49,0.86l0.51,0.29l-0.26,0.15l-1.31-0.76l0.26-0.15l0.51,0.3
				l1.49-0.86L49.83,118.64 M51.14,121.09l0.04,0.02l1.72-1l0.29,0.17l-2,1.16l-0.46-0.27l0.95-1.11l0.24-0.19l-0.04-0.03l-1.72,1
				l-0.29-0.17l2-1.16l0.46,0.27l-0.95,1.11L51.14,121.09 M40.04,114.75c0.25,0.14,0.52,0.15,0.71,0.04
				c0.15-0.09,0.17-0.21-0.04-0.38l-0.18-0.15c-0.28-0.24-0.27-0.45,0.02-0.62c0.36-0.21,0.89-0.19,1.32,0.06
				c0.45,0.26,0.47,0.55,0.01,0.81l-0.31-0.18c0.28-0.16,0.3-0.32,0.01-0.49c-0.26-0.15-0.53-0.15-0.72-0.05
				c-0.15,0.09-0.16,0.2,0.05,0.38l0.18,0.15c0.28,0.24,0.27,0.45-0.03,0.63c-0.36,0.21-0.86,0.19-1.31-0.06
				c-0.47-0.27-0.49-0.55-0.01-0.82l0.31,0.18C39.77,114.42,39.76,114.59,40.04,114.75 M43.61,116.81c0.24,0.14,0.52,0.15,0.71,0.04
				c0.15-0.09,0.16-0.21-0.04-0.38l-0.18-0.15c-0.28-0.24-0.27-0.45,0.02-0.62c0.36-0.21,0.89-0.19,1.32,0.06
				c0.45,0.26,0.47,0.55,0.01,0.81l-0.31-0.18c0.28-0.16,0.3-0.32,0.01-0.49c-0.26-0.15-0.53-0.15-0.72-0.05
				c-0.15,0.09-0.16,0.2,0.05,0.38l0.18,0.15c0.28,0.24,0.27,0.45-0.03,0.63c-0.36,0.21-0.86,0.19-1.31-0.06
				c-0.47-0.27-0.49-0.55-0.01-0.82l0.31,0.18C43.34,116.48,43.33,116.65,43.61,116.81 M56.25,119.58l0.37-0.21l0.38,0.22
				l-0.37,0.22L56.25,119.58 M43.36,112.14l2-1.16l0.72,0.41c0.38,0.22,0.42,0.5,0.06,0.71c-0.36,0.21-0.84,0.19-1.22-0.03
				l-0.43-0.25l-0.84,0.49L43.36,112.14 M45.15,113.18l2-1.16l1.2,0.7l-0.27,0.16l-0.91-0.53l-0.59,0.34l0.89,0.51l-0.27,0.16
				l-0.89-0.51l-0.6,0.35l0.92,0.53l-0.27,0.16L45.15,113.18 M46.9,114.19l2-1.16l0.69,0.4c0.41,0.24,0.49,0.48,0.11,0.71
				c-0.36,0.21-0.77,0.15-1.15-0.06l-0.04,0.03l0.03,0.06l-0.29,0.81l-0.36-0.21l0.32-0.85l-0.13-0.07l-0.89,0.52L46.9,114.19
				 M48.77,115.27l2-1.16l1.26,0.73l-0.27,0.16l-0.97-0.56l-0.59,0.34l0.91,0.53l-0.27,0.16l-0.92-0.53l-0.87,0.5L48.77,115.27
				 M52.26,117.28l2-1.16l0.69,0.4c0.41,0.24,0.49,0.48,0.1,0.71c-0.36,0.21-0.77,0.15-1.15-0.06l-0.04,0.03l0.03,0.06l-0.29,0.81
				l-0.37-0.21l0.32-0.85l-0.13-0.07l-0.89,0.52L52.26,117.28 M55.48,118.16l0.04,0.02l0.13-0.07l1.25-0.48l0.42,0.24l-2,1.16
				l-0.27-0.16l1.72-1l-0.04-0.02l-0.27,0.14l-1.09,0.4l-0.25-0.14l0.68-0.64l0.24-0.16l-0.04-0.03l-1.72,1l-0.27-0.16l2-1.16
				l0.42,0.25l-0.82,0.73L55.48,118.16 M51.04,116.63c-0.5-0.29-0.4-0.65,0.28-1.05c0.68-0.4,1.31-0.45,1.81-0.17
				c0.5,0.29,0.4,0.65-0.28,1.05C52.17,116.86,51.54,116.92,51.04,116.63 M49.25,110.76l2-1.16l0.69,0.4
				c0.41,0.24,0.5,0.48,0.11,0.71c-0.36,0.21-0.78,0.15-1.15-0.06l-0.04,0.03l0.03,0.06l-0.28,0.81l-0.37-0.21l0.32-0.85l-0.13-0.07
				l-0.89,0.52L49.25,110.76 M52.73,110.75l0.26-0.15l1.31,0.76l-0.26,0.15l-0.51-0.3l-1.49,0.86l0.51,0.3l-0.26,0.15l-1.31-0.76
				l0.26-0.15l0.51,0.3l1.49-0.86L52.73,110.75 M56.3,112.81l0.26-0.15l1.31,0.76l-0.26,0.15l-0.51-0.3l-1.49,0.86l0.51,0.3
				l-0.26,0.15l-1.31-0.76l0.26-0.15l0.51,0.3l1.49-0.86L56.3,112.81 M57.61,115.26l0.04,0.02l1.72-1l0.29,0.17l-2,1.16l-0.46-0.27
				l0.95-1.11l0.24-0.19l-0.04-0.02l-1.72,1l-0.29-0.17l2-1.16l0.46,0.27l-0.95,1.11L57.61,115.26 M48.03,110.11
				c-0.5-0.29-0.4-0.65,0.28-1.05c0.68-0.4,1.31-0.45,1.81-0.17c0.5,0.29,0.4,0.65-0.28,1.05C49.16,110.34,48.53,110.4,48.03,110.11
				 M53.31,113.15c-0.43-0.25-0.31-0.6,0.37-1c0.7-0.41,1.31-0.45,1.85-0.14c0.41,0.24,0.39,0.58-0.05,0.83l-0.29-0.17
				c0.29-0.17,0.32-0.36,0.07-0.5c-0.35-0.2-0.74-0.16-1.28,0.16c-0.53,0.31-0.63,0.53-0.33,0.71c0.24,0.14,0.58,0.11,0.95-0.08
				l-0.47-0.27l0.27-0.16l0.75,0.43l-1.03,0.6l-0.29-0.17l0.51-0.21l-0.04-0.03C53.91,113.31,53.58,113.31,53.31,113.15
				 M52.82,107.71l0.04,0.03l1.72-1l0.29,0.17l-2,1.16l-0.46-0.27l0.95-1.11l0.24-0.19l-0.04-0.02l-1.72,1l-0.29-0.17l2-1.16
				l0.46,0.27l-0.95,1.11L52.82,107.71 M53.18,108.24l2.58-0.82l0.46,0.27l-1.41,1.5l-0.31-0.18l0.51-0.52l-0.62-0.36l-0.9,0.29
				L53.18,108.24 M56.6,109.24l0.04,0.02l0.13-0.07l1.25-0.48l0.42,0.24l-2,1.16l-0.27-0.16l1.72-1l-0.04-0.02l-0.27,0.14l-1.09,0.4
				l-0.25-0.14l0.69-0.64l0.24-0.16l-0.04-0.02l-1.72,1l-0.27-0.16l2-1.16l0.42,0.25l-0.82,0.72L56.6,109.24 M56.98,110.44l2-1.16
				l1.2,0.7l-0.27,0.16L59,109.6l-0.59,0.34l0.89,0.51l-0.27,0.16l-0.89-0.51l-0.59,0.34l0.91,0.53l-0.27,0.16L56.98,110.44
				 M75.03,116.17l-20.97-12.11l-20.84,12.11l20.97,12.11L75.03,116.17"/>
			<path class="st26" d="M33.22,116.17l20.84-12.11l20.97,12.11l-20.84,12.11L33.22,116.17z M75.69,116.17l-21.63-12.49
				l-21.49,12.49l21.63,12.49L75.69,116.17"/>
			<polygon class="st26" points="54.87,106.9 54.58,106.74 52.86,107.73 52.82,107.71 53.06,107.52 54.01,106.41 53.54,106.14 
				51.54,107.3 51.83,107.47 53.55,106.47 53.59,106.49 53.35,106.69 52.4,107.8 52.87,108.07 			"/>
			<path class="st26" d="M54.73,108.01l0.91-0.3l0.17-0.08l0.04,0.03l-0.14,0.1l-0.52,0.53L54.73,108.01z M56.22,107.68l-0.46-0.27
				l-2.58,0.82l0.31,0.18l0.9-0.29l0.62,0.36L54.5,109l0.31,0.18L56.22,107.68"/>
			<polygon class="st26" points="58.44,108.96 58.01,108.72 56.77,109.2 56.64,109.27 56.6,109.24 56.72,109.17 57.54,108.44 
				57.11,108.2 55.11,109.36 55.39,109.52 57.11,108.52 57.15,108.55 56.91,108.7 56.22,109.34 56.47,109.48 57.57,109.08 
				57.84,108.95 57.88,108.97 56.16,109.97 56.44,110.12 			"/>
			<polygon class="st26" points="60.19,109.97 58.98,109.28 56.98,110.44 58.19,111.14 58.46,110.98 57.54,110.45 58.14,110.1 
				59.02,110.62 59.29,110.46 58.41,109.95 59,109.6 59.92,110.13 			"/>
			<path class="st26" d="M48.3,109.95c-0.31-0.18-0.21-0.41,0.31-0.71c0.52-0.3,0.92-0.36,1.23-0.18c0.31,0.18,0.21,0.41-0.31,0.71
				C49.01,110.07,48.62,110.13,48.3,109.95 M50.12,108.89c-0.5-0.29-1.13-0.23-1.81,0.17c-0.68,0.39-0.78,0.76-0.28,1.05
				c0.5,0.29,1.13,0.23,1.81-0.17C50.52,109.55,50.62,109.18,50.12,108.89"/>
			<path class="st26" d="M50.68,110.26l0.58-0.34l0.44,0.25c0.2,0.12,0.24,0.25,0.04,0.36c-0.19,0.11-0.41,0.1-0.62-0.02
				L50.68,110.26 M51.94,109.99l-0.69-0.4l-2,1.16l0.29,0.17l0.89-0.52l0.13,0.07l-0.32,0.85l0.37,0.21l0.28-0.81l-0.03-0.06
				l0.04-0.03c0.37,0.21,0.79,0.27,1.15,0.06C52.44,110.48,52.35,110.23,51.94,109.99"/>
			<polygon class="st26" points="54.3,111.36 52.99,110.6 52.73,110.75 53.24,111.05 51.76,111.91 51.25,111.61 50.99,111.76 
				52.3,112.52 52.56,112.37 52.04,112.08 53.53,111.21 54.04,111.51 			"/>
			<path class="st26" d="M55.53,112.02c-0.54-0.31-1.15-0.27-1.85,0.14c-0.68,0.39-0.8,0.75-0.37,1c0.27,0.16,0.6,0.16,0.98,0.01
				l0.04,0.03l-0.51,0.21l0.29,0.17l1.03-0.6l-0.75-0.43l-0.27,0.16l0.47,0.27c-0.38,0.19-0.71,0.22-0.95,0.08
				c-0.31-0.18-0.21-0.4,0.33-0.71c0.54-0.31,0.93-0.36,1.28-0.16c0.25,0.14,0.22,0.33-0.07,0.5l0.29,0.17
				C55.92,112.59,55.94,112.26,55.53,112.02"/>
			<polygon class="st26" points="57.87,113.42 56.56,112.66 56.3,112.81 56.81,113.11 55.33,113.97 54.82,113.68 54.56,113.83 
				55.87,114.58 56.13,114.43 55.61,114.14 57.1,113.27 57.61,113.57 			"/>
			<polygon class="st26" points="59.66,114.45 59.37,114.29 57.65,115.29 57.61,115.26 57.85,115.07 58.8,113.96 58.34,113.69 
				56.34,114.85 56.63,115.02 58.34,114.02 58.39,114.04 58.15,114.24 57.2,115.35 57.66,115.62 			"/>
			<path class="st26" d="M44.75,111.66l0.62-0.36l0.43,0.25c0.22,0.13,0.22,0.27,0.04,0.38c-0.19,0.11-0.44,0.11-0.66-0.02
				L44.75,111.66 M46.08,111.39l-0.72-0.41l-2,1.16l0.29,0.17l0.84-0.49l0.43,0.25c0.38,0.22,0.86,0.24,1.22,0.03
				C46.5,111.89,46.46,111.61,46.08,111.39"/>
			<polygon class="st26" points="48.36,112.71 47.16,112.02 45.15,113.18 46.36,113.88 46.63,113.72 45.71,113.19 46.31,112.84 
				47.2,113.35 47.47,113.2 46.58,112.69 47.17,112.34 48.09,112.87 			"/>
			<path class="st26" d="M48.34,113.69l0.58-0.34l0.44,0.26c0.2,0.12,0.23,0.25,0.04,0.36c-0.19,0.11-0.41,0.1-0.62-0.02
				L48.34,113.69 M49.6,113.42l-0.69-0.4l-2,1.16l0.29,0.17l0.89-0.52l0.13,0.07l-0.32,0.85l0.37,0.21l0.29-0.81l-0.03-0.06
				l0.04-0.03c0.37,0.21,0.78,0.27,1.15,0.06C50.09,113.91,50.01,113.66,49.6,113.42"/>
			<polygon class="st26" points="52.03,114.83 50.77,114.1 48.77,115.27 49.05,115.43 49.92,114.93 50.84,115.46 51.11,115.3 
				50.19,114.77 50.78,114.43 51.76,114.99 			"/>
			<path class="st26" d="M51.31,116.47c-0.31-0.18-0.21-0.41,0.31-0.71c0.52-0.3,0.92-0.36,1.23-0.18c0.31,0.18,0.21,0.41-0.31,0.72
				C52.02,116.59,51.63,116.65,51.31,116.47 M53.13,115.42c-0.5-0.29-1.13-0.23-1.81,0.17c-0.68,0.39-0.78,0.76-0.28,1.05
				c0.5,0.29,1.13,0.23,1.8-0.17C53.53,116.07,53.63,115.7,53.13,115.42"/>
			<path class="st26" d="M53.69,116.78l0.58-0.34l0.44,0.25c0.2,0.12,0.23,0.25,0.04,0.36c-0.19,0.11-0.41,0.1-0.62-0.02
				L53.69,116.78 M54.95,116.52l-0.69-0.4l-2,1.16l0.29,0.17l0.89-0.52l0.13,0.07l-0.32,0.85l0.37,0.21l0.29-0.81l-0.03-0.06
				l0.04-0.03c0.37,0.21,0.78,0.27,1.15,0.06C55.44,117,55.36,116.75,54.95,116.52"/>
			<polygon class="st26" points="57.32,117.88 56.9,117.64 55.64,118.12 55.52,118.19 55.47,118.16 55.6,118.09 56.42,117.36 
				56,117.12 53.99,118.28 54.26,118.44 55.98,117.44 56.03,117.47 55.79,117.63 55.1,118.26 55.35,118.41 56.45,118.01 
				56.72,117.87 56.76,117.89 55.04,118.89 55.32,119.05 			"/>
			<polygon class="st26" points="57,119.59 56.62,119.37 56.25,119.59 56.63,119.8 			"/>
			<path class="st26" d="M41.87,113.7c-0.43-0.25-0.96-0.27-1.32-0.06c-0.29,0.17-0.3,0.38-0.02,0.62l0.18,0.15
				c0.21,0.17,0.2,0.29,0.04,0.38c-0.19,0.11-0.46,0.1-0.71-0.04c-0.29-0.16-0.27-0.33,0.02-0.5l-0.31-0.18
				c-0.47,0.27-0.45,0.55,0.01,0.82c0.44,0.26,0.95,0.27,1.31,0.06c0.3-0.17,0.31-0.39,0.03-0.63l-0.18-0.15
				c-0.21-0.17-0.2-0.29-0.05-0.38c0.19-0.11,0.46-0.11,0.72,0.05c0.29,0.16,0.27,0.32-0.01,0.49l0.31,0.18
				C42.34,114.25,42.33,113.96,41.87,113.7"/>
			<path class="st26" d="M44.26,115.13l-0.29-0.17l-1.39,0.81c-0.24,0.14-0.52,0.14-0.75,0.01c-0.23-0.13-0.23-0.3,0.01-0.44
				l1.39-0.81l-0.29-0.17l-1.39,0.81c-0.39,0.23-0.38,0.54,0.01,0.76c0.39,0.23,0.93,0.23,1.32,0L44.26,115.13"/>
			<path class="st26" d="M45.44,115.76c-0.43-0.25-0.96-0.27-1.32-0.06c-0.29,0.17-0.3,0.38-0.02,0.62l0.18,0.15
				c0.2,0.17,0.2,0.29,0.04,0.38c-0.19,0.11-0.47,0.1-0.71-0.04c-0.29-0.17-0.27-0.33,0.02-0.5l-0.31-0.18
				c-0.47,0.27-0.45,0.55,0.01,0.82c0.44,0.26,0.95,0.27,1.31,0.06c0.3-0.17,0.31-0.39,0.03-0.63l-0.18-0.15
				c-0.21-0.17-0.2-0.29-0.05-0.38c0.19-0.11,0.46-0.11,0.72,0.05c0.29,0.17,0.27,0.32-0.01,0.49l0.31,0.18
				C45.91,116.31,45.9,116.02,45.44,115.76"/>
			<polygon class="st26" points="47.97,117.27 46.37,116.35 46.1,116.51 46.76,116.88 45.03,117.89 45.31,118.06 47.04,117.05 
				47.7,117.43 			"/>
			<path class="st26" d="M47.69,118.3l0.91-0.3l0.17-0.08l0.04,0.02l-0.14,0.1l-0.51,0.53L47.69,118.3z M49.19,117.97l-0.46-0.26
				l-2.59,0.82l0.31,0.18l0.9-0.29l0.62,0.36l-0.51,0.52l0.31,0.18L49.19,117.97"/>
			<polygon class="st26" points="51.4,119.25 50.08,118.49 49.83,118.64 50.34,118.94 48.85,119.8 48.34,119.51 48.08,119.65 
				49.39,120.41 49.65,120.26 49.14,119.97 50.63,119.1 51.14,119.4 			"/>
			<polygon class="st26" points="53.19,120.28 52.9,120.12 51.18,121.11 51.14,121.09 51.38,120.9 52.33,119.79 51.87,119.52 
				49.86,120.68 50.15,120.85 51.87,119.85 51.91,119.88 51.67,120.07 50.72,121.18 51.19,121.45 			"/>
			<polygon class="st26" points="52.87,121.99 52.49,121.77 52.12,121.98 52.5,122.2 			"/>
			<polygon class="st27" points="24.76,116.18 54.05,99.16 83.49,116.16 54.2,133.18 			"/>
		</g>
	</g>
	<g>
		<g>
			<defs>
				<polygon id="SVGID_63_" points="64.49,118.8 70.54,115.29 76.63,118.8 70.58,122.32 				"/>
			</defs>
			<clipPath id="SVGID_15_">
				<use xlink:href="#SVGID_63_"  style="overflow:visible;"/>
			</clipPath>
			<path class="st28" d="M67.86,120.37c-1.5-0.86-1.51-2.27-0.02-3.13c1.49-0.86,3.91-0.86,5.41,0c1.49,0.86,1.5,2.27,0.02,3.13
				C71.78,121.23,69.36,121.23,67.86,120.37 M73.58,117.05c-1.68-0.97-4.4-0.97-6.07,0c-1.67,0.97-1.66,2.55,0.02,3.52
				c1.68,0.97,4.4,0.97,6.07,0C75.27,119.59,75.26,118.01,73.58,117.05"/>
		</g>
	</g>
	<g>
		<defs>
			<rect id="SVGID_65_" x="30.27" y="114.18" width="7.55" height="4.37"/>
		</defs>
		<clipPath id="SVGID_16_">
			<use xlink:href="#SVGID_65_"  style="overflow:visible;"/>
		</clipPath>
		<g class="st29">
			<defs>
				<polygon id="SVGID_67_" points="30.27,116.37 34.03,114.18 37.81,116.37 34.05,118.55 				"/>
			</defs>
			<clipPath id="SVGID_17_">
				<use xlink:href="#SVGID_67_"  style="overflow:visible;"/>
			</clipPath>
			<path class="st30" d="M30.92,116.37l3.1-1.8l3.13,1.8l-3.1,1.8L30.92,116.37z M37.81,116.37l-3.79-2.19l-3.76,2.19l3.79,2.19
				L37.81,116.37"/>
		</g>
	</g>
</g>
<g>
</g>
<g>
</g>
<g>
</g>
<g>
</g>
<g>
</g>
<g>
</g>
<g>
</g>
<g>
</g>
<g>
</g>
<g>
</g>
<g>
</g>
<g>
</g>
<g>
</g>
<g>
</g>
<g>
</g>
</svg>
