<?xml version="1.0" encoding="utf-8"?>
<!-- Generator: Adobe Illustrator 25.2.0, SVG Export Plug-In . SVG Version: 6.00 Build 0)  -->
<svg version="1.1" id="Layer_1" xmlns="http://www.w3.org/2000/svg" xmlns:xlink="http://www.w3.org/1999/xlink" x="0px" y="0px"
	 viewBox="0 0 286.68 310.42" style="enable-background:new 0 0 286.68 310.42;" xml:space="preserve">
<style type="text/css">
	.st0{clip-path:url(#SVGID_1_);}
	.st1{clip-path:url(#SVGID_2_);fill:#FFB5AF;}
	.st2{clip-path:url(#SVGID_2_);}
	.st3{clip-path:url(#SVGID_3_);fill:#6CE87D;}
	.st4{clip-path:url(#SVGID_3_);}
	.st5{clip-path:url(#SVGID_3_);fill:none;}
	.st6{clip-path:url(#SVGID_4_);}
	.st7{clip-path:url(#SVGID_5_);}
	.st8{clip-path:url(#SVGID_6_);}
	.st9{clip-path:url(#SVGID_7_);fill:#6CE87D;}
	.st10{clip-path:url(#SVGID_7_);}
	.st11{clip-path:url(#SVGID_7_);fill:none;}
	.st12{clip-path:url(#SVGID_8_);}
	.st13{clip-path:url(#SVGID_9_);}
	.st14{clip-path:url(#SVGID_10_);}
	.st15{clip-path:url(#SVGID_11_);fill:#6CE87D;}
	.st16{clip-path:url(#SVGID_11_);}
	.st17{clip-path:url(#SVGID_11_);fill:none;}
	.st18{clip-path:url(#SVGID_12_);}
	.st19{clip-path:url(#SVGID_13_);}
	.st20{clip-path:url(#SVGID_14_);}
	.st21{clip-path:url(#SVGID_15_);fill:#6CE87D;}
	.st22{clip-path:url(#SVGID_15_);}
	.st23{clip-path:url(#SVGID_15_);fill:none;}
	.st24{clip-path:url(#SVGID_16_);}
	.st25{clip-path:url(#SVGID_17_);}
	.st26{clip-path:url(#SVGID_18_);}
	.st27{clip-path:url(#SVGID_19_);fill:#6CE87D;}
	.st28{clip-path:url(#SVGID_19_);}
	.st29{clip-path:url(#SVGID_19_);fill:none;}
	.st30{clip-path:url(#SVGID_20_);}
	.st31{clip-path:url(#SVGID_21_);}
	.st32{clip-path:url(#SVGID_22_);}
	.st33{fill:none;stroke:#000000;stroke-width:0.602;stroke-linecap:round;stroke-miterlimit:10;}
	.st34{fill:none;stroke:#000000;stroke-width:0.602;stroke-linecap:round;stroke-miterlimit:10;stroke-dasharray:1.1918,2.3847;}
	.st35{fill:none;stroke:#000000;stroke-width:0.602;stroke-linecap:round;stroke-miterlimit:10;stroke-dasharray:1.2087,2.4185;}
	.st36{fill:none;stroke:#000000;stroke-width:0.602;stroke-linecap:round;stroke-miterlimit:10;stroke-dasharray:1.2203,2.4416;}
	.st37{fill:none;stroke:#000000;stroke-width:0.602;stroke-linecap:round;stroke-miterlimit:10;stroke-dasharray:1.205,2.411;}
	.st38{fill:none;stroke:#000000;stroke-width:0.602;stroke-linecap:round;stroke-miterlimit:10;stroke-dasharray:1.2026,2.4062;}
	.st39{fill:none;stroke:#000000;stroke-width:0.602;stroke-linecap:round;stroke-miterlimit:10;stroke-dasharray:1.1973,2.3957;}
	.st40{fill:none;}
</style>
<g>
	<defs>
		<rect id="SVGID_45_" x="30.61" y="174.14" width="235.38" height="136.28"/>
	</defs>
	<clipPath id="SVGID_1_">
		<use xlink:href="#SVGID_45_"  style="overflow:visible;"/>
	</clipPath>
	<g class="st0">
		<defs>
			<polygon id="SVGID_47_" points="30.61,231.57 129.44,174.14 266,252.99 167.17,310.42 			"/>
		</defs>
		<clipPath id="SVGID_2_">
			<use xlink:href="#SVGID_47_"  style="overflow:visible;"/>
		</clipPath>
		<path class="st1" d="M101.17,226.22l-23.6-13.63l-23.46,13.63l23.6,13.63L101.17,226.22 M134.04,245.2l-23.6-13.63l-23.46,13.63
			l23.6,13.63L134.04,245.2 M166.92,264.18l-23.6-13.63l-23.46,13.63l23.6,13.63L166.92,264.18 M199.8,283.16l-23.6-13.63
			l-23.46,13.63l23.6,13.63L199.8,283.16 M141.37,202.86l-23.6-13.63l-23.45,13.63l23.6,13.63L141.37,202.86 M174.24,221.84
			l-23.6-13.63l-23.45,13.63l23.6,13.63L174.24,221.84 M207.12,240.82l-23.6-13.63l-23.45,13.63l23.6,13.63L207.12,240.82
			 M240,259.8l-23.6-13.63l-23.45,13.63l23.6,13.63L240,259.8 M131.58,181.68c-0.23-0.13-0.6-0.13-0.84,0.01
			c-0.22,0.13-0.22,0.35,0,0.48c0.24,0.14,0.61,0.14,0.84,0.01C131.82,182.04,131.82,181.82,131.58,181.68 M136.64,184.61
			c-0.24-0.14-0.61-0.14-0.85,0c-0.22,0.13-0.22,0.35,0.01,0.49c0.24,0.14,0.61,0.14,0.84,0
			C136.88,184.96,136.88,184.74,136.64,184.61 M141.7,187.53c-0.24-0.14-0.61-0.14-0.85,0c-0.22,0.13-0.22,0.35,0.01,0.49
			c0.23,0.13,0.6,0.13,0.83,0C141.93,187.88,141.93,187.66,141.7,187.53 M230.92,238.07l-75.62-43.66c-0.29-0.17-0.78-0.17-1.08,0
			l-1.43,0.83c-0.3,0.17-0.3,0.46-0.01,0.63l75.62,43.66c0.3,0.17,0.79,0.17,1.09,0l1.43-0.83
			C231.23,238.53,231.23,238.25,230.92,238.07 M44.27,230.97l1.26-0.73l14.33,8.27l-1.26,0.73L44.27,230.97 M76.72,249.7l1.26-0.73
			l14.33,8.27l-1.26,0.73L76.72,249.7 M109.6,268.69l1.26-0.73l14.33,8.27l-1.26,0.73L109.6,268.69 M142.47,287.67l1.26-0.73
			l14.33,8.27l-1.26,0.73L142.47,287.67 M46.78,229.51l1.26-0.73l11.79,6.81l-1.26,0.73L46.78,229.51 M79.23,248.24l1.26-0.73
			l11.8,6.81l-1.26,0.73L79.23,248.24 M112.11,267.23l1.26-0.73l11.8,6.81l-1.26,0.73L112.11,267.23 M144.99,286.21l1.26-0.73
			l11.8,6.81l-1.26,0.73L144.99,286.21 M49.29,228.05l1.26-0.73l18.54,10.7l-1.26,0.73L49.29,228.05 M81.74,246.79l1.26-0.73
			l18.54,10.7l-1.26,0.73L81.74,246.79 M114.62,265.77l1.26-0.73l18.54,10.71l-1.26,0.73L114.62,265.77 M147.49,284.75l1.26-0.73
			l18.54,10.7l-1.26,0.73L147.49,284.75 M51.58,226.22l25.96-15.09l26.13,15.09l-25.96,15.09L51.58,226.22 M84.46,245.21
			l25.96-15.09l26.13,15.09l-25.96,15.09L84.46,245.21 M117.34,264.19l25.96-15.09l26.13,15.09l-25.96,15.09L117.34,264.19
			 M150.22,283.17l25.96-15.09l26.13,15.09l-25.96,15.09L150.22,283.17 M84.47,207.61l1.26-0.73l14.33,8.27l-1.26,0.73L84.47,207.61
			 M116.92,226.34l1.26-0.73l14.33,8.27l-1.26,0.73L116.92,226.34 M149.79,245.33l1.26-0.73l14.33,8.27l-1.26,0.73L149.79,245.33
			 M182.67,264.31l1.26-0.73l14.33,8.27l-1.26,0.73L182.67,264.31 M86.98,206.15l1.26-0.73l11.8,6.81l-1.26,0.73L86.98,206.15
			 M119.43,224.88l1.26-0.73l11.8,6.81l-1.26,0.73L119.43,224.88 M152.31,243.86l1.26-0.73l11.8,6.81l-1.26,0.73L152.31,243.86
			 M185.19,262.84l1.26-0.73l11.8,6.81l-1.26,0.73L185.19,262.84 M89.49,204.68l1.26-0.73l18.54,10.71l-1.26,0.73L89.49,204.68
			 M121.95,223.42l1.26-0.73l18.54,10.7l-1.26,0.73L121.95,223.42 M154.82,242.4l1.26-0.73l18.54,10.7l-1.26,0.73L154.82,242.4
			 M187.7,261.38l1.26-0.73l18.54,10.7l-1.26,0.73L187.7,261.38 M91.79,202.86l25.96-15.09l26.13,15.09l-25.96,15.09L91.79,202.86
			 M124.67,221.84l25.96-15.09l26.13,15.09l-25.96,15.09L124.67,221.84 M157.54,240.82l25.96-15.09l26.13,15.09l-25.96,15.09
			L157.54,240.82 M190.42,259.8l25.96-15.09l26.13,15.09l-25.96,15.09L190.42,259.8 M129.49,182.9c-0.93-0.53-0.93-1.41-0.01-1.94
			c0.93-0.54,2.43-0.54,3.36-0.01c0.93,0.54,0.94,1.41,0.01,1.95C131.93,183.44,130.42,183.44,129.49,182.9 M134.55,185.82
			c-0.93-0.54-0.94-1.41-0.02-1.95c0.93-0.54,2.43-0.54,3.37,0c0.94,0.54,0.93,1.41,0,1.95
			C136.98,186.36,135.48,186.36,134.55,185.82 M139.61,188.75c-0.93-0.54-0.94-1.41-0.02-1.95c0.93-0.54,2.44-0.54,3.37,0
			c0.93,0.53,0.93,1.41,0,1.95C142.04,189.28,140.54,189.28,139.61,188.75 M151.53,196.6c-0.99-0.57-1-1.51,0-2.09l1.43-0.83
			c1-0.58,2.61-0.58,3.61-0.01l75.62,43.66c1,0.58,1.01,1.52,0.01,2.09l-1.43,0.83c-1,0.58-2.61,0.58-3.62,0L151.53,196.6
			 M257.1,249.3l-121.28-70.02c-3.51-2.03-9.22-2.03-12.71,0l-83.64,48.61c-3.49,2.03-3.47,5.33,0.04,7.36l121.28,70.02
			c3.52,2.03,9.22,2.03,12.71,0l83.64-48.61C260.63,254.64,260.62,251.34,257.1,249.3"/>
		<path class="st2" d="M39.51,235.25c-3.51-2.03-3.53-5.33-0.04-7.36l83.64-48.61c3.49-2.03,9.2-2.03,12.71,0l121.28,70.02
			c3.52,2.03,3.53,5.33,0.04,7.36l-83.64,48.61c-3.49,2.03-9.19,2.03-12.71,0L39.51,235.25 M258.36,248.57l-121.28-70.02
			c-4.22-2.44-11.04-2.44-15.23,0L38.2,227.16c-4.2,2.44-4.17,6.38,0.05,8.82l121.28,70.02c4.22,2.44,11.04,2.44,15.23,0
			l83.64-48.61C262.6,254.96,262.58,251.01,258.36,248.57"/>
		<path class="st2" d="M130.74,182.17c-0.23-0.13-0.23-0.35,0-0.48c0.24-0.14,0.61-0.14,0.84-0.01c0.24,0.14,0.24,0.35,0,0.49
			C131.36,182.3,130.98,182.3,130.74,182.17 M132.84,180.95c-0.93-0.53-2.43-0.53-3.36,0.01c-0.92,0.53-0.92,1.41,0.01,1.94
			c0.93,0.54,2.44,0.54,3.36,0.01C133.78,182.37,133.77,181.49,132.84,180.95"/>
		<path class="st2" d="M135.81,185.09c-0.24-0.14-0.24-0.35-0.01-0.49c0.23-0.14,0.61-0.14,0.85,0c0.24,0.14,0.24,0.36,0,0.49
			C136.42,185.23,136.04,185.23,135.81,185.09 M137.9,183.88c-0.94-0.54-2.44-0.54-3.37,0c-0.92,0.53-0.91,1.41,0.02,1.95
			c0.93,0.54,2.43,0.53,3.35,0C138.83,185.28,138.83,184.42,137.9,183.88"/>
		<path class="st2" d="M140.87,188.01c-0.24-0.14-0.24-0.35-0.01-0.49c0.24-0.14,0.61-0.14,0.85,0c0.23,0.13,0.23,0.35-0.01,0.49
			C141.47,188.15,141.09,188.15,140.87,188.01 M142.96,186.8c-0.94-0.54-2.44-0.54-3.37,0c-0.92,0.53-0.91,1.41,0.02,1.95
			c0.93,0.53,2.43,0.53,3.35,0C143.89,188.21,143.89,187.33,142.96,186.8"/>
		<path class="st2" d="M152.78,195.87c-0.29-0.17-0.29-0.45,0.01-0.63l1.43-0.83c0.3-0.17,0.79-0.17,1.08,0l75.62,43.66
			c0.3,0.17,0.3,0.46,0,0.63l-1.43,0.83c-0.3,0.17-0.79,0.17-1.09,0L152.78,195.87 M232.18,237.34l-75.62-43.66
			c-0.99-0.57-2.61-0.57-3.61,0.01l-1.42,0.83c-1,0.58-0.99,1.52,0,2.09l75.62,43.66c1,0.58,2.62,0.58,3.62,0l1.43-0.83
			C233.19,238.86,233.18,237.92,232.18,237.34"/>
		<path class="st2" d="M94.31,202.86l23.45-13.63l23.6,13.63l-23.45,13.63L94.31,202.86z M143.89,202.86l-26.13-15.09l-25.96,15.09
			l26.13,15.09L143.89,202.86"/>
		<path class="st2" d="M127.19,221.84l23.45-13.63l23.6,13.63l-23.45,13.63L127.19,221.84z M176.77,221.84l-26.13-15.09
			l-25.96,15.09l26.13,15.09L176.77,221.84"/>
		<path class="st2" d="M160.07,240.82l23.45-13.63l23.6,13.63l-23.45,13.63L160.07,240.82z M209.64,240.82l-26.13-15.09
			l-25.96,15.09l26.13,15.09L209.64,240.82"/>
		<path class="st2" d="M192.95,259.8l23.45-13.63L240,259.8l-23.45,13.63L192.95,259.8z M242.52,259.8l-26.13-15.09l-25.96,15.09
			l26.13,15.09L242.52,259.8"/>
		<path class="st2" d="M54.11,226.22l23.46-13.63l23.6,13.63l-23.46,13.63L54.11,226.22z M103.68,226.22l-26.13-15.09l-25.96,15.09
			l26.13,15.09L103.68,226.22"/>
		<path class="st2" d="M86.98,245.21l23.46-13.63l23.6,13.63l-23.46,13.63L86.98,245.21z M136.56,245.21l-26.13-15.09l-25.96,15.09
			l26.13,15.09L136.56,245.21"/>
		<path class="st2" d="M119.86,264.19l23.46-13.63l23.6,13.63l-23.46,13.63L119.86,264.19z M169.44,264.19L143.3,249.1l-25.96,15.09
			l26.13,15.09L169.44,264.19"/>
		<path class="st2" d="M152.74,283.17l23.46-13.63l23.6,13.63l-23.46,13.63L152.74,283.17z M202.31,283.17l-26.13-15.09
			l-25.96,15.09l26.13,15.09L202.31,283.17"/>
		<polygon class="st2" points="109.29,214.66 90.75,203.95 89.49,204.68 108.03,215.39 		"/>
		<polygon class="st2" points="100.04,212.23 88.24,205.42 86.98,206.15 98.78,212.96 		"/>
		<polygon class="st2" points="100.05,215.15 85.72,206.88 84.47,207.61 98.79,215.88 		"/>
		<polygon class="st2" points="141.75,233.39 123.21,222.69 121.95,223.42 140.49,234.12 		"/>
		<polygon class="st2" points="132.49,230.96 120.69,224.15 119.43,224.88 131.23,231.69 		"/>
		<polygon class="st2" points="132.5,233.89 118.17,225.61 116.92,226.34 131.25,234.62 		"/>
		<polygon class="st2" points="174.62,252.38 156.08,241.67 154.82,242.4 173.36,253.11 		"/>
		<polygon class="st2" points="165.36,249.94 153.57,243.13 152.31,243.86 164.11,250.67 		"/>
		<polygon class="st2" points="165.38,252.87 151.05,244.59 149.8,245.33 164.12,253.6 		"/>
		<polygon class="st2" points="207.5,271.36 188.96,260.65 187.7,261.38 206.24,272.09 		"/>
		<polygon class="st2" points="198.24,268.92 186.44,262.11 185.19,262.85 196.98,269.66 		"/>
		<polygon class="st2" points="198.26,271.85 183.93,263.58 182.67,264.31 197,272.58 		"/>
		<polygon class="st2" points="69.09,238.02 50.55,227.32 49.29,228.05 67.83,238.75 		"/>
		<polygon class="st2" points="59.84,235.59 48.04,228.78 46.78,229.51 58.58,236.32 		"/>
		<polygon class="st2" points="59.85,238.51 45.52,230.24 44.27,230.97 58.59,239.24 		"/>
		<polygon class="st2" points="101.54,256.76 83,246.06 81.74,246.79 100.28,257.49 		"/>
		<polygon class="st2" points="92.29,254.32 80.49,247.51 79.23,248.24 91.03,255.05 		"/>
		<polygon class="st2" points="92.3,257.25 77.98,248.97 76.72,249.7 91.05,257.98 		"/>
		<polygon class="st2" points="134.41,275.74 115.87,265.04 114.62,265.77 133.16,276.47 		"/>
		<polygon class="st2" points="125.17,273.3 113.37,266.49 112.11,267.22 123.91,274.04 		"/>
		<polygon class="st2" points="125.18,276.23 110.85,267.95 109.6,268.69 123.92,276.96 		"/>
		<polygon class="st2" points="167.29,294.72 148.75,284.02 147.49,284.75 166.03,295.45 		"/>
		<polygon class="st2" points="158.04,292.29 146.25,285.48 144.99,286.21 156.78,293.02 		"/>
		<polygon class="st2" points="158.06,295.21 143.73,286.94 142.47,287.67 156.8,295.94 		"/>
	</g>
</g>
<g>
	<g>
		<g>
			<defs>
				<polygon id="SVGID_49_" points="18.71,52.16 48.74,34.71 78.96,52.16 48.94,69.61 				"/>
			</defs>
			<clipPath id="SVGID_3_">
				<use xlink:href="#SVGID_49_"  style="overflow:visible;"/>
			</clipPath>
			<path class="st3" d="M41.42,54.65l-0.06-0.03l-0.24,0.11l-1.27,0.42l0.66,0.38l0.71-0.73L41.42,54.65 M37.21,45.71l-0.6-0.35
				l-0.87,0.5l0.6,0.35c0.31,0.18,0.66,0.18,0.92,0.03C37.52,46.09,37.52,45.89,37.21,45.71 M42.19,48.58l-0.62-0.36l-0.81,0.47
				l0.62,0.36c0.29,0.17,0.61,0.18,0.87,0.03C42.51,48.93,42.47,48.75,42.19,48.58 M49.67,52.9l-0.62-0.36l-0.81,0.47l0.62,0.36
				c0.29,0.17,0.61,0.18,0.87,0.03C49.99,53.25,49.95,53.07,49.67,52.9 M47.07,51.33c-0.44-0.25-0.99-0.17-1.72,0.25
				c-0.73,0.42-0.87,0.75-0.43,1c0.44,0.25,0.99,0.17,1.72-0.25C47.37,51.91,47.5,51.59,47.07,51.33 M45.46,43.79l-0.62-0.36
				l-0.81,0.47l0.62,0.36c0.3,0.17,0.61,0.18,0.87,0.03C45.79,44.14,45.75,43.96,45.46,43.79 M42.86,42.22
				c-0.44-0.25-0.99-0.17-1.72,0.26c-0.73,0.42-0.88,0.74-0.44,1c0.44,0.25,0.99,0.17,1.72-0.25C43.16,42.79,43.3,42.47,42.86,42.22
				 M51.25,40.28l-0.06-0.04l-0.24,0.11l-1.27,0.42l0.65,0.38l0.72-0.73L51.25,40.28 M46.03,60.29l0.52-0.3l0.53,0.31l-0.52,0.3
				L46.03,60.29 M31.66,51.62c0.33,0.19,0.72,0.19,1.05-0.01l1.94-1.13l0.4,0.23l-1.94,1.13c-0.54,0.32-1.29,0.31-1.84,0
				c-0.55-0.32-0.56-0.75-0.01-1.07l1.94-1.13l0.4,0.23l-1.94,1.13C31.34,51.2,31.34,51.43,31.66,51.62 M37.63,52.64l0.38-0.22
				l2.24,1.29l-0.38,0.22l-0.92-0.53l-2.42,1.4l-0.4-0.23l2.42-1.41L37.63,52.64 M37.68,55.47l3.62-1.15l0.64,0.37l-1.98,2.1
				l-0.43-0.25l0.71-0.72l-0.87-0.5l-1.25,0.41L37.68,55.47 M42.83,55.62l0.36-0.21l1.83,1.06l-0.36,0.21l-0.71-0.41l-2.08,1.21
				l0.71,0.41l-0.36,0.21l-1.83-1.06l0.36-0.21l0.72,0.41l2.08-1.21L42.83,55.62 M44.67,59.04l0.06,0.03l2.4-1.4l0.4,0.23l-2.8,1.63
				l-0.65-0.37l1.33-1.55l0.34-0.27l-0.06-0.04l-2.4,1.4l-0.4-0.23l2.8-1.63l0.64,0.37L45,58.77L44.67,59.04 M29.16,50.19
				c0.34,0.2,0.72,0.21,0.99,0.06c0.22-0.13,0.23-0.29-0.06-0.53l-0.26-0.21c-0.39-0.33-0.37-0.63,0.03-0.87
				c0.51-0.29,1.25-0.26,1.85,0.08c0.63,0.36,0.65,0.77,0.02,1.13l-0.43-0.25c0.39-0.23,0.42-0.45,0.02-0.68
				c-0.36-0.21-0.74-0.22-1-0.06c-0.21,0.12-0.22,0.28,0.06,0.53l0.25,0.21c0.39,0.33,0.38,0.63-0.04,0.88
				c-0.5,0.29-1.21,0.27-1.82-0.09c-0.65-0.38-0.68-0.77-0.02-1.15l0.43,0.25C28.79,49.73,28.76,49.96,29.16,50.19 M34.15,53.07
				c0.34,0.2,0.72,0.21,0.99,0.06c0.22-0.13,0.23-0.29-0.06-0.53l-0.26-0.21c-0.39-0.33-0.37-0.63,0.03-0.87
				c0.51-0.29,1.25-0.26,1.85,0.08c0.63,0.36,0.65,0.77,0.02,1.13l-0.43-0.25c0.39-0.23,0.42-0.45,0.02-0.68
				c-0.37-0.21-0.74-0.21-1-0.06c-0.21,0.12-0.22,0.28,0.06,0.53l0.25,0.21c0.39,0.33,0.38,0.63-0.04,0.88
				c-0.5,0.29-1.21,0.27-1.82-0.09c-0.65-0.38-0.68-0.77-0.02-1.15l0.43,0.25C33.77,52.61,33.75,52.83,34.15,53.07 M51.81,56.94
				l0.52-0.3l0.53,0.31l-0.52,0.3L51.81,56.94 M33.79,46.54l2.8-1.63l1,0.58c0.53,0.31,0.59,0.69,0.08,0.99
				c-0.51,0.29-1.18,0.26-1.71-0.04l-0.6-0.35l-1.17,0.68L33.79,46.54 M36.3,47.99l2.8-1.63l1.68,0.97l-0.38,0.22l-1.28-0.74
				L38.3,47.3l1.24,0.71l-0.38,0.22l-1.24-0.71L37.09,48l1.28,0.74l-0.38,0.22L36.3,47.99 M38.75,49.4l2.8-1.63l0.96,0.56
				c0.58,0.33,0.69,0.67,0.15,0.99c-0.51,0.29-1.08,0.21-1.6-0.08l-0.06,0.04l0.05,0.09l-0.4,1.13l-0.51-0.29l0.44-1.19l-0.18-0.1
				l-1.25,0.72L38.75,49.4 M41.35,50.9l2.8-1.63l1.76,1.02l-0.38,0.22l-1.36-0.79l-0.83,0.48l1.28,0.74l-0.38,0.22l-1.28-0.74
				l-1.21,0.7L41.35,50.9 M46.23,53.72l2.8-1.63l0.97,0.56c0.58,0.33,0.69,0.67,0.15,0.99c-0.51,0.29-1.08,0.21-1.6-0.08l-0.06,0.04
				l0.04,0.09l-0.4,1.13l-0.51-0.29l0.44-1.19l-0.18-0.1l-1.25,0.72L46.23,53.72 M50.73,54.95l0.06,0.03l0.18-0.1l1.75-0.67
				l0.59,0.34l-2.8,1.63l-0.38-0.22l2.4-1.4l-0.06-0.03l-0.38,0.2l-1.53,0.56l-0.35-0.2l0.96-0.89l0.34-0.22l-0.06-0.04l-2.4,1.4
				l-0.38-0.22l2.8-1.63l0.59,0.34l-1.15,1.01L50.73,54.95 M44.53,52.81c-0.7-0.4-0.56-0.91,0.39-1.46
				c0.95-0.55,1.83-0.63,2.52-0.23c0.7,0.4,0.56,0.91-0.39,1.46C46.1,53.13,45.23,53.21,44.53,52.81 M42.02,44.61l2.79-1.62
				l0.97,0.56c0.58,0.33,0.7,0.67,0.15,0.99c-0.51,0.29-1.08,0.2-1.61-0.09l-0.06,0.04l0.05,0.09l-0.4,1.13l-0.51-0.3l0.44-1.19
				l-0.18-0.1l-1.25,0.72L42.02,44.61 M46.89,44.6l0.36-0.21l1.83,1.06l-0.36,0.21l-0.72-0.41l-2.08,1.21l0.72,0.41l-0.36,0.21
				l-1.83-1.06l0.36-0.21l0.72,0.41l2.08-1.21L46.89,44.6 M51.88,47.48l0.36-0.21l1.83,1.06l-0.36,0.21L53,48.12l-2.08,1.21
				l0.72,0.41l-0.36,0.21l-1.83-1.06l0.36-0.21l0.72,0.41l2.08-1.21L51.88,47.48 M53.71,50.9l0.06,0.03l2.4-1.4l0.4,0.23l-2.79,1.62
				l-0.65-0.37l1.32-1.55l0.34-0.27l-0.06-0.03l-2.4,1.4l-0.4-0.23l2.79-1.62l0.65,0.37l-1.32,1.55L53.71,50.9 M40.32,43.7
				c-0.7-0.4-0.55-0.91,0.39-1.46c0.95-0.55,1.83-0.63,2.52-0.23c0.7,0.4,0.56,0.91-0.39,1.46C41.9,44.02,41.02,44.1,40.32,43.7
				 M47.7,47.95c-0.6-0.35-0.43-0.84,0.51-1.39c0.98-0.57,1.83-0.63,2.59-0.2c0.58,0.33,0.55,0.81-0.07,1.16l-0.41-0.24
				c0.41-0.24,0.45-0.5,0.1-0.7c-0.49-0.28-1.03-0.22-1.79,0.22c-0.75,0.43-0.89,0.74-0.46,0.99c0.34,0.19,0.8,0.16,1.33-0.11
				l-0.66-0.38l0.37-0.22l1.04,0.6l-1.45,0.84l-0.4-0.23L49.13,48l-0.06-0.04C48.54,48.17,48.08,48.17,47.7,47.95 M47.01,40.34
				l0.06,0.04l2.4-1.4l0.4,0.23l-2.79,1.62l-0.65-0.37l1.32-1.55l0.34-0.27l-0.06-0.03l-2.4,1.4l-0.4-0.23l2.79-1.62l0.65,0.37
				l-1.32,1.55L47.01,40.34 M47.51,41.09l3.61-1.15l0.64,0.37l-1.97,2.1l-0.43-0.25l0.71-0.72l-0.87-0.5l-1.25,0.41L47.51,41.09
				 M52.29,42.49l0.06,0.03l0.18-0.1l1.74-0.67l0.59,0.34l-2.79,1.62l-0.38-0.22l2.4-1.4l-0.06-0.03l-0.38,0.19l-1.53,0.56
				l-0.35-0.2l0.96-0.89l0.34-0.22L53,41.48l-2.4,1.4l-0.38-0.22l2.79-1.62l0.59,0.34l-1.15,1.01L52.29,42.49 M52.83,44.16
				l2.79-1.62l1.68,0.97l-0.38,0.22l-1.28-0.74l-0.83,0.48l1.24,0.71l-0.38,0.22l-1.24-0.71l-0.83,0.48l1.28,0.74l-0.38,0.22
				L52.83,44.16 M78.05,52.16l-29.3-16.92L19.63,52.16l29.3,16.92L78.05,52.16"/>
			<path class="st4" d="M19.63,52.16l29.11-16.92l29.3,16.92L48.94,69.08L19.63,52.16z M78.96,52.16L48.74,34.71L18.71,52.16
				l30.23,17.45L78.96,52.16"/>
			<polygon class="st4" points="49.88,39.22 49.47,38.99 47.07,40.38 47.01,40.34 47.35,40.08 48.67,38.52 48.03,38.15 45.23,39.77 
				45.64,40.01 48.04,38.61 48.09,38.65 47.76,38.92 46.44,40.47 47.08,40.84 			"/>
			<path class="st4" d="M49.68,40.77l1.27-0.42l0.24-0.11l0.06,0.04l-0.19,0.14l-0.72,0.73L49.68,40.77z M51.77,40.31l-0.64-0.37
				l-3.61,1.15l0.43,0.25l1.25-0.41l0.87,0.5l-0.71,0.72l0.43,0.25L51.77,40.31"/>
			<polygon class="st4" points="54.86,42.1 54.27,41.76 52.53,42.42 52.35,42.52 52.29,42.49 52.46,42.38 53.61,41.37 53.01,41.03 
				50.22,42.65 50.6,42.87 53,41.48 53.06,41.51 52.73,41.74 51.77,42.62 52.12,42.82 53.65,42.27 54.03,42.07 54.09,42.11 
				51.69,43.5 52.07,43.72 			"/>
			<polygon class="st4" points="57.31,43.51 55.63,42.54 52.83,44.16 54.51,45.13 54.89,44.91 53.62,44.17 54.44,43.69 55.68,44.41 
				56.06,44.19 54.82,43.47 55.65,42.99 56.93,43.73 			"/>
			<path class="st4" d="M40.7,43.48c-0.44-0.25-0.29-0.57,0.44-1c0.73-0.43,1.28-0.51,1.72-0.26c0.44,0.25,0.3,0.57-0.43,1
				C41.7,43.64,41.14,43.73,40.7,43.48 M43.24,42c-0.7-0.4-1.57-0.32-2.52,0.23c-0.95,0.55-1.09,1.06-0.39,1.46
				c0.7,0.4,1.58,0.32,2.52-0.23C43.8,42.91,43.94,42.4,43.24,42"/>
			<path class="st4" d="M44.03,43.91l0.81-0.47l0.62,0.36c0.29,0.17,0.33,0.35,0.06,0.5c-0.26,0.15-0.58,0.14-0.87-0.03L44.03,43.91
				 M45.78,43.54l-0.97-0.56l-2.79,1.62l0.4,0.23l1.25-0.72l0.18,0.1l-0.44,1.19l0.51,0.3l0.4-1.13l-0.05-0.09l0.06-0.04
				c0.52,0.29,1.1,0.38,1.61,0.09C46.48,44.21,46.36,43.87,45.78,43.54"/>
			<polygon class="st4" points="49.08,45.45 47.25,44.39 46.89,44.6 47.61,45.01 45.53,46.22 44.82,45.8 44.46,46.01 46.29,47.07 
				46.65,46.86 45.93,46.45 48.01,45.24 48.73,45.65 			"/>
			<path class="st4" d="M50.8,46.36c-0.75-0.44-1.61-0.37-2.59,0.2c-0.95,0.55-1.11,1.05-0.51,1.39c0.38,0.22,0.84,0.22,1.37,0.01
				L49.13,48l-0.72,0.29l0.4,0.23l1.44-0.84l-1.04-0.6l-0.37,0.22l0.66,0.38c-0.52,0.27-0.99,0.3-1.33,0.11
				c-0.43-0.25-0.29-0.55,0.46-0.99c0.76-0.44,1.29-0.5,1.79-0.22c0.35,0.2,0.31,0.47-0.1,0.7l0.41,0.24
				C51.34,47.17,51.38,46.7,50.8,46.36"/>
			<polygon class="st4" points="54.07,48.33 52.24,47.27 51.88,47.48 52.6,47.89 50.52,49.1 49.8,48.68 49.44,48.89 51.28,49.95 
				51.64,49.74 50.92,49.33 53,48.12 53.71,48.53 			"/>
			<polygon class="st4" points="56.57,49.77 56.17,49.54 53.77,50.93 53.71,50.9 54.05,50.63 55.37,49.08 54.72,48.7 51.93,50.33 
				52.33,50.56 54.73,49.16 54.79,49.2 54.46,49.47 53.13,51.02 53.78,51.39 			"/>
			<path class="st4" d="M35.75,45.87l0.87-0.5l0.6,0.35c0.31,0.18,0.31,0.38,0.05,0.53c-0.26,0.15-0.61,0.15-0.92-0.03L35.75,45.87
				 M37.59,45.49l-1-0.58l-2.8,1.63l0.4,0.23l1.17-0.68l0.6,0.35c0.53,0.31,1.2,0.34,1.71,0.04C38.18,46.18,38.12,45.8,37.59,45.49"
				/>
			<polygon class="st4" points="40.78,47.33 39.1,46.36 36.3,47.99 37.99,48.96 38.37,48.74 37.09,48 37.92,47.52 39.16,48.23 
				39.53,48.01 38.3,47.3 39.13,46.82 40.4,47.56 			"/>
			<path class="st4" d="M40.75,48.7l0.81-0.47l0.62,0.36c0.29,0.17,0.33,0.34,0.06,0.5c-0.26,0.15-0.58,0.14-0.87-0.03L40.75,48.7
				 M42.51,48.33l-0.97-0.56l-2.8,1.63l0.4,0.23l1.25-0.72l0.18,0.1l-0.44,1.19l0.51,0.29l0.4-1.13l-0.04-0.09l0.06-0.04
				c0.52,0.29,1.09,0.38,1.6,0.08C43.2,49,43.09,48.67,42.51,48.33"/>
			<polygon class="st4" points="45.91,50.3 44.15,49.28 41.35,50.9 41.75,51.14 42.97,50.43 44.25,51.17 44.62,50.95 43.34,50.21 
				44.17,49.73 45.53,50.52 			"/>
			<path class="st4" d="M44.91,52.59c-0.44-0.25-0.3-0.57,0.43-1c0.73-0.43,1.29-0.51,1.72-0.25c0.44,0.25,0.3,0.57-0.43,1
				C45.9,52.76,45.35,52.84,44.91,52.59 M47.45,51.11c-0.7-0.4-1.57-0.32-2.52,0.23c-0.95,0.55-1.09,1.06-0.39,1.46
				c0.7,0.4,1.57,0.32,2.52-0.23C48.01,52.02,48.14,51.52,47.45,51.11"/>
			<path class="st4" d="M48.24,53.02l0.81-0.47l0.62,0.36c0.29,0.17,0.33,0.34,0.06,0.5c-0.26,0.15-0.58,0.14-0.87-0.03L48.24,53.02
				 M49.99,52.65l-0.97-0.56l-2.8,1.63l0.4,0.23l1.25-0.72l0.18,0.1l-0.44,1.19l0.51,0.29l0.4-1.13l-0.05-0.09l0.06-0.04
				c0.52,0.29,1.09,0.38,1.6,0.08C50.68,53.32,50.57,52.98,49.99,52.65"/>
			<polygon class="st4" points="53.3,54.56 52.71,54.22 50.96,54.89 50.78,54.99 50.73,54.95 50.9,54.85 52.05,53.84 51.45,53.49 
				48.65,55.12 49.03,55.34 51.43,53.94 51.5,53.98 51.16,54.2 50.2,55.09 50.55,55.29 52.08,54.73 52.47,54.54 52.52,54.57 
				50.12,55.97 50.5,56.19 			"/>
			<polygon class="st4" points="52.85,56.94 52.32,56.64 51.81,56.94 52.34,57.25 			"/>
			<path class="st4" d="M31.72,48.72c-0.6-0.35-1.34-0.38-1.85-0.08c-0.4,0.23-0.42,0.54-0.03,0.87l0.26,0.21
				c0.29,0.24,0.27,0.4,0.06,0.53c-0.27,0.16-0.65,0.14-0.99-0.06c-0.4-0.23-0.38-0.46,0.02-0.69l-0.43-0.25
				c-0.66,0.38-0.63,0.77,0.02,1.15c0.62,0.36,1.32,0.38,1.83,0.09c0.42-0.24,0.43-0.55,0.04-0.88l-0.25-0.21
				c-0.29-0.24-0.28-0.4-0.06-0.53c0.26-0.15,0.64-0.15,1,0.06c0.4,0.23,0.37,0.45-0.02,0.68l0.43,0.25
				C32.38,49.49,32.35,49.08,31.72,48.72"/>
			<path class="st4" d="M35.06,50.72l-0.4-0.23l-1.94,1.13c-0.34,0.2-0.73,0.2-1.05,0.01c-0.32-0.19-0.33-0.42,0.01-0.61l1.94-1.13
				l-0.4-0.23l-1.94,1.13c-0.54,0.32-0.54,0.75,0.01,1.07c0.54,0.31,1.29,0.32,1.84,0L35.06,50.72"/>
			<path class="st4" d="M36.71,51.6c-0.6-0.35-1.34-0.38-1.85-0.08c-0.4,0.23-0.42,0.54-0.03,0.87l0.26,0.21
				c0.29,0.24,0.27,0.4,0.06,0.53c-0.27,0.16-0.65,0.14-0.99-0.06c-0.4-0.23-0.38-0.46,0.02-0.69l-0.43-0.25
				c-0.66,0.38-0.63,0.77,0.02,1.15c0.62,0.36,1.32,0.38,1.82,0.09c0.42-0.24,0.43-0.55,0.04-0.88l-0.25-0.21
				c-0.29-0.24-0.28-0.4-0.07-0.53c0.26-0.15,0.64-0.15,1,0.06c0.4,0.23,0.37,0.45-0.02,0.68l0.43,0.25
				C37.36,52.37,37.34,51.96,36.71,51.6"/>
			<polygon class="st4" points="40.24,53.71 38.01,52.42 37.63,52.64 38.54,53.17 36.13,54.57 36.53,54.8 38.95,53.4 39.86,53.93 
							"/>
			<path class="st4" d="M39.85,55.15l1.26-0.42l0.24-0.11l0.06,0.03l-0.19,0.14l-0.71,0.73L39.85,55.15z M41.94,54.69l-0.64-0.37
				l-3.62,1.15l0.43,0.25l1.25-0.41l0.87,0.5l-0.71,0.72l0.43,0.25L41.94,54.69"/>
			<polygon class="st4" points="45.03,56.47 43.19,55.41 42.83,55.62 43.55,56.03 41.47,57.24 40.76,56.83 40.4,57.04 42.23,58.09 
				42.59,57.89 41.88,57.47 43.95,56.27 44.67,56.68 			"/>
			<polygon class="st4" points="47.53,57.91 47.13,57.68 44.73,59.08 44.67,59.04 45,58.77 46.33,57.22 45.68,56.85 42.88,58.47 
				43.28,58.7 45.69,57.31 45.75,57.34 45.41,57.61 44.08,59.17 44.73,59.54 			"/>
			<polygon class="st4" points="47.08,60.3 46.55,59.99 46.03,60.29 46.57,60.6 			"/>
			<polygon class="st5" points="7.81,52.18 48.73,28.4 89.87,52.15 48.95,75.93 			"/>
		</g>
	</g>
	<g>
		<g>
			<defs>
				<polygon id="SVGID_51_" points="63.32,55.85 71.77,50.93 80.28,55.85 71.83,60.76 				"/>
			</defs>
			<clipPath id="SVGID_4_">
				<use xlink:href="#SVGID_51_"  style="overflow:visible;"/>
			</clipPath>
			<path class="st6" d="M68.03,58.04c-2.09-1.21-2.1-3.17-0.02-4.38c2.08-1.21,5.47-1.21,7.56,0c2.09,1.21,2.1,3.17,0.02,4.38
				C73.51,59.24,70.12,59.24,68.03,58.04 M76.03,53.39c-2.34-1.35-6.15-1.35-8.48,0c-2.33,1.36-2.32,3.56,0.03,4.91
				c2.34,1.35,6.15,1.36,8.48,0C78.38,56.95,78.37,54.74,76.03,53.39"/>
		</g>
	</g>
	<g>
		<defs>
			<rect id="SVGID_53_" x="15.5" y="49.39" width="10.54" height="6.11"/>
		</defs>
		<clipPath id="SVGID_5_">
			<use xlink:href="#SVGID_53_"  style="overflow:visible;"/>
		</clipPath>
		<g class="st7">
			<defs>
				<polygon id="SVGID_55_" points="15.5,52.44 20.76,49.39 26.05,52.45 20.79,55.5 				"/>
			</defs>
			<clipPath id="SVGID_6_">
				<use xlink:href="#SVGID_55_"  style="overflow:visible;"/>
			</clipPath>
			<path class="st8" d="M16.42,52.44l4.34-2.52l4.37,2.52l-4.34,2.52L16.42,52.44z M26.05,52.45l-5.29-3.05l-5.25,3.05l5.29,3.05
				L26.05,52.45"/>
		</g>
	</g>
</g>
<g>
	<g>
		<g>
			<defs>
				<polygon id="SVGID_57_" points="93.1,32.99 123.12,15.54 153.35,32.99 123.32,50.44 				"/>
			</defs>
			<clipPath id="SVGID_7_">
				<use xlink:href="#SVGID_57_"  style="overflow:visible;"/>
			</clipPath>
			<path class="st9" d="M115.8,35.48l-0.06-0.03l-0.24,0.11l-1.27,0.42l0.66,0.38l0.71-0.73L115.8,35.48 M111.6,26.54l-0.6-0.35
				l-0.87,0.5l0.6,0.35c0.31,0.18,0.66,0.18,0.92,0.03C111.91,26.92,111.9,26.72,111.6,26.54 M116.57,29.41l-0.62-0.36l-0.81,0.47
				l0.62,0.36c0.29,0.17,0.61,0.18,0.87,0.03C116.9,29.76,116.86,29.58,116.57,29.41 M124.05,33.73l-0.62-0.36l-0.81,0.47l0.62,0.36
				c0.29,0.17,0.61,0.18,0.87,0.03C124.38,34.08,124.34,33.9,124.05,33.73 M121.45,32.16c-0.44-0.25-0.99-0.17-1.72,0.25
				c-0.73,0.42-0.87,0.75-0.43,1c0.44,0.25,0.99,0.17,1.72-0.25C121.75,32.74,121.89,32.42,121.45,32.16 M119.85,24.62l-0.62-0.36
				l-0.81,0.47l0.62,0.36c0.3,0.17,0.61,0.18,0.87,0.03C120.18,24.96,120.13,24.78,119.85,24.62 M117.25,23.05
				c-0.44-0.25-0.99-0.17-1.72,0.26c-0.73,0.42-0.88,0.74-0.44,1c0.44,0.25,0.99,0.17,1.72-0.25
				C117.55,23.62,117.68,23.3,117.25,23.05 M125.63,21.1l-0.06-0.04l-0.24,0.11l-1.27,0.42l0.65,0.38l0.72-0.73L125.63,21.1
				 M120.42,41.12l0.52-0.3l0.53,0.31l-0.52,0.3L120.42,41.12 M106.05,32.45c0.33,0.19,0.72,0.19,1.05-0.01l1.94-1.13l0.4,0.23
				l-1.94,1.13c-0.54,0.32-1.29,0.31-1.84,0c-0.55-0.32-0.56-0.75-0.01-1.07l1.94-1.13l0.4,0.23l-1.94,1.13
				C105.72,32.03,105.72,32.26,106.05,32.45 M112.01,33.46l0.38-0.22l2.24,1.29l-0.38,0.22l-0.92-0.53l-2.42,1.4l-0.4-0.23
				l2.42-1.41L112.01,33.46 M112.07,36.3l3.62-1.15l0.64,0.37l-1.98,2.1l-0.43-0.25l0.71-0.72l-0.87-0.5l-1.25,0.41L112.07,36.3
				 M117.22,36.45l0.36-0.21l1.83,1.06l-0.36,0.21l-0.71-0.41l-2.08,1.21l0.71,0.41l-0.36,0.21l-1.83-1.06l0.36-0.21l0.72,0.41
				l2.08-1.21L117.22,36.45 M119.05,39.87l0.06,0.03l2.4-1.4l0.4,0.23l-2.8,1.63l-0.65-0.37l1.33-1.55l0.34-0.27l-0.06-0.04
				l-2.4,1.4l-0.4-0.23l2.8-1.63l0.64,0.37l-1.33,1.55L119.05,39.87 M103.55,31.01c0.34,0.2,0.72,0.21,0.99,0.06
				c0.22-0.13,0.23-0.29-0.06-0.53l-0.26-0.21c-0.39-0.33-0.37-0.63,0.03-0.87c0.51-0.29,1.25-0.26,1.85,0.08
				c0.63,0.36,0.65,0.77,0.02,1.13l-0.43-0.25c0.39-0.23,0.42-0.45,0.02-0.68c-0.36-0.21-0.74-0.22-1-0.06
				c-0.21,0.12-0.22,0.28,0.06,0.53l0.25,0.21c0.39,0.33,0.38,0.63-0.04,0.88c-0.5,0.29-1.21,0.27-1.82-0.09
				c-0.65-0.38-0.68-0.77-0.02-1.15l0.43,0.25C103.17,30.56,103.15,30.78,103.55,31.01 M108.54,33.89c0.34,0.2,0.72,0.21,0.99,0.06
				c0.22-0.13,0.23-0.29-0.06-0.53l-0.26-0.21c-0.39-0.33-0.37-0.63,0.03-0.87c0.51-0.29,1.25-0.26,1.85,0.08
				c0.63,0.36,0.65,0.77,0.02,1.13l-0.43-0.25c0.39-0.23,0.42-0.45,0.02-0.68c-0.37-0.21-0.74-0.21-1-0.06
				c-0.21,0.12-0.22,0.28,0.06,0.53l0.25,0.21c0.39,0.33,0.38,0.63-0.04,0.88c-0.5,0.29-1.21,0.27-1.82-0.09
				c-0.65-0.38-0.68-0.77-0.02-1.15l0.43,0.25C108.16,33.43,108.14,33.66,108.54,33.89 M126.19,37.77l0.52-0.3l0.53,0.31l-0.52,0.3
				L126.19,37.77 M108.18,27.37l2.8-1.63l1,0.58c0.53,0.31,0.59,0.69,0.08,0.99c-0.51,0.29-1.18,0.26-1.71-0.04l-0.6-0.35
				l-1.17,0.68L108.18,27.37 M110.69,28.82l2.8-1.63l1.68,0.97l-0.38,0.22l-1.28-0.74l-0.83,0.48l1.24,0.71l-0.38,0.22l-1.24-0.71
				l-0.83,0.48l1.28,0.74l-0.38,0.22L110.69,28.82 M113.13,30.23l2.8-1.63l0.96,0.56c0.58,0.33,0.69,0.67,0.15,0.99
				c-0.51,0.29-1.08,0.21-1.6-0.08l-0.06,0.04l0.05,0.09l-0.4,1.13l-0.51-0.29l0.44-1.19l-0.18-0.1l-1.25,0.72L113.13,30.23
				 M115.74,31.73l2.8-1.63l1.76,1.02l-0.38,0.22l-1.36-0.79l-0.83,0.48l1.28,0.74L118.63,32l-1.28-0.74l-1.21,0.7L115.74,31.73
				 M120.61,34.55l2.8-1.63l0.97,0.56c0.58,0.33,0.69,0.67,0.15,0.99c-0.51,0.29-1.08,0.21-1.6-0.08l-0.06,0.04l0.04,0.09l-0.4,1.13
				l-0.51-0.29l0.44-1.19l-0.18-0.1l-1.25,0.72L120.61,34.55 M125.11,35.78l0.06,0.03l0.18-0.1l1.75-0.67l0.59,0.34l-2.8,1.63
				l-0.38-0.22l2.4-1.4l-0.06-0.03l-0.38,0.2l-1.53,0.56l-0.35-0.2l0.96-0.89l0.34-0.22l-0.06-0.04l-2.4,1.4l-0.38-0.22l2.8-1.63
				l0.59,0.34l-1.15,1.01L125.11,35.78 M118.92,33.64c-0.7-0.4-0.56-0.91,0.39-1.46c0.95-0.55,1.83-0.63,2.52-0.23
				c0.7,0.4,0.56,0.91-0.39,1.46C120.49,33.96,119.61,34.04,118.92,33.64 M116.41,25.43l2.79-1.62l0.97,0.56
				c0.58,0.33,0.7,0.67,0.15,0.99c-0.51,0.29-1.08,0.2-1.61-0.09l-0.06,0.04l0.05,0.09l-0.4,1.13l-0.51-0.3l0.44-1.19l-0.18-0.1
				l-1.25,0.72L116.41,25.43 M121.28,25.42l0.36-0.21l1.83,1.06l-0.36,0.21l-0.72-0.41l-2.08,1.21l0.72,0.41l-0.36,0.21l-1.83-1.06
				l0.36-0.21l0.72,0.41l2.08-1.21L121.28,25.42 M126.26,28.3l0.36-0.21l1.83,1.06l-0.36,0.21l-0.72-0.41l-2.08,1.21l0.72,0.41
				l-0.36,0.21l-1.83-1.06l0.36-0.21l0.72,0.41l2.08-1.21L126.26,28.3 M128.1,31.73l0.06,0.03l2.4-1.4l0.4,0.23l-2.79,1.62
				l-0.65-0.37l1.32-1.55l0.34-0.27l-0.06-0.03l-2.4,1.4l-0.4-0.23l2.79-1.62l0.65,0.37l-1.32,1.55L128.1,31.73 M114.71,24.52
				c-0.7-0.4-0.55-0.91,0.39-1.46c0.95-0.55,1.83-0.63,2.52-0.23c0.7,0.4,0.56,0.91-0.39,1.46
				C116.28,24.84,115.4,24.93,114.71,24.52 M122.08,28.78c-0.6-0.35-0.43-0.84,0.51-1.39c0.98-0.57,1.83-0.63,2.59-0.2
				c0.58,0.33,0.55,0.81-0.07,1.16l-0.41-0.24c0.41-0.24,0.45-0.5,0.1-0.7c-0.49-0.28-1.03-0.22-1.79,0.22
				c-0.75,0.43-0.89,0.74-0.46,0.99c0.34,0.19,0.8,0.16,1.33-0.11l-0.66-0.38l0.37-0.22l1.04,0.6l-1.45,0.84l-0.4-0.23l0.72-0.29
				l-0.06-0.04C122.92,29,122.46,29,122.08,28.78 M121.4,21.17l0.06,0.04l2.4-1.4l0.4,0.23l-2.79,1.62l-0.65-0.37l1.32-1.55
				l0.34-0.27l-0.06-0.03l-2.4,1.4l-0.4-0.23l2.79-1.62l0.65,0.37l-1.32,1.55L121.4,21.17 M121.9,21.92l3.61-1.15l0.64,0.37
				l-1.97,2.1l-0.43-0.25l0.71-0.72l-0.87-0.5l-1.25,0.41L121.9,21.92 M126.68,23.32l0.06,0.03l0.18-0.1l1.74-0.67l0.59,0.34
				l-2.79,1.62l-0.38-0.22l2.4-1.4l-0.06-0.03l-0.38,0.19l-1.53,0.56l-0.35-0.2l0.96-0.89l0.34-0.22l-0.06-0.03l-2.4,1.4l-0.38-0.22
				l2.79-1.62l0.59,0.34l-1.15,1.01L126.68,23.32 M127.22,24.99l2.79-1.62l1.68,0.97l-0.38,0.22l-1.28-0.74l-0.83,0.48l1.24,0.71
				l-0.38,0.22l-1.24-0.71L128,25l1.28,0.74l-0.38,0.22L127.22,24.99 M152.43,32.99l-29.3-16.92L94.02,32.99l29.3,16.92
				L152.43,32.99"/>
			<path class="st10" d="M94.02,32.99l29.11-16.92l29.3,16.92l-29.11,16.92L94.02,32.99z M153.35,32.99l-30.23-17.45L93.1,32.99
				l30.23,17.45L153.35,32.99"/>
			<polygon class="st10" points="124.26,20.05 123.86,19.81 121.46,21.21 121.4,21.17 121.73,20.9 123.06,19.35 122.41,18.98 
				119.62,20.6 120.02,20.84 122.42,19.44 122.48,19.47 122.14,19.74 120.82,21.3 121.47,21.67 			"/>
			<path class="st10" d="M124.06,21.6l1.27-0.42l0.24-0.11l0.06,0.04l-0.19,0.14l-0.72,0.73L124.06,21.6z M126.15,21.14l-0.64-0.37
				l-3.61,1.15l0.43,0.25l1.25-0.41l0.87,0.5l-0.71,0.72l0.43,0.25L126.15,21.14"/>
			<polygon class="st10" points="129.25,22.92 128.66,22.58 126.92,23.25 126.73,23.35 126.68,23.32 126.85,23.21 127.99,22.2 
				127.4,21.86 124.6,23.48 124.99,23.7 127.39,22.31 127.45,22.34 127.11,22.56 126.15,23.45 126.5,23.65 128.03,23.1 128.41,22.9 
				128.47,22.94 126.07,24.33 126.45,24.55 			"/>
			<polygon class="st10" points="131.69,24.34 130.01,23.37 127.22,24.99 128.9,25.96 129.28,25.74 128,25 128.83,24.52 
				130.07,25.24 130.45,25.01 129.21,24.3 130.04,23.82 131.32,24.56 			"/>
			<path class="st10" d="M115.09,24.3c-0.44-0.25-0.29-0.57,0.44-1c0.73-0.43,1.28-0.51,1.72-0.26c0.44,0.25,0.3,0.57-0.43,1
				C116.08,24.47,115.53,24.56,115.09,24.3 M117.63,22.83c-0.7-0.4-1.57-0.32-2.52,0.23c-0.95,0.55-1.09,1.06-0.39,1.46
				c0.7,0.4,1.58,0.32,2.52-0.23C118.18,23.74,118.32,23.23,117.63,22.83"/>
			<path class="st10" d="M118.42,24.73l0.81-0.47l0.62,0.36c0.29,0.17,0.33,0.35,0.06,0.5c-0.26,0.15-0.58,0.14-0.87-0.03
				L118.42,24.73 M120.17,24.37l-0.97-0.56l-2.79,1.62l0.4,0.23l1.25-0.72l0.18,0.1l-0.44,1.19l0.51,0.3l0.4-1.13l-0.05-0.09
				l0.06-0.04c0.52,0.29,1.1,0.38,1.61,0.09C120.86,25.04,120.75,24.7,120.17,24.37"/>
			<polygon class="st10" points="123.47,26.27 121.64,25.22 121.28,25.42 121.99,25.84 119.92,27.04 119.2,26.63 118.84,26.84 
				120.67,27.9 121.03,27.69 120.32,27.27 122.39,26.07 123.11,26.48 			"/>
			<path class="st10" d="M125.18,27.19c-0.75-0.44-1.61-0.37-2.59,0.2c-0.95,0.55-1.11,1.05-0.51,1.39
				c0.38,0.22,0.84,0.22,1.37,0.01l0.06,0.04l-0.72,0.29l0.4,0.23l1.44-0.84l-1.04-0.6l-0.37,0.22l0.66,0.38
				c-0.52,0.27-0.99,0.3-1.33,0.11c-0.43-0.25-0.29-0.55,0.46-0.99c0.76-0.44,1.29-0.5,1.79-0.22c0.35,0.2,0.31,0.47-0.1,0.7
				l0.41,0.24C125.73,28,125.76,27.53,125.18,27.19"/>
			<polygon class="st10" points="128.46,29.15 126.62,28.09 126.26,28.3 126.98,28.72 124.9,29.92 124.19,29.51 123.83,29.72 
				125.66,30.78 126.02,30.57 125.31,30.15 127.38,28.95 128.1,29.36 			"/>
			<polygon class="st10" points="130.96,30.6 130.56,30.37 128.16,31.76 128.1,31.73 128.43,31.46 129.76,29.9 129.11,29.53 
				126.31,31.15 126.72,31.39 129.12,29.99 129.18,30.03 128.84,30.3 127.52,31.85 128.16,32.22 			"/>
			<path class="st10" d="M110.13,26.7l0.87-0.5l0.6,0.35c0.31,0.18,0.31,0.38,0.05,0.53c-0.26,0.15-0.61,0.15-0.92-0.03L110.13,26.7
				 M111.98,26.32l-1-0.58l-2.8,1.63l0.4,0.23l1.17-0.68l0.6,0.35c0.53,0.31,1.2,0.34,1.71,0.04
				C112.56,27.01,112.51,26.63,111.98,26.32"/>
			<polygon class="st10" points="115.17,28.16 113.49,27.19 110.69,28.82 112.37,29.79 112.75,29.57 111.47,28.83 112.3,28.35 
				113.54,29.06 113.92,28.84 112.68,28.13 113.51,27.65 114.79,28.38 			"/>
			<path class="st10" d="M115.14,29.53l0.81-0.47l0.62,0.36c0.29,0.17,0.33,0.34,0.06,0.5c-0.26,0.15-0.58,0.14-0.87-0.03
				L115.14,29.53 M116.9,29.16l-0.97-0.56l-2.8,1.63l0.4,0.23l1.25-0.72l0.18,0.1l-0.44,1.19l0.51,0.29l0.4-1.13l-0.04-0.09
				l0.06-0.04c0.52,0.29,1.09,0.38,1.6,0.08C117.59,29.83,117.48,29.49,116.9,29.16"/>
			<polygon class="st10" points="120.3,31.12 118.54,30.11 115.74,31.73 116.14,31.96 117.35,31.26 118.63,32 119.01,31.78 
				117.73,31.04 118.56,30.56 119.92,31.34 			"/>
			<path class="st10" d="M119.29,33.42c-0.44-0.25-0.3-0.57,0.43-1c0.73-0.43,1.29-0.51,1.72-0.25c0.44,0.25,0.3,0.57-0.43,1
				C120.29,33.59,119.73,33.67,119.29,33.42 M121.83,31.94c-0.7-0.4-1.57-0.32-2.52,0.23c-0.95,0.55-1.09,1.06-0.39,1.46
				c0.7,0.4,1.57,0.32,2.52-0.23C122.39,32.85,122.53,32.34,121.83,31.94"/>
			<path class="st10" d="M122.62,33.85l0.81-0.47l0.62,0.36c0.29,0.17,0.33,0.34,0.06,0.5c-0.26,0.15-0.58,0.14-0.87-0.03
				L122.62,33.85 M124.38,33.48l-0.97-0.56l-2.8,1.63l0.4,0.23l1.25-0.72l0.18,0.1l-0.44,1.19l0.51,0.29l0.4-1.13l-0.05-0.09
				l0.06-0.04c0.52,0.29,1.09,0.38,1.6,0.08C125.07,34.15,124.95,33.81,124.38,33.48"/>
			<polygon class="st10" points="127.68,35.39 127.09,35.05 125.35,35.72 125.17,35.82 125.11,35.78 125.28,35.68 126.43,34.66 
				125.84,34.32 123.04,35.95 123.42,36.17 125.82,34.77 125.88,34.81 125.55,35.03 124.59,35.92 124.94,36.12 126.47,35.56 
				126.85,35.37 126.9,35.4 124.5,36.79 124.89,37.01 			"/>
			<polygon class="st10" points="127.24,37.77 126.71,37.47 126.19,37.77 126.72,38.07 			"/>
			<path class="st10" d="M106.11,29.55c-0.6-0.35-1.34-0.38-1.85-0.08c-0.4,0.23-0.42,0.54-0.03,0.87l0.26,0.21
				c0.29,0.24,0.27,0.4,0.06,0.53c-0.27,0.16-0.65,0.14-0.99-0.06c-0.4-0.23-0.38-0.46,0.02-0.69l-0.43-0.25
				c-0.66,0.38-0.63,0.77,0.02,1.15c0.62,0.36,1.32,0.38,1.83,0.09c0.42-0.24,0.43-0.55,0.04-0.88l-0.25-0.21
				c-0.29-0.24-0.28-0.4-0.06-0.53c0.26-0.15,0.64-0.15,1,0.06c0.4,0.23,0.37,0.45-0.02,0.68l0.43,0.25
				C106.76,30.31,106.74,29.91,106.11,29.55"/>
			<path class="st10" d="M109.45,31.54l-0.4-0.23l-1.94,1.13c-0.34,0.2-0.73,0.2-1.05,0.01c-0.32-0.19-0.33-0.42,0.01-0.61
				l1.94-1.13l-0.4-0.23l-1.94,1.13c-0.54,0.32-0.54,0.75,0.01,1.07c0.54,0.31,1.29,0.32,1.84,0L109.45,31.54"/>
			<path class="st10" d="M111.09,32.43c-0.6-0.35-1.34-0.38-1.85-0.08c-0.4,0.23-0.42,0.54-0.03,0.87l0.26,0.21
				c0.29,0.24,0.27,0.4,0.06,0.53c-0.27,0.16-0.65,0.14-0.99-0.06c-0.4-0.23-0.38-0.46,0.02-0.69l-0.43-0.25
				c-0.66,0.38-0.63,0.77,0.02,1.15c0.62,0.36,1.32,0.38,1.82,0.09c0.42-0.24,0.43-0.55,0.04-0.88l-0.25-0.21
				c-0.29-0.24-0.28-0.4-0.07-0.53c0.26-0.15,0.64-0.15,1,0.06c0.4,0.23,0.37,0.45-0.02,0.68l0.43,0.25
				C111.75,33.19,111.72,32.79,111.09,32.43"/>
			<polygon class="st10" points="114.63,34.53 112.39,33.24 112.01,33.46 112.93,33.99 110.51,35.4 110.91,35.63 113.33,34.23 
				114.25,34.76 			"/>
			<path class="st10" d="M114.24,35.98l1.26-0.42l0.24-0.11l0.06,0.03l-0.19,0.14l-0.71,0.73L114.24,35.98z M116.32,35.51
				l-0.64-0.37l-3.62,1.15l0.43,0.25l1.25-0.41l0.87,0.5l-0.71,0.72l0.43,0.25L116.32,35.51"/>
			<polygon class="st10" points="119.41,37.3 117.58,36.24 117.22,36.45 117.94,36.86 115.86,38.07 115.14,37.66 114.78,37.86 
				116.61,38.92 116.97,38.71 116.26,38.3 118.34,37.09 119.05,37.51 			"/>
			<polygon class="st10" points="121.91,38.74 121.51,38.51 119.11,39.9 119.05,39.87 119.38,39.6 120.71,38.05 120.07,37.68 
				117.27,39.3 117.67,39.53 120.07,38.14 120.13,38.17 119.8,38.44 118.47,39.99 119.12,40.37 			"/>
			<polygon class="st10" points="121.47,41.13 120.94,40.82 120.42,41.12 120.95,41.43 			"/>
			<polygon class="st11" points="82.2,33.01 123.11,9.23 164.25,32.98 123.33,56.76 			"/>
		</g>
	</g>
	<g>
		<g>
			<defs>
				<polygon id="SVGID_59_" points="137.7,36.67 146.16,31.76 154.66,36.67 146.21,41.59 				"/>
			</defs>
			<clipPath id="SVGID_8_">
				<use xlink:href="#SVGID_59_"  style="overflow:visible;"/>
			</clipPath>
			<path class="st12" d="M142.42,38.86c-2.09-1.21-2.1-3.17-0.02-4.38c2.08-1.21,5.47-1.21,7.56,0c2.09,1.21,2.1,3.17,0.02,4.38
				C147.9,40.07,144.51,40.07,142.42,38.86 M150.41,34.22c-2.34-1.35-6.15-1.35-8.48,0c-2.33,1.36-2.32,3.56,0.03,4.91
				c2.34,1.35,6.15,1.36,8.48,0C152.77,37.78,152.75,35.57,150.41,34.22"/>
		</g>
	</g>
	<g>
		<defs>
			<rect id="SVGID_61_" x="89.89" y="30.22" width="10.54" height="6.11"/>
		</defs>
		<clipPath id="SVGID_9_">
			<use xlink:href="#SVGID_61_"  style="overflow:visible;"/>
		</clipPath>
		<g class="st13">
			<defs>
				<polygon id="SVGID_63_" points="89.89,33.27 95.14,30.22 100.43,33.27 95.18,36.33 				"/>
			</defs>
			<clipPath id="SVGID_10_">
				<use xlink:href="#SVGID_63_"  style="overflow:visible;"/>
			</clipPath>
			<path class="st14" d="M90.81,33.27l4.34-2.52l4.37,2.52l-4.34,2.52L90.81,33.27z M100.43,33.27l-5.29-3.05l-5.25,3.05l5.29,3.05
				L100.43,33.27"/>
		</g>
	</g>
</g>
<g>
	<g>
		<g>
			<defs>
				<polygon id="SVGID_65_" points="65.3,81.92 95.33,64.47 125.56,81.92 95.53,99.37 				"/>
			</defs>
			<clipPath id="SVGID_11_">
				<use xlink:href="#SVGID_65_"  style="overflow:visible;"/>
			</clipPath>
			<path class="st15" d="M88.01,84.41l-0.06-0.03l-0.24,0.11l-1.27,0.42l0.66,0.38l0.71-0.73L88.01,84.41 M83.8,75.47l-0.6-0.35
				l-0.87,0.5l0.6,0.35c0.31,0.18,0.66,0.18,0.92,0.03C84.11,75.85,84.11,75.65,83.8,75.47 M88.78,78.34l-0.62-0.36l-0.81,0.47
				l0.62,0.36c0.29,0.17,0.61,0.18,0.87,0.03C89.11,78.69,89.06,78.51,88.78,78.34 M96.26,82.66l-0.62-0.36l-0.81,0.47l0.62,0.36
				c0.29,0.17,0.61,0.18,0.87,0.03C96.59,83,96.54,82.83,96.26,82.66 M93.66,81.09c-0.44-0.25-0.99-0.17-1.72,0.25
				c-0.73,0.42-0.87,0.75-0.43,1c0.44,0.25,0.99,0.17,1.72-0.25C93.96,81.66,94.1,81.34,93.66,81.09 M92.05,73.55l-0.62-0.36
				l-0.81,0.47l0.62,0.36c0.3,0.17,0.61,0.18,0.87,0.03C92.38,73.89,92.34,73.71,92.05,73.55 M89.45,71.98
				c-0.44-0.25-0.99-0.17-1.72,0.26c-0.73,0.42-0.88,0.74-0.44,1c0.44,0.25,0.99,0.17,1.72-0.25
				C89.75,72.55,89.89,72.23,89.45,71.98 M97.84,70.03L97.78,70l-0.24,0.11l-1.27,0.42l0.65,0.38l0.72-0.73L97.84,70.03
				 M92.63,90.05l0.52-0.3l0.53,0.31l-0.52,0.3L92.63,90.05 M78.25,81.38c0.33,0.19,0.72,0.19,1.05-0.01l1.94-1.13l0.4,0.23
				l-1.94,1.13c-0.54,0.32-1.29,0.31-1.84,0c-0.55-0.32-0.56-0.75-0.01-1.07l1.94-1.13l0.4,0.23l-1.94,1.13
				C77.93,80.96,77.93,81.19,78.25,81.38 M84.22,82.39l0.38-0.22l2.24,1.29l-0.38,0.22l-0.92-0.53l-2.42,1.4l-0.4-0.23l2.42-1.41
				L84.22,82.39 M84.27,85.23l3.62-1.15l0.64,0.37l-1.98,2.1l-0.43-0.25l0.71-0.72l-0.87-0.5l-1.25,0.41L84.27,85.23 M89.43,85.38
				l0.36-0.21l1.83,1.06l-0.36,0.21l-0.71-0.41l-2.08,1.21l0.71,0.41l-0.36,0.21l-1.83-1.06l0.36-0.21L88.06,87l2.08-1.21
				L89.43,85.38 M91.26,88.8l0.06,0.03l2.4-1.4l0.4,0.23l-2.8,1.63l-0.65-0.37L92,87.37l0.34-0.27l-0.06-0.04l-2.4,1.4l-0.4-0.23
				l2.8-1.63l0.64,0.37l-1.33,1.55L91.26,88.8 M75.76,79.94c0.34,0.2,0.72,0.21,0.99,0.06c0.22-0.13,0.23-0.29-0.06-0.53l-0.26-0.21
				c-0.39-0.33-0.37-0.63,0.03-0.87c0.51-0.29,1.25-0.26,1.85,0.08c0.63,0.36,0.65,0.77,0.02,1.13l-0.43-0.25
				c0.39-0.23,0.42-0.45,0.02-0.68c-0.36-0.21-0.74-0.22-1-0.06c-0.21,0.12-0.22,0.28,0.06,0.53l0.25,0.21
				c0.39,0.33,0.38,0.63-0.04,0.88c-0.5,0.29-1.21,0.27-1.82-0.09c-0.65-0.38-0.68-0.77-0.02-1.15l0.43,0.25
				C75.38,79.48,75.36,79.71,75.76,79.94 M80.74,82.82c0.34,0.2,0.72,0.21,0.99,0.06c0.22-0.13,0.23-0.29-0.06-0.53l-0.26-0.21
				c-0.39-0.33-0.37-0.63,0.03-0.87c0.51-0.29,1.25-0.26,1.85,0.08c0.63,0.36,0.65,0.77,0.02,1.13l-0.43-0.25
				c0.39-0.23,0.42-0.45,0.02-0.68c-0.37-0.21-0.74-0.21-1-0.06c-0.21,0.12-0.22,0.28,0.06,0.53l0.25,0.21
				c0.39,0.33,0.38,0.63-0.04,0.88c-0.5,0.29-1.21,0.27-1.82-0.09c-0.65-0.38-0.68-0.77-0.02-1.15l0.43,0.25
				C80.37,82.36,80.34,82.59,80.74,82.82 M98.4,86.7l0.52-0.3l0.53,0.31L98.93,87L98.4,86.7 M80.38,76.3l2.8-1.63l1,0.58
				c0.53,0.31,0.59,0.69,0.08,0.99c-0.51,0.29-1.18,0.26-1.71-0.04l-0.6-0.35l-1.17,0.68L80.38,76.3 M82.9,77.75l2.8-1.63l1.68,0.97
				L87,77.31l-1.28-0.74l-0.83,0.48l1.24,0.71l-0.38,0.22l-1.24-0.71l-0.83,0.48l1.28,0.74l-0.38,0.22L82.9,77.75 M85.34,79.16
				l2.8-1.63l0.96,0.56c0.58,0.33,0.69,0.67,0.15,0.99c-0.51,0.29-1.08,0.21-1.6-0.08l-0.06,0.04l0.05,0.09l-0.4,1.13l-0.51-0.29
				l0.44-1.19l-0.18-0.1l-1.25,0.72L85.34,79.16 M87.95,80.66l2.8-1.63l1.76,1.02l-0.38,0.22l-1.36-0.79l-0.83,0.48l1.28,0.74
				l-0.38,0.22l-1.28-0.74l-1.21,0.7L87.95,80.66 M92.82,83.48l2.8-1.63l0.97,0.56c0.58,0.33,0.69,0.67,0.15,0.99
				c-0.51,0.29-1.08,0.21-1.6-0.08l-0.06,0.04l0.04,0.09l-0.4,1.13l-0.51-0.29l0.44-1.19l-0.18-0.1l-1.25,0.72L92.82,83.48
				 M97.32,84.71l0.06,0.03l0.18-0.1l1.75-0.67l0.59,0.34l-2.8,1.63l-0.38-0.22l2.4-1.4l-0.06-0.03l-0.38,0.2l-1.53,0.56l-0.35-0.2
				l0.96-0.89l0.34-0.22l-0.06-0.04l-2.4,1.4l-0.38-0.22l2.8-1.63l0.59,0.34l-1.15,1.01L97.32,84.71 M91.12,82.56
				c-0.7-0.4-0.56-0.91,0.39-1.46c0.95-0.55,1.83-0.63,2.52-0.23c0.7,0.4,0.56,0.91-0.39,1.46C92.7,82.89,91.82,82.97,91.12,82.56
				 M88.61,74.36l2.79-1.62l0.97,0.56c0.58,0.33,0.7,0.67,0.15,0.99c-0.51,0.29-1.08,0.2-1.61-0.09l-0.06,0.04l0.05,0.09l-0.4,1.13
				L90,75.16l0.44-1.19l-0.18-0.1l-1.25,0.72L88.61,74.36 M93.48,74.35l0.36-0.21l1.83,1.06l-0.36,0.21L94.6,75l-2.08,1.21
				l0.72,0.41l-0.36,0.21l-1.83-1.06l0.36-0.21l0.72,0.41l2.08-1.21L93.48,74.35 M98.47,77.23l0.36-0.21l1.83,1.06l-0.36,0.21
				l-0.72-0.41l-2.08,1.21l0.72,0.41l-0.36,0.21l-1.83-1.06l0.36-0.21l0.72,0.41l2.08-1.21L98.47,77.23 M100.3,80.66l0.06,0.03
				l2.4-1.4l0.4,0.23l-2.79,1.62l-0.65-0.37l1.32-1.55l0.34-0.27l-0.06-0.03l-2.4,1.4l-0.4-0.23l2.79-1.62l0.65,0.37l-1.32,1.55
				L100.3,80.66 M86.92,73.45c-0.7-0.4-0.55-0.91,0.39-1.46c0.95-0.55,1.83-0.63,2.52-0.23c0.7,0.4,0.56,0.91-0.39,1.46
				C88.49,73.77,87.61,73.86,86.92,73.45 M94.29,77.71c-0.6-0.35-0.43-0.84,0.51-1.39c0.98-0.57,1.83-0.63,2.59-0.2
				c0.58,0.33,0.55,0.81-0.07,1.16l-0.41-0.24c0.41-0.24,0.45-0.5,0.1-0.7c-0.49-0.28-1.03-0.22-1.79,0.22
				c-0.75,0.43-0.89,0.74-0.46,0.99c0.34,0.19,0.8,0.16,1.33-0.11l-0.66-0.38l0.37-0.22l1.04,0.6l-1.45,0.84L95,78.05l0.72-0.29
				l-0.06-0.04C95.13,77.93,94.67,77.93,94.29,77.71 M93.6,70.1l0.06,0.04l2.4-1.4l0.4,0.23l-2.79,1.62l-0.65-0.37l1.32-1.55
				l0.34-0.27l-0.06-0.03l-2.4,1.4l-0.4-0.23l2.79-1.62l0.65,0.37l-1.32,1.55L93.6,70.1 M94.11,70.85l3.61-1.15l0.64,0.37l-1.97,2.1
				l-0.43-0.25l0.71-0.72l-0.87-0.5l-1.25,0.41L94.11,70.85 M98.88,72.25l0.06,0.03l0.18-0.1l1.74-0.67l0.59,0.34l-2.79,1.62
				l-0.38-0.22l2.4-1.4l-0.06-0.03l-0.38,0.19l-1.53,0.56l-0.35-0.2l0.96-0.89l0.34-0.22l-0.06-0.03l-2.4,1.4l-0.38-0.22l2.79-1.62
				l0.59,0.34l-1.15,1.01L98.88,72.25 M99.42,73.92l2.79-1.62l1.68,0.97l-0.38,0.22l-1.28-0.74l-0.83,0.48l1.24,0.71l-0.38,0.22
				l-1.24-0.71l-0.83,0.48l1.28,0.74l-0.38,0.22L99.42,73.92 M124.64,81.92L95.34,65L66.23,81.92l29.3,16.92L124.64,81.92"/>
			<path class="st16" d="M66.23,81.92L95.34,65l29.3,16.92L95.53,98.84L66.23,81.92z M125.56,81.92L95.33,64.47L65.3,81.92
				l30.23,17.45L125.56,81.92"/>
			<polygon class="st16" points="96.47,68.98 96.07,68.74 93.66,70.14 93.6,70.1 93.94,69.83 95.27,68.28 94.62,67.91 91.82,69.53 
				92.23,69.76 94.63,68.37 94.69,68.4 94.35,68.67 93.03,70.23 93.67,70.6 			"/>
			<path class="st16" d="M96.27,70.53l1.27-0.42L97.78,70l0.06,0.04l-0.19,0.14l-0.72,0.73L96.27,70.53z M98.36,70.07l-0.64-0.37
				l-3.61,1.15l0.43,0.25l1.25-0.41l0.87,0.5l-0.71,0.72l0.43,0.25L98.36,70.07"/>
			<polygon class="st16" points="101.45,71.85 100.86,71.51 99.12,72.18 98.94,72.28 98.88,72.25 99.05,72.14 100.2,71.13 
				99.61,70.79 96.81,72.41 97.19,72.63 99.59,71.24 99.65,71.27 99.32,71.49 98.36,72.38 98.71,72.58 100.24,72.03 100.62,71.83 
				100.68,71.86 98.28,73.26 98.66,73.48 			"/>
			<polygon class="st16" points="103.9,73.27 102.22,72.3 99.42,73.92 101.11,74.89 101.49,74.67 100.21,73.93 101.04,73.45 
				102.27,74.16 102.65,73.94 101.42,73.23 102.25,72.75 103.52,73.49 			"/>
			<path class="st16" d="M87.3,73.23c-0.44-0.25-0.29-0.57,0.44-1c0.73-0.43,1.28-0.51,1.72-0.26c0.44,0.25,0.3,0.57-0.43,1
				C88.29,73.4,87.73,73.49,87.3,73.23 M89.83,71.76c-0.7-0.4-1.57-0.32-2.52,0.23c-0.95,0.55-1.09,1.06-0.39,1.46
				c0.7,0.4,1.58,0.32,2.52-0.23C90.39,72.67,90.53,72.16,89.83,71.76"/>
			<path class="st16" d="M90.62,73.66l0.81-0.47l0.62,0.36c0.29,0.17,0.33,0.35,0.06,0.5c-0.26,0.15-0.58,0.14-0.87-0.03
				L90.62,73.66 M92.37,73.3l-0.97-0.56l-2.79,1.62l0.4,0.23l1.25-0.72l0.18,0.1L90,75.16l0.51,0.3l0.4-1.13l-0.05-0.09l0.06-0.04
				c0.52,0.29,1.1,0.38,1.61,0.09C93.07,73.97,92.95,73.63,92.37,73.3"/>
			<polygon class="st16" points="95.68,75.2 93.84,74.14 93.48,74.35 94.2,74.77 92.12,75.97 91.41,75.56 91.05,75.77 92.88,76.83 
				93.24,76.62 92.52,76.2 94.6,75 95.32,75.41 			"/>
			<path class="st16" d="M97.39,76.12c-0.75-0.44-1.61-0.37-2.59,0.2c-0.95,0.55-1.11,1.05-0.51,1.39c0.38,0.22,0.84,0.22,1.37,0.01
				l0.06,0.04L95,78.05l0.4,0.23l1.44-0.84l-1.04-0.6l-0.37,0.22l0.66,0.38c-0.52,0.27-0.99,0.3-1.33,0.11
				c-0.43-0.25-0.29-0.55,0.46-0.99c0.76-0.44,1.29-0.5,1.79-0.22c0.35,0.2,0.31,0.47-0.1,0.7l0.41,0.24
				C97.94,76.93,97.97,76.46,97.39,76.12"/>
			<polygon class="st16" points="100.66,78.08 98.83,77.02 98.47,77.23 99.19,77.65 97.11,78.85 96.39,78.44 96.04,78.65 
				97.87,79.71 98.23,79.5 97.51,79.08 99.59,77.88 100.3,78.29 			"/>
			<polygon class="st16" points="103.17,79.53 102.76,79.3 100.36,80.69 100.3,80.66 100.64,80.39 101.96,78.83 101.31,78.46 
				98.52,80.08 98.92,80.32 101.32,78.92 101.38,78.95 101.05,79.23 99.72,80.78 100.37,81.15 			"/>
			<path class="st16" d="M82.34,75.63l0.87-0.5l0.6,0.35c0.31,0.18,0.31,0.38,0.05,0.53c-0.26,0.15-0.61,0.15-0.92-0.03L82.34,75.63
				 M84.18,75.25l-1-0.58l-2.8,1.63l0.4,0.23l1.17-0.68l0.6,0.35c0.53,0.31,1.2,0.34,1.71,0.04C84.77,75.94,84.71,75.56,84.18,75.25
				"/>
			<polygon class="st16" points="87.38,77.09 85.69,76.12 82.9,77.75 84.58,78.72 84.96,78.5 83.68,77.76 84.51,77.28 85.75,77.99 
				86.13,77.77 84.89,77.06 85.72,76.57 87,77.31 			"/>
			<path class="st16" d="M87.35,78.46l0.81-0.47l0.62,0.36c0.29,0.17,0.33,0.34,0.06,0.5c-0.26,0.15-0.58,0.14-0.87-0.03
				L87.35,78.46 M89.1,78.09l-0.97-0.56l-2.8,1.63l0.4,0.23l1.25-0.72l0.18,0.1l-0.44,1.19l0.51,0.29l0.4-1.13l-0.04-0.09l0.06-0.04
				c0.52,0.29,1.09,0.38,1.6,0.08C89.79,78.76,89.68,78.42,89.1,78.09"/>
			<polygon class="st16" points="92.5,80.05 90.74,79.04 87.95,80.66 88.35,80.89 89.56,80.19 90.84,80.93 91.21,80.71 89.93,79.97 
				90.76,79.49 92.12,80.27 			"/>
			<path class="st16" d="M91.5,82.35c-0.44-0.25-0.3-0.57,0.43-1c0.73-0.43,1.29-0.51,1.72-0.25c0.44,0.25,0.3,0.57-0.43,1
				C92.49,82.52,91.94,82.6,91.5,82.35 M94.04,80.87c-0.7-0.4-1.57-0.32-2.52,0.23c-0.95,0.55-1.09,1.06-0.39,1.46
				c0.7,0.4,1.57,0.32,2.52-0.23C94.6,81.78,94.73,81.27,94.04,80.87"/>
			<path class="st16" d="M94.83,82.78l0.81-0.47l0.62,0.36c0.29,0.17,0.33,0.34,0.06,0.5c-0.26,0.15-0.58,0.14-0.87-0.03
				L94.83,82.78 M96.58,82.41l-0.97-0.56l-2.8,1.63l0.4,0.23l1.25-0.72l0.18,0.1l-0.44,1.19l0.51,0.29l0.4-1.13l-0.05-0.09
				l0.06-0.04c0.52,0.29,1.09,0.38,1.6,0.08C97.27,83.08,97.16,82.74,96.58,82.41"/>
			<polygon class="st16" points="99.89,84.32 99.3,83.98 97.55,84.65 97.38,84.75 97.32,84.71 97.49,84.61 98.64,83.59 98.04,83.25 
				95.25,84.88 95.63,85.1 98.03,83.7 98.09,83.74 97.75,83.96 96.8,84.85 97.14,85.05 98.67,84.49 99.06,84.3 99.11,84.33 
				96.71,85.72 97.09,85.94 			"/>
			<polygon class="st16" points="99.44,86.7 98.91,86.4 98.4,86.7 98.93,87 			"/>
			<path class="st16" d="M78.31,78.48c-0.6-0.35-1.34-0.38-1.85-0.08c-0.4,0.23-0.42,0.54-0.03,0.87l0.26,0.21
				c0.29,0.24,0.27,0.4,0.06,0.53c-0.27,0.16-0.65,0.14-0.99-0.06c-0.4-0.23-0.38-0.46,0.02-0.69L75.35,79
				c-0.66,0.38-0.63,0.77,0.02,1.15c0.62,0.36,1.32,0.38,1.83,0.09c0.42-0.24,0.43-0.55,0.04-0.88l-0.25-0.21
				c-0.29-0.24-0.28-0.4-0.06-0.53c0.26-0.15,0.64-0.15,1,0.06c0.4,0.23,0.37,0.45-0.02,0.68l0.43,0.25
				C78.97,79.24,78.94,78.84,78.31,78.48"/>
			<path class="st16" d="M81.65,80.47l-0.4-0.23l-1.94,1.13c-0.34,0.2-0.73,0.2-1.05,0.01c-0.32-0.19-0.33-0.42,0.01-0.61l1.94-1.13
				l-0.4-0.23l-1.94,1.13c-0.54,0.32-0.54,0.75,0.01,1.07c0.54,0.31,1.29,0.32,1.84,0L81.65,80.47"/>
			<path class="st16" d="M83.3,81.36c-0.6-0.35-1.34-0.38-1.85-0.08c-0.4,0.23-0.42,0.54-0.03,0.87l0.26,0.21
				c0.29,0.24,0.27,0.4,0.06,0.53c-0.27,0.16-0.65,0.14-0.99-0.06c-0.4-0.23-0.38-0.46,0.02-0.69l-0.43-0.25
				c-0.66,0.38-0.63,0.77,0.02,1.15c0.62,0.36,1.32,0.38,1.82,0.09c0.42-0.24,0.43-0.55,0.04-0.88l-0.25-0.21
				c-0.29-0.24-0.28-0.4-0.07-0.53c0.26-0.15,0.64-0.15,1,0.06c0.4,0.23,0.37,0.45-0.02,0.68l0.43,0.25
				C83.95,82.12,83.93,81.72,83.3,81.36"/>
			<polygon class="st16" points="86.83,83.46 84.6,82.17 84.22,82.39 85.13,82.92 82.72,84.33 83.12,84.56 85.54,83.16 86.45,83.69 
							"/>
			<path class="st16" d="M86.44,84.9l1.26-0.42l0.24-0.11l0.06,0.03l-0.19,0.14l-0.71,0.73L86.44,84.9z M88.53,84.44l-0.64-0.37
				l-3.62,1.15l0.43,0.25l1.25-0.41l0.87,0.5l-0.71,0.72l0.43,0.25L88.53,84.44"/>
			<polygon class="st16" points="91.62,86.23 89.79,85.17 89.43,85.38 90.14,85.79 88.06,87 87.35,86.58 86.99,86.79 88.82,87.85 
				89.18,87.64 88.47,87.23 90.55,86.02 91.26,86.44 			"/>
			<polygon class="st16" points="94.12,87.67 93.72,87.44 91.32,88.83 91.26,88.8 91.59,88.53 92.92,86.98 92.27,86.6 89.48,88.23 
				89.88,88.46 92.28,87.07 92.34,87.1 92,87.37 90.68,88.92 91.32,89.3 			"/>
			<polygon class="st16" points="93.67,90.06 93.14,89.75 92.63,90.05 93.16,90.36 			"/>
			<polygon class="st17" points="54.4,81.94 95.32,58.16 136.46,81.91 95.54,105.69 			"/>
		</g>
	</g>
	<g>
		<g>
			<defs>
				<polygon id="SVGID_67_" points="109.91,85.6 118.36,80.69 126.87,85.6 118.42,90.52 				"/>
			</defs>
			<clipPath id="SVGID_12_">
				<use xlink:href="#SVGID_67_"  style="overflow:visible;"/>
			</clipPath>
			<path class="st18" d="M114.62,87.79c-2.09-1.21-2.1-3.17-0.02-4.38c2.08-1.21,5.47-1.21,7.56,0c2.09,1.21,2.1,3.17,0.02,4.38
				C120.1,89,116.71,89,114.62,87.79 M122.62,83.15c-2.34-1.35-6.15-1.35-8.48,0c-2.33,1.36-2.32,3.56,0.03,4.91
				c2.34,1.35,6.15,1.36,8.48,0C124.97,86.71,124.96,84.5,122.62,83.15"/>
		</g>
	</g>
	<g>
		<defs>
			<rect id="SVGID_69_" x="62.09" y="79.15" width="10.54" height="6.11"/>
		</defs>
		<clipPath id="SVGID_13_">
			<use xlink:href="#SVGID_69_"  style="overflow:visible;"/>
		</clipPath>
		<g class="st19">
			<defs>
				<polygon id="SVGID_71_" points="62.09,82.2 67.35,79.15 72.64,82.2 67.38,85.26 				"/>
			</defs>
			<clipPath id="SVGID_14_">
				<use xlink:href="#SVGID_71_"  style="overflow:visible;"/>
			</clipPath>
			<path class="st20" d="M63.01,82.2l4.34-2.52l4.37,2.52l-4.34,2.52L63.01,82.2z M72.64,82.2l-5.29-3.05l-5.25,3.05l5.29,3.05
				L72.64,82.2"/>
		</g>
	</g>
</g>
<g>
	<g>
		<g>
			<defs>
				<polygon id="SVGID_73_" points="212.97,85.25 243,67.81 273.22,85.26 243.2,102.71 				"/>
			</defs>
			<clipPath id="SVGID_15_">
				<use xlink:href="#SVGID_73_"  style="overflow:visible;"/>
			</clipPath>
			<path class="st21" d="M235.67,87.75l-0.06-0.03l-0.24,0.11l-1.27,0.42l0.66,0.38l0.71-0.73L235.67,87.75 M231.47,78.81l-0.6-0.35
				l-0.87,0.5l0.6,0.35c0.31,0.18,0.66,0.18,0.92,0.03C231.78,79.18,231.78,78.98,231.47,78.81 M236.44,81.68l-0.62-0.36l-0.81,0.47
				l0.62,0.36c0.29,0.17,0.61,0.18,0.87,0.03C236.77,82.02,236.73,81.84,236.44,81.68 M243.92,86l-0.62-0.36l-0.81,0.47l0.62,0.36
				c0.29,0.17,0.61,0.18,0.87,0.03C244.25,86.34,244.21,86.16,243.92,86 M241.32,84.43c-0.44-0.25-0.99-0.17-1.72,0.25
				c-0.73,0.42-0.87,0.75-0.43,1c0.44,0.25,0.99,0.17,1.72-0.25C241.62,85,241.76,84.68,241.32,84.43 M239.72,76.88l-0.62-0.36
				L238.29,77l0.62,0.36c0.3,0.17,0.61,0.18,0.87,0.03C240.05,77.23,240,77.05,239.72,76.88 M237.12,75.31
				c-0.44-0.25-0.99-0.17-1.72,0.26c-0.73,0.42-0.88,0.74-0.44,1c0.44,0.25,0.99,0.17,1.72-0.25
				C237.42,75.89,237.56,75.57,237.12,75.31 M245.51,73.37l-0.06-0.04l-0.24,0.11l-1.27,0.42l0.65,0.38l0.72-0.73L245.51,73.37
				 M240.29,93.38l0.52-0.3l0.53,0.31l-0.52,0.3L240.29,93.38 M225.92,84.71c0.33,0.19,0.72,0.19,1.05-0.01l1.94-1.13l0.4,0.23
				l-1.94,1.13c-0.54,0.32-1.29,0.31-1.84,0c-0.55-0.32-0.56-0.75-0.01-1.07l1.94-1.13l0.4,0.23l-1.94,1.13
				C225.6,84.3,225.6,84.53,225.92,84.71 M231.88,85.73l0.38-0.22l2.24,1.29l-0.38,0.22l-0.92-0.53l-2.42,1.4l-0.4-0.23l2.42-1.41
				L231.88,85.73 M231.94,88.56l3.62-1.15l0.64,0.37l-1.98,2.1l-0.43-0.25l0.71-0.72l-0.87-0.5l-1.25,0.41L231.94,88.56
				 M237.09,88.71l0.36-0.21l1.83,1.06l-0.36,0.21l-0.71-0.41l-2.08,1.21l0.71,0.41l-0.36,0.21l-1.83-1.06l0.36-0.21l0.72,0.41
				l2.08-1.21L237.09,88.71 M238.93,92.13l0.06,0.03l2.4-1.4l0.4,0.23l-2.8,1.63l-0.65-0.37l1.33-1.55l0.34-0.27l-0.06-0.04
				l-2.4,1.4l-0.4-0.23l2.8-1.63l0.64,0.37l-1.33,1.55L238.93,92.13 M223.42,83.28c0.34,0.2,0.72,0.21,0.99,0.06
				c0.22-0.13,0.23-0.29-0.06-0.53l-0.26-0.21c-0.39-0.33-0.37-0.63,0.03-0.87c0.51-0.29,1.25-0.26,1.85,0.08
				c0.63,0.36,0.65,0.77,0.02,1.13l-0.43-0.25c0.39-0.23,0.42-0.45,0.02-0.68c-0.36-0.21-0.74-0.22-1-0.06
				c-0.21,0.12-0.22,0.28,0.06,0.53l0.25,0.21c0.39,0.33,0.38,0.63-0.04,0.88c-0.5,0.29-1.21,0.27-1.82-0.09
				c-0.65-0.38-0.68-0.77-0.02-1.15l0.43,0.25C223.04,82.82,223.02,83.05,223.42,83.28 M228.41,86.16c0.34,0.2,0.72,0.21,0.99,0.06
				c0.22-0.13,0.23-0.29-0.06-0.53l-0.26-0.21c-0.39-0.33-0.37-0.63,0.03-0.87c0.51-0.29,1.25-0.26,1.85,0.08
				c0.63,0.36,0.65,0.77,0.02,1.13l-0.43-0.25c0.39-0.23,0.42-0.45,0.02-0.68c-0.37-0.21-0.74-0.21-1-0.06
				c-0.21,0.12-0.22,0.28,0.06,0.53l0.25,0.21c0.39,0.33,0.38,0.63-0.04,0.88c-0.5,0.29-1.21,0.27-1.82-0.09
				c-0.65-0.38-0.68-0.77-0.02-1.15l0.43,0.25C228.03,85.7,228.01,85.93,228.41,86.16 M246.06,90.03l0.52-0.3l0.53,0.31l-0.52,0.3
				L246.06,90.03 M228.05,79.63l2.8-1.63l1,0.58c0.53,0.31,0.59,0.69,0.08,0.99c-0.51,0.29-1.18,0.26-1.71-0.04l-0.6-0.35
				l-1.17,0.68L228.05,79.63 M230.56,81.08l2.8-1.63l1.68,0.97l-0.38,0.22l-1.28-0.74l-0.83,0.48l1.24,0.71l-0.38,0.22l-1.24-0.71
				l-0.83,0.48l1.28,0.74l-0.38,0.22L230.56,81.08 M233.01,82.49l2.8-1.63l0.96,0.56c0.58,0.33,0.69,0.67,0.15,0.99
				c-0.51,0.29-1.08,0.21-1.6-0.08l-0.06,0.04l0.05,0.09l-0.4,1.13l-0.51-0.29l0.44-1.19l-0.18-0.1l-1.25,0.72L233.01,82.49
				 M235.61,84l2.8-1.63l1.76,1.02l-0.38,0.22l-1.36-0.79l-0.83,0.48l1.28,0.74l-0.38,0.22l-1.28-0.74l-1.21,0.7L235.61,84
				 M240.49,86.81l2.8-1.63l0.97,0.56c0.58,0.33,0.69,0.67,0.15,0.99c-0.51,0.29-1.08,0.21-1.6-0.08l-0.06,0.04l0.04,0.09l-0.4,1.13
				l-0.51-0.29l0.44-1.19l-0.18-0.1l-1.25,0.72L240.49,86.81 M244.98,88.05l0.06,0.03l0.18-0.1l1.75-0.67l0.59,0.34l-2.8,1.63
				l-0.38-0.22l2.4-1.4l-0.06-0.03l-0.38,0.2l-1.53,0.56l-0.35-0.2l0.96-0.89l0.34-0.22l-0.06-0.04l-2.4,1.4l-0.38-0.22l2.8-1.63
				l0.59,0.34l-1.15,1.01L244.98,88.05 M238.79,85.9c-0.7-0.4-0.56-0.91,0.39-1.46c0.95-0.55,1.83-0.63,2.52-0.23
				c0.7,0.4,0.56,0.91-0.39,1.46C240.36,86.22,239.49,86.3,238.79,85.9 M236.28,77.7l2.79-1.62l0.97,0.56
				c0.58,0.33,0.7,0.67,0.15,0.99c-0.51,0.29-1.08,0.2-1.61-0.09l-0.06,0.04l0.05,0.09l-0.4,1.13l-0.51-0.3l0.44-1.19l-0.18-0.1
				l-1.25,0.72L236.28,77.7 M241.15,77.69l0.36-0.21l1.83,1.06l-0.36,0.21l-0.72-0.41l-2.08,1.21l0.72,0.41l-0.36,0.21l-1.83-1.06
				l0.36-0.21l0.72,0.41l2.08-1.21L241.15,77.69 M246.14,80.57l0.36-0.21l1.83,1.06l-0.36,0.21l-0.72-0.41l-2.08,1.21l0.72,0.41
				l-0.36,0.21l-1.83-1.06l0.36-0.21l0.72,0.41l2.08-1.21L246.14,80.57 M247.97,83.99l0.06,0.03l2.4-1.4l0.4,0.23l-2.79,1.62
				l-0.65-0.37l1.32-1.55l0.34-0.27l-0.06-0.03l-2.4,1.4l-0.4-0.23l2.79-1.62l0.65,0.37l-1.32,1.55L247.97,83.99 M234.58,76.79
				c-0.7-0.4-0.55-0.91,0.39-1.46c0.95-0.55,1.83-0.63,2.52-0.23c0.7,0.4,0.56,0.91-0.39,1.46
				C236.16,77.11,235.28,77.19,234.58,76.79 M241.95,81.05c-0.6-0.35-0.43-0.84,0.51-1.39c0.98-0.57,1.83-0.63,2.59-0.2
				c0.58,0.33,0.55,0.81-0.07,1.16l-0.41-0.24c0.41-0.24,0.45-0.5,0.1-0.7c-0.49-0.28-1.03-0.22-1.79,0.22
				c-0.75,0.43-0.89,0.74-0.46,0.99c0.34,0.19,0.8,0.16,1.33-0.11l-0.66-0.38l0.37-0.22l1.04,0.6l-1.45,0.84l-0.4-0.23l0.72-0.29
				l-0.06-0.04C242.79,81.26,242.34,81.27,241.95,81.05 M241.27,73.44l0.06,0.04l2.4-1.4l0.4,0.23l-2.79,1.62l-0.65-0.37l1.32-1.55
				l0.34-0.27l-0.06-0.03l-2.4,1.4l-0.4-0.23l2.79-1.62l0.65,0.37l-1.32,1.55L241.27,73.44 M241.77,74.18l3.61-1.15l0.64,0.37
				l-1.97,2.1l-0.43-0.25l0.71-0.72l-0.87-0.5l-1.25,0.41L241.77,74.18 M246.55,75.58l0.06,0.03l0.18-0.1l1.74-0.67l0.59,0.34
				l-2.79,1.62l-0.38-0.22l2.4-1.4l-0.06-0.03l-0.38,0.19l-1.53,0.56l-0.35-0.2l0.96-0.89l0.34-0.22l-0.06-0.03l-2.4,1.4l-0.38-0.22
				l2.79-1.62l0.59,0.34l-1.15,1.01L246.55,75.58 M247.09,77.26l2.79-1.62l1.68,0.97l-0.38,0.22l-1.28-0.74l-0.83,0.48l1.24,0.71
				l-0.38,0.22l-1.24-0.71l-0.83,0.48l1.28,0.74l-0.38,0.22L247.09,77.26 M272.31,85.25L243,68.34l-29.11,16.92l29.3,16.92
				L272.31,85.25"/>
			<path class="st22" d="M213.89,85.26L243,68.34l29.3,16.92l-29.11,16.92L213.89,85.26z M273.22,85.26L243,67.81l-30.03,17.45
				l30.23,17.45L273.22,85.26"/>
			<polygon class="st22" points="244.14,72.31 243.73,72.08 241.33,73.47 241.27,73.44 241.61,73.17 242.93,71.62 242.28,71.24 
				239.49,72.87 239.89,73.1 242.29,71.7 242.35,71.74 242.02,72.01 240.69,73.56 241.34,73.94 			"/>
			<path class="st22" d="M243.94,73.86l1.27-0.42l0.24-0.11l0.06,0.04l-0.19,0.14l-0.72,0.73L243.94,73.86z M246.02,73.4l-0.64-0.37
				l-3.61,1.15l0.43,0.25l1.25-0.41l0.87,0.5l-0.71,0.72l0.43,0.25L246.02,73.4"/>
			<polygon class="st22" points="249.12,75.19 248.53,74.85 246.79,75.52 246.61,75.62 246.55,75.58 246.72,75.48 247.86,74.46 
				247.27,74.12 244.48,75.75 244.86,75.97 247.26,74.57 247.32,74.61 246.98,74.83 246.03,75.72 246.38,75.92 247.9,75.36 
				248.29,75.17 248.35,75.2 245.95,76.59 246.33,76.81 			"/>
			<polygon class="st22" points="251.57,76.6 249.88,75.63 247.09,77.25 248.77,78.23 249.15,78.01 247.87,77.27 248.7,76.79 
				249.94,77.5 250.32,77.28 249.08,76.56 249.91,76.08 251.19,76.82 			"/>
			<path class="st22" d="M234.96,76.57c-0.44-0.25-0.29-0.57,0.44-1c0.73-0.43,1.28-0.51,1.72-0.26c0.44,0.25,0.3,0.57-0.43,1
				C235.96,76.74,235.4,76.82,234.96,76.57 M237.5,75.09c-0.7-0.4-1.57-0.32-2.52,0.23c-0.95,0.55-1.09,1.06-0.39,1.46
				c0.7,0.4,1.58,0.32,2.52-0.23C238.06,76,238.2,75.5,237.5,75.09"/>
			<path class="st22" d="M238.29,77l0.81-0.47l0.62,0.36c0.29,0.17,0.33,0.35,0.06,0.5c-0.26,0.15-0.58,0.14-0.87-0.03L238.29,77
				 M240.04,76.63l-0.97-0.56l-2.79,1.62l0.4,0.23l1.25-0.72l0.18,0.1l-0.44,1.19l0.51,0.3l0.4-1.13l-0.05-0.09l0.06-0.04
				c0.52,0.29,1.1,0.38,1.61,0.09C240.74,77.3,240.62,76.97,240.04,76.63"/>
			<polygon class="st22" points="243.34,78.54 241.51,77.48 241.15,77.69 241.87,78.1 239.79,79.31 239.07,78.89 238.71,79.1 
				240.55,80.16 240.91,79.95 240.19,79.54 242.27,78.33 242.98,78.75 			"/>
			<path class="st22" d="M245.06,79.46c-0.75-0.44-1.61-0.37-2.59,0.2c-0.95,0.55-1.11,1.05-0.51,1.39
				c0.38,0.22,0.84,0.22,1.37,0.01l0.06,0.04l-0.72,0.29l0.4,0.23l1.44-0.84l-1.04-0.6l-0.37,0.22l0.66,0.38
				c-0.52,0.27-0.99,0.3-1.33,0.11c-0.43-0.25-0.29-0.55,0.46-0.99c0.76-0.44,1.29-0.5,1.79-0.22c0.35,0.2,0.31,0.47-0.1,0.7
				l0.41,0.24C245.6,80.26,245.63,79.79,245.06,79.46"/>
			<polygon class="st22" points="248.33,81.42 246.5,80.36 246.14,80.57 246.85,80.98 244.78,82.19 244.06,81.77 243.7,81.98 
				245.54,83.04 245.9,82.83 245.18,82.42 247.25,81.21 247.97,81.63 			"/>
			<polygon class="st22" points="250.83,82.86 250.43,82.63 248.03,84.03 247.97,83.99 248.31,83.72 249.63,82.17 248.98,81.79 
				246.19,83.42 246.59,83.65 248.99,82.26 249.05,82.29 248.71,82.56 247.39,84.11 248.04,84.49 			"/>
			<path class="st22" d="M230,78.96l0.87-0.5l0.6,0.35c0.31,0.18,0.31,0.38,0.05,0.53c-0.26,0.15-0.61,0.15-0.92-0.03L230,78.96
				 M231.85,78.58l-1-0.58l-2.8,1.63l0.4,0.23l1.17-0.68l0.6,0.35c0.53,0.31,1.2,0.34,1.71,0.04
				C232.44,79.28,232.38,78.89,231.85,78.58"/>
			<polygon class="st22" points="235.04,80.43 233.36,79.46 230.56,81.08 232.24,82.05 232.62,81.83 231.35,81.09 232.18,80.61 
				233.42,81.32 233.79,81.11 232.55,80.39 233.38,79.91 234.66,80.65 			"/>
			<path class="st22" d="M235.01,81.79l0.81-0.47l0.62,0.36c0.29,0.17,0.33,0.34,0.06,0.5c-0.26,0.15-0.58,0.14-0.87-0.03
				L235.01,81.79 M236.77,81.42l-0.97-0.56l-2.8,1.63l0.4,0.23l1.25-0.72l0.18,0.1l-0.44,1.19l0.51,0.29l0.4-1.13l-0.04-0.09
				l0.06-0.04c0.52,0.29,1.09,0.38,1.6,0.08C237.46,82.1,237.35,81.76,236.77,81.42"/>
			<polygon class="st22" points="240.17,83.39 238.41,82.37 235.61,84 236.01,84.23 237.22,83.52 238.5,84.26 238.88,84.04 
				237.6,83.3 238.43,82.82 239.79,83.61 			"/>
			<path class="st22" d="M239.17,85.68c-0.44-0.25-0.3-0.57,0.43-1c0.73-0.43,1.29-0.51,1.72-0.25c0.44,0.25,0.3,0.57-0.43,1
				C240.16,85.85,239.61,85.93,239.17,85.68 M241.7,84.21c-0.7-0.4-1.57-0.32-2.52,0.23c-0.95,0.55-1.09,1.06-0.39,1.46
				c0.7,0.4,1.57,0.32,2.52-0.23C242.26,85.12,242.4,84.61,241.7,84.21"/>
			<path class="st22" d="M242.5,86.11l0.81-0.47l0.62,0.36c0.29,0.17,0.33,0.34,0.06,0.5c-0.26,0.15-0.58,0.14-0.87-0.03
				L242.5,86.11 M244.25,85.74l-0.97-0.56l-2.8,1.63l0.4,0.23l1.25-0.72l0.18,0.1l-0.44,1.19l0.51,0.29l0.4-1.13l-0.05-0.09
				l0.06-0.04c0.52,0.29,1.09,0.38,1.6,0.08C244.94,86.42,244.83,86.08,244.25,85.74"/>
			<polygon class="st22" points="247.56,87.65 246.97,87.31 245.22,87.98 245.04,88.08 244.98,88.05 245.15,87.94 246.3,86.93 
				245.71,86.59 242.91,88.21 243.29,88.43 245.69,87.04 245.75,87.07 245.42,87.29 244.46,88.18 244.81,88.38 246.34,87.83 
				246.72,87.63 246.78,87.66 244.38,89.06 244.76,89.28 			"/>
			<polygon class="st22" points="247.11,90.04 246.58,89.73 246.06,90.03 246.59,90.34 			"/>
			<path class="st22" d="M225.98,81.81c-0.6-0.35-1.34-0.38-1.85-0.08c-0.4,0.23-0.42,0.54-0.03,0.87l0.26,0.21
				c0.29,0.24,0.27,0.4,0.06,0.53c-0.27,0.16-0.65,0.14-0.99-0.06c-0.4-0.23-0.38-0.46,0.02-0.69l-0.43-0.25
				c-0.66,0.38-0.63,0.77,0.02,1.15c0.62,0.36,1.32,0.38,1.83,0.09c0.42-0.24,0.43-0.55,0.04-0.88l-0.25-0.21
				c-0.29-0.24-0.28-0.4-0.06-0.53c0.26-0.15,0.64-0.15,1,0.06c0.4,0.23,0.37,0.45-0.02,0.68l0.43,0.25
				C226.63,82.58,226.61,82.18,225.98,81.81"/>
			<path class="st22" d="M229.32,83.81l-0.4-0.23l-1.94,1.13c-0.34,0.2-0.73,0.2-1.05,0.01c-0.32-0.19-0.33-0.42,0.01-0.61
				l1.94-1.13l-0.4-0.23l-1.94,1.13c-0.54,0.32-0.54,0.75,0.01,1.07c0.54,0.31,1.29,0.32,1.84,0L229.32,83.81"/>
			<path class="st22" d="M230.97,84.69c-0.6-0.35-1.34-0.38-1.85-0.08c-0.4,0.23-0.42,0.54-0.03,0.87l0.26,0.21
				c0.29,0.24,0.27,0.4,0.06,0.53c-0.27,0.16-0.65,0.14-0.99-0.06c-0.4-0.23-0.38-0.46,0.02-0.69L228,85.22
				c-0.66,0.38-0.63,0.77,0.02,1.15c0.62,0.36,1.32,0.38,1.82,0.09c0.42-0.24,0.43-0.55,0.04-0.88l-0.25-0.21
				c-0.29-0.24-0.28-0.4-0.07-0.53c0.26-0.15,0.64-0.15,1,0.06c0.4,0.23,0.37,0.45-0.02,0.68l0.43,0.25
				C231.62,85.46,231.6,85.06,230.97,84.69"/>
			<polygon class="st22" points="234.5,86.8 232.26,85.51 231.88,85.73 232.8,86.26 230.38,87.66 230.79,87.9 233.2,86.49 
				234.12,87.02 			"/>
			<path class="st22" d="M234.11,88.24l1.26-0.42l0.24-0.11l0.06,0.03l-0.19,0.14l-0.71,0.73L234.11,88.24z M236.2,87.78l-0.64-0.37
				l-3.62,1.15l0.43,0.25l1.25-0.41l0.87,0.5l-0.71,0.72l0.43,0.25L236.2,87.78"/>
			<polygon class="st22" points="239.29,89.56 237.45,88.5 237.09,88.71 237.81,89.13 235.73,90.33 235.01,89.92 234.65,90.13 
				236.49,91.19 236.85,90.98 236.13,90.57 238.21,89.36 238.93,89.77 			"/>
			<polygon class="st22" points="241.79,91.01 241.38,90.77 238.98,92.17 238.93,92.13 239.26,91.87 240.58,90.31 239.94,89.94 
				237.14,91.57 237.54,91.8 239.94,90.4 240,90.44 239.67,90.7 238.34,92.26 238.99,92.63 			"/>
			<polygon class="st22" points="241.34,93.39 240.81,93.08 240.29,93.38 240.82,93.69 			"/>
			<polygon class="st23" points="202.07,85.27 242.99,61.49 284.12,85.24 243.21,109.02 			"/>
		</g>
	</g>
	<g>
		<g>
			<defs>
				<polygon id="SVGID_75_" points="257.58,88.94 266.03,84.03 274.54,88.94 266.08,93.85 				"/>
			</defs>
			<clipPath id="SVGID_16_">
				<use xlink:href="#SVGID_75_"  style="overflow:visible;"/>
			</clipPath>
			<path class="st24" d="M262.29,91.13c-2.09-1.21-2.1-3.17-0.02-4.38c2.08-1.21,5.47-1.21,7.56,0c2.09,1.21,2.1,3.17,0.02,4.38
				C267.77,92.34,264.38,92.33,262.29,91.13 M270.28,86.48c-2.34-1.35-6.15-1.35-8.48,0c-2.33,1.36-2.32,3.56,0.03,4.91
				c2.34,1.35,6.15,1.36,8.48,0C272.64,90.04,272.63,87.84,270.28,86.48"/>
		</g>
	</g>
	<g>
		<defs>
			<rect id="SVGID_77_" x="209.76" y="82.48" width="10.54" height="6.11"/>
		</defs>
		<clipPath id="SVGID_17_">
			<use xlink:href="#SVGID_77_"  style="overflow:visible;"/>
		</clipPath>
		<g class="st25">
			<defs>
				<polygon id="SVGID_79_" points="209.76,85.54 215.01,82.48 220.3,85.54 215.05,88.59 				"/>
			</defs>
			<clipPath id="SVGID_18_">
				<use xlink:href="#SVGID_79_"  style="overflow:visible;"/>
			</clipPath>
			<path class="st26" d="M210.68,85.54l4.34-2.52l4.37,2.52l-4.34,2.52L210.68,85.54z M220.3,85.54l-5.29-3.05l-5.25,3.05l5.29,3.05
				L220.3,85.54"/>
		</g>
	</g>
</g>
<g>
	<g>
		<g>
			<defs>
				<polygon id="SVGID_81_" points="175.31,33.27 205.34,15.82 235.56,33.27 205.54,50.72 				"/>
			</defs>
			<clipPath id="SVGID_19_">
				<use xlink:href="#SVGID_81_"  style="overflow:visible;"/>
			</clipPath>
			<path class="st27" d="M198.01,35.76l-0.06-0.03l-0.24,0.11l-1.27,0.42l0.66,0.38l0.71-0.73L198.01,35.76 M193.81,26.82l-0.6-0.35
				l-0.87,0.5l0.6,0.35c0.31,0.18,0.66,0.18,0.92,0.03C194.12,27.2,194.12,27,193.81,26.82 M198.78,29.69l-0.62-0.36l-0.81,0.47
				l0.62,0.36c0.29,0.17,0.61,0.18,0.87,0.03C199.11,30.04,199.07,29.86,198.78,29.69 M206.26,34.01l-0.62-0.36l-0.81,0.47
				l0.62,0.36c0.29,0.17,0.61,0.18,0.87,0.03C206.59,34.36,206.55,34.18,206.26,34.01 M203.66,32.44c-0.44-0.25-0.99-0.17-1.72,0.25
				c-0.73,0.42-0.87,0.75-0.43,1c0.44,0.25,0.99,0.17,1.72-0.25C203.96,33.02,204.1,32.7,203.66,32.44 M202.06,24.9l-0.62-0.36
				l-0.81,0.47l0.62,0.36c0.3,0.17,0.61,0.18,0.87,0.03C202.39,25.25,202.34,25.06,202.06,24.9 M199.46,23.33
				c-0.44-0.25-0.99-0.17-1.72,0.26c-0.73,0.42-0.88,0.74-0.44,1c0.44,0.25,0.99,0.17,1.72-0.25
				C199.76,23.9,199.9,23.58,199.46,23.33 M207.84,21.38l-0.06-0.04l-0.24,0.11l-1.27,0.42l0.65,0.38l0.72-0.73L207.84,21.38
				 M202.63,41.4l0.52-0.3l0.53,0.31l-0.52,0.3L202.63,41.4 M188.26,32.73c0.33,0.19,0.72,0.19,1.05-0.01l1.94-1.13l0.4,0.23
				l-1.94,1.13c-0.54,0.32-1.29,0.31-1.84,0c-0.55-0.32-0.56-0.75-0.01-1.07l1.94-1.13l0.4,0.23l-1.94,1.13
				C187.93,32.31,187.94,32.54,188.26,32.73 M194.22,33.75l0.38-0.22l2.24,1.29l-0.38,0.22l-0.92-0.53l-2.42,1.4l-0.4-0.23
				l2.42-1.41L194.22,33.75 M194.28,36.58l3.62-1.15l0.64,0.37l-1.98,2.1l-0.43-0.25l0.71-0.72l-0.87-0.5l-1.25,0.41L194.28,36.58
				 M199.43,36.73l0.36-0.21l1.83,1.06l-0.36,0.21l-0.71-0.41l-2.08,1.21l0.71,0.41l-0.36,0.21l-1.83-1.06l0.36-0.21l0.72,0.41
				l2.08-1.21L199.43,36.73 M201.26,40.15l0.06,0.03l2.4-1.4l0.4,0.23l-2.8,1.63l-0.65-0.37l1.33-1.55l0.34-0.27l-0.06-0.04
				l-2.4,1.4l-0.4-0.23l2.8-1.63l0.64,0.37l-1.33,1.55L201.26,40.15 M185.76,31.3c0.34,0.2,0.72,0.21,0.99,0.06
				c0.22-0.13,0.23-0.29-0.06-0.53l-0.26-0.21c-0.39-0.33-0.37-0.63,0.03-0.87c0.51-0.29,1.25-0.26,1.85,0.08
				c0.63,0.36,0.65,0.77,0.02,1.13l-0.43-0.25c0.39-0.23,0.42-0.45,0.02-0.68c-0.36-0.21-0.74-0.22-1-0.06
				c-0.21,0.12-0.22,0.28,0.06,0.53l0.25,0.21c0.39,0.33,0.38,0.63-0.04,0.88c-0.5,0.29-1.21,0.27-1.82-0.09
				c-0.65-0.38-0.68-0.77-0.02-1.15l0.43,0.25C185.38,30.84,185.36,31.07,185.76,31.3 M190.75,34.18c0.34,0.2,0.72,0.21,0.99,0.06
				c0.22-0.13,0.23-0.29-0.06-0.53l-0.26-0.21c-0.39-0.33-0.37-0.63,0.03-0.87c0.51-0.29,1.25-0.26,1.85,0.08
				c0.63,0.36,0.65,0.77,0.02,1.13l-0.43-0.25c0.39-0.23,0.42-0.45,0.02-0.68c-0.37-0.21-0.74-0.21-1-0.06
				c-0.21,0.12-0.22,0.28,0.06,0.53l0.25,0.21c0.39,0.33,0.38,0.63-0.04,0.88c-0.5,0.29-1.21,0.27-1.82-0.09
				c-0.65-0.38-0.68-0.77-0.02-1.15l0.43,0.25C190.37,33.72,190.35,33.94,190.75,34.18 M208.4,38.05l0.52-0.3l0.53,0.31l-0.52,0.3
				L208.4,38.05 M190.39,27.65l2.8-1.63l1,0.58c0.53,0.31,0.59,0.69,0.08,0.99c-0.51,0.29-1.18,0.26-1.71-0.04l-0.6-0.35l-1.17,0.68
				L190.39,27.65 M192.9,29.1l2.8-1.63l1.68,0.97L197,28.67l-1.28-0.74l-0.83,0.48l1.24,0.71l-0.38,0.22l-1.24-0.71l-0.83,0.48
				l1.28,0.74l-0.38,0.22L192.9,29.1 M195.35,30.51l2.8-1.63l0.96,0.56c0.58,0.33,0.69,0.67,0.15,0.99
				c-0.51,0.29-1.08,0.21-1.6-0.08l-0.06,0.04l0.05,0.09l-0.4,1.13l-0.51-0.29l0.44-1.19l-0.18-0.1l-1.25,0.72L195.35,30.51
				 M197.95,32.01l2.8-1.63l1.76,1.02l-0.38,0.22l-1.36-0.79l-0.83,0.48l1.28,0.74l-0.38,0.22l-1.28-0.74l-1.21,0.7L197.95,32.01
				 M202.83,34.83l2.8-1.63l0.97,0.56c0.58,0.33,0.69,0.67,0.15,0.99c-0.51,0.29-1.08,0.21-1.6-0.08l-0.06,0.04l0.04,0.09l-0.4,1.13
				l-0.51-0.29l0.44-1.19l-0.18-0.1l-1.25,0.72L202.83,34.83 M207.32,36.06l0.06,0.03l0.18-0.1l1.75-0.67l0.59,0.34l-2.8,1.63
				l-0.38-0.22l2.4-1.4l-0.06-0.03l-0.38,0.2l-1.53,0.56l-0.35-0.2l0.96-0.89l0.34-0.22l-0.06-0.04l-2.4,1.4l-0.38-0.22l2.8-1.63
				l0.59,0.34l-1.15,1.01L207.32,36.06 M201.13,33.92c-0.7-0.4-0.56-0.91,0.39-1.46c0.95-0.55,1.83-0.63,2.52-0.23
				c0.7,0.4,0.56,0.91-0.39,1.46C202.7,34.24,201.83,34.32,201.13,33.92 M198.62,25.72l2.79-1.62l0.97,0.56
				c0.58,0.33,0.7,0.67,0.15,0.99c-0.51,0.29-1.08,0.2-1.61-0.09l-0.06,0.04l0.05,0.09l-0.4,1.13l-0.51-0.3l0.44-1.19l-0.18-0.1
				l-1.25,0.72L198.62,25.72 M203.49,25.71l0.36-0.21l1.83,1.06l-0.36,0.21l-0.72-0.41l-2.08,1.21l0.72,0.41l-0.36,0.21l-1.83-1.06
				l0.36-0.21l0.72,0.41l2.08-1.21L203.49,25.71 M208.48,28.59l0.36-0.21l1.83,1.06l-0.36,0.21l-0.72-0.41l-2.08,1.21l0.72,0.41
				l-0.36,0.21L206.04,30l0.36-0.21l0.72,0.41l2.08-1.21L208.48,28.59 M210.31,32.01l0.06,0.03l2.4-1.4l0.4,0.23l-2.79,1.62
				l-0.65-0.37l1.32-1.55l0.34-0.27l-0.06-0.03l-2.4,1.4l-0.4-0.23l2.79-1.62l0.65,0.37l-1.32,1.55L210.31,32.01 M196.92,24.81
				c-0.7-0.4-0.55-0.91,0.39-1.46c0.95-0.55,1.83-0.63,2.52-0.23c0.7,0.4,0.56,0.91-0.39,1.46
				C198.5,25.12,197.62,25.21,196.92,24.81 M204.29,29.06c-0.6-0.35-0.43-0.84,0.51-1.39c0.98-0.57,1.83-0.63,2.59-0.2
				c0.58,0.33,0.55,0.81-0.07,1.16l-0.41-0.24c0.41-0.24,0.45-0.5,0.1-0.7c-0.49-0.28-1.03-0.22-1.79,0.22
				c-0.75,0.43-0.89,0.74-0.46,0.99c0.34,0.19,0.8,0.16,1.33-0.11l-0.66-0.38l0.37-0.22l1.04,0.6l-1.45,0.84l-0.4-0.23l0.72-0.29
				l-0.06-0.04C205.13,29.28,204.68,29.28,204.29,29.06 M203.61,21.45l0.06,0.04l2.4-1.4l0.4,0.23l-2.79,1.62l-0.65-0.37l1.32-1.55
				l0.34-0.27l-0.06-0.03l-2.4,1.4l-0.4-0.23l2.79-1.62l0.65,0.37l-1.32,1.55L203.61,21.45 M204.11,22.2l3.61-1.15l0.64,0.37
				l-1.97,2.1l-0.43-0.25l0.71-0.72l-0.87-0.5l-1.25,0.41L204.11,22.2 M208.89,23.6l0.06,0.03l0.18-0.1l1.74-0.67l0.59,0.34
				l-2.79,1.62l-0.38-0.22l2.4-1.4l-0.06-0.03l-0.38,0.19l-1.53,0.56l-0.35-0.2l0.96-0.89l0.34-0.22l-0.06-0.03l-2.4,1.4l-0.38-0.22
				l2.79-1.62l0.59,0.34l-1.15,1.01L208.89,23.6 M209.43,25.27l2.79-1.62l1.68,0.97l-0.38,0.22l-1.28-0.74l-0.83,0.48l1.24,0.71
				l-0.38,0.22l-1.24-0.71l-0.83,0.48l1.28,0.74l-0.38,0.22L209.43,25.27 M234.65,33.27l-29.3-16.92l-29.11,16.92l29.3,16.92
				L234.65,33.27"/>
			<path class="st28" d="M176.23,33.27l29.11-16.92l29.3,16.92l-29.11,16.92L176.23,33.27z M235.56,33.27l-30.23-17.45l-30.03,17.45
				l30.23,17.45L235.56,33.27"/>
			<polygon class="st28" points="206.48,20.33 206.07,20.1 203.67,21.49 203.61,21.45 203.95,21.19 205.27,19.63 204.62,19.26 
				201.83,20.88 202.23,21.12 204.63,19.72 204.69,19.76 204.36,20.03 203.03,21.58 203.68,21.95 			"/>
			<path class="st28" d="M206.28,21.88l1.27-0.42l0.24-0.11l0.06,0.04l-0.19,0.14l-0.72,0.73L206.28,21.88z M208.36,21.42
				l-0.64-0.37l-3.61,1.15l0.43,0.25l1.25-0.41l0.87,0.5l-0.71,0.72l0.43,0.25L208.36,21.42"/>
			<polygon class="st28" points="211.46,23.21 210.87,22.87 209.13,23.53 208.95,23.63 208.89,23.6 209.06,23.49 210.2,22.48 
				209.61,22.14 206.82,23.76 207.2,23.98 209.6,22.59 209.66,22.62 209.32,22.85 208.37,23.73 208.72,23.93 210.24,23.38 
				210.63,23.18 210.69,23.22 208.29,24.61 208.66,24.83 			"/>
			<polygon class="st28" points="213.91,24.62 212.22,23.65 209.43,25.27 211.11,26.24 211.49,26.02 210.21,25.28 211.04,24.8 
				212.28,25.52 212.66,25.3 211.42,24.58 212.25,24.1 213.53,24.84 			"/>
			<path class="st28" d="M197.3,24.59c-0.44-0.25-0.29-0.57,0.44-1c0.73-0.43,1.28-0.51,1.72-0.26c0.44,0.25,0.3,0.57-0.43,1
				C198.3,24.75,197.74,24.84,197.3,24.59 M199.84,23.11c-0.7-0.4-1.57-0.32-2.52,0.23c-0.95,0.55-1.09,1.06-0.39,1.46
				c0.7,0.4,1.58,0.32,2.52-0.23C200.4,24.02,200.54,23.51,199.84,23.11"/>
			<path class="st28" d="M200.63,25.01l0.81-0.47l0.62,0.36c0.29,0.17,0.33,0.35,0.06,0.5c-0.26,0.15-0.58,0.14-0.87-0.03
				L200.63,25.01 M202.38,24.65l-0.97-0.56l-2.79,1.62l0.4,0.23l1.25-0.72l0.18,0.1L200,26.51l0.51,0.3l0.4-1.13l-0.05-0.09
				l0.06-0.04c0.52,0.29,1.1,0.38,1.61,0.09C203.08,25.32,202.96,24.98,202.38,24.65"/>
			<polygon class="st28" points="205.68,26.56 203.85,25.5 203.49,25.71 204.21,26.12 202.13,27.33 201.41,26.91 201.05,27.12 
				202.89,28.18 203.25,27.97 202.53,27.56 204.61,26.35 205.32,26.76 			"/>
			<path class="st28" d="M207.4,27.47c-0.75-0.44-1.61-0.37-2.59,0.2c-0.95,0.55-1.11,1.05-0.51,1.39c0.38,0.22,0.84,0.22,1.37,0.01
				l0.06,0.04l-0.72,0.29l0.4,0.23l1.44-0.84l-1.04-0.6l-0.37,0.22l0.66,0.38c-0.52,0.27-0.99,0.3-1.33,0.11
				c-0.43-0.25-0.29-0.55,0.46-0.99c0.76-0.44,1.29-0.5,1.79-0.22c0.35,0.2,0.31,0.47-0.1,0.7l0.41,0.24
				C207.94,28.28,207.97,27.81,207.4,27.47"/>
			<polygon class="st28" points="210.67,29.43 208.84,28.38 208.48,28.59 209.19,29 207.12,30.21 206.4,29.79 206.04,30 
				207.88,31.06 208.24,30.85 207.52,30.44 209.59,29.23 210.31,29.64 			"/>
			<polygon class="st28" points="213.17,30.88 212.77,30.65 210.37,32.04 210.31,32.01 210.65,31.74 211.97,30.18 211.32,29.81 
				208.53,31.43 208.93,31.67 211.33,30.27 211.39,30.31 211.05,30.58 209.73,32.13 210.38,32.5 			"/>
			<path class="st28" d="M192.34,26.98l0.87-0.5l0.6,0.35c0.31,0.18,0.31,0.38,0.05,0.53c-0.26,0.15-0.61,0.15-0.92-0.03
				L192.34,26.98 M194.19,26.6l-1-0.58l-2.8,1.63l0.4,0.23l1.17-0.68l0.6,0.35c0.53,0.31,1.2,0.34,1.71,0.04
				C194.78,27.29,194.72,26.91,194.19,26.6"/>
			<polygon class="st28" points="197.38,28.44 195.7,27.47 192.9,29.1 194.58,30.07 194.96,29.85 193.69,29.11 194.52,28.63 
				195.76,29.34 196.13,29.12 194.89,28.41 195.72,27.93 197,28.66 			"/>
			<path class="st28" d="M197.35,29.81l0.81-0.47l0.62,0.36c0.29,0.17,0.33,0.34,0.06,0.5c-0.26,0.15-0.58,0.14-0.87-0.03
				L197.35,29.81 M199.11,29.44l-0.97-0.56l-2.8,1.63l0.4,0.23l1.25-0.72l0.18,0.1l-0.44,1.19l0.51,0.29l0.4-1.13l-0.04-0.09
				l0.06-0.04c0.52,0.29,1.09,0.38,1.6,0.08C199.8,30.11,199.69,29.78,199.11,29.44"/>
			<polygon class="st28" points="202.51,31.41 200.75,30.39 197.95,32.01 198.35,32.25 199.56,31.54 200.84,32.28 201.22,32.06 
				199.94,31.32 200.77,30.84 202.13,31.63 			"/>
			<path class="st28" d="M201.51,33.7c-0.44-0.25-0.3-0.57,0.43-1c0.73-0.43,1.29-0.51,1.72-0.25c0.44,0.25,0.3,0.57-0.43,1
				C202.5,33.87,201.94,33.95,201.51,33.7 M204.04,32.22c-0.7-0.4-1.57-0.32-2.52,0.23c-0.95,0.55-1.09,1.06-0.39,1.46
				c0.7,0.4,1.57,0.32,2.52-0.23C204.6,33.13,204.74,32.63,204.04,32.22"/>
			<path class="st28" d="M204.84,34.13l0.81-0.47l0.62,0.36c0.29,0.17,0.33,0.34,0.06,0.5c-0.26,0.15-0.58,0.14-0.87-0.03
				L204.84,34.13 M206.59,33.76l-0.97-0.56l-2.8,1.63l0.4,0.23l1.25-0.72l0.18,0.1l-0.44,1.19l0.51,0.29l0.4-1.13l-0.05-0.09
				l0.06-0.04c0.52,0.29,1.09,0.38,1.6,0.08C207.28,34.43,207.17,34.09,206.59,33.76"/>
			<polygon class="st28" points="209.9,35.67 209.31,35.33 207.56,36 207.38,36.1 207.32,36.06 207.49,35.96 208.64,34.95 
				208.05,34.6 205.25,36.23 205.63,36.45 208.03,35.05 208.09,35.09 207.76,35.31 206.8,36.2 207.15,36.4 208.68,35.84 
				209.06,35.65 209.12,35.68 206.72,37.08 207.1,37.3 			"/>
			<polygon class="st28" points="209.45,38.05 208.92,37.75 208.4,38.05 208.93,38.35 			"/>
			<path class="st28" d="M188.32,29.83c-0.6-0.35-1.34-0.38-1.85-0.08c-0.4,0.23-0.42,0.54-0.03,0.87l0.26,0.21
				c0.29,0.24,0.27,0.4,0.06,0.53c-0.27,0.16-0.65,0.14-0.99-0.06c-0.4-0.23-0.38-0.46,0.02-0.69l-0.43-0.25
				c-0.66,0.38-0.63,0.77,0.02,1.15c0.62,0.36,1.32,0.38,1.83,0.09c0.42-0.24,0.43-0.55,0.04-0.88l-0.25-0.21
				c-0.29-0.24-0.28-0.4-0.06-0.53c0.26-0.15,0.64-0.15,1,0.06c0.4,0.23,0.37,0.45-0.02,0.68l0.43,0.25
				C188.97,30.6,188.95,30.19,188.32,29.83"/>
			<path class="st28" d="M191.66,31.83l-0.4-0.23l-1.94,1.13c-0.34,0.2-0.73,0.2-1.05,0.01c-0.32-0.19-0.33-0.42,0.01-0.61
				l1.94-1.13l-0.4-0.23l-1.94,1.13c-0.54,0.32-0.54,0.75,0.01,1.07c0.54,0.31,1.29,0.32,1.84,0L191.66,31.83"/>
			<path class="st28" d="M193.31,32.71c-0.6-0.35-1.34-0.38-1.85-0.08c-0.4,0.23-0.42,0.54-0.03,0.87l0.26,0.21
				c0.29,0.24,0.27,0.4,0.06,0.53c-0.27,0.16-0.65,0.14-0.99-0.06c-0.4-0.23-0.38-0.46,0.02-0.69l-0.43-0.25
				c-0.66,0.38-0.63,0.77,0.02,1.15c0.62,0.36,1.32,0.38,1.82,0.09c0.42-0.24,0.43-0.55,0.04-0.88l-0.25-0.21
				c-0.29-0.24-0.28-0.4-0.07-0.53c0.26-0.15,0.64-0.15,1,0.06c0.4,0.23,0.37,0.45-0.02,0.68l0.43,0.25
				C193.96,33.47,193.94,33.07,193.31,32.71"/>
			<polygon class="st28" points="196.84,34.82 194.6,33.52 194.22,33.75 195.14,34.28 192.72,35.68 193.13,35.91 195.54,34.51 
				196.46,35.04 			"/>
			<path class="st28" d="M196.45,36.26l1.26-0.42l0.24-0.11l0.06,0.03l-0.19,0.14l-0.71,0.73L196.45,36.26z M198.54,35.8l-0.64-0.37
				l-3.62,1.15l0.43,0.25l1.25-0.41l0.87,0.5l-0.71,0.72l0.43,0.25L198.54,35.8"/>
			<polygon class="st28" points="201.62,37.58 199.79,36.52 199.43,36.73 200.15,37.14 198.07,38.35 197.35,37.94 196.99,38.15 
				198.83,39.2 199.19,39 198.47,38.58 200.55,37.38 201.27,37.79 			"/>
			<polygon class="st28" points="204.13,39.02 203.72,38.79 201.32,40.19 201.26,40.15 201.6,39.88 202.92,38.33 202.28,37.96 
				199.48,39.58 199.88,39.81 202.28,38.42 202.34,38.45 202.01,38.72 200.68,40.28 201.33,40.65 			"/>
			<polygon class="st28" points="203.68,41.41 203.15,41.1 202.63,41.4 203.16,41.71 			"/>
			<polygon class="st29" points="164.41,33.29 205.33,9.51 246.46,33.26 205.55,57.04 			"/>
		</g>
	</g>
	<g>
		<g>
			<defs>
				<polygon id="SVGID_83_" points="219.92,36.96 228.37,32.04 236.88,36.96 228.42,41.87 				"/>
			</defs>
			<clipPath id="SVGID_20_">
				<use xlink:href="#SVGID_83_"  style="overflow:visible;"/>
			</clipPath>
			<path class="st30" d="M224.63,39.15c-2.09-1.21-2.1-3.17-0.02-4.38c2.08-1.21,5.47-1.21,7.56,0c2.09,1.21,2.1,3.17,0.02,4.38
				C230.11,40.35,226.72,40.35,224.63,39.15 M232.62,34.5c-2.34-1.35-6.15-1.35-8.48,0c-2.33,1.36-2.32,3.56,0.03,4.91
				c2.34,1.35,6.15,1.36,8.48,0C234.98,38.06,234.97,35.85,232.62,34.5"/>
		</g>
	</g>
	<g>
		<defs>
			<rect id="SVGID_85_" x="172.1" y="30.5" width="10.54" height="6.11"/>
		</defs>
		<clipPath id="SVGID_21_">
			<use xlink:href="#SVGID_85_"  style="overflow:visible;"/>
		</clipPath>
		<g class="st31">
			<defs>
				<polygon id="SVGID_87_" points="172.1,33.55 177.35,30.5 182.64,33.56 177.39,36.61 				"/>
			</defs>
			<clipPath id="SVGID_22_">
				<use xlink:href="#SVGID_87_"  style="overflow:visible;"/>
			</clipPath>
			<path class="st32" d="M173.02,33.55l4.34-2.52l4.37,2.52l-4.34,2.52L173.02,33.55z M182.64,33.56l-5.29-3.05l-5.25,3.05
				l5.29,3.05L182.64,33.56"/>
		</g>
	</g>
</g>
<g>
	<g>
		<line class="st33" x1="78.05" y1="224.55" x2="77.94" y2="223.96"/>
		<line class="st34" x1="77.49" y1="221.62" x2="49.78" y2="75.19"/>
		<line class="st33" x1="49.56" y1="74.02" x2="49.44" y2="73.43"/>
	</g>
</g>
<g>
	<g>
		<line class="st33" x1="117.79" y1="202.86" x2="117.81" y2="202.26"/>
		<line class="st35" x1="117.91" y1="199.84" x2="123.65" y2="56.08"/>
		<line class="st33" x1="123.7" y1="54.87" x2="123.72" y2="54.27"/>
	</g>
</g>
<g>
	<g>
		<line class="st33" x1="110.23" y1="245.2" x2="110.17" y2="244.6"/>
		<line class="st36" x1="109.93" y1="242.17" x2="96.4" y2="104.91"/>
		<line class="st33" x1="96.28" y1="103.69" x2="96.23" y2="103.09"/>
	</g>
</g>
<rect x="8.19" y="6.79" class="st37" width="155.26" height="104.59"/>
<polygon class="st37" points="286.38,119.05 0.96,119.05 0.3,0.3 285.72,0.3 "/>
<g>
	<g>
		<line class="st33" x1="184.16" y1="240.82" x2="184.22" y2="240.22"/>
		<line class="st38" x1="184.48" y1="237.83" x2="204.29" y2="56.06"/>
		<line class="st33" x1="204.42" y1="54.87" x2="204.49" y2="54.27"/>
	</g>
</g>
<g>
	<g>
		<line class="st33" x1="216.87" y1="258.31" x2="216.97" y2="257.71"/>
		<line class="st39" x1="217.37" y1="255.35" x2="242.72" y2="107.8"/>
		<line class="st33" x1="242.92" y1="106.62" x2="243.02" y2="106.03"/>
	</g>
</g>
<g>
	<path class="st40" d="M203.35,84.74"/>
</g>
<g>
	<path class="st40" d="M192.95,259.8"/>
</g>
<g>
</g>
<g>
</g>
<g>
</g>
<g>
</g>
<g>
</g>
<g>
</g>
<g>
</g>
<g>
</g>
<g>
</g>
<g>
</g>
<g>
</g>
<g>
</g>
<g>
</g>
<g>
</g>
<g>
</g>
</svg>
