<?xml version="1.0" encoding="utf-8"?>
<!-- Generator: Adobe Illustrator 25.2.0, SVG Export Plug-In . SVG Version: 6.00 Build 0)  -->
<svg version="1.1" id="Layer_1" xmlns="http://www.w3.org/2000/svg" xmlns:xlink="http://www.w3.org/1999/xlink" x="0px" y="0px"
	 viewBox="0 0 285.91 340.4" style="enable-background:new 0 0 285.91 340.4;" xml:space="preserve">
<style type="text/css">
	.st0{clip-path:url(#SVGID_1_);}
	.st1{clip-path:url(#SVGID_2_);fill:#FFB5AF;}
	.st2{clip-path:url(#SVGID_2_);}
	.st3{clip-path:url(#SVGID_3_);fill:#6CE87D;}
	.st4{clip-path:url(#SVGID_3_);}
	.st5{clip-path:url(#SVGID_3_);fill:none;}
	.st6{clip-path:url(#SVGID_4_);}
	.st7{clip-path:url(#SVGID_5_);}
	.st8{clip-path:url(#SVGID_6_);}
	.st9{clip-path:url(#SVGID_7_);fill:#6CE87D;}
	.st10{clip-path:url(#SVGID_7_);}
	.st11{clip-path:url(#SVGID_7_);fill:none;}
	.st12{clip-path:url(#SVGID_8_);}
	.st13{clip-path:url(#SVGID_9_);}
	.st14{clip-path:url(#SVGID_10_);}
	.st15{clip-path:url(#SVGID_11_);fill:#6CE87D;}
	.st16{clip-path:url(#SVGID_11_);}
	.st17{clip-path:url(#SVGID_11_);fill:none;}
	.st18{clip-path:url(#SVGID_12_);}
	.st19{clip-path:url(#SVGID_13_);}
	.st20{clip-path:url(#SVGID_14_);}
	.st21{fill:none;stroke:#000000;stroke-width:0.602;stroke-linecap:round;stroke-miterlimit:10;}
	.st22{fill:none;stroke:#000000;stroke-width:0.602;stroke-linecap:round;stroke-miterlimit:10;stroke-dasharray:1.2081,2.4171;}
	.st23{fill:none;stroke:#000000;stroke-width:0.602;stroke-linecap:round;stroke-miterlimit:10;stroke-dasharray:1.1955,2.392;}
	.st24{fill:none;stroke:#000000;stroke-width:0.602;stroke-linecap:round;stroke-miterlimit:10;stroke-dasharray:1.2022,2.4053;}
</style>
<g>
	<defs>
		<rect id="SVGID_29_" x="19.83" y="186.35" width="266.09" height="154.05"/>
	</defs>
	<clipPath id="SVGID_1_">
		<use xlink:href="#SVGID_29_"  style="overflow:visible;"/>
	</clipPath>
	<g class="st0">
		<defs>
			<polygon id="SVGID_31_" points="19.82,251.27 131.54,186.35 285.91,275.48 174.2,340.4 			"/>
		</defs>
		<clipPath id="SVGID_2_">
			<use xlink:href="#SVGID_31_"  style="overflow:visible;"/>
		</clipPath>
		<path class="st1" d="M99.58,245.22l-26.68-15.4l-26.52,15.41l26.68,15.4L99.58,245.22 M136.75,266.68l-26.68-15.4l-26.52,15.41
			l26.68,15.4L136.75,266.68 M173.91,288.13l-26.68-15.4l-26.52,15.41l26.68,15.4L173.91,288.13 M211.08,309.59l-26.68-15.4
			l-26.52,15.41l26.68,15.4L211.08,309.59 M145.02,218.81l-26.68-15.4l-26.51,15.4l26.68,15.4L145.02,218.81 M182.19,240.27
			l-26.68-15.4L129,240.27l26.68,15.4L182.19,240.27 M219.35,261.73l-26.68-15.4l-26.51,15.4l26.68,15.4L219.35,261.73
			 M256.52,283.18l-26.68-15.4l-26.51,15.4l26.68,15.4L256.52,283.18 M133.96,194.88c-0.26-0.15-0.68-0.15-0.95,0.01
			c-0.25,0.15-0.25,0.39,0,0.54c0.27,0.15,0.69,0.15,0.95,0.01C134.23,195.28,134.23,195.03,133.96,194.88 M139.68,198.18
			c-0.27-0.16-0.69-0.16-0.96,0c-0.25,0.15-0.25,0.39,0.01,0.55c0.27,0.15,0.69,0.15,0.95,0.01
			C139.95,198.58,139.95,198.33,139.68,198.18 M145.4,201.48c-0.27-0.15-0.69-0.15-0.96,0c-0.25,0.15-0.25,0.4,0.02,0.55
			c0.26,0.15,0.68,0.15,0.93,0C145.66,201.88,145.66,201.63,145.4,201.48 M246.26,258.62l-85.49-49.36
			c-0.33-0.19-0.89-0.19-1.23,0.01l-1.61,0.94c-0.34,0.2-0.34,0.52-0.01,0.71l85.49,49.36c0.34,0.2,0.9,0.2,1.24,0l1.61-0.94
			C246.6,259.14,246.6,258.82,246.26,258.62 M35.26,250.59l1.42-0.83l16.2,9.35l-1.42,0.83L35.26,250.59 M71.95,271.77l1.42-0.83
			l16.2,9.35l-1.42,0.83L71.95,271.77 M109.11,293.23l1.42-0.83l16.2,9.35l-1.42,0.83L109.11,293.23 M146.28,314.68l1.42-0.83
			l16.2,9.35l-1.42,0.83L146.28,314.68 M38.1,248.94l1.42-0.83l13.33,7.7l-1.42,0.82L38.1,248.94 M74.79,270.12l1.42-0.83l13.34,7.7
			l-1.42,0.83L74.79,270.12 M111.95,291.57l1.42-0.83l13.33,7.7l-1.42,0.83L111.95,291.57 M149.12,313.03l1.42-0.83l13.33,7.7
			l-1.42,0.83L149.12,313.03 M40.94,247.29l1.42-0.83l20.96,12.1l-1.42,0.83L40.94,247.29 M77.62,268.47l1.42-0.83l20.96,12.1
			l-1.42,0.83L77.62,268.47 M114.79,289.93l1.42-0.83l20.96,12.1l-1.42,0.82L114.79,289.93 M151.95,311.39l1.42-0.83l20.96,12.1
			l-1.42,0.83L151.95,311.39 M43.53,245.23l29.35-17.06l29.54,17.06l-29.35,17.06L43.53,245.23 M80.7,266.68l29.35-17.06
			l29.54,17.06l-29.35,17.06L80.7,266.68 M117.86,288.14l29.35-17.06l29.54,17.06L147.4,305.2L117.86,288.14 M155.03,309.6
			l29.35-17.06l29.54,17.06l-29.35,17.06L155.03,309.6 M80.7,224.18l1.42-0.83l16.2,9.35l-1.42,0.83L80.7,224.18 M117.39,245.36
			l1.42-0.83l16.2,9.35l-1.42,0.83L117.39,245.36 M154.55,266.82l1.42-0.83l16.2,9.35l-1.42,0.82L154.55,266.82 M191.72,288.28
			l1.42-0.83l16.2,9.35l-1.42,0.83L191.72,288.28 M83.54,222.53l1.42-0.82l13.33,7.7l-1.42,0.82L83.54,222.53 M120.23,243.71
			l1.42-0.83l13.34,7.7l-1.42,0.83L120.23,243.71 M157.39,265.17l1.42-0.83l13.33,7.7l-1.42,0.83L157.39,265.17 M194.56,286.62
			l1.42-0.83l13.34,7.7l-1.42,0.83L194.56,286.62 M86.39,220.88l1.42-0.83l20.96,12.1l-1.42,0.82L86.39,220.88 M123.07,242.06
			l1.42-0.83l20.96,12.1l-1.42,0.83L123.07,242.06 M160.24,263.51l1.42-0.83l20.96,12.1l-1.42,0.83L160.24,263.51 M197.4,284.97
			l1.42-0.83l20.96,12.1l-1.42,0.83L197.4,284.97 M88.98,218.81l29.35-17.06l29.54,17.06l-29.35,17.06L88.98,218.81 M126.15,240.27
			l29.35-17.06l29.54,17.06l-29.35,17.06L126.15,240.27 M163.31,261.73l29.35-17.06l29.54,17.06l-29.35,17.06L163.31,261.73
			 M200.48,283.18l29.35-17.06l29.54,17.06l-29.35,17.06L200.48,283.18 M131.59,196.25c-1.05-0.6-1.05-1.59-0.01-2.19
			c1.05-0.61,2.75-0.61,3.8-0.01c1.06,0.61,1.06,1.6,0.01,2.21C134.35,196.86,132.65,196.86,131.59,196.25 M137.32,199.55
			c-1.06-0.61-1.06-1.6-0.02-2.2c1.05-0.61,2.75-0.61,3.81,0c1.06,0.61,1.05,1.59,0,2.2C140.07,200.16,138.37,200.17,137.32,199.55
			 M143.04,202.86c-1.06-0.61-1.06-1.6-0.02-2.2c1.05-0.61,2.75-0.61,3.81,0c1.05,0.6,1.05,1.59,0,2.2
			C145.79,203.46,144.09,203.46,143.04,202.86 M156.51,211.74c-1.12-0.65-1.13-1.71,0-2.36l1.61-0.94c1.13-0.65,2.95-0.65,4.08-0.01
			l85.49,49.36c1.13,0.65,1.14,1.71,0.01,2.37l-1.61,0.94c-1.13,0.65-2.95,0.65-4.09,0L156.51,211.74 M275.85,271.32l-137.1-79.15
			c-3.97-2.29-10.42-2.29-14.37,0l-94.55,54.95c-3.95,2.29-3.92,6.03,0.05,8.32l137.1,79.16c3.98,2.3,10.42,2.29,14.36,0
			l94.55-54.95C279.85,277.35,279.84,273.62,275.85,271.32"/>
		<path class="st2" d="M29.88,255.43c-3.97-2.29-3.99-6.03-0.05-8.32l94.55-54.95c3.95-2.29,10.39-2.29,14.37,0l137.1,79.15
			c3.98,2.3,3.99,6.03,0.05,8.32l-94.55,54.95c-3.95,2.29-10.38,2.3-14.37,0L29.88,255.43 M277.27,270.49l-137.1-79.15
			c-4.77-2.76-12.48-2.76-17.22,0L28.4,246.29c-4.74,2.76-4.72,7.22,0.06,9.97l137.1,79.15c4.77,2.76,12.48,2.76,17.22,0
			l94.55-54.95C282.07,277.71,282.05,273.25,277.27,270.49"/>
		<path class="st2" d="M133.01,195.42c-0.26-0.15-0.26-0.39,0-0.54c0.27-0.16,0.69-0.16,0.95-0.01c0.27,0.15,0.27,0.4,0,0.56
			C133.71,195.58,133.28,195.58,133.01,195.42 M135.38,194.05c-1.05-0.6-2.75-0.6-3.8,0.01c-1.04,0.6-1.04,1.59,0.01,2.19
			c1.06,0.61,2.76,0.61,3.8,0.01C136.44,195.65,136.44,194.66,135.38,194.05"/>
		<path class="st2" d="M138.74,198.73c-0.27-0.15-0.27-0.4-0.01-0.55c0.26-0.15,0.69-0.15,0.96,0c0.27,0.15,0.27,0.4,0,0.56
			C139.43,198.88,139,198.88,138.74,198.73 M141.1,197.35c-1.06-0.61-2.76-0.61-3.81,0c-1.04,0.6-1.03,1.59,0.02,2.2
			c1.06,0.61,2.75,0.6,3.79,0C142.16,198.94,142.16,197.96,141.1,197.35"/>
		<path class="st2" d="M144.46,202.03c-0.27-0.15-0.27-0.4-0.02-0.55c0.27-0.15,0.69-0.15,0.96,0c0.26,0.15,0.26,0.39-0.01,0.55
			C145.14,202.18,144.72,202.18,144.46,202.03 M146.83,200.66c-1.06-0.61-2.76-0.61-3.81,0c-1.04,0.6-1.03,1.59,0.02,2.2
			c1.05,0.6,2.75,0.6,3.79,0C147.88,202.25,147.87,201.26,146.83,200.66"/>
		<path class="st2" d="M157.93,210.92c-0.33-0.19-0.33-0.51,0.01-0.71l1.61-0.94c0.34-0.2,0.89-0.2,1.22-0.01l85.49,49.36
			c0.34,0.2,0.34,0.52,0.01,0.72l-1.61,0.94c-0.34,0.2-0.89,0.2-1.23,0L157.93,210.92 M247.68,257.79l-85.49-49.36
			c-1.12-0.65-2.95-0.65-4.08,0.01l-1.61,0.94c-1.13,0.65-1.12,1.71,0,2.36L242,261.1c1.13,0.65,2.96,0.65,4.09,0l1.61-0.94
			C248.82,259.51,248.81,258.45,247.68,257.79"/>
		<path class="st2" d="M91.83,218.81l26.51-15.4l26.68,15.4l-26.51,15.4L91.83,218.81z M147.88,218.81l-29.54-17.06l-29.35,17.06
			l29.54,17.06L147.88,218.81"/>
		<path class="st2" d="M129,240.27l26.51-15.4l26.68,15.4l-26.51,15.4L129,240.27z M185.04,240.27l-29.54-17.06l-29.35,17.06
			l29.54,17.06L185.04,240.27"/>
		<path class="st2" d="M166.17,261.73l26.51-15.4l26.68,15.4l-26.51,15.4L166.17,261.73z M222.21,261.73l-29.54-17.06l-29.35,17.06
			l29.54,17.06L222.21,261.73"/>
		<path class="st2" d="M203.33,283.18l26.51-15.4l26.68,15.4l-26.51,15.4L203.33,283.18z M259.37,283.18l-29.54-17.06l-29.35,17.06
			l29.54,17.06L259.37,283.18"/>
		<path class="st2" d="M46.38,245.23l26.52-15.41l26.68,15.4l-26.52,15.41L46.38,245.23z M102.42,245.23l-29.54-17.06l-29.35,17.06
			l29.54,17.06L102.42,245.23"/>
		<path class="st2" d="M83.55,266.68l26.52-15.41l26.68,15.4l-26.52,15.41L83.55,266.68z M139.59,266.68l-29.54-17.06L80.7,266.68
			l29.54,17.06L139.59,266.68"/>
		<path class="st2" d="M120.71,288.14l26.52-15.41l26.68,15.4l-26.52,15.41L120.71,288.14z M176.75,288.14l-29.54-17.06
			l-29.35,17.06l29.54,17.06L176.75,288.14"/>
		<path class="st2" d="M157.88,309.6l26.52-15.41l26.68,15.4L184.56,325L157.88,309.6z M213.92,309.6l-29.54-17.06l-29.35,17.06
			l29.54,17.06L213.92,309.6"/>
		<polygon class="st2" points="108.77,232.15 87.81,220.05 86.39,220.88 107.34,232.98 		"/>
		<polygon class="st2" points="98.3,229.4 84.97,221.7 83.54,222.53 96.88,230.23 		"/>
		<polygon class="st2" points="98.32,232.71 82.12,223.35 80.7,224.18 96.9,233.53 		"/>
		<polygon class="st2" points="145.45,253.33 124.49,241.23 123.07,242.06 144.03,254.16 		"/>
		<polygon class="st2" points="134.99,250.58 121.65,242.88 120.23,243.71 133.56,251.41 		"/>
		<polygon class="st2" points="135,253.89 118.81,244.53 117.39,245.36 133.58,254.71 		"/>
		<polygon class="st2" points="182.62,274.79 161.66,262.69 160.24,263.51 181.2,275.61 		"/>
		<polygon class="st2" points="172.15,272.04 158.81,264.34 157.39,265.17 170.73,272.86 		"/>
		<polygon class="st2" points="172.17,275.34 155.97,265.99 154.55,266.82 170.75,276.17 		"/>
		<polygon class="st2" points="219.78,296.25 198.83,284.15 197.4,284.97 218.36,297.07 		"/>
		<polygon class="st2" points="209.32,293.5 195.98,285.8 194.56,286.62 207.89,294.32 		"/>
		<polygon class="st2" points="209.34,296.8 193.14,287.45 191.72,288.28 207.91,297.63 		"/>
		<polygon class="st2" points="63.32,258.56 42.36,246.46 40.93,247.29 61.89,259.39 		"/>
		<polygon class="st2" points="52.86,255.81 39.52,248.11 38.1,248.94 51.44,256.64 		"/>
		<polygon class="st2" points="52.88,259.11 36.68,249.76 35.26,250.59 51.46,259.94 		"/>
		<polygon class="st2" points="100,279.74 79.04,267.64 77.62,268.47 98.58,280.57 		"/>
		<polygon class="st2" points="89.55,276.99 76.21,269.29 74.79,270.12 88.12,277.82 		"/>
		<polygon class="st2" points="89.56,280.29 73.37,270.94 71.95,271.77 88.14,281.12 		"/>
		<polygon class="st2" points="137.16,301.2 116.21,289.1 114.78,289.93 135.74,302.03 		"/>
		<polygon class="st2" points="126.71,298.45 113.37,290.75 111.95,291.57 125.29,299.27 		"/>
		<polygon class="st2" points="126.73,301.75 110.53,292.4 109.11,293.23 125.31,302.58 		"/>
		<polygon class="st2" points="174.33,322.66 153.37,310.56 151.95,311.39 172.91,323.49 		"/>
		<polygon class="st2" points="163.87,319.9 150.54,312.21 149.12,313.03 162.45,320.73 		"/>
		<polygon class="st2" points="163.89,323.21 147.7,313.86 146.28,314.68 162.47,324.03 		"/>
	</g>
</g>
<g>
	<g>
		<g>
			<defs>
				<polygon id="SVGID_33_" points="5.22,62.24 54.03,33.87 103.16,62.24 54.35,90.6 				"/>
			</defs>
			<clipPath id="SVGID_3_">
				<use xlink:href="#SVGID_33_"  style="overflow:visible;"/>
			</clipPath>
			<path class="st3" d="M42.12,66.29l-0.09-0.05l-0.39,0.18l-2.06,0.68l1.07,0.62l1.16-1.19L42.12,66.29 M35.29,51.75l-0.97-0.56
				l-1.41,0.82l0.97,0.56c0.5,0.29,1.07,0.29,1.49,0.04C35.8,52.37,35.79,52.04,35.29,51.75 M43.37,56.42l-1.01-0.58l-1.32,0.77
				l1.01,0.58c0.48,0.28,0.99,0.29,1.41,0.05C43.91,56.98,43.84,56.69,43.37,56.42 M55.53,63.44l-1-0.58l-1.32,0.77l1,0.58
				c0.48,0.28,0.99,0.29,1.41,0.05C56.07,64,56,63.71,55.53,63.44 M51.31,60.89c-0.71-0.41-1.61-0.28-2.8,0.41
				c-1.19,0.69-1.42,1.21-0.71,1.62c0.71,0.41,1.62,0.28,2.8-0.41C51.79,61.82,52.02,61.3,51.31,60.89 M48.7,48.63l-1-0.58
				l-1.32,0.77l1,0.58c0.48,0.28,1,0.3,1.42,0.05C49.24,49.19,49.16,48.9,48.7,48.63 M44.47,46.08c-0.71-0.41-1.61-0.28-2.8,0.42
				c-1.19,0.69-1.42,1.21-0.71,1.62c0.71,0.41,1.62,0.27,2.8-0.41C44.96,47.01,45.18,46.49,44.47,46.08 M58.1,42.91L58,42.86
				l-0.38,0.18l-2.06,0.68l1.06,0.62l1.17-1.19L58.1,42.91 M49.63,75.45l0.84-0.49l0.86,0.5l-0.84,0.49L49.63,75.45 M26.27,61.36
				c0.53,0.31,1.17,0.3,1.71-0.02l3.16-1.83l0.66,0.38l-3.16,1.83c-0.88,0.51-2.1,0.51-2.99,0c-0.89-0.51-0.91-1.22-0.02-1.73
				l3.16-1.83l0.66,0.38l-3.16,1.83C25.74,60.68,25.74,61.05,26.27,61.36 M35.96,63.01l0.62-0.36l3.64,2.1l-0.62,0.36l-1.49-0.86
				l-3.93,2.28l-0.66-0.38l3.93-2.28L35.96,63.01 M36.05,67.61l5.88-1.87l1.04,0.6l-3.21,3.41l-0.71-0.41l1.15-1.18l-1.41-0.82
				l-2.03,0.67L36.05,67.61 M44.43,67.86l0.58-0.34l2.98,1.72l-0.58,0.34l-1.16-0.67l-3.38,1.96l1.16,0.67l-0.58,0.34l-2.98-1.72
				l0.58-0.34l1.17,0.67l3.38-1.96L44.43,67.86 M47.41,73.42l0.09,0.05l3.9-2.27l0.66,0.38l-4.55,2.64l-1.05-0.61l2.16-2.53
				l0.54-0.43l-0.1-0.06l-3.9,2.27l-0.65-0.38l4.55-2.64l1.05,0.6l-2.16,2.53L47.41,73.42 M22.21,59.02
				c0.56,0.32,1.18,0.35,1.61,0.09c0.35-0.2,0.38-0.47-0.09-0.86l-0.42-0.34c-0.64-0.54-0.61-1.03,0.05-1.41
				c0.82-0.48,2.02-0.43,3,0.14c1.03,0.59,1.06,1.25,0.03,1.84l-0.7-0.4c0.64-0.37,0.68-0.73,0.03-1.1
				c-0.59-0.34-1.21-0.35-1.63-0.1c-0.34,0.2-0.36,0.46,0.11,0.85l0.4,0.35c0.63,0.54,0.62,1.03-0.06,1.43
				c-0.82,0.47-1.96,0.44-2.97-0.14c-1.06-0.61-1.1-1.25-0.03-1.87l0.7,0.4C21.59,58.28,21.56,58.65,22.21,59.02 M30.31,63.71
				c0.56,0.32,1.18,0.35,1.61,0.09c0.35-0.2,0.37-0.47-0.09-0.86l-0.42-0.34c-0.64-0.54-0.61-1.03,0.05-1.41
				c0.82-0.48,2.02-0.43,3.01,0.14c1.02,0.59,1.06,1.25,0.03,1.84l-0.7-0.4c0.64-0.37,0.68-0.73,0.03-1.1
				c-0.59-0.34-1.21-0.35-1.63-0.1c-0.34,0.2-0.36,0.46,0.11,0.85l0.4,0.35c0.63,0.54,0.61,1.03-0.06,1.43
				c-0.82,0.47-1.96,0.44-2.97-0.14c-1.06-0.61-1.1-1.25-0.03-1.87l0.7,0.4C29.7,62.96,29.66,63.33,30.31,63.71 M59.01,70l0.84-0.49
				l0.86,0.5l-0.84,0.49L59.01,70 M29.73,53.1l4.55-2.64l1.63,0.94c0.86,0.5,0.96,1.13,0.13,1.61c-0.82,0.48-1.91,0.43-2.78-0.07
				l-0.97-0.56l-1.9,1.11L29.73,53.1 M33.81,55.45l4.55-2.64l2.73,1.58l-0.62,0.36l-2.08-1.2l-1.35,0.78l2.01,1.16l-0.61,0.36
				l-2.01-1.16l-1.35,0.79l2.08,1.2l-0.62,0.36L33.81,55.45 M37.79,57.75l4.55-2.64l1.57,0.91c0.94,0.54,1.12,1.09,0.24,1.61
				c-0.82,0.48-1.76,0.33-2.6-0.14l-0.1,0.06l0.07,0.15l-0.65,1.84l-0.83-0.48l0.72-1.93l-0.29-0.17l-2.03,1.18L37.79,57.75
				 M42.02,60.19l4.55-2.64l2.86,1.65l-0.62,0.36l-2.21-1.28l-1.35,0.78l2.08,1.2l-0.61,0.36l-2.08-1.2l-1.97,1.15L42.02,60.19
				 M49.94,64.77l4.55-2.64l1.57,0.91c0.94,0.54,1.12,1.09,0.24,1.61c-0.82,0.48-1.76,0.33-2.6-0.14l-0.1,0.06l0.07,0.15l-0.65,1.84
				l-0.83-0.48l0.72-1.93l-0.29-0.16l-2.03,1.18L49.94,64.77 M57.25,66.78l0.09,0.06l0.29-0.16l2.84-1.09l0.96,0.55l-4.55,2.64
				l-0.62-0.36l3.9-2.27l-0.09-0.05l-0.62,0.32l-2.49,0.91L56.41,67l1.56-1.44l0.55-0.36l-0.1-0.06l-3.9,2.27l-0.62-0.36l4.55-2.64
				l0.96,0.56l-1.87,1.65L57.25,66.78 M47.19,63.29c-1.13-0.65-0.91-1.48,0.64-2.37c1.55-0.9,2.97-1.03,4.1-0.38
				c1.13,0.65,0.91,1.48-0.64,2.38C49.74,63.81,48.32,63.94,47.19,63.29 M43.11,49.95l4.54-2.64l1.57,0.91
				c0.94,0.54,1.13,1.09,0.25,1.61c-0.82,0.48-1.76,0.33-2.61-0.14l-0.1,0.06l0.07,0.15l-0.64,1.84l-0.83-0.48l0.72-1.93l-0.29-0.16
				l-2.03,1.18L43.11,49.95 M51.02,49.94l0.58-0.34l2.98,1.72L54,51.66l-1.17-0.67l-3.37,1.96l1.17,0.67l-0.58,0.34l-2.98-1.72
				l0.58-0.34l1.16,0.67l3.37-1.96L51.02,49.94 M59.13,54.62l0.58-0.34L62.69,56l-0.58,0.34l-1.17-0.67l-3.37,1.96l1.17,0.67
				l-0.58,0.34l-2.98-1.72l0.58-0.34l1.17,0.67l3.37-1.96L59.13,54.62 M62.11,60.18l0.1,0.05l3.9-2.27l0.66,0.38l-4.54,2.64
				l-1.05-0.61l2.15-2.52l0.54-0.44l-0.1-0.06l-3.9,2.27l-0.66-0.38l4.54-2.64l1.05,0.61l-2.15,2.52L62.11,60.18 M40.35,48.48
				c-1.13-0.65-0.9-1.48,0.64-2.38c1.55-0.9,2.97-1.03,4.1-0.38c1.13,0.65,0.91,1.48-0.64,2.38C42.91,48.99,41.48,49.13,40.35,48.48
				 M52.33,55.4c-0.97-0.56-0.7-1.37,0.84-2.26c1.59-0.92,2.98-1.03,4.2-0.32c0.94,0.54,0.89,1.31-0.11,1.89l-0.67-0.39
				c0.67-0.39,0.73-0.82,0.16-1.15c-0.8-0.46-1.67-0.36-2.9,0.36c-1.21,0.71-1.44,1.2-0.74,1.61c0.55,0.32,1.31,0.26,2.16-0.17
				l-1.08-0.62l0.61-0.35l1.7,0.98l-2.35,1.36l-0.66-0.38l1.16-0.48l-0.1-0.06C53.7,55.75,52.95,55.75,52.33,55.4 M51.22,43.03
				l0.1,0.06l3.9-2.27l0.66,0.38l-4.54,2.64l-1.05-0.61l2.15-2.52l0.54-0.44l-0.1-0.05l-3.9,2.27l-0.66-0.38l4.54-2.64l1.05,0.61
				l-2.15,2.52L51.22,43.03 M52.03,44.24l5.87-1.87l1.04,0.6l-3.21,3.41l-0.71-0.41l1.15-1.18l-1.41-0.82l-2.03,0.67L52.03,44.24
				 M59.8,46.51l0.09,0.05l0.29-0.16l2.83-1.09l0.96,0.55l-4.54,2.64l-0.62-0.36l3.9-2.27l-0.1-0.06L62,46.15l-2.49,0.91l-0.57-0.33
				l1.56-1.44l0.54-0.36l-0.1-0.05l-3.9,2.27l-0.62-0.36l4.54-2.64l0.96,0.56l-1.86,1.65L59.8,46.51 M60.68,49.23l4.54-2.64
				l2.73,1.58l-0.61,0.36l-2.08-1.2l-1.35,0.78l2.01,1.16l-0.62,0.36l-2.01-1.16l-1.35,0.78l2.08,1.2l-0.62,0.36L60.68,49.23
				 M101.67,62.24l-47.63-27.5L6.72,62.24l47.63,27.5L101.67,62.24"/>
			<path class="st4" d="M6.72,62.24l47.32-27.5l47.63,27.5l-47.32,27.5L6.72,62.24z M103.16,62.24L54.03,33.87L5.22,62.24
				L54.35,90.6L103.16,62.24"/>
			<polygon class="st4" points="55.88,41.2 55.22,40.82 51.32,43.09 51.22,43.03 51.77,42.59 53.92,40.07 52.87,39.46 48.33,42.1 
				48.98,42.48 52.88,40.21 52.98,40.27 52.43,40.71 50.28,43.23 51.33,43.84 			"/>
			<path class="st4" d="M55.56,43.72l2.06-0.68L58,42.86l0.1,0.06l-0.31,0.23l-1.17,1.19L55.56,43.72z M58.95,42.97l-1.04-0.6
				l-5.87,1.87l0.71,0.41l2.03-0.67l1.41,0.82l-1.15,1.18l0.71,0.41L58.95,42.97"/>
			<polygon class="st4" points="63.98,45.87 63.02,45.32 60.19,46.41 59.89,46.57 59.8,46.51 60.08,46.34 61.94,44.7 60.98,44.14 
				56.43,46.78 57.05,47.14 60.96,44.87 61.05,44.93 60.51,45.29 58.95,46.73 59.52,47.06 62,46.15 62.63,45.84 62.72,45.89 
				58.82,48.16 59.44,48.51 			"/>
			<polygon class="st4" points="67.96,48.17 65.22,46.59 60.68,49.23 63.41,50.81 64.03,50.45 61.95,49.25 63.3,48.47 65.31,49.63 
				65.93,49.27 63.92,48.11 65.27,47.33 67.34,48.53 			"/>
			<path class="st4" d="M40.96,48.12c-0.71-0.41-0.47-0.93,0.71-1.62c1.19-0.69,2.08-0.83,2.8-0.42c0.71,0.41,0.49,0.93-0.71,1.62
				C42.58,48.39,41.68,48.53,40.96,48.12 M45.09,45.72c-1.13-0.65-2.56-0.52-4.1,0.38c-1.54,0.9-1.77,1.72-0.64,2.38
				c1.13,0.65,2.56,0.52,4.1-0.38C46,47.2,46.22,46.37,45.09,45.72"/>
			<path class="st4" d="M46.37,48.82l1.32-0.77l1,0.58c0.47,0.27,0.54,0.56,0.1,0.82c-0.42,0.25-0.94,0.23-1.42-0.05L46.37,48.82
				 M49.22,48.22l-1.57-0.91l-4.54,2.64l0.66,0.38l2.03-1.18l0.29,0.17l-0.72,1.93l0.83,0.48l0.64-1.84l-0.07-0.15l0.1-0.06
				c0.85,0.47,1.78,0.62,2.61,0.14C50.35,49.31,50.16,48.76,49.22,48.22"/>
			<polygon class="st4" points="54.59,51.32 51.61,49.6 51.02,49.94 52.19,50.61 48.81,52.57 47.65,51.9 47.06,52.24 50.05,53.96 
				50.63,53.62 49.46,52.95 52.84,50.99 54,51.66 			"/>
			<path class="st4" d="M57.37,52.81c-1.23-0.71-2.62-0.6-4.2,0.32c-1.54,0.89-1.81,1.7-0.84,2.26c0.62,0.36,1.36,0.36,2.23,0.02
				l0.1,0.06l-1.16,0.48l0.66,0.38l2.35-1.36l-1.7-0.98l-0.61,0.35l1.08,0.62c-0.85,0.43-1.61,0.49-2.16,0.17
				c-0.7-0.4-0.47-0.9,0.74-1.61c1.23-0.71,2.1-0.82,2.9-0.36c0.57,0.33,0.51,0.76-0.16,1.15l0.67,0.39
				C58.26,54.12,58.31,53.35,57.37,52.81"/>
			<polygon class="st4" points="62.69,56 59.71,54.28 59.13,54.62 60.3,55.29 56.92,57.25 55.76,56.58 55.17,56.92 58.15,58.64 
				58.74,58.3 57.57,57.63 60.94,55.67 62.11,56.34 			"/>
			<polygon class="st4" points="66.76,58.35 66.11,57.97 62.21,60.24 62.11,60.18 62.65,59.74 64.81,57.22 63.75,56.61 59.21,59.25 
				59.87,59.63 63.77,57.36 63.86,57.42 63.32,57.86 61.17,60.38 62.22,60.99 			"/>
			<path class="st4" d="M32.91,52.01l1.41-0.82l0.97,0.56c0.5,0.29,0.51,0.62,0.08,0.86c-0.42,0.25-0.99,0.25-1.49-0.04L32.91,52.01
				 M35.91,51.39l-1.63-0.94l-4.55,2.64l0.66,0.38l1.9-1.11l0.97,0.56c0.86,0.5,1.95,0.55,2.78,0.07
				C36.86,52.52,36.77,51.89,35.91,51.39"/>
			<polygon class="st4" points="41.1,54.39 38.36,52.81 33.81,55.45 36.55,57.03 37.17,56.67 35.09,55.47 36.44,54.69 38.45,55.85 
				39.06,55.49 37.05,54.33 38.4,53.55 40.48,54.75 			"/>
			<path class="st4" d="M41.05,56.6l1.32-0.77l1.01,0.58c0.47,0.27,0.53,0.56,0.09,0.82c-0.42,0.25-0.94,0.23-1.41-0.05L41.05,56.6
				 M43.9,56.01l-1.57-0.91l-4.55,2.64l0.65,0.38l2.03-1.18l0.29,0.17l-0.72,1.93l0.83,0.48l0.65-1.84l-0.07-0.15l0.1-0.06
				c0.85,0.47,1.78,0.61,2.6,0.14C45.03,57.1,44.84,56.55,43.9,56.01"/>
			<polygon class="st4" points="49.43,59.2 46.57,57.55 42.02,60.19 42.67,60.57 44.64,59.42 46.72,60.62 47.33,60.27 45.25,59.07 
				46.6,58.28 48.81,59.56 			"/>
			<path class="st4" d="M47.8,62.93c-0.71-0.41-0.48-0.93,0.71-1.62c1.19-0.69,2.09-0.82,2.8-0.41c0.71,0.41,0.49,0.93-0.71,1.62
				C49.42,63.2,48.51,63.34,47.8,62.93 M51.93,60.53c-1.13-0.65-2.56-0.52-4.1,0.38c-1.54,0.9-1.77,1.72-0.63,2.37
				c1.13,0.65,2.56,0.52,4.1-0.38C52.83,62.01,53.06,61.19,51.93,60.53"/>
			<path class="st4" d="M53.21,63.63l1.32-0.77l1,0.58c0.47,0.27,0.53,0.56,0.09,0.82c-0.42,0.25-0.94,0.23-1.41-0.05L53.21,63.63
				 M56.06,63.03l-1.57-0.91l-4.55,2.64l0.66,0.38l2.03-1.18l0.29,0.16l-0.72,1.93l0.83,0.48l0.65-1.84l-0.07-0.15l0.1-0.06
				c0.85,0.47,1.78,0.61,2.6,0.14C57.18,64.12,57,63.57,56.06,63.03"/>
			<polygon class="st4" points="61.44,66.13 60.48,65.58 57.64,66.67 57.35,66.83 57.25,66.78 57.53,66.61 59.4,64.96 58.44,64.4 
				53.89,67.04 54.5,67.4 58.41,65.13 58.51,65.19 57.96,65.55 56.41,67 56.97,67.32 59.46,66.42 60.08,66.1 60.17,66.15 
				56.27,68.42 56.89,68.78 			"/>
			<polygon class="st4" points="60.71,70.01 59.85,69.51 59.01,70 59.87,70.5 			"/>
			<path class="st4" d="M26.36,56.64c-0.98-0.57-2.18-0.61-3.01-0.14c-0.66,0.38-0.69,0.87-0.05,1.41l0.42,0.34
				c0.47,0.39,0.44,0.66,0.09,0.86c-0.44,0.26-1.05,0.23-1.61-0.09c-0.65-0.37-0.61-0.75,0.04-1.13l-0.7-0.4
				c-1.07,0.62-1.03,1.26,0.03,1.87c1,0.58,2.15,0.61,2.97,0.14c0.68-0.39,0.7-0.89,0.06-1.43l-0.4-0.35
				c-0.47-0.39-0.45-0.65-0.11-0.85c0.42-0.25,1.04-0.24,1.63,0.1c0.65,0.37,0.61,0.73-0.03,1.1l0.7,0.4
				C27.43,57.89,27.39,57.23,26.36,56.64"/>
			<path class="st4" d="M31.79,59.88l-0.66-0.38l-3.16,1.83c-0.54,0.32-1.18,0.32-1.71,0.02c-0.53-0.3-0.53-0.68,0.02-1l3.16-1.83
				l-0.66-0.38l-3.16,1.83c-0.89,0.51-0.87,1.22,0.02,1.73c0.88,0.51,2.1,0.52,2.99,0L31.79,59.88"/>
			<path class="st4" d="M34.47,61.32c-0.98-0.57-2.18-0.61-3.01-0.14c-0.66,0.38-0.69,0.87-0.05,1.41l0.42,0.34
				c0.47,0.39,0.44,0.66,0.09,0.86c-0.44,0.26-1.06,0.23-1.61-0.09c-0.65-0.38-0.61-0.75,0.04-1.13l-0.7-0.4
				c-1.07,0.62-1.03,1.26,0.03,1.87c1,0.58,2.15,0.61,2.97,0.14c0.68-0.39,0.7-0.89,0.06-1.43l-0.4-0.35
				c-0.47-0.39-0.45-0.65-0.11-0.85c0.42-0.25,1.04-0.24,1.63,0.1c0.65,0.38,0.61,0.73-0.03,1.1l0.7,0.4
				C35.53,62.57,35.5,61.91,34.47,61.32"/>
			<polygon class="st4" points="40.22,64.75 36.58,62.65 35.96,63.01 37.45,63.87 33.52,66.15 34.18,66.53 38.11,64.25 39.6,65.11 
							"/>
			<path class="st4" d="M39.58,67.09l2.06-0.68l0.39-0.18l0.09,0.06l-0.31,0.23l-1.16,1.19L39.58,67.09z M42.97,66.34l-1.04-0.6
				l-5.88,1.87l0.71,0.41l2.04-0.67l1.41,0.82l-1.15,1.18l0.71,0.41L42.97,66.34"/>
			<polygon class="st4" points="47.99,69.24 45.01,67.52 44.43,67.86 45.59,68.53 42.21,70.49 41.05,69.82 40.46,70.16 43.44,71.88 
				44.03,71.54 42.87,70.87 46.25,68.91 47.41,69.58 			"/>
			<polygon class="st4" points="52.06,71.59 51.4,71.21 47.5,73.47 47.41,73.42 47.95,72.98 50.1,70.46 49.06,69.85 44.51,72.49 
				45.16,72.87 49.06,70.6 49.16,70.66 48.62,71.09 46.46,73.62 47.51,74.23 			"/>
			<polygon class="st4" points="51.33,75.46 50.47,74.96 49.63,75.45 50.49,75.95 			"/>
			<polygon class="st5" points="-12.5,62.26 54.01,23.61 120.88,62.21 54.37,100.87 			"/>
		</g>
	</g>
	<g>
		<g>
			<defs>
				<polygon id="SVGID_35_" points="77.73,68.23 91.47,60.24 105.29,68.23 91.55,76.21 				"/>
			</defs>
			<clipPath id="SVGID_4_">
				<use xlink:href="#SVGID_35_"  style="overflow:visible;"/>
			</clipPath>
			<path class="st6" d="M85.39,71.78c-3.4-1.96-3.42-5.15-0.04-7.12c3.37-1.96,8.89-1.96,12.29,0c3.4,1.96,3.41,5.16,0.04,7.12
				C94.29,73.75,88.78,73.74,85.39,71.78 M98.38,64.23c-3.81-2.2-10-2.2-13.78,0c-3.79,2.2-3.77,5.78,0.04,7.98
				c3.81,2.2,9.99,2.2,13.78,0C102.21,70.02,102.19,66.43,98.38,64.23"/>
		</g>
	</g>
	<g>
		<defs>
			<rect id="SVGID_37_" y="57.73" width="17.14" height="9.93"/>
		</defs>
		<clipPath id="SVGID_5_">
			<use xlink:href="#SVGID_37_"  style="overflow:visible;"/>
		</clipPath>
		<g class="st7">
			<defs>
				<polygon id="SVGID_39_" points="0,62.69 8.54,57.73 17.14,62.7 8.6,67.66 				"/>
			</defs>
			<clipPath id="SVGID_6_">
				<use xlink:href="#SVGID_39_"  style="overflow:visible;"/>
			</clipPath>
			<path class="st8" d="M1.5,62.7l7.05-4.1l7.1,4.1l-7.05,4.1L1.5,62.7z M17.14,62.7l-8.6-4.97L0,62.7l8.6,4.97L17.14,62.7"/>
		</g>
	</g>
</g>
<g>
	<g>
		<g>
			<defs>
				<polygon id="SVGID_41_" points="101.69,28.36 150.5,0 199.63,28.37 150.82,56.73 				"/>
			</defs>
			<clipPath id="SVGID_7_">
				<use xlink:href="#SVGID_41_"  style="overflow:visible;"/>
			</clipPath>
			<path class="st9" d="M138.59,32.41l-0.09-0.05l-0.39,0.18l-2.06,0.68l1.07,0.62l1.16-1.19L138.59,32.41 M131.76,17.88l-0.97-0.56
				l-1.41,0.82l0.97,0.56c0.5,0.29,1.07,0.29,1.49,0.04C132.27,18.49,132.26,18.17,131.76,17.88 M139.84,22.55l-1.01-0.58
				l-1.32,0.77l1.01,0.58c0.48,0.28,0.99,0.29,1.41,0.05C140.38,23.11,140.31,22.82,139.84,22.55 M152,29.57l-1-0.58l-1.32,0.77
				l1,0.58c0.48,0.28,0.99,0.29,1.41,0.05C152.54,30.13,152.47,29.83,152,29.57 M147.78,27.02c-0.71-0.41-1.61-0.28-2.8,0.41
				c-1.19,0.69-1.42,1.21-0.71,1.62c0.71,0.41,1.62,0.28,2.8-0.41C148.26,27.95,148.49,27.43,147.78,27.02 M145.17,14.75l-1-0.58
				l-1.32,0.77l1,0.58c0.48,0.28,1,0.3,1.42,0.05C145.71,15.32,145.63,15.02,145.17,14.75 M140.94,12.2
				c-0.71-0.41-1.61-0.28-2.8,0.42c-1.19,0.69-1.42,1.21-0.71,1.62c0.71,0.41,1.62,0.27,2.8-0.41
				C141.43,13.14,141.65,12.62,140.94,12.2 M154.57,9.04l-0.1-0.06l-0.38,0.18l-2.06,0.68l1.06,0.62l1.17-1.19L154.57,9.04
				 M146.1,41.58l0.84-0.49l0.86,0.5l-0.84,0.49L146.1,41.58 M122.74,27.48c0.53,0.31,1.17,0.3,1.71-0.02l3.16-1.83l0.66,0.38
				l-3.16,1.83c-0.88,0.51-2.1,0.51-2.99,0c-0.89-0.51-0.91-1.22-0.02-1.73l3.16-1.83l0.66,0.38l-3.16,1.83
				C122.21,26.8,122.21,27.18,122.74,27.48 M132.43,29.13l0.62-0.36l3.64,2.1l-0.62,0.36l-1.49-0.86l-3.93,2.28l-0.66-0.38
				l3.93-2.28L132.43,29.13 M132.52,33.74l5.88-1.87l1.04,0.6l-3.21,3.41l-0.71-0.41l1.15-1.18l-1.41-0.82l-2.03,0.67L132.52,33.74
				 M140.9,33.98l0.58-0.34l2.98,1.72l-0.58,0.34l-1.16-0.67L139.34,37l1.16,0.67l-0.58,0.34l-2.98-1.72l0.58-0.34l1.17,0.67
				l3.38-1.96L140.9,33.98 M143.88,39.55l0.09,0.05l3.9-2.27l0.66,0.38l-4.55,2.64l-1.05-0.61l2.16-2.53l0.54-0.43l-0.1-0.06
				l-3.9,2.27l-0.65-0.38l4.55-2.64l1.05,0.6l-2.16,2.53L143.88,39.55 M118.68,25.15c0.56,0.32,1.18,0.35,1.61,0.09
				c0.35-0.2,0.38-0.47-0.09-0.86l-0.42-0.34c-0.64-0.54-0.61-1.03,0.05-1.41c0.82-0.48,2.02-0.43,3,0.14
				c1.03,0.59,1.06,1.25,0.03,1.84l-0.7-0.4c0.64-0.37,0.68-0.73,0.03-1.1c-0.59-0.34-1.21-0.35-1.63-0.1
				c-0.34,0.2-0.36,0.46,0.11,0.85l0.4,0.35c0.63,0.54,0.62,1.03-0.06,1.43c-0.82,0.47-1.96,0.44-2.97-0.14
				c-1.06-0.61-1.1-1.25-0.03-1.87l0.7,0.4C118.06,24.4,118.03,24.78,118.68,25.15 M126.78,29.83c0.56,0.32,1.18,0.35,1.61,0.09
				c0.35-0.2,0.37-0.47-0.09-0.86l-0.42-0.34c-0.64-0.54-0.61-1.03,0.05-1.41c0.82-0.48,2.02-0.43,3.01,0.14
				c1.02,0.59,1.06,1.25,0.03,1.84l-0.7-0.4c0.64-0.37,0.68-0.73,0.03-1.1c-0.59-0.34-1.21-0.35-1.63-0.1
				c-0.34,0.2-0.36,0.46,0.11,0.85l0.4,0.35c0.63,0.54,0.61,1.03-0.06,1.43c-0.82,0.47-1.96,0.44-2.97-0.14
				c-1.06-0.61-1.1-1.25-0.03-1.87l0.7,0.4C126.17,29.08,126.13,29.46,126.78,29.83 M155.48,36.13l0.84-0.49l0.86,0.5l-0.84,0.49
				L155.48,36.13 M126.2,19.22l4.55-2.64l1.63,0.94c0.86,0.5,0.96,1.13,0.13,1.61c-0.82,0.48-1.91,0.43-2.78-0.07l-0.97-0.56
				l-1.9,1.11L126.2,19.22 M130.28,21.58l4.55-2.64l2.73,1.58l-0.62,0.36l-2.08-1.2l-1.35,0.78l2.01,1.16l-0.61,0.36l-2.01-1.16
				l-1.35,0.79l2.08,1.2l-0.62,0.36L130.28,21.58 M134.26,23.87l4.55-2.64l1.57,0.91c0.94,0.54,1.12,1.09,0.24,1.61
				c-0.82,0.48-1.76,0.33-2.6-0.14l-0.1,0.06l0.07,0.15l-0.65,1.84l-0.83-0.48l0.72-1.93l-0.29-0.17l-2.03,1.18L134.26,23.87
				 M138.49,26.32l4.55-2.64l2.86,1.65l-0.62,0.36l-2.21-1.28l-1.35,0.78l2.08,1.2l-0.61,0.36l-2.08-1.2l-1.97,1.15L138.49,26.32
				 M146.41,30.89l4.55-2.64l1.57,0.91c0.94,0.54,1.12,1.09,0.24,1.61c-0.82,0.48-1.76,0.33-2.6-0.14l-0.1,0.06l0.07,0.15
				l-0.65,1.84l-0.83-0.48l0.72-1.93l-0.29-0.16l-2.03,1.18L146.41,30.89 M153.73,32.9l0.09,0.06l0.29-0.16l2.84-1.09l0.96,0.55
				l-4.55,2.64l-0.62-0.36l3.9-2.27l-0.09-0.05l-0.62,0.32l-2.49,0.91l-0.57-0.33l1.56-1.44l0.55-0.36l-0.1-0.06l-3.9,2.27
				l-0.62-0.36l4.55-2.64l0.96,0.56L154,32.73L153.73,32.9 M143.66,29.41c-1.13-0.65-0.91-1.48,0.64-2.37
				c1.55-0.9,2.97-1.03,4.1-0.38c1.13,0.65,0.91,1.48-0.64,2.38C146.21,29.93,144.79,30.06,143.66,29.41 M139.58,16.08l4.54-2.64
				l1.57,0.91c0.94,0.54,1.13,1.09,0.25,1.61c-0.82,0.48-1.76,0.33-2.61-0.14l-0.1,0.06l0.07,0.15l-0.64,1.84l-0.83-0.48l0.72-1.93
				l-0.29-0.16l-2.03,1.18L139.58,16.08 M147.49,16.06l0.58-0.34l2.98,1.72l-0.58,0.34l-1.17-0.67l-3.37,1.96l1.17,0.67l-0.58,0.34
				l-2.98-1.72l0.58-0.34l1.16,0.67l3.37-1.96L147.49,16.06 M155.6,20.74l0.58-0.34l2.98,1.72l-0.58,0.34l-1.17-0.67l-3.37,1.96
				l1.17,0.67l-0.58,0.34l-2.98-1.72l0.58-0.34l1.17,0.67l3.37-1.96L155.6,20.74 M158.58,26.31l0.1,0.05l3.9-2.27l0.66,0.38
				l-4.54,2.64l-1.05-0.61l2.15-2.52l0.54-0.44l-0.1-0.06l-3.9,2.27l-0.66-0.38l4.54-2.64l1.05,0.61l-2.15,2.52L158.58,26.31
				 M136.82,14.6c-1.13-0.65-0.9-1.48,0.64-2.38c1.55-0.9,2.97-1.03,4.1-0.38c1.13,0.65,0.91,1.48-0.64,2.38
				C139.38,15.12,137.95,15.26,136.82,14.6 M148.8,21.52c-0.97-0.56-0.7-1.37,0.84-2.26c1.59-0.92,2.98-1.03,4.2-0.32
				c0.94,0.54,0.89,1.31-0.11,1.89l-0.67-0.39c0.67-0.39,0.73-0.82,0.16-1.15c-0.8-0.46-1.67-0.36-2.9,0.36
				c-1.21,0.71-1.44,1.2-0.74,1.61c0.55,0.32,1.31,0.26,2.16-0.17l-1.08-0.62l0.61-0.35l1.7,0.98l-2.35,1.36l-0.66-0.38l1.16-0.48
				l-0.1-0.06C150.17,21.88,149.42,21.88,148.8,21.52 M147.69,9.15l0.1,0.06l3.9-2.27l0.66,0.38l-4.54,2.64l-1.05-0.61l2.15-2.52
				l0.54-0.44l-0.1-0.05l-3.9,2.27l-0.66-0.38l4.54-2.64l1.05,0.61l-2.15,2.52L147.69,9.15 M148.5,10.37l5.87-1.87l1.04,0.6
				l-3.21,3.41l-0.71-0.41l1.15-1.18l-1.41-0.82l-2.03,0.67L148.5,10.37 M156.27,12.64l0.09,0.05l0.29-0.16l2.83-1.09l0.96,0.55
				l-4.54,2.64l-0.62-0.36l3.9-2.27l-0.1-0.06l-0.62,0.32l-2.49,0.91l-0.57-0.33l1.56-1.44l0.54-0.36l-0.1-0.05l-3.9,2.27
				l-0.62-0.36l4.54-2.64l0.96,0.56l-1.86,1.65L156.27,12.64 M157.15,15.36l4.54-2.64l2.73,1.58l-0.61,0.36l-2.08-1.2l-1.35,0.78
				l2.01,1.16l-0.62,0.36l-2.01-1.16l-1.35,0.78l2.08,1.2l-0.62,0.36L157.15,15.36 M198.14,28.36l-47.63-27.5l-47.32,27.5
				l47.63,27.5L198.14,28.36"/>
			<path class="st10" d="M103.19,28.36l47.32-27.5l47.63,27.5l-47.32,27.5L103.19,28.36z M199.63,28.37L150.5,0l-48.81,28.36
				l49.13,28.37L199.63,28.37"/>
			<polygon class="st10" points="152.35,7.32 151.69,6.94 147.79,9.21 147.69,9.15 148.24,8.72 150.39,6.19 149.34,5.59 144.8,8.23 
				145.45,8.6 149.35,6.34 149.45,6.39 148.9,6.83 146.75,9.35 147.8,9.96 			"/>
			<path class="st10" d="M152.03,9.85l2.06-0.68l0.38-0.18l0.1,0.06l-0.31,0.23l-1.17,1.19L152.03,9.85z M155.42,9.1l-1.04-0.6
				l-5.87,1.87l0.71,0.41l2.03-0.67l1.41,0.82l-1.15,1.18l0.71,0.41L155.42,9.1"/>
			<polygon class="st10" points="160.45,12 159.49,11.45 156.66,12.53 156.36,12.69 156.27,12.64 156.55,12.47 158.41,10.82 
				157.45,10.27 152.9,12.91 153.52,13.27 157.43,11 157.52,11.05 156.98,11.42 155.42,12.86 155.99,13.18 158.47,12.28 
				159.1,11.96 159.19,12.02 155.29,14.29 155.91,14.64 			"/>
			<polygon class="st10" points="164.43,14.3 161.69,12.72 157.15,15.36 159.88,16.94 160.5,16.58 158.42,15.38 159.77,14.6 
				161.78,15.76 162.4,15.4 160.39,14.24 161.74,13.45 163.81,14.65 			"/>
			<path class="st10" d="M137.44,14.24c-0.71-0.41-0.47-0.93,0.71-1.62c1.19-0.69,2.08-0.83,2.8-0.42c0.71,0.41,0.49,0.93-0.71,1.62
				C139.05,14.52,138.15,14.65,137.44,14.24 M141.56,11.85c-1.13-0.65-2.56-0.52-4.1,0.38c-1.54,0.9-1.77,1.72-0.64,2.38
				c1.13,0.65,2.56,0.52,4.1-0.38C142.47,13.32,142.69,12.5,141.56,11.85"/>
			<path class="st10" d="M142.85,14.94l1.32-0.77l1,0.58c0.47,0.27,0.54,0.56,0.1,0.82c-0.42,0.25-0.94,0.23-1.42-0.05L142.85,14.94
				 M145.69,14.35l-1.57-0.91l-4.54,2.64l0.66,0.38l2.03-1.18l0.29,0.17l-0.72,1.93l0.83,0.48l0.64-1.84l-0.07-0.15l0.1-0.06
				c0.85,0.47,1.78,0.62,2.61,0.14C146.82,15.44,146.63,14.89,145.69,14.35"/>
			<polygon class="st10" points="151.06,17.44 148.08,15.72 147.49,16.06 148.66,16.74 145.28,18.7 144.12,18.02 143.54,18.36 
				146.52,20.08 147.1,19.74 145.93,19.07 149.31,17.11 150.47,17.78 			"/>
			<path class="st10" d="M153.84,18.94c-1.23-0.71-2.62-0.6-4.2,0.32c-1.54,0.89-1.81,1.7-0.84,2.26c0.62,0.36,1.36,0.36,2.23,0.02
				l0.1,0.06l-1.16,0.48l0.66,0.38l2.35-1.36l-1.7-0.98l-0.61,0.35l1.08,0.62c-0.85,0.43-1.61,0.49-2.16,0.17
				c-0.7-0.4-0.47-0.9,0.74-1.61c1.23-0.71,2.1-0.82,2.9-0.36c0.57,0.33,0.51,0.76-0.16,1.15l0.67,0.39
				C154.73,20.25,154.78,19.48,153.84,18.94"/>
			<polygon class="st10" points="159.17,22.13 156.18,20.4 155.6,20.74 156.77,21.42 153.39,23.38 152.23,22.7 151.64,23.04 
				154.62,24.77 155.21,24.43 154.04,23.75 157.42,21.79 158.58,22.47 			"/>
			<polygon class="st10" points="163.23,24.47 162.58,24.1 158.68,26.36 158.58,26.31 159.12,25.87 161.28,23.34 160.22,22.74 
				155.68,25.38 156.34,25.76 160.24,23.49 160.34,23.54 159.79,23.98 157.64,26.51 158.69,27.11 			"/>
			<path class="st10" d="M129.38,18.13l1.41-0.82l0.97,0.56c0.5,0.29,0.51,0.62,0.08,0.86c-0.42,0.25-0.99,0.25-1.49-0.04
				L129.38,18.13 M132.38,17.52l-1.63-0.94l-4.55,2.64l0.66,0.38l1.9-1.11l0.97,0.56c0.86,0.5,1.95,0.55,2.78,0.07
				C133.33,18.65,133.24,18.02,132.38,17.52"/>
			<polygon class="st10" points="137.57,20.51 134.83,18.94 130.28,21.58 133.02,23.16 133.64,22.8 131.56,21.6 132.91,20.81 
				134.92,21.97 135.53,21.62 133.52,20.46 134.87,19.67 136.95,20.87 			"/>
			<path class="st10" d="M137.52,22.73l1.32-0.77l1.01,0.58c0.47,0.27,0.53,0.56,0.09,0.82c-0.42,0.25-0.94,0.23-1.41-0.05
				L137.52,22.73 M140.37,22.14l-1.57-0.91l-4.55,2.64l0.65,0.38l2.03-1.18l0.29,0.17l-0.72,1.93l0.83,0.48l0.65-1.84l-0.07-0.15
				l0.1-0.06c0.85,0.47,1.78,0.61,2.6,0.14C141.5,23.23,141.31,22.68,140.37,22.14"/>
			<polygon class="st10" points="145.9,25.33 143.04,23.68 138.49,26.32 139.14,26.69 141.11,25.55 143.19,26.75 143.8,26.39 
				141.72,25.19 143.07,24.41 145.29,25.69 			"/>
			<path class="st10" d="M144.27,29.05c-0.71-0.41-0.48-0.93,0.71-1.62c1.19-0.69,2.09-0.82,2.8-0.41c0.71,0.41,0.49,0.93-0.71,1.62
				C145.89,29.33,144.98,29.47,144.27,29.05 M148.4,26.66c-1.13-0.65-2.56-0.52-4.1,0.38c-1.54,0.9-1.77,1.72-0.63,2.37
				c1.13,0.65,2.56,0.52,4.1-0.38C149.3,28.14,149.53,27.31,148.4,26.66"/>
			<path class="st10" d="M149.68,29.75l1.32-0.77l1,0.58c0.47,0.27,0.53,0.56,0.09,0.82c-0.42,0.25-0.94,0.23-1.41-0.05
				L149.68,29.75 M152.53,29.15l-1.57-0.91l-4.55,2.64l0.66,0.38l2.03-1.18l0.29,0.16l-0.72,1.93l0.83,0.48l0.65-1.84l-0.07-0.15
				l0.1-0.06c0.85,0.47,1.78,0.61,2.6,0.14C153.65,30.25,153.47,29.7,152.53,29.15"/>
			<polygon class="st10" points="157.91,32.26 156.95,31.71 154.11,32.79 153.82,32.96 153.72,32.9 154,32.73 155.87,31.08 
				154.91,30.53 150.36,33.17 150.98,33.52 154.88,31.26 154.98,31.32 154.43,31.68 152.88,33.12 153.44,33.45 155.93,32.54 
				156.55,32.22 156.64,32.28 152.74,34.54 153.36,34.9 			"/>
			<polygon class="st10" points="157.18,36.14 156.32,35.64 155.48,36.13 156.34,36.62 			"/>
			<path class="st10" d="M122.84,22.77c-0.98-0.57-2.18-0.61-3.01-0.14c-0.66,0.38-0.69,0.87-0.05,1.41l0.42,0.34
				c0.47,0.39,0.44,0.66,0.09,0.86c-0.44,0.26-1.05,0.23-1.61-0.09c-0.65-0.37-0.61-0.75,0.04-1.13l-0.7-0.4
				c-1.07,0.62-1.03,1.26,0.03,1.87c1,0.58,2.15,0.61,2.97,0.14c0.68-0.39,0.7-0.89,0.06-1.43l-0.4-0.35
				c-0.47-0.39-0.45-0.65-0.11-0.85c0.42-0.25,1.04-0.24,1.63,0.1c0.65,0.37,0.61,0.73-0.03,1.1l0.7,0.4
				C123.9,24.01,123.86,23.36,122.84,22.77"/>
			<path class="st10" d="M128.26,26.01l-0.66-0.38l-3.16,1.83c-0.54,0.32-1.18,0.32-1.71,0.02c-0.53-0.3-0.53-0.68,0.02-1l3.16-1.83
				l-0.66-0.38l-3.16,1.83c-0.89,0.51-0.87,1.22,0.02,1.73c0.88,0.51,2.1,0.52,2.99,0L128.26,26.01"/>
			<path class="st10" d="M130.94,27.45c-0.98-0.57-2.18-0.61-3.01-0.14c-0.66,0.38-0.69,0.87-0.05,1.41l0.42,0.34
				c0.47,0.39,0.44,0.66,0.09,0.86c-0.44,0.26-1.06,0.23-1.61-0.09c-0.65-0.38-0.61-0.75,0.04-1.13l-0.7-0.4
				c-1.07,0.62-1.03,1.26,0.03,1.87c1,0.58,2.15,0.61,2.97,0.14c0.68-0.39,0.7-0.89,0.06-1.43l-0.4-0.35
				c-0.47-0.39-0.45-0.65-0.11-0.85c0.42-0.25,1.04-0.24,1.63,0.1c0.65,0.38,0.61,0.73-0.03,1.1l0.7,0.4
				C132,28.69,131.97,28.04,130.94,27.45"/>
			<polygon class="st10" points="136.69,30.87 133.05,28.77 132.43,29.13 133.92,29.99 129.99,32.28 130.65,32.66 134.58,30.37 
				136.07,31.23 			"/>
			<path class="st10" d="M136.05,33.21l2.06-0.68l0.39-0.18l0.09,0.06l-0.31,0.23l-1.16,1.19L136.05,33.21z M139.44,32.46l-1.04-0.6
				l-5.88,1.87l0.71,0.41l2.04-0.67l1.41,0.82l-1.15,1.18l0.71,0.41L139.44,32.46"/>
			<polygon class="st10" points="144.46,35.36 141.48,33.64 140.9,33.98 142.06,34.65 138.68,36.62 137.52,35.95 136.93,36.28 
				139.91,38.01 140.5,37.67 139.34,37 142.72,35.03 143.88,35.7 			"/>
			<polygon class="st10" points="148.53,37.71 147.87,37.33 143.97,39.6 143.88,39.55 144.42,39.11 146.58,36.58 145.53,35.98 
				140.98,38.62 141.63,38.99 145.53,36.73 145.63,36.79 145.09,37.22 142.93,39.75 143.98,40.35 			"/>
			<polygon class="st10" points="147.8,41.59 146.94,41.09 146.1,41.58 146.96,42.08 			"/>
			<polygon class="st11" points="83.97,28.39 150.48,-10.26 217.35,28.34 150.84,66.99 			"/>
		</g>
	</g>
	<g>
		<g>
			<defs>
				<polygon id="SVGID_43_" points="174.2,34.35 187.94,26.37 201.76,34.35 188.03,42.33 				"/>
			</defs>
			<clipPath id="SVGID_8_">
				<use xlink:href="#SVGID_43_"  style="overflow:visible;"/>
			</clipPath>
			<path class="st12" d="M181.86,37.91c-3.4-1.96-3.42-5.15-0.04-7.12c3.37-1.96,8.89-1.96,12.29,0c3.4,1.96,3.41,5.16,0.04,7.12
				C190.76,39.87,185.25,39.87,181.86,37.91 M194.85,30.36c-3.81-2.2-10-2.2-13.78,0c-3.79,2.2-3.77,5.78,0.04,7.98
				c3.81,2.2,9.99,2.2,13.78,0C198.68,36.14,198.66,32.56,194.85,30.36"/>
		</g>
	</g>
	<g>
		<defs>
			<rect id="SVGID_45_" x="96.47" y="23.86" width="17.14" height="9.93"/>
		</defs>
		<clipPath id="SVGID_9_">
			<use xlink:href="#SVGID_45_"  style="overflow:visible;"/>
		</clipPath>
		<g class="st13">
			<defs>
				<polygon id="SVGID_47_" points="96.47,28.82 105.01,23.86 113.61,28.82 105.07,33.79 				"/>
			</defs>
			<clipPath id="SVGID_10_">
				<use xlink:href="#SVGID_47_"  style="overflow:visible;"/>
			</clipPath>
			<path class="st14" d="M97.97,28.82l7.05-4.1l7.1,4.1l-7.05,4.1L97.97,28.82z M113.61,28.82l-8.6-4.97l-8.54,4.96l8.6,4.97
				L113.61,28.82"/>
		</g>
	</g>
</g>
<g>
	<g>
		<g>
			<defs>
				<polygon id="SVGID_49_" points="169.71,112.91 218.51,84.55 267.64,112.92 218.84,141.28 				"/>
			</defs>
			<clipPath id="SVGID_11_">
				<use xlink:href="#SVGID_49_"  style="overflow:visible;"/>
			</clipPath>
			<path class="st15" d="M206.61,116.96l-0.09-0.05l-0.39,0.18l-2.06,0.68l1.07,0.62l1.16-1.19L206.61,116.96 M199.78,102.43
				l-0.97-0.56l-1.41,0.82l0.97,0.56c0.5,0.29,1.07,0.29,1.49,0.04C200.28,103.04,200.28,102.72,199.78,102.43 M207.86,107.1
				l-1.01-0.58l-1.32,0.77l1.01,0.58c0.48,0.28,0.99,0.29,1.41,0.05C208.4,107.66,208.33,107.37,207.86,107.1 M220.02,114.12
				l-1-0.58l-1.32,0.77l1,0.58c0.48,0.28,0.99,0.29,1.41,0.05C220.55,114.68,220.49,114.39,220.02,114.12 M215.8,111.57
				c-0.71-0.41-1.61-0.28-2.8,0.41c-1.19,0.69-1.42,1.21-0.71,1.62c0.71,0.41,1.62,0.28,2.8-0.41
				C216.28,112.5,216.51,111.98,215.8,111.57 M213.19,99.3l-1-0.58l-1.32,0.77l1,0.58c0.48,0.28,1,0.3,1.42,0.05
				C213.73,99.87,213.65,99.57,213.19,99.3 M208.96,96.76c-0.71-0.41-1.61-0.28-2.8,0.42c-1.19,0.69-1.42,1.21-0.71,1.62
				c0.71,0.41,1.62,0.27,2.8-0.41C209.45,97.69,209.67,97.17,208.96,96.76 M222.59,93.59l-0.1-0.06l-0.38,0.18l-2.06,0.68l1.06,0.62
				l1.17-1.19L222.59,93.59 M214.12,126.13l0.84-0.49l0.86,0.5l-0.84,0.49L214.12,126.13 M190.76,112.03
				c0.53,0.31,1.17,0.3,1.71-0.02l3.16-1.83l0.66,0.38l-3.16,1.83c-0.88,0.51-2.1,0.51-2.99,0c-0.89-0.51-0.91-1.22-0.02-1.73
				l3.16-1.83l0.66,0.38l-3.16,1.83C190.23,111.36,190.23,111.73,190.76,112.03 M200.45,113.68l0.62-0.36l3.64,2.1l-0.62,0.36
				l-1.49-0.86l-3.93,2.28l-0.66-0.38l3.93-2.28L200.45,113.68 M200.54,118.29l5.88-1.87l1.04,0.6l-3.21,3.41l-0.71-0.41l1.15-1.18
				l-1.41-0.82l-2.03,0.67L200.54,118.29 M208.92,118.53l0.58-0.34l2.98,1.72l-0.58,0.34l-1.16-0.67l-3.38,1.96l1.16,0.67
				l-0.58,0.34l-2.98-1.72l0.58-0.34l1.17,0.67l3.38-1.96L208.92,118.53 M211.9,124.1l0.09,0.05l3.9-2.27l0.66,0.38l-4.55,2.64
				l-1.05-0.61l2.16-2.53l0.54-0.43l-0.1-0.06l-3.9,2.27l-0.65-0.38l4.55-2.64l1.05,0.6l-2.16,2.53L211.9,124.1 M186.69,109.7
				c0.56,0.32,1.18,0.35,1.61,0.09c0.35-0.2,0.38-0.47-0.09-0.86l-0.42-0.34c-0.64-0.54-0.61-1.03,0.05-1.41
				c0.82-0.48,2.02-0.43,3,0.14c1.03,0.59,1.06,1.25,0.03,1.84l-0.7-0.4c0.64-0.37,0.68-0.73,0.03-1.1
				c-0.59-0.34-1.21-0.35-1.63-0.1c-0.34,0.2-0.36,0.46,0.11,0.85l0.4,0.35c0.63,0.54,0.62,1.03-0.06,1.43
				c-0.82,0.47-1.96,0.44-2.97-0.14c-1.06-0.61-1.1-1.25-0.03-1.87l0.7,0.4C186.08,108.95,186.04,109.33,186.69,109.7 M194.8,114.38
				c0.56,0.32,1.18,0.35,1.61,0.09c0.35-0.2,0.37-0.47-0.09-0.86l-0.42-0.34c-0.64-0.54-0.61-1.03,0.05-1.41
				c0.82-0.48,2.02-0.43,3.01,0.14c1.02,0.59,1.06,1.25,0.03,1.84l-0.7-0.4c0.64-0.37,0.68-0.73,0.03-1.1
				c-0.59-0.34-1.21-0.35-1.63-0.1c-0.34,0.2-0.36,0.46,0.11,0.85l0.4,0.35c0.63,0.54,0.61,1.03-0.06,1.43
				c-0.82,0.47-1.96,0.44-2.97-0.14c-1.06-0.61-1.1-1.25-0.03-1.87l0.7,0.4C194.19,113.63,194.15,114.01,194.8,114.38 M223.5,120.68
				l0.84-0.49l0.86,0.5l-0.84,0.49L223.5,120.68 M194.22,103.77l4.55-2.64l1.63,0.94c0.86,0.5,0.96,1.13,0.13,1.61
				c-0.82,0.48-1.91,0.43-2.78-0.07l-0.97-0.56l-1.9,1.11L194.22,103.77 M198.3,106.13l4.55-2.64l2.73,1.58l-0.62,0.36l-2.08-1.2
				l-1.35,0.78l2.01,1.16l-0.61,0.36l-2.01-1.16l-1.35,0.79l2.08,1.2l-0.62,0.36L198.3,106.13 M202.27,108.42l4.55-2.64l1.57,0.91
				c0.94,0.54,1.12,1.09,0.24,1.61c-0.82,0.48-1.76,0.33-2.6-0.14l-0.1,0.06l0.07,0.15l-0.65,1.84l-0.83-0.48l0.72-1.93l-0.29-0.17
				l-2.03,1.18L202.27,108.42 M206.51,110.87l4.55-2.64l2.86,1.65l-0.62,0.36l-2.21-1.28l-1.35,0.78l2.08,1.2l-0.61,0.36l-2.08-1.2
				l-1.97,1.15L206.51,110.87 M214.43,115.44l4.55-2.64l1.57,0.91c0.94,0.54,1.12,1.09,0.24,1.61c-0.82,0.48-1.76,0.33-2.6-0.14
				l-0.1,0.06l0.07,0.15l-0.65,1.84l-0.83-0.48l0.72-1.93l-0.29-0.16l-2.03,1.18L214.43,115.44 M221.74,117.45l0.09,0.06l0.29-0.16
				l2.84-1.09l0.96,0.55l-4.55,2.64l-0.62-0.36l3.9-2.27l-0.09-0.05l-0.62,0.32l-2.49,0.91l-0.57-0.33l1.56-1.44l0.55-0.36
				l-0.1-0.06l-3.9,2.27l-0.62-0.36l4.55-2.64l0.96,0.56l-1.87,1.65L221.74,117.45 M211.68,113.96c-1.13-0.65-0.91-1.48,0.64-2.37
				c1.55-0.9,2.97-1.03,4.1-0.38c1.13,0.65,0.91,1.48-0.64,2.38C214.23,114.48,212.81,114.62,211.68,113.96 M207.6,100.63l4.54-2.64
				l1.57,0.91c0.94,0.54,1.13,1.09,0.25,1.61c-0.82,0.48-1.76,0.33-2.61-0.14l-0.1,0.06l0.07,0.15l-0.64,1.84l-0.83-0.48l0.72-1.93
				l-0.29-0.16l-2.03,1.18L207.6,100.63 M215.51,100.61l0.58-0.34l2.98,1.72l-0.58,0.34l-1.17-0.67l-3.37,1.96l1.17,0.67l-0.58,0.34
				l-2.98-1.72l0.58-0.34l1.16,0.67l3.37-1.96L215.51,100.61 M223.62,105.3l0.58-0.34l2.98,1.72l-0.58,0.34l-1.17-0.67l-3.37,1.96
				l1.17,0.67l-0.58,0.34l-2.98-1.72l0.58-0.34l1.17,0.67l3.37-1.96L223.62,105.3 M226.6,110.86l0.1,0.05l3.9-2.27l0.66,0.38
				l-4.54,2.64l-1.05-0.61l2.15-2.52l0.54-0.44l-0.1-0.06l-3.9,2.27l-0.66-0.38l4.54-2.64l1.05,0.61l-2.15,2.52L226.6,110.86
				 M204.84,99.15c-1.13-0.65-0.9-1.48,0.64-2.38c1.55-0.9,2.97-1.03,4.1-0.38c1.13,0.65,0.91,1.48-0.64,2.38
				C207.4,99.67,205.97,99.81,204.84,99.15 M216.82,106.07c-0.97-0.56-0.7-1.37,0.84-2.26c1.59-0.92,2.98-1.03,4.2-0.32
				c0.94,0.54,0.89,1.31-0.11,1.89l-0.67-0.39c0.67-0.39,0.73-0.82,0.16-1.15c-0.8-0.46-1.67-0.36-2.9,0.36
				c-1.21,0.71-1.44,1.2-0.74,1.61c0.55,0.32,1.31,0.26,2.16-0.17l-1.08-0.62l0.61-0.35l1.7,0.98l-2.35,1.36l-0.66-0.38l1.16-0.48
				l-0.1-0.06C218.18,106.43,217.44,106.43,216.82,106.07 M215.71,93.7l0.1,0.06l3.9-2.27l0.66,0.38l-4.54,2.64l-1.05-0.61
				l2.15-2.52l0.54-0.44l-0.1-0.05l-3.9,2.27l-0.66-0.38l4.54-2.64l1.05,0.61l-2.15,2.52L215.71,93.7 M216.52,94.92l5.87-1.87
				l1.04,0.6l-3.21,3.41l-0.71-0.41l1.15-1.18l-1.41-0.82l-2.03,0.67L216.52,94.92 M224.29,97.19l0.09,0.05l0.29-0.16l2.83-1.09
				l0.96,0.55l-4.54,2.64l-0.62-0.36l3.9-2.27l-0.1-0.06l-0.62,0.32l-2.49,0.91l-0.57-0.33l1.56-1.44l0.54-0.36l-0.1-0.05l-3.9,2.27
				l-0.62-0.36l4.54-2.64l0.96,0.56l-1.86,1.65L224.29,97.19 M225.17,99.91l4.54-2.64l2.73,1.58l-0.61,0.36l-2.08-1.2l-1.35,0.78
				l2.01,1.16l-0.62,0.36l-2.01-1.16l-1.35,0.78l2.08,1.2l-0.62,0.36L225.17,99.91 M266.15,112.91l-47.63-27.5l-47.32,27.5
				l47.63,27.5L266.15,112.91"/>
			<path class="st16" d="M171.2,112.91l47.32-27.5l47.63,27.5l-47.32,27.5L171.2,112.91z M267.65,112.92l-49.13-28.37l-48.81,28.36
				l49.13,28.37L267.65,112.92"/>
			<polygon class="st16" points="220.36,91.87 219.71,91.5 215.81,93.76 215.71,93.7 216.26,93.27 218.41,90.75 217.36,90.14 
				212.81,92.78 213.47,93.16 217.37,90.89 217.47,90.94 216.92,91.38 214.77,93.91 215.82,94.51 			"/>
			<path class="st16" d="M220.04,94.4l2.06-0.68l0.38-0.18l0.1,0.06l-0.31,0.23l-1.17,1.19L220.04,94.4z M223.43,93.65l-1.04-0.6
				l-5.87,1.87l0.71,0.41l2.03-0.67l1.41,0.82l-1.15,1.18l0.71,0.41L223.43,93.65"/>
			<polygon class="st16" points="228.47,96.55 227.51,96 224.68,97.09 224.38,97.24 224.29,97.19 224.57,97.02 226.43,95.37 
				225.46,94.82 220.92,97.46 221.54,97.82 225.44,95.55 225.54,95.6 224.99,95.97 223.44,97.41 224.01,97.74 226.49,96.83 
				227.11,96.51 227.21,96.57 223.31,98.84 223.92,99.19 			"/>
			<polygon class="st16" points="232.44,98.85 229.71,97.27 225.17,99.91 227.9,101.49 228.52,101.13 226.44,99.93 227.79,99.15 
				229.8,100.31 230.42,99.95 228.41,98.79 229.75,98 231.83,99.2 			"/>
			<path class="st16" d="M205.45,98.79c-0.71-0.41-0.47-0.93,0.71-1.62c1.19-0.69,2.08-0.83,2.8-0.42c0.71,0.41,0.49,0.93-0.71,1.62
				C207.07,99.07,206.16,99.21,205.45,98.79 M209.58,96.4c-1.13-0.65-2.56-0.52-4.1,0.38c-1.54,0.9-1.77,1.72-0.64,2.38
				c1.13,0.65,2.56,0.52,4.1-0.38C210.49,97.88,210.71,97.05,209.58,96.4"/>
			<path class="st16" d="M210.86,99.49l1.32-0.77l1,0.58c0.47,0.27,0.54,0.56,0.1,0.82c-0.42,0.25-0.94,0.23-1.42-0.05L210.86,99.49
				 M213.71,98.9l-1.57-0.91l-4.54,2.64l0.66,0.38l2.03-1.18l0.29,0.17l-0.72,1.93l0.83,0.48l0.64-1.84l-0.07-0.15l0.1-0.06
				c0.85,0.47,1.78,0.62,2.61,0.14C214.84,99.99,214.65,99.44,213.71,98.9"/>
			<polygon class="st16" points="219.08,102 216.1,100.28 215.51,100.61 216.68,101.29 213.3,103.25 212.14,102.58 211.55,102.91 
				214.53,104.64 215.12,104.3 213.95,103.62 217.33,101.66 218.49,102.34 			"/>
			<path class="st16" d="M221.86,103.49c-1.23-0.71-2.62-0.6-4.2,0.32c-1.54,0.89-1.81,1.7-0.84,2.26c0.62,0.36,1.36,0.36,2.23,0.02
				l0.1,0.06l-1.16,0.48l0.66,0.38l2.35-1.36l-1.7-0.98l-0.61,0.35l1.08,0.62c-0.85,0.43-1.61,0.49-2.16,0.17
				c-0.7-0.4-0.47-0.9,0.74-1.61c1.23-0.71,2.1-0.82,2.9-0.36c0.57,0.33,0.51,0.76-0.16,1.15l0.67,0.39
				C222.75,104.8,222.8,104.03,221.86,103.49"/>
			<polygon class="st16" points="227.18,106.68 224.2,104.96 223.62,105.3 224.78,105.97 221.41,107.93 220.24,107.26 219.66,107.6 
				222.64,109.32 223.23,108.98 222.06,108.3 225.43,106.34 226.6,107.02 			"/>
			<polygon class="st16" points="231.25,109.03 230.6,108.65 226.69,110.91 226.6,110.86 227.14,110.42 229.3,107.9 228.24,107.29 
				223.7,109.93 224.36,110.31 228.26,108.04 228.35,108.09 227.81,108.53 225.66,111.06 226.71,111.67 			"/>
			<path class="st16" d="M197.39,102.69l1.41-0.82l0.97,0.56c0.5,0.29,0.51,0.62,0.08,0.86c-0.42,0.25-0.99,0.25-1.49-0.04
				L197.39,102.69 M200.4,102.07l-1.63-0.94l-4.55,2.64l0.66,0.38l1.9-1.11l0.97,0.56c0.86,0.5,1.95,0.55,2.78,0.07
				C201.35,103.2,201.26,102.57,200.4,102.07"/>
			<polygon class="st16" points="205.58,105.07 202.85,103.49 198.3,106.13 201.04,107.71 201.65,107.35 199.57,106.15 
				200.93,105.36 202.94,106.53 203.55,106.17 201.54,105.01 202.89,104.23 204.97,105.43 			"/>
			<path class="st16" d="M205.54,107.28l1.32-0.77l1.01,0.58c0.47,0.27,0.53,0.56,0.09,0.82c-0.42,0.25-0.94,0.23-1.41-0.05
				L205.54,107.28 M208.39,106.69l-1.57-0.91l-4.55,2.64l0.65,0.38l2.03-1.18l0.29,0.17l-0.72,1.93l0.83,0.48l0.65-1.84l-0.07-0.15
				l0.1-0.06c0.85,0.47,1.78,0.61,2.6,0.14C209.51,107.78,209.33,107.23,208.39,106.69"/>
			<polygon class="st16" points="213.92,109.88 211.06,108.23 206.51,110.87 207.16,111.24 209.13,110.1 211.21,111.3 
				211.82,110.94 209.74,109.74 211.09,108.96 213.3,110.24 			"/>
			<path class="st16" d="M212.29,113.61c-0.71-0.41-0.48-0.93,0.71-1.62c1.19-0.69,2.09-0.82,2.8-0.41
				c0.71,0.41,0.49,0.93-0.71,1.62C213.9,113.88,213,114.02,212.29,113.61 M216.41,111.21c-1.13-0.65-2.56-0.52-4.1,0.38
				c-1.54,0.9-1.77,1.72-0.63,2.37c1.13,0.65,2.56,0.52,4.1-0.38C217.32,112.69,217.55,111.86,216.41,111.21"/>
			<path class="st16" d="M217.7,114.3l1.32-0.77l1,0.58c0.47,0.27,0.53,0.56,0.09,0.82c-0.42,0.25-0.94,0.23-1.41-0.05L217.7,114.3
				 M220.55,113.71l-1.57-0.91l-4.55,2.64l0.66,0.38l2.03-1.18l0.29,0.16l-0.72,1.93l0.83,0.48l0.65-1.84l-0.07-0.15l0.1-0.06
				c0.85,0.47,1.78,0.61,2.6,0.14C221.67,114.8,221.49,114.25,220.55,113.71"/>
			<polygon class="st16" points="225.93,116.81 224.97,116.26 222.13,117.35 221.84,117.51 221.74,117.45 222.02,117.28 
				223.89,115.63 222.92,115.08 218.38,117.72 218.99,118.08 222.89,115.81 223,115.87 222.45,116.23 220.9,117.67 221.46,118 
				223.95,117.09 224.57,116.78 224.66,116.83 220.76,119.1 221.38,119.45 			"/>
			<polygon class="st16" points="225.2,120.69 224.34,120.19 223.5,120.68 224.36,121.18 			"/>
			<path class="st16" d="M190.85,107.32c-0.98-0.57-2.18-0.61-3.01-0.14c-0.66,0.38-0.69,0.87-0.05,1.41l0.42,0.34
				c0.47,0.39,0.44,0.66,0.09,0.86c-0.44,0.26-1.05,0.23-1.61-0.09c-0.65-0.37-0.61-0.75,0.04-1.13l-0.7-0.4
				c-1.07,0.62-1.03,1.26,0.03,1.87c1,0.58,2.15,0.61,2.97,0.14c0.68-0.39,0.7-0.89,0.06-1.43l-0.4-0.35
				c-0.47-0.39-0.45-0.65-0.11-0.85c0.42-0.25,1.04-0.24,1.63,0.1c0.65,0.37,0.61,0.73-0.03,1.1l0.7,0.4
				C191.92,108.56,191.88,107.91,190.85,107.32"/>
			<path class="st16" d="M196.28,110.56l-0.66-0.38l-3.16,1.83c-0.54,0.32-1.18,0.32-1.71,0.02c-0.53-0.3-0.53-0.68,0.02-1
				l3.16-1.83l-0.66-0.38l-3.16,1.83c-0.89,0.51-0.87,1.22,0.02,1.73c0.88,0.51,2.1,0.52,2.99,0L196.28,110.56"/>
			<path class="st16" d="M198.96,112c-0.98-0.57-2.18-0.61-3.01-0.14c-0.66,0.38-0.69,0.87-0.05,1.41l0.42,0.34
				c0.47,0.39,0.44,0.66,0.09,0.86c-0.44,0.26-1.06,0.23-1.61-0.09c-0.65-0.38-0.61-0.75,0.04-1.13l-0.7-0.4
				c-1.07,0.62-1.03,1.26,0.03,1.87c1,0.58,2.15,0.61,2.97,0.14c0.68-0.39,0.7-0.89,0.06-1.43l-0.4-0.35
				c-0.47-0.39-0.45-0.65-0.11-0.85c0.42-0.25,1.04-0.24,1.63,0.1c0.65,0.38,0.61,0.73-0.03,1.1l0.7,0.4
				C200.02,113.24,199.99,112.59,198.96,112"/>
			<polygon class="st16" points="204.7,115.42 201.07,113.32 200.45,113.68 201.94,114.54 198.01,116.83 198.67,117.21 
				202.6,114.92 204.09,115.78 			"/>
			<path class="st16" d="M204.07,117.77l2.06-0.68l0.39-0.18l0.09,0.06l-0.31,0.23l-1.16,1.19L204.07,117.77z M207.46,117.02
				l-1.04-0.6l-5.88,1.87l0.71,0.41l2.04-0.67l1.41,0.82l-1.15,1.18l0.71,0.41L207.46,117.02"/>
			<polygon class="st16" points="212.48,119.91 209.5,118.19 208.92,118.53 210.08,119.21 206.7,121.17 205.54,120.5 204.95,120.84 
				207.93,122.56 208.52,122.22 207.36,121.55 210.74,119.58 211.9,120.25 			"/>
			<polygon class="st16" points="216.55,122.26 215.89,121.88 211.99,124.15 211.9,124.1 212.44,123.66 214.59,121.13 
				213.55,120.53 209,123.17 209.65,123.55 213.55,121.28 213.65,121.34 213.11,121.77 210.95,124.3 212,124.91 			"/>
			<polygon class="st16" points="215.82,126.14 214.96,125.64 214.12,126.13 214.98,126.63 			"/>
			<polygon class="st17" points="151.99,112.94 218.5,74.29 285.37,112.89 218.85,151.55 			"/>
		</g>
	</g>
	<g>
		<g>
			<defs>
				<polygon id="SVGID_51_" points="242.22,118.9 255.95,110.92 269.78,118.9 256.04,126.89 				"/>
			</defs>
			<clipPath id="SVGID_12_">
				<use xlink:href="#SVGID_51_"  style="overflow:visible;"/>
			</clipPath>
			<path class="st18" d="M249.88,122.46c-3.4-1.96-3.42-5.15-0.04-7.12c3.37-1.96,8.89-1.96,12.29,0c3.4,1.96,3.41,5.16,0.04,7.12
				C258.78,124.42,253.27,124.42,249.88,122.46 M262.87,114.91c-3.81-2.2-10-2.2-13.78,0c-3.79,2.2-3.77,5.78,0.04,7.98
				c3.81,2.2,9.99,2.2,13.78,0C266.7,120.69,266.68,117.11,262.87,114.91"/>
		</g>
	</g>
	<g>
		<defs>
			<rect id="SVGID_53_" x="164.49" y="108.41" width="17.14" height="9.93"/>
		</defs>
		<clipPath id="SVGID_13_">
			<use xlink:href="#SVGID_53_"  style="overflow:visible;"/>
		</clipPath>
		<g class="st19">
			<defs>
				<polygon id="SVGID_55_" points="164.49,113.37 173.03,108.41 181.63,113.38 173.09,118.34 				"/>
			</defs>
			<clipPath id="SVGID_14_">
				<use xlink:href="#SVGID_55_"  style="overflow:visible;"/>
			</clipPath>
			<path class="st20" d="M165.99,113.37l7.05-4.1l7.1,4.1l-7.05,4.1L165.99,113.37z M181.63,113.37l-8.6-4.97l-8.54,4.96l8.6,4.97
				L181.63,113.37"/>
		</g>
	</g>
</g>
<g>
	<g>
		<line class="st21" x1="155.47" y1="240.27" x2="155.46" y2="239.67"/>
		<line class="st22" x1="155.4" y1="237.25" x2="150.92" y2="64.51"/>
		<line class="st21" x1="150.88" y1="63.3" x2="150.87" y2="62.7"/>
	</g>
</g>
<g>
	<g>
		<line class="st21" x1="73.35" y1="245.22" x2="73.27" y2="244.62"/>
		<line class="st23" x1="72.98" y1="242.25" x2="55.32" y2="97.43"/>
		<line class="st21" x1="55.17" y1="96.24" x2="55.1" y2="95.64"/>
	</g>
</g>
<g>
	<g>
		<line class="st21" x1="185.45" y1="308.7" x2="185.57" y2="308.11"/>
		<line class="st24" x1="186.04" y1="305.75" x2="217.55" y2="147.73"/>
		<line class="st21" x1="217.79" y1="146.55" x2="217.91" y2="145.96"/>
	</g>
</g>
<g>
</g>
<g>
</g>
<g>
</g>
<g>
</g>
<g>
</g>
<g>
</g>
<g>
</g>
<g>
</g>
<g>
</g>
<g>
</g>
<g>
</g>
<g>
</g>
<g>
</g>
<g>
</g>
<g>
</g>
</svg>
