<?xml version="1.0" encoding="utf-8"?>
<!-- Generator: Adobe Illustrator 25.2.0, SVG Export Plug-In . SVG Version: 6.00 Build 0)  -->
<svg version="1.1" id="Layer_1" xmlns="http://www.w3.org/2000/svg" xmlns:xlink="http://www.w3.org/1999/xlink" x="0px" y="0px"
	 viewBox="0 0 243.96 228.5" style="enable-background:new 0 0 243.96 228.5;" xml:space="preserve">
<style type="text/css">
	.st0{clip-path:url(#SVGID_1_);fill:#6CE87D;}
	.st1{clip-path:url(#SVGID_1_);}
	.st2{clip-path:url(#SVGID_1_);fill:none;}
	.st3{clip-path:url(#SVGID_2_);}
	.st4{clip-path:url(#SVGID_3_);}
	.st5{clip-path:url(#SVGID_4_);}
	.st6{fill:#6CE87D;}
	.st7{fill:none;stroke:#000000;stroke-width:1.205;stroke-miterlimit:10;}
	.st8{clip-path:url(#SVGID_5_);}
	.st9{clip-path:url(#SVGID_6_);}
	.st10{clip-path:url(#SVGID_7_);}
	.st11{clip-path:url(#SVGID_8_);}
	.st12{clip-path:url(#SVGID_9_);}
	.st13{clip-path:url(#SVGID_10_);}
	.st14{clip-path:url(#SVGID_11_);}
	.st15{clip-path:url(#SVGID_12_);}
	.st16{clip-path:url(#SVGID_13_);}
	.st17{clip-path:url(#SVGID_14_);}
	.st18{clip-path:url(#SVGID_15_);}
	.st19{clip-path:url(#SVGID_16_);}
	.st20{clip-path:url(#SVGID_17_);}
	.st21{clip-path:url(#SVGID_18_);}
	.st22{clip-path:url(#SVGID_19_);}
	.st23{clip-path:url(#SVGID_20_);}
	.st24{clip-path:url(#SVGID_21_);}
	.st25{clip-path:url(#SVGID_22_);}
	.st26{clip-path:url(#SVGID_23_);}
	.st27{clip-path:url(#SVGID_24_);}
	.st28{clip-path:url(#SVGID_25_);}
	.st29{clip-path:url(#SVGID_26_);}
	.st30{clip-path:url(#SVGID_27_);}
	.st31{clip-path:url(#SVGID_28_);}
	.st32{clip-path:url(#SVGID_29_);}
	.st33{clip-path:url(#SVGID_30_);}
	.st34{clip-path:url(#SVGID_31_);}
	.st35{clip-path:url(#SVGID_32_);}
	.st36{clip-path:url(#SVGID_33_);}
	.st37{clip-path:url(#SVGID_34_);}
	.st38{fill:none;stroke:#000000;stroke-width:0.602;stroke-linecap:round;stroke-miterlimit:10;}
	.st39{fill:none;stroke:#000000;stroke-width:0.602;stroke-linecap:round;stroke-miterlimit:10;stroke-dasharray:1.2269,2.4547;}
</style>
<g>
	<g>
		<g>
			<defs>
				<polygon id="SVGID_69_" points="5.22,28.36 54.03,0 103.16,28.37 54.35,56.73 				"/>
			</defs>
			<clipPath id="SVGID_1_">
				<use xlink:href="#SVGID_69_"  style="overflow:visible;"/>
			</clipPath>
			<path class="st0" d="M42.12,32.41l-0.09-0.05l-0.39,0.18l-2.06,0.68l1.07,0.62l1.16-1.19L42.12,32.41 M35.29,17.88l-0.97-0.56
				l-1.41,0.82l0.97,0.56c0.5,0.29,1.07,0.29,1.49,0.04C35.8,18.49,35.79,18.17,35.29,17.88 M43.37,22.55l-1.01-0.58l-1.32,0.77
				l1.01,0.58c0.48,0.28,0.99,0.29,1.41,0.05C43.91,23.11,43.84,22.82,43.37,22.55 M55.53,29.57l-1-0.58l-1.32,0.77l1,0.58
				c0.48,0.28,0.99,0.29,1.41,0.05C56.07,30.13,56,29.83,55.53,29.57 M51.31,27.02c-0.71-0.41-1.61-0.28-2.8,0.41
				c-1.19,0.69-1.42,1.21-0.71,1.62c0.71,0.41,1.62,0.28,2.8-0.41C51.79,27.95,52.02,27.43,51.31,27.02 M48.7,14.75l-1-0.58
				l-1.32,0.77l1,0.58c0.48,0.28,1,0.3,1.42,0.05C49.24,15.32,49.16,15.02,48.7,14.75 M44.47,12.2c-0.71-0.41-1.61-0.28-2.8,0.42
				c-1.19,0.69-1.42,1.21-0.71,1.62c0.71,0.41,1.62,0.27,2.8-0.41C44.96,13.14,45.18,12.62,44.47,12.2 M58.1,9.04L58,8.98
				l-0.38,0.18l-2.06,0.68l1.06,0.62l1.17-1.19L58.1,9.04 M49.63,41.58l0.84-0.49l0.86,0.5l-0.84,0.49L49.63,41.58 M26.27,27.48
				c0.53,0.31,1.17,0.3,1.71-0.02l3.16-1.83l0.66,0.38l-3.16,1.83c-0.88,0.51-2.1,0.51-2.99,0c-0.89-0.51-0.91-1.22-0.02-1.73
				l3.16-1.83l0.66,0.38l-3.16,1.83C25.74,26.8,25.74,27.18,26.27,27.48 M35.96,29.13l0.62-0.36l3.64,2.1l-0.62,0.36l-1.49-0.86
				l-3.93,2.28l-0.66-0.38l3.93-2.28L35.96,29.13 M36.05,33.74l5.88-1.87l1.04,0.6l-3.21,3.41l-0.71-0.41l1.15-1.18l-1.41-0.82
				l-2.03,0.67L36.05,33.74 M44.43,33.98l0.58-0.34l2.98,1.72l-0.58,0.34l-1.16-0.67L42.87,37l1.16,0.67l-0.58,0.34l-2.98-1.72
				l0.58-0.34l1.17,0.67l3.38-1.96L44.43,33.98 M47.41,39.55l0.09,0.05l3.9-2.27l0.66,0.38l-4.55,2.64l-1.05-0.61l2.16-2.53
				l0.54-0.43l-0.1-0.06L45.16,39l-0.65-0.38l4.55-2.64l1.05,0.6l-2.16,2.53L47.41,39.55 M22.21,25.15
				c0.56,0.32,1.18,0.35,1.61,0.09c0.35-0.2,0.38-0.47-0.09-0.86l-0.42-0.34c-0.64-0.54-0.61-1.03,0.05-1.41
				c0.82-0.48,2.02-0.43,3,0.14c1.03,0.59,1.06,1.25,0.03,1.84l-0.7-0.4c0.64-0.37,0.68-0.73,0.03-1.1
				c-0.59-0.34-1.21-0.35-1.63-0.1c-0.34,0.2-0.36,0.46,0.11,0.85l0.4,0.35c0.63,0.54,0.62,1.03-0.06,1.43
				c-0.82,0.47-1.96,0.44-2.97-0.14c-1.06-0.61-1.1-1.25-0.03-1.87l0.7,0.4C21.59,24.4,21.56,24.78,22.21,25.15 M30.31,29.83
				c0.56,0.32,1.18,0.35,1.61,0.09c0.35-0.2,0.37-0.47-0.09-0.86l-0.42-0.34c-0.64-0.54-0.61-1.03,0.05-1.41
				c0.82-0.48,2.02-0.43,3.01,0.14c1.02,0.59,1.06,1.25,0.03,1.84l-0.7-0.4c0.64-0.37,0.68-0.73,0.03-1.1
				c-0.59-0.34-1.21-0.35-1.63-0.1c-0.34,0.2-0.36,0.46,0.11,0.85l0.4,0.35c0.63,0.54,0.61,1.03-0.06,1.43
				c-0.82,0.47-1.96,0.44-2.97-0.14c-1.06-0.61-1.1-1.25-0.03-1.87l0.7,0.4C29.7,29.08,29.66,29.46,30.31,29.83 M59.01,36.13
				l0.84-0.49l0.86,0.5l-0.84,0.49L59.01,36.13 M29.73,19.22l4.55-2.64l1.63,0.94c0.86,0.5,0.96,1.13,0.13,1.61
				c-0.82,0.48-1.91,0.43-2.78-0.07l-0.97-0.56l-1.9,1.11L29.73,19.22 M33.81,21.58l4.55-2.64l2.73,1.58l-0.62,0.36l-2.08-1.2
				l-1.35,0.78l2.01,1.16l-0.61,0.36l-2.01-1.16l-1.35,0.79l2.08,1.2l-0.62,0.36L33.81,21.58 M37.79,23.87l4.55-2.64l1.57,0.91
				c0.94,0.54,1.12,1.09,0.24,1.61c-0.82,0.48-1.76,0.33-2.6-0.14l-0.1,0.06l0.07,0.15l-0.65,1.84l-0.83-0.48l0.72-1.93l-0.29-0.17
				l-2.03,1.18L37.79,23.87 M42.02,26.32l4.55-2.64l2.86,1.65l-0.62,0.36l-2.21-1.28l-1.35,0.78l2.08,1.2l-0.61,0.36l-2.08-1.2
				l-1.97,1.15L42.02,26.32 M49.94,30.89l4.55-2.64l1.57,0.91c0.94,0.54,1.12,1.09,0.24,1.61c-0.82,0.48-1.76,0.33-2.6-0.14
				l-0.1,0.06l0.07,0.15l-0.65,1.84l-0.83-0.48l0.72-1.93l-0.29-0.16l-2.03,1.18L49.94,30.89 M57.25,32.9l0.09,0.06l0.29-0.16
				l2.84-1.09l0.96,0.55l-4.55,2.64l-0.62-0.36l3.9-2.27l-0.09-0.05l-0.62,0.32l-2.49,0.91l-0.57-0.33l1.56-1.44l0.55-0.36
				l-0.1-0.06l-3.9,2.27l-0.62-0.36l4.55-2.64l0.96,0.56l-1.87,1.65L57.25,32.9 M47.19,29.41c-1.13-0.65-0.91-1.48,0.64-2.37
				c1.55-0.9,2.97-1.03,4.1-0.38c1.13,0.65,0.91,1.48-0.64,2.38C49.74,29.93,48.32,30.06,47.19,29.41 M43.11,16.08l4.54-2.64
				l1.57,0.91c0.94,0.54,1.13,1.09,0.25,1.61c-0.82,0.48-1.76,0.33-2.61-0.14l-0.1,0.06l0.07,0.15l-0.64,1.84l-0.83-0.48l0.72-1.93
				l-0.29-0.16l-2.03,1.18L43.11,16.08 M51.02,16.06l0.58-0.34l2.98,1.72L54,17.78l-1.17-0.67l-3.37,1.96l1.17,0.67l-0.58,0.34
				l-2.98-1.72l0.58-0.34l1.16,0.67l3.37-1.96L51.02,16.06 M59.13,20.74l0.58-0.34l2.98,1.72l-0.58,0.34l-1.17-0.67l-3.37,1.96
				l1.17,0.67l-0.58,0.34l-2.98-1.72l0.58-0.34l1.17,0.67l3.37-1.96L59.13,20.74 M62.11,26.31l0.1,0.05l3.9-2.27l0.66,0.38
				l-4.54,2.64l-1.05-0.61l2.15-2.52l0.54-0.44l-0.1-0.06l-3.9,2.27l-0.66-0.38l4.54-2.64l1.05,0.61l-2.15,2.52L62.11,26.31
				 M40.35,14.6c-1.13-0.65-0.9-1.48,0.64-2.38c1.55-0.9,2.97-1.03,4.1-0.38c1.13,0.65,0.91,1.48-0.64,2.38
				C42.91,15.12,41.48,15.26,40.35,14.6 M52.33,21.52c-0.97-0.56-0.7-1.37,0.84-2.26c1.59-0.92,2.98-1.03,4.2-0.32
				c0.94,0.54,0.89,1.31-0.11,1.89l-0.67-0.39c0.67-0.39,0.73-0.82,0.16-1.15c-0.8-0.46-1.67-0.36-2.9,0.36
				c-1.21,0.71-1.44,1.2-0.74,1.61c0.55,0.32,1.31,0.26,2.16-0.17l-1.08-0.62l0.61-0.35l1.7,0.98l-2.35,1.36l-0.66-0.38l1.16-0.48
				l-0.1-0.06C53.7,21.88,52.95,21.88,52.33,21.52 M51.22,9.15l0.1,0.06l3.9-2.27l0.66,0.38l-4.54,2.64l-1.05-0.61l2.15-2.52
				l0.54-0.44l-0.1-0.05l-3.9,2.27l-0.66-0.38l4.54-2.64l1.05,0.61l-2.15,2.52L51.22,9.15 M52.03,10.37l5.87-1.87l1.04,0.6
				l-3.21,3.41l-0.71-0.41l1.15-1.18l-1.41-0.82l-2.03,0.67L52.03,10.37 M59.8,12.64l0.09,0.05l0.29-0.16l2.83-1.09L63.98,12
				l-4.54,2.64l-0.62-0.36l3.9-2.27l-0.1-0.06L62,12.28l-2.49,0.91l-0.57-0.33l1.56-1.44l0.54-0.36L60.96,11l-3.9,2.27l-0.62-0.36
				l4.54-2.64l0.96,0.56l-1.86,1.65L59.8,12.64 M60.68,15.36l4.54-2.64l2.73,1.58l-0.61,0.36l-2.08-1.2l-1.35,0.78l2.01,1.16
				l-0.62,0.36L63.3,14.6l-1.35,0.78l2.08,1.2l-0.62,0.36L60.68,15.36 M101.67,28.36L54.04,0.86L6.72,28.36l47.63,27.5L101.67,28.36
				"/>
			<path class="st1" d="M6.72,28.36l47.32-27.5l47.63,27.5l-47.32,27.5L6.72,28.36z M103.16,28.37L54.03,0L5.22,28.36l49.13,28.37
				L103.16,28.37"/>
			<polygon class="st1" points="55.88,7.32 55.22,6.94 51.32,9.21 51.22,9.15 51.77,8.72 53.92,6.19 52.87,5.59 48.33,8.23 
				48.98,8.6 52.88,6.34 52.98,6.39 52.43,6.83 50.28,9.35 51.33,9.96 			"/>
			<path class="st1" d="M55.56,9.85l2.06-0.68L58,8.98l0.1,0.06l-0.31,0.23l-1.17,1.19L55.56,9.85z M58.95,9.1l-1.04-0.6l-5.87,1.87
				l0.71,0.41l2.03-0.67l1.41,0.82l-1.15,1.18l0.71,0.41L58.95,9.1"/>
			<polygon class="st1" points="63.98,12 63.02,11.45 60.19,12.53 59.89,12.69 59.8,12.64 60.08,12.47 61.94,10.82 60.98,10.27 
				56.43,12.91 57.05,13.27 60.96,11 61.05,11.05 60.51,11.42 58.95,12.86 59.52,13.18 62,12.28 62.63,11.96 62.72,12.02 
				58.82,14.29 59.44,14.64 			"/>
			<polygon class="st1" points="67.96,14.3 65.22,12.72 60.68,15.36 63.41,16.94 64.03,16.58 61.95,15.38 63.3,14.6 65.31,15.76 
				65.93,15.4 63.92,14.24 65.27,13.45 67.34,14.65 			"/>
			<path class="st1" d="M40.96,14.24c-0.71-0.41-0.47-0.93,0.71-1.62c1.19-0.69,2.08-0.83,2.8-0.42c0.71,0.41,0.49,0.93-0.71,1.62
				C42.58,14.52,41.68,14.65,40.96,14.24 M45.09,11.85c-1.13-0.65-2.56-0.52-4.1,0.38c-1.54,0.9-1.77,1.72-0.64,2.38
				c1.13,0.65,2.56,0.52,4.1-0.38C46,13.32,46.22,12.5,45.09,11.85"/>
			<path class="st1" d="M46.37,14.94l1.32-0.77l1,0.58c0.47,0.27,0.54,0.56,0.1,0.82c-0.42,0.25-0.94,0.23-1.42-0.05L46.37,14.94
				 M49.22,14.35l-1.57-0.91l-4.54,2.64l0.66,0.38l2.03-1.18l0.29,0.17l-0.72,1.93l0.83,0.48l0.64-1.84l-0.07-0.15l0.1-0.06
				c0.85,0.47,1.78,0.62,2.61,0.14C50.35,15.44,50.16,14.89,49.22,14.35"/>
			<polygon class="st1" points="54.59,17.44 51.61,15.72 51.02,16.06 52.19,16.74 48.81,18.7 47.65,18.02 47.06,18.36 50.05,20.08 
				50.63,19.74 49.46,19.07 52.84,17.11 54,17.78 			"/>
			<path class="st1" d="M57.37,18.94c-1.23-0.71-2.62-0.6-4.2,0.32c-1.54,0.89-1.81,1.7-0.84,2.26c0.62,0.36,1.36,0.36,2.23,0.02
				l0.1,0.06l-1.16,0.48l0.66,0.38l2.35-1.36l-1.7-0.98l-0.61,0.35l1.08,0.62c-0.85,0.43-1.61,0.49-2.16,0.17
				c-0.7-0.4-0.47-0.9,0.74-1.61c1.23-0.71,2.1-0.82,2.9-0.36c0.57,0.33,0.51,0.76-0.16,1.15l0.67,0.39
				C58.26,20.25,58.31,19.48,57.37,18.94"/>
			<polygon class="st1" points="62.69,22.13 59.71,20.4 59.13,20.74 60.3,21.42 56.92,23.38 55.76,22.7 55.17,23.04 58.15,24.77 
				58.74,24.43 57.57,23.75 60.94,21.79 62.11,22.47 			"/>
			<polygon class="st1" points="66.76,24.47 66.11,24.1 62.21,26.36 62.11,26.31 62.65,25.87 64.81,23.34 63.75,22.74 59.21,25.38 
				59.87,25.76 63.77,23.49 63.86,23.54 63.32,23.98 61.17,26.51 62.22,27.11 			"/>
			<path class="st1" d="M32.91,18.13l1.41-0.82l0.97,0.56c0.5,0.29,0.51,0.62,0.08,0.86c-0.42,0.25-0.99,0.25-1.49-0.04L32.91,18.13
				 M35.91,17.52l-1.63-0.94l-4.55,2.64l0.66,0.38l1.9-1.11l0.97,0.56c0.86,0.5,1.95,0.55,2.78,0.07
				C36.86,18.65,36.77,18.02,35.91,17.52"/>
			<polygon class="st1" points="41.1,20.51 38.36,18.94 33.81,21.58 36.55,23.16 37.17,22.8 35.09,21.6 36.44,20.81 38.45,21.97 
				39.06,21.62 37.05,20.46 38.4,19.67 40.48,20.87 			"/>
			<path class="st1" d="M41.05,22.73l1.32-0.77l1.01,0.58c0.47,0.27,0.53,0.56,0.09,0.82c-0.42,0.25-0.94,0.23-1.41-0.05
				L41.05,22.73 M43.9,22.14l-1.57-0.91l-4.55,2.64l0.65,0.38l2.03-1.18l0.29,0.17l-0.72,1.93l0.83,0.48l0.65-1.84l-0.07-0.15
				l0.1-0.06c0.85,0.47,1.78,0.61,2.6,0.14C45.03,23.23,44.84,22.68,43.9,22.14"/>
			<polygon class="st1" points="49.43,25.33 46.57,23.68 42.02,26.32 42.67,26.69 44.64,25.55 46.72,26.75 47.33,26.39 45.25,25.19 
				46.6,24.41 48.81,25.69 			"/>
			<path class="st1" d="M47.8,29.05c-0.71-0.41-0.48-0.93,0.71-1.62c1.19-0.69,2.09-0.82,2.8-0.41c0.71,0.41,0.49,0.93-0.71,1.62
				C49.42,29.33,48.51,29.47,47.8,29.05 M51.93,26.66c-1.13-0.65-2.56-0.52-4.1,0.38c-1.54,0.9-1.77,1.72-0.63,2.37
				c1.13,0.65,2.56,0.52,4.1-0.38C52.83,28.14,53.06,27.31,51.93,26.66"/>
			<path class="st1" d="M53.21,29.75l1.32-0.77l1,0.58c0.47,0.27,0.53,0.56,0.09,0.82c-0.42,0.25-0.94,0.23-1.41-0.05L53.21,29.75
				 M56.06,29.15l-1.57-0.91l-4.55,2.64l0.66,0.38l2.03-1.18l0.29,0.16l-0.72,1.93l0.83,0.48l0.65-1.84l-0.07-0.15l0.1-0.06
				c0.85,0.47,1.78,0.61,2.6,0.14C57.18,30.25,57,29.7,56.06,29.15"/>
			<polygon class="st1" points="61.44,32.26 60.48,31.71 57.64,32.79 57.35,32.96 57.25,32.9 57.53,32.73 59.4,31.08 58.44,30.53 
				53.89,33.17 54.5,33.52 58.41,31.26 58.51,31.32 57.96,31.68 56.41,33.12 56.97,33.45 59.46,32.54 60.08,32.22 60.17,32.28 
				56.27,34.54 56.89,34.9 			"/>
			<polygon class="st1" points="60.71,36.14 59.85,35.64 59.01,36.13 59.87,36.62 			"/>
			<path class="st1" d="M26.36,22.77c-0.98-0.57-2.18-0.61-3.01-0.14c-0.66,0.38-0.69,0.87-0.05,1.41l0.42,0.34
				c0.47,0.39,0.44,0.66,0.09,0.86c-0.44,0.26-1.05,0.23-1.61-0.09c-0.65-0.37-0.61-0.75,0.04-1.13l-0.7-0.4
				c-1.07,0.62-1.03,1.26,0.03,1.87c1,0.58,2.15,0.61,2.97,0.14c0.68-0.39,0.7-0.89,0.06-1.43l-0.4-0.35
				c-0.47-0.39-0.45-0.65-0.11-0.85c0.42-0.25,1.04-0.24,1.63,0.1c0.65,0.37,0.61,0.73-0.03,1.1l0.7,0.4
				C27.43,24.01,27.39,23.36,26.36,22.77"/>
			<path class="st1" d="M31.79,26.01l-0.66-0.38l-3.16,1.83c-0.54,0.32-1.18,0.32-1.71,0.02c-0.53-0.3-0.53-0.68,0.02-1l3.16-1.83
				l-0.66-0.38l-3.16,1.83c-0.89,0.51-0.87,1.22,0.02,1.73c0.88,0.51,2.1,0.52,2.99,0L31.79,26.01"/>
			<path class="st1" d="M34.47,27.45c-0.98-0.57-2.18-0.61-3.01-0.14c-0.66,0.38-0.69,0.87-0.05,1.41l0.42,0.34
				c0.47,0.39,0.44,0.66,0.09,0.86c-0.44,0.26-1.06,0.23-1.61-0.09c-0.65-0.38-0.61-0.75,0.04-1.13l-0.7-0.4
				c-1.07,0.62-1.03,1.26,0.03,1.87c1,0.58,2.15,0.61,2.97,0.14c0.68-0.39,0.7-0.89,0.06-1.43l-0.4-0.35
				c-0.47-0.39-0.45-0.65-0.11-0.85c0.42-0.25,1.04-0.24,1.63,0.1c0.65,0.38,0.61,0.73-0.03,1.1l0.7,0.4
				C35.53,28.69,35.5,28.04,34.47,27.45"/>
			<polygon class="st1" points="40.22,30.87 36.58,28.77 35.96,29.13 37.45,29.99 33.52,32.28 34.18,32.66 38.11,30.37 39.6,31.23 
							"/>
			<path class="st1" d="M39.58,33.21l2.06-0.68l0.39-0.18l0.09,0.06l-0.31,0.23l-1.16,1.19L39.58,33.21z M42.97,32.46l-1.04-0.6
				l-5.88,1.87l0.71,0.41l2.04-0.67l1.41,0.82l-1.15,1.18l0.71,0.41L42.97,32.46"/>
			<polygon class="st1" points="47.99,35.36 45.01,33.64 44.43,33.98 45.59,34.65 42.21,36.62 41.05,35.95 40.46,36.28 43.44,38.01 
				44.03,37.67 42.87,37 46.25,35.03 47.41,35.7 			"/>
			<polygon class="st1" points="52.06,37.71 51.4,37.33 47.5,39.6 47.41,39.55 47.95,39.11 50.1,36.58 49.06,35.98 44.51,38.62 
				45.16,38.99 49.06,36.73 49.16,36.79 48.62,37.22 46.46,39.75 47.51,40.35 			"/>
			<polygon class="st1" points="51.33,41.59 50.47,41.09 49.63,41.58 50.49,42.08 			"/>
			<polygon class="st2" points="-12.5,28.39 54.01,-10.26 120.88,28.34 54.37,66.99 			"/>
		</g>
	</g>
	<g>
		<g>
			<defs>
				<polygon id="SVGID_71_" points="77.73,34.35 91.47,26.37 105.29,34.35 91.55,42.33 				"/>
			</defs>
			<clipPath id="SVGID_2_">
				<use xlink:href="#SVGID_71_"  style="overflow:visible;"/>
			</clipPath>
			<path class="st3" d="M85.39,37.91c-3.4-1.96-3.42-5.15-0.04-7.12c3.37-1.96,8.89-1.96,12.29,0c3.4,1.96,3.41,5.16,0.04,7.12
				C94.29,39.87,88.78,39.87,85.39,37.91 M98.38,30.36c-3.81-2.2-10-2.2-13.78,0c-3.79,2.2-3.77,5.78,0.04,7.98
				c3.81,2.2,9.99,2.2,13.78,0C102.21,36.14,102.19,32.56,98.38,30.36"/>
		</g>
	</g>
	<g>
		<defs>
			<rect id="SVGID_73_" y="23.86" width="17.14" height="9.93"/>
		</defs>
		<clipPath id="SVGID_3_">
			<use xlink:href="#SVGID_73_"  style="overflow:visible;"/>
		</clipPath>
		<g class="st4">
			<defs>
				<polygon id="SVGID_75_" points="0,28.82 8.54,23.86 17.14,28.82 8.6,33.79 				"/>
			</defs>
			<clipPath id="SVGID_4_">
				<use xlink:href="#SVGID_75_"  style="overflow:visible;"/>
			</clipPath>
			<path class="st5" d="M1.5,28.82l7.05-4.1l7.1,4.1l-7.05,4.1L1.5,28.82z M17.14,28.82l-8.6-4.97L0,28.82l8.6,4.97L17.14,28.82"/>
		</g>
	</g>
</g>
<g>
	<polygon class="st6" points="2.77,196.47 54.6,166.14 88.59,185.69 122.57,166.14 156.55,185.69 190.54,166.14 242.75,196.47 
		190.54,226.64 156.55,207.24 122.57,226.64 88.59,207.24 54.6,227.79 	"/>
	<polygon class="st7" points="2.77,196.47 54.6,166.14 88.59,185.69 122.57,166.14 156.55,185.69 190.54,166.14 242.75,196.47 
		190.54,226.64 156.55,207.24 122.57,226.64 88.59,207.24 54.6,227.79 	"/>
	<g>
		<defs>
			<rect id="SVGID_77_" x="5.37" y="167.95" width="98.47" height="57.04"/>
		</defs>
		<clipPath id="SVGID_5_">
			<use xlink:href="#SVGID_77_"  style="overflow:visible;"/>
		</clipPath>
		<g class="st8">
			<defs>
				<polygon id="SVGID_79_" points="5.37,196.46 54.44,167.95 103.84,196.46 54.77,224.98 				"/>
			</defs>
			<clipPath id="SVGID_6_">
				<use xlink:href="#SVGID_79_"  style="overflow:visible;"/>
			</clipPath>
			<path class="st9" d="M39.88,176.68l14.55-8.46l14.65,8.46l-14.55,8.46L39.88,176.68z M69.57,176.68l-15.12-8.73l-15.03,8.73
				l15.12,8.73L69.57,176.68"/>
			<path class="st9" d="M57.02,186.57l14.55-8.46l14.66,8.46l-14.55,8.46L57.02,186.57z M86.7,186.57l-15.12-8.73l-15.03,8.73
				l15.12,8.73L86.7,186.57"/>
			<path class="st9" d="M22.86,186.57l14.55-8.46l14.65,8.46l-14.55,8.46L22.86,186.57z M52.55,186.57l-15.12-8.73l-15.03,8.73
				l15.12,8.73L52.55,186.57"/>
			<path class="st9" d="M39.99,196.47l14.55-8.46l14.66,8.46l-14.55,8.46L39.99,196.47z M69.68,196.47l-15.13-8.73l-15.03,8.73
				l15.12,8.73L69.68,196.47"/>
			<path class="st9" d="M57.13,206.36l14.55-8.46l14.66,8.46l-14.55,8.46L57.13,206.36z M86.82,206.36l-15.12-8.73l-15.03,8.73
				l15.12,8.73L86.82,206.36"/>
			<path class="st9" d="M5.84,196.47l14.55-8.46l14.65,8.46l-14.55,8.46L5.84,196.47z M35.52,196.47l-15.13-8.73l-15.03,8.73
				l15.12,8.73L35.52,196.47"/>
			<path class="st9" d="M22.97,206.36l14.55-8.46l14.66,8.46l-14.55,8.46L22.97,206.36z M52.66,206.36l-15.13-8.73l-15.03,8.73
				l15.12,8.73L52.66,206.36"/>
			<path class="st9" d="M40.11,216.25l14.55-8.46l14.66,8.46l-14.55,8.46L40.11,216.25z M69.79,216.25l-15.13-8.73l-15.03,8.73
				l15.12,8.73L69.79,216.25"/>
		</g>
	</g>
	<g>
		<defs>
			<rect id="SVGID_81_" x="73.34" y="167.95" width="98.47" height="57.04"/>
		</defs>
		<clipPath id="SVGID_7_">
			<use xlink:href="#SVGID_81_"  style="overflow:visible;"/>
		</clipPath>
		<g class="st10">
			<defs>
				<polygon id="SVGID_83_" points="73.34,196.46 122.41,167.95 171.8,196.46 122.73,224.98 				"/>
			</defs>
			<clipPath id="SVGID_8_">
				<use xlink:href="#SVGID_83_"  style="overflow:visible;"/>
			</clipPath>
			<path class="st11" d="M107.85,176.68l14.55-8.46l14.65,8.46l-14.55,8.46L107.85,176.68z M137.53,176.68l-15.12-8.73l-15.03,8.73
				l15.12,8.73L137.53,176.68"/>
			<path class="st11" d="M124.98,186.57l14.55-8.46l14.66,8.46l-14.55,8.46L124.98,186.57z M154.67,186.57l-15.12-8.73l-15.03,8.73
				l15.12,8.73L154.67,186.57"/>
			<path class="st11" d="M142.12,196.47l14.55-8.46l14.66,8.46l-14.55,8.46L142.12,196.47z M171.8,196.47l-15.12-8.73l-15.03,8.73
				l15.12,8.73L171.8,196.47"/>
			<path class="st11" d="M90.82,186.57l14.55-8.46l14.65,8.46l-14.55,8.46L90.82,186.57z M120.51,186.57l-15.13-8.73l-15.03,8.73
				l15.12,8.73L120.51,186.57"/>
			<path class="st11" d="M107.96,196.47l14.55-8.46l14.66,8.46l-14.55,8.46L107.96,196.47z M137.65,196.47l-15.13-8.73l-15.03,8.73
				l15.12,8.73L137.65,196.47"/>
			<path class="st11" d="M125.09,206.36l14.55-8.46l14.66,8.46l-14.55,8.46L125.09,206.36z M154.78,206.36l-15.13-8.73l-15.03,8.73
				l15.12,8.73L154.78,206.36"/>
			<path class="st11" d="M73.8,196.47l14.55-8.46l14.65,8.46l-14.55,8.46L73.8,196.47z M103.49,196.47l-15.12-8.73l-15.03,8.73
				l15.12,8.73L103.49,196.47"/>
			<path class="st11" d="M90.94,206.36l14.55-8.46l14.66,8.46l-14.55,8.46L90.94,206.36z M120.62,206.36l-15.12-8.73l-15.03,8.73
				l15.12,8.73L120.62,206.36"/>
			<path class="st11" d="M108.07,216.25l14.55-8.46l14.66,8.46l-14.55,8.46L108.07,216.25z M137.76,216.25l-15.13-8.73l-15.03,8.73
				l15.12,8.73L137.76,216.25"/>
		</g>
	</g>
	<g>
		<defs>
			<rect id="SVGID_85_" x="141.3" y="167.95" width="98.47" height="57.04"/>
		</defs>
		<clipPath id="SVGID_9_">
			<use xlink:href="#SVGID_85_"  style="overflow:visible;"/>
		</clipPath>
		<g class="st12">
			<defs>
				<polygon id="SVGID_87_" points="141.3,196.46 190.37,167.95 239.77,196.46 190.7,224.98 				"/>
			</defs>
			<clipPath id="SVGID_10_">
				<use xlink:href="#SVGID_87_"  style="overflow:visible;"/>
			</clipPath>
			<path class="st13" d="M175.81,176.68l14.55-8.46l14.65,8.46l-14.55,8.46L175.81,176.68z M205.5,176.68l-15.13-8.73l-15.03,8.73
				l15.12,8.73L205.5,176.68"/>
			<path class="st13" d="M192.95,186.57l14.55-8.46l14.66,8.46l-14.55,8.46L192.95,186.57z M222.63,186.57l-15.13-8.73l-15.03,8.73
				l15.12,8.73L222.63,186.57"/>
			<path class="st13" d="M210.08,196.47l14.55-8.46l14.66,8.46l-14.55,8.46L210.08,196.47z M239.77,196.47l-15.13-8.73l-15.03,8.73
				l15.12,8.73L239.77,196.47"/>
			<path class="st13" d="M158.79,186.57l14.55-8.46l14.65,8.46l-14.55,8.46L158.79,186.57z M188.48,186.57l-15.12-8.73l-15.03,8.73
				l15.12,8.73L188.48,186.57"/>
			<path class="st13" d="M175.92,196.47l14.55-8.46l14.66,8.46l-14.55,8.46L175.92,196.47z M205.61,196.47l-15.12-8.73l-15.03,8.73
				l15.12,8.73L205.61,196.47"/>
			<path class="st13" d="M193.06,206.36l14.55-8.46l14.66,8.46l-14.55,8.46L193.06,206.36z M222.75,206.36l-15.12-8.73l-15.03,8.73
				l15.12,8.73L222.75,206.36"/>
			<path class="st13" d="M158.9,206.36l14.55-8.46l14.66,8.46l-14.55,8.46L158.9,206.36z M188.59,206.36l-15.12-8.73l-15.03,8.73
				l15.12,8.73L188.59,206.36"/>
			<path class="st13" d="M176.04,216.25l14.55-8.46l14.66,8.46l-14.55,8.46L176.04,216.25z M205.72,216.25l-15.12-8.73l-15.03,8.73
				l15.12,8.73L205.72,216.25"/>
		</g>
	</g>
	<polygon class="st6" points="2.77,186.52 54.6,156.2 88.59,175.75 122.57,156.2 156.55,175.75 190.54,156.2 242.75,186.52 
		190.54,216.7 156.55,197.3 122.57,216.7 88.59,197.3 54.6,217.85 	"/>
	<polygon class="st7" points="2.77,186.52 54.6,156.2 88.59,175.75 122.57,156.2 156.55,175.75 190.54,156.2 242.75,186.52 
		190.54,216.7 156.55,197.3 122.57,216.7 88.59,197.3 54.6,217.85 	"/>
	<g>
		<defs>
			<rect id="SVGID_89_" x="5.37" y="158" width="98.47" height="57.04"/>
		</defs>
		<clipPath id="SVGID_11_">
			<use xlink:href="#SVGID_89_"  style="overflow:visible;"/>
		</clipPath>
		<g class="st14">
			<defs>
				<polygon id="SVGID_91_" points="5.37,186.52 54.44,158 103.84,186.52 54.77,215.04 				"/>
			</defs>
			<clipPath id="SVGID_12_">
				<use xlink:href="#SVGID_91_"  style="overflow:visible;"/>
			</clipPath>
			<path class="st15" d="M39.88,166.73l14.55-8.46l14.65,8.46l-14.55,8.46L39.88,166.73z M69.57,166.73L54.44,158l-15.03,8.73
				l15.12,8.73L69.57,166.73"/>
			<path class="st15" d="M57.02,176.63l14.55-8.46l14.66,8.46l-14.55,8.46L57.02,176.63z M86.7,176.63l-15.12-8.73l-15.03,8.73
				l15.12,8.73L86.7,176.63"/>
			<path class="st15" d="M22.86,176.63l14.55-8.46l14.65,8.46l-14.55,8.46L22.86,176.63z M52.55,176.63l-15.12-8.73l-15.03,8.73
				l15.12,8.73L52.55,176.63"/>
			<path class="st15" d="M39.99,186.52l14.55-8.46l14.66,8.46l-14.55,8.46L39.99,186.52z M69.68,186.52l-15.13-8.73l-15.03,8.73
				l15.12,8.73L69.68,186.52"/>
			<path class="st15" d="M57.13,196.41l14.55-8.46l14.66,8.46l-14.55,8.46L57.13,196.41z M86.82,196.41l-15.12-8.73l-15.03,8.73
				l15.12,8.73L86.82,196.41"/>
			<path class="st15" d="M5.84,186.52l14.55-8.46l14.65,8.46l-14.55,8.46L5.84,186.52z M35.52,186.52l-15.13-8.73l-15.03,8.73
				l15.12,8.73L35.52,186.52"/>
			<path class="st15" d="M22.97,196.41l14.55-8.46l14.66,8.46l-14.55,8.46L22.97,196.41z M52.66,196.41l-15.13-8.73l-15.03,8.73
				l15.12,8.73L52.66,196.41"/>
			<path class="st15" d="M40.11,206.3l14.55-8.46l14.66,8.46l-14.55,8.46L40.11,206.3z M69.79,206.3l-15.13-8.73l-15.03,8.73
				l15.12,8.73L69.79,206.3"/>
		</g>
	</g>
	<g>
		<defs>
			<rect id="SVGID_93_" x="73.34" y="158" width="98.47" height="57.04"/>
		</defs>
		<clipPath id="SVGID_13_">
			<use xlink:href="#SVGID_93_"  style="overflow:visible;"/>
		</clipPath>
		<g class="st16">
			<defs>
				<polygon id="SVGID_95_" points="73.34,186.52 122.41,158 171.8,186.52 122.73,215.04 				"/>
			</defs>
			<clipPath id="SVGID_14_">
				<use xlink:href="#SVGID_95_"  style="overflow:visible;"/>
			</clipPath>
			<path class="st17" d="M107.85,166.73l14.55-8.46l14.65,8.46l-14.55,8.46L107.85,166.73z M137.53,166.73L122.41,158l-15.03,8.73
				l15.12,8.73L137.53,166.73"/>
			<path class="st17" d="M124.98,176.63l14.55-8.46l14.66,8.46l-14.55,8.46L124.98,176.63z M154.67,176.63l-15.12-8.73l-15.03,8.73
				l15.12,8.73L154.67,176.63"/>
			<path class="st17" d="M142.12,186.52l14.55-8.46l14.66,8.46l-14.55,8.46L142.12,186.52z M171.8,186.52l-15.12-8.73l-15.03,8.73
				l15.12,8.73L171.8,186.52"/>
			<path class="st17" d="M90.82,176.63l14.55-8.46l14.65,8.46l-14.55,8.46L90.82,176.63z M120.51,176.63l-15.13-8.73l-15.03,8.73
				l15.12,8.73L120.51,176.63"/>
			<path class="st17" d="M107.96,186.52l14.55-8.46l14.66,8.46l-14.55,8.46L107.96,186.52z M137.65,186.52l-15.13-8.73l-15.03,8.73
				l15.12,8.73L137.65,186.52"/>
			<path class="st17" d="M125.09,196.41l14.55-8.46l14.66,8.46l-14.55,8.46L125.09,196.41z M154.78,196.41l-15.13-8.73l-15.03,8.73
				l15.12,8.73L154.78,196.41"/>
			<path class="st17" d="M73.8,186.52l14.55-8.46l14.65,8.46l-14.55,8.46L73.8,186.52z M103.49,186.52l-15.12-8.73l-15.03,8.73
				l15.12,8.73L103.49,186.52"/>
			<path class="st17" d="M90.94,196.41l14.55-8.46l14.66,8.46l-14.55,8.46L90.94,196.41z M120.62,196.41l-15.12-8.73l-15.03,8.73
				l15.12,8.73L120.62,196.41"/>
			<path class="st17" d="M108.07,206.3l14.55-8.46l14.66,8.46l-14.55,8.46L108.07,206.3z M137.76,206.3l-15.13-8.73l-15.03,8.73
				l15.12,8.73L137.76,206.3"/>
		</g>
	</g>
	<g>
		<defs>
			<rect id="SVGID_97_" x="141.3" y="158" width="98.47" height="57.04"/>
		</defs>
		<clipPath id="SVGID_15_">
			<use xlink:href="#SVGID_97_"  style="overflow:visible;"/>
		</clipPath>
		<g class="st18">
			<defs>
				<polygon id="SVGID_99_" points="141.3,186.52 190.37,158 239.77,186.52 190.7,215.04 				"/>
			</defs>
			<clipPath id="SVGID_16_">
				<use xlink:href="#SVGID_99_"  style="overflow:visible;"/>
			</clipPath>
			<path class="st19" d="M175.81,166.73l14.55-8.46l14.65,8.46l-14.55,8.46L175.81,166.73z M205.5,166.73L190.37,158l-15.03,8.73
				l15.12,8.73L205.5,166.73"/>
			<path class="st19" d="M192.95,176.63l14.55-8.46l14.66,8.46l-14.55,8.46L192.95,176.63z M222.63,176.63l-15.13-8.73l-15.03,8.73
				l15.12,8.73L222.63,176.63"/>
			<path class="st19" d="M210.08,186.52l14.55-8.46l14.66,8.46l-14.55,8.46L210.08,186.52z M239.77,186.52l-15.13-8.73l-15.03,8.73
				l15.12,8.73L239.77,186.52"/>
			<path class="st19" d="M158.79,176.63l14.55-8.46l14.65,8.46l-14.55,8.46L158.79,176.63z M188.48,176.63l-15.12-8.73l-15.03,8.73
				l15.12,8.73L188.48,176.63"/>
			<path class="st19" d="M175.92,186.52l14.55-8.46l14.66,8.46l-14.55,8.46L175.92,186.52z M205.61,186.52l-15.12-8.73l-15.03,8.73
				l15.12,8.73L205.61,186.52"/>
			<path class="st19" d="M193.06,196.41l14.55-8.46l14.66,8.46l-14.55,8.46L193.06,196.41z M222.75,196.41l-15.12-8.73l-15.03,8.73
				l15.12,8.73L222.75,196.41"/>
			<path class="st19" d="M158.9,196.41l14.55-8.46l14.66,8.46l-14.55,8.46L158.9,196.41z M188.59,196.41l-15.12-8.73l-15.03,8.73
				l15.12,8.73L188.59,196.41"/>
			<path class="st19" d="M176.04,206.3l14.55-8.46l14.66,8.46l-14.55,8.46L176.04,206.3z M205.72,206.3l-15.12-8.73l-15.03,8.73
				l15.12,8.73L205.72,206.3"/>
		</g>
	</g>
	<polygon class="st6" points="2.77,176.57 54.6,146.25 88.59,165.8 122.57,146.25 156.55,165.8 190.54,146.25 242.75,176.57 
		190.54,206.75 156.55,187.35 122.57,206.75 88.59,187.35 54.6,207.9 	"/>
	<polygon class="st7" points="2.77,176.57 54.6,146.25 88.59,165.8 122.57,146.25 156.55,165.8 190.54,146.25 242.75,176.57 
		190.54,206.75 156.55,187.35 122.57,206.75 88.59,187.35 54.6,207.9 	"/>
	<g>
		<defs>
			<rect id="SVGID_101_" x="5.37" y="148.05" width="98.47" height="57.04"/>
		</defs>
		<clipPath id="SVGID_17_">
			<use xlink:href="#SVGID_101_"  style="overflow:visible;"/>
		</clipPath>
		<g class="st20">
			<defs>
				<polygon id="SVGID_103_" points="5.37,176.57 54.44,148.05 103.84,176.57 54.77,205.09 				"/>
			</defs>
			<clipPath id="SVGID_18_">
				<use xlink:href="#SVGID_103_"  style="overflow:visible;"/>
			</clipPath>
			<path class="st21" d="M39.88,156.79l14.55-8.46l14.65,8.46l-14.55,8.46L39.88,156.79z M69.57,156.79l-15.12-8.73l-15.03,8.73
				l15.12,8.73L69.57,156.79"/>
			<path class="st21" d="M57.02,166.68l14.55-8.46l14.66,8.46l-14.55,8.46L57.02,166.68z M86.7,166.68l-15.12-8.73l-15.03,8.73
				l15.12,8.73L86.7,166.68"/>
			<path class="st21" d="M22.86,166.68l14.55-8.46l14.65,8.46l-14.55,8.46L22.86,166.68z M52.55,166.68l-15.12-8.73l-15.03,8.73
				l15.12,8.73L52.55,166.68"/>
			<path class="st21" d="M39.99,176.57l14.55-8.46l14.66,8.46l-14.55,8.46L39.99,176.57z M69.68,176.57l-15.13-8.73l-15.03,8.73
				l15.12,8.73L69.68,176.57"/>
			<path class="st21" d="M57.13,186.47l14.55-8.46l14.66,8.46l-14.55,8.46L57.13,186.47z M86.82,186.47l-15.12-8.73l-15.03,8.73
				l15.12,8.73L86.82,186.47"/>
			<path class="st21" d="M5.84,176.57l14.55-8.46l14.65,8.46l-14.55,8.46L5.84,176.57z M35.52,176.57l-15.13-8.73l-15.03,8.73
				l15.12,8.73L35.52,176.57"/>
			<path class="st21" d="M22.97,186.47l14.55-8.46l14.66,8.46l-14.55,8.46L22.97,186.47z M52.66,186.47l-15.13-8.73l-15.03,8.73
				l15.12,8.73L52.66,186.47"/>
			<path class="st21" d="M40.11,196.36l14.55-8.46l14.66,8.46l-14.55,8.46L40.11,196.36z M69.79,196.36l-15.13-8.73l-15.03,8.73
				l15.12,8.73L69.79,196.36"/>
		</g>
	</g>
	<g>
		<defs>
			<rect id="SVGID_105_" x="73.34" y="148.05" width="98.47" height="57.04"/>
		</defs>
		<clipPath id="SVGID_19_">
			<use xlink:href="#SVGID_105_"  style="overflow:visible;"/>
		</clipPath>
		<g class="st22">
			<defs>
				<polygon id="SVGID_107_" points="73.34,176.57 122.41,148.05 171.8,176.57 122.73,205.09 				"/>
			</defs>
			<clipPath id="SVGID_20_">
				<use xlink:href="#SVGID_107_"  style="overflow:visible;"/>
			</clipPath>
			<path class="st23" d="M107.85,156.79l14.55-8.46l14.65,8.46l-14.55,8.46L107.85,156.79z M137.53,156.79l-15.12-8.73l-15.03,8.73
				l15.12,8.73L137.53,156.79"/>
			<path class="st23" d="M124.98,166.68l14.55-8.46l14.66,8.46l-14.55,8.46L124.98,166.68z M154.67,166.68l-15.12-8.73l-15.03,8.73
				l15.12,8.73L154.67,166.68"/>
			<path class="st23" d="M142.12,176.57l14.55-8.46l14.66,8.46l-14.55,8.46L142.12,176.57z M171.8,176.57l-15.12-8.73l-15.03,8.73
				l15.12,8.73L171.8,176.57"/>
			<path class="st23" d="M90.82,166.68l14.55-8.46l14.65,8.46l-14.55,8.46L90.82,166.68z M120.51,166.68l-15.13-8.73l-15.03,8.73
				l15.12,8.73L120.51,166.68"/>
			<path class="st23" d="M107.96,176.57l14.55-8.46l14.66,8.46l-14.55,8.46L107.96,176.57z M137.65,176.57l-15.13-8.73l-15.03,8.73
				l15.12,8.73L137.65,176.57"/>
			<path class="st23" d="M125.09,186.47l14.55-8.46l14.66,8.46l-14.55,8.46L125.09,186.47z M154.78,186.47l-15.13-8.73l-15.03,8.73
				l15.12,8.73L154.78,186.47"/>
			<path class="st23" d="M73.8,176.57l14.55-8.46l14.65,8.46l-14.55,8.46L73.8,176.57z M103.49,176.57l-15.12-8.73l-15.03,8.73
				l15.12,8.73L103.49,176.57"/>
			<path class="st23" d="M90.94,186.47l14.55-8.46l14.66,8.46l-14.55,8.46L90.94,186.47z M120.62,186.47l-15.12-8.73l-15.03,8.73
				l15.12,8.73L120.62,186.47"/>
			<path class="st23" d="M108.07,196.36l14.55-8.46l14.66,8.46l-14.55,8.46L108.07,196.36z M137.76,196.36l-15.13-8.73l-15.03,8.73
				l15.12,8.73L137.76,196.36"/>
		</g>
	</g>
	<g>
		<defs>
			<rect id="SVGID_109_" x="141.3" y="148.05" width="98.47" height="57.04"/>
		</defs>
		<clipPath id="SVGID_21_">
			<use xlink:href="#SVGID_109_"  style="overflow:visible;"/>
		</clipPath>
		<g class="st24">
			<defs>
				<polygon id="SVGID_111_" points="141.3,176.57 190.37,148.05 239.77,176.57 190.7,205.09 				"/>
			</defs>
			<clipPath id="SVGID_22_">
				<use xlink:href="#SVGID_111_"  style="overflow:visible;"/>
			</clipPath>
			<path class="st25" d="M175.81,156.79l14.55-8.46l14.65,8.46l-14.55,8.46L175.81,156.79z M205.5,156.79l-15.13-8.73l-15.03,8.73
				l15.12,8.73L205.5,156.79"/>
			<path class="st25" d="M192.95,166.68l14.55-8.46l14.66,8.46l-14.55,8.46L192.95,166.68z M222.63,166.68l-15.13-8.73l-15.03,8.73
				l15.12,8.73L222.63,166.68"/>
			<path class="st25" d="M210.08,176.57l14.55-8.46l14.66,8.46l-14.55,8.46L210.08,176.57z M239.77,176.57l-15.13-8.73l-15.03,8.73
				l15.12,8.73L239.77,176.57"/>
			<path class="st25" d="M158.79,166.68l14.55-8.46l14.65,8.46l-14.55,8.46L158.79,166.68z M188.48,166.68l-15.12-8.73l-15.03,8.73
				l15.12,8.73L188.48,166.68"/>
			<path class="st25" d="M175.92,176.57l14.55-8.46l14.66,8.46l-14.55,8.46L175.92,176.57z M205.61,176.57l-15.12-8.73l-15.03,8.73
				l15.12,8.73L205.61,176.57"/>
			<path class="st25" d="M193.06,186.47l14.55-8.46l14.66,8.46l-14.55,8.46L193.06,186.47z M222.75,186.47l-15.12-8.73l-15.03,8.73
				l15.12,8.73L222.75,186.47"/>
			<path class="st25" d="M158.9,186.47l14.55-8.46l14.66,8.46l-14.55,8.46L158.9,186.47z M188.59,186.47l-15.12-8.73l-15.03,8.73
				l15.12,8.73L188.59,186.47"/>
			<path class="st25" d="M176.04,196.36l14.55-8.46l14.66,8.46l-14.55,8.46L176.04,196.36z M205.72,196.36l-15.12-8.73l-15.03,8.73
				l15.12,8.73L205.72,196.36"/>
		</g>
	</g>
	<polygon class="st6" points="2.77,166.63 54.6,136.31 88.59,155.85 122.57,136.31 156.55,155.85 190.54,136.31 242.75,166.63 
		190.54,196.8 156.55,177.4 122.57,196.8 88.59,177.4 54.6,197.95 	"/>
	<polygon class="st7" points="2.77,166.63 54.6,136.31 88.59,155.85 122.57,136.31 156.55,155.85 190.54,136.31 242.75,166.63 
		190.54,196.8 156.55,177.4 122.57,196.8 88.59,177.4 54.6,197.95 	"/>
	<g>
		<defs>
			<rect id="SVGID_113_" x="5.37" y="138.11" width="98.47" height="57.04"/>
		</defs>
		<clipPath id="SVGID_23_">
			<use xlink:href="#SVGID_113_"  style="overflow:visible;"/>
		</clipPath>
		<g class="st26">
			<defs>
				<polygon id="SVGID_115_" points="5.37,166.63 54.44,138.11 103.84,166.63 54.77,195.14 				"/>
			</defs>
			<clipPath id="SVGID_24_">
				<use xlink:href="#SVGID_115_"  style="overflow:visible;"/>
			</clipPath>
			<path class="st27" d="M39.88,146.84l14.55-8.46l14.65,8.46l-14.55,8.46L39.88,146.84z M69.57,146.84l-15.12-8.73l-15.03,8.73
				l15.12,8.73L69.57,146.84"/>
			<path class="st27" d="M57.02,156.73l14.55-8.46l14.66,8.46l-14.55,8.46L57.02,156.73z M86.7,156.73L71.58,148l-15.03,8.73
				l15.12,8.73L86.7,156.73"/>
			<path class="st27" d="M22.86,156.73l14.55-8.46l14.65,8.46l-14.55,8.46L22.86,156.73z M52.55,156.73L37.42,148l-15.03,8.73
				l15.12,8.73L52.55,156.73"/>
			<path class="st27" d="M39.99,166.63l14.55-8.46l14.66,8.46l-14.55,8.46L39.99,166.63z M69.68,166.63l-15.13-8.73l-15.03,8.73
				l15.12,8.73L69.68,166.63"/>
			<path class="st27" d="M57.13,176.52l14.55-8.46l14.66,8.46l-14.55,8.46L57.13,176.52z M86.82,176.52l-15.12-8.73l-15.03,8.73
				l15.12,8.73L86.82,176.52"/>
			<path class="st27" d="M5.84,166.63l14.55-8.46l14.65,8.46l-14.55,8.46L5.84,166.63z M35.52,166.63l-15.13-8.73l-15.03,8.73
				l15.12,8.73L35.52,166.63"/>
			<path class="st27" d="M22.97,176.52l14.55-8.46l14.66,8.46l-14.55,8.46L22.97,176.52z M52.66,176.52l-15.13-8.73l-15.03,8.73
				l15.12,8.73L52.66,176.52"/>
			<path class="st27" d="M40.11,186.41l14.55-8.46l14.66,8.46l-14.55,8.46L40.11,186.41z M69.79,186.41l-15.13-8.73l-15.03,8.73
				l15.12,8.73L69.79,186.41"/>
		</g>
	</g>
	<g>
		<defs>
			<rect id="SVGID_117_" x="73.34" y="138.11" width="98.47" height="57.04"/>
		</defs>
		<clipPath id="SVGID_25_">
			<use xlink:href="#SVGID_117_"  style="overflow:visible;"/>
		</clipPath>
		<g class="st28">
			<defs>
				<polygon id="SVGID_119_" points="73.34,166.63 122.41,138.11 171.8,166.63 122.73,195.14 				"/>
			</defs>
			<clipPath id="SVGID_26_">
				<use xlink:href="#SVGID_119_"  style="overflow:visible;"/>
			</clipPath>
			<path class="st29" d="M107.85,146.84l14.55-8.46l14.65,8.46l-14.55,8.46L107.85,146.84z M137.53,146.84l-15.12-8.73l-15.03,8.73
				l15.12,8.73L137.53,146.84"/>
			<path class="st29" d="M124.98,156.73l14.55-8.46l14.66,8.46l-14.55,8.46L124.98,156.73z M154.67,156.73L139.55,148l-15.03,8.73
				l15.12,8.73L154.67,156.73"/>
			<path class="st29" d="M142.12,166.63l14.55-8.46l14.66,8.46l-14.55,8.46L142.12,166.63z M171.8,166.63l-15.12-8.73l-15.03,8.73
				l15.12,8.73L171.8,166.63"/>
			<path class="st29" d="M90.82,156.73l14.55-8.46l14.65,8.46l-14.55,8.46L90.82,156.73z M120.51,156.73L105.39,148l-15.03,8.73
				l15.12,8.73L120.51,156.73"/>
			<path class="st29" d="M107.96,166.63l14.55-8.46l14.66,8.46l-14.55,8.46L107.96,166.63z M137.65,166.63l-15.13-8.73l-15.03,8.73
				l15.12,8.73L137.65,166.63"/>
			<path class="st29" d="M125.09,176.52l14.55-8.46l14.66,8.46l-14.55,8.46L125.09,176.52z M154.78,176.52l-15.13-8.73l-15.03,8.73
				l15.12,8.73L154.78,176.52"/>
			<path class="st29" d="M73.8,166.63l14.55-8.46l14.65,8.46l-14.55,8.46L73.8,166.63z M103.49,166.63l-15.12-8.73l-15.03,8.73
				l15.12,8.73L103.49,166.63"/>
			<path class="st29" d="M90.94,176.52l14.55-8.46l14.66,8.46l-14.55,8.46L90.94,176.52z M120.62,176.52l-15.12-8.73l-15.03,8.73
				l15.12,8.73L120.62,176.52"/>
			<path class="st29" d="M108.07,186.41l14.55-8.46l14.66,8.46l-14.55,8.46L108.07,186.41z M137.76,186.41l-15.13-8.73l-15.03,8.73
				l15.12,8.73L137.76,186.41"/>
		</g>
	</g>
	<g>
		<defs>
			<rect id="SVGID_121_" x="141.3" y="138.11" width="98.47" height="57.04"/>
		</defs>
		<clipPath id="SVGID_27_">
			<use xlink:href="#SVGID_121_"  style="overflow:visible;"/>
		</clipPath>
		<g class="st30">
			<defs>
				<polygon id="SVGID_123_" points="141.3,166.63 190.37,138.11 239.77,166.63 190.7,195.14 				"/>
			</defs>
			<clipPath id="SVGID_28_">
				<use xlink:href="#SVGID_123_"  style="overflow:visible;"/>
			</clipPath>
			<path class="st31" d="M175.81,146.84l14.55-8.46l14.65,8.46l-14.55,8.46L175.81,146.84z M205.5,146.84l-15.13-8.73l-15.03,8.73
				l15.12,8.73L205.5,146.84"/>
			<path class="st31" d="M192.95,156.73l14.55-8.46l14.66,8.46l-14.55,8.46L192.95,156.73z M222.63,156.73L207.51,148l-15.03,8.73
				l15.12,8.73L222.63,156.73"/>
			<path class="st31" d="M210.08,166.63l14.55-8.46l14.66,8.46l-14.55,8.46L210.08,166.63z M239.77,166.63l-15.13-8.73l-15.03,8.73
				l15.12,8.73L239.77,166.63"/>
			<path class="st31" d="M158.79,156.73l14.55-8.46l14.65,8.46l-14.55,8.46L158.79,156.73z M188.48,156.73L173.35,148l-15.03,8.73
				l15.12,8.73L188.48,156.73"/>
			<path class="st31" d="M175.92,166.63l14.55-8.46l14.66,8.46l-14.55,8.46L175.92,166.63z M205.61,166.63l-15.12-8.73l-15.03,8.73
				l15.12,8.73L205.61,166.63"/>
			<path class="st31" d="M193.06,176.52l14.55-8.46l14.66,8.46l-14.55,8.46L193.06,176.52z M222.75,176.52l-15.12-8.73l-15.03,8.73
				l15.12,8.73L222.75,176.52"/>
			<path class="st31" d="M158.9,176.52l14.55-8.46l14.66,8.46l-14.55,8.46L158.9,176.52z M188.59,176.52l-15.12-8.73l-15.03,8.73
				l15.12,8.73L188.59,176.52"/>
			<path class="st31" d="M176.04,186.41l14.55-8.46l14.66,8.46l-14.55,8.46L176.04,186.41z M205.72,186.41l-15.12-8.73l-15.03,8.73
				l15.12,8.73L205.72,186.41"/>
		</g>
	</g>
	<polygon class="st6" points="2.77,156.68 54.6,126.36 88.59,145.91 122.57,126.36 156.55,145.91 190.54,126.36 242.75,156.68 
		190.54,186.86 156.55,167.46 122.57,186.86 88.59,167.46 54.6,188.01 	"/>
	<polygon class="st7" points="2.77,156.68 54.6,126.36 88.59,145.91 122.57,126.36 156.55,145.91 190.54,126.36 242.75,156.68 
		190.54,186.86 156.55,167.46 122.57,186.86 88.59,167.46 54.6,188.01 	"/>
	<g>
		<defs>
			<rect id="SVGID_125_" x="5.37" y="128.16" width="98.47" height="57.04"/>
		</defs>
		<clipPath id="SVGID_29_">
			<use xlink:href="#SVGID_125_"  style="overflow:visible;"/>
		</clipPath>
		<g class="st32">
			<defs>
				<polygon id="SVGID_127_" points="5.37,156.68 54.44,128.16 103.84,156.68 54.77,185.2 				"/>
			</defs>
			<clipPath id="SVGID_30_">
				<use xlink:href="#SVGID_127_"  style="overflow:visible;"/>
			</clipPath>
			<path class="st33" d="M39.88,136.9l14.55-8.46l14.65,8.46l-14.55,8.46L39.88,136.9z M69.57,136.89l-15.12-8.73l-15.03,8.73
				l15.12,8.73L69.57,136.89"/>
			<path class="st33" d="M57.02,146.79l14.55-8.46l14.66,8.46l-14.55,8.46L57.02,146.79z M86.7,146.79l-15.12-8.73l-15.03,8.73
				l15.12,8.73L86.7,146.79"/>
			<path class="st33" d="M22.86,146.79l14.55-8.46l14.65,8.46l-14.55,8.46L22.86,146.79z M52.55,146.79l-15.12-8.73l-15.03,8.73
				l15.12,8.73L52.55,146.79"/>
			<path class="st33" d="M39.99,156.68l14.55-8.46l14.66,8.46l-14.55,8.46L39.99,156.68z M69.68,156.68l-15.13-8.73l-15.03,8.73
				l15.12,8.73L69.68,156.68"/>
			<path class="st33" d="M57.13,166.57l14.55-8.46l14.66,8.46l-14.55,8.46L57.13,166.57z M86.82,166.57l-15.12-8.73l-15.03,8.73
				l15.12,8.73L86.82,166.57"/>
			<path class="st33" d="M5.84,156.68l14.55-8.46l14.65,8.46l-14.55,8.46L5.84,156.68z M35.52,156.68l-15.13-8.73l-15.03,8.73
				l15.12,8.73L35.52,156.68"/>
			<path class="st33" d="M22.97,166.57l14.55-8.46l14.66,8.46l-14.55,8.46L22.97,166.57z M52.66,166.57l-15.13-8.73l-15.03,8.73
				l15.12,8.73L52.66,166.57"/>
			<path class="st33" d="M40.11,176.47l14.55-8.46l14.66,8.46l-14.55,8.46L40.11,176.47z M69.79,176.47l-15.13-8.73l-15.03,8.73
				l15.12,8.73L69.79,176.47"/>
		</g>
	</g>
	<g>
		<defs>
			<rect id="SVGID_129_" x="73.34" y="128.16" width="98.47" height="57.04"/>
		</defs>
		<clipPath id="SVGID_31_">
			<use xlink:href="#SVGID_129_"  style="overflow:visible;"/>
		</clipPath>
		<g class="st34">
			<defs>
				<polygon id="SVGID_131_" points="73.34,156.68 122.41,128.16 171.8,156.68 122.73,185.2 				"/>
			</defs>
			<clipPath id="SVGID_32_">
				<use xlink:href="#SVGID_131_"  style="overflow:visible;"/>
			</clipPath>
			<path class="st35" d="M107.85,136.9l14.55-8.46l14.65,8.46l-14.55,8.46L107.85,136.9z M137.53,136.89l-15.12-8.73l-15.03,8.73
				l15.12,8.73L137.53,136.89"/>
			<path class="st35" d="M124.98,146.79l14.55-8.46l14.66,8.46l-14.55,8.46L124.98,146.79z M154.67,146.79l-15.12-8.73l-15.03,8.73
				l15.12,8.73L154.67,146.79"/>
			<path class="st35" d="M142.12,156.68l14.55-8.46l14.66,8.46l-14.55,8.46L142.12,156.68z M171.8,156.68l-15.12-8.73l-15.03,8.73
				l15.12,8.73L171.8,156.68"/>
			<path class="st35" d="M90.82,146.79l14.55-8.46l14.65,8.46l-14.55,8.46L90.82,146.79z M120.51,146.79l-15.13-8.73l-15.03,8.73
				l15.12,8.73L120.51,146.79"/>
			<path class="st35" d="M107.96,156.68l14.55-8.46l14.66,8.46l-14.55,8.46L107.96,156.68z M137.65,156.68l-15.13-8.73l-15.03,8.73
				l15.12,8.73L137.65,156.68"/>
			<path class="st35" d="M125.09,166.57l14.55-8.46l14.66,8.46l-14.55,8.46L125.09,166.57z M154.78,166.57l-15.13-8.73l-15.03,8.73
				l15.12,8.73L154.78,166.57"/>
			<path class="st35" d="M73.8,156.68l14.55-8.46l14.65,8.46l-14.55,8.46L73.8,156.68z M103.49,156.68l-15.12-8.73l-15.03,8.73
				l15.12,8.73L103.49,156.68"/>
			<path class="st35" d="M90.94,166.57l14.55-8.46l14.66,8.46l-14.55,8.46L90.94,166.57z M120.62,166.57l-15.12-8.73l-15.03,8.73
				l15.12,8.73L120.62,166.57"/>
			<path class="st35" d="M108.07,176.47l14.55-8.46l14.66,8.46l-14.55,8.46L108.07,176.47z M137.76,176.47l-15.13-8.73l-15.03,8.73
				l15.12,8.73L137.76,176.47"/>
		</g>
	</g>
	<g>
		<defs>
			<rect id="SVGID_133_" x="141.3" y="128.16" width="98.47" height="57.04"/>
		</defs>
		<clipPath id="SVGID_33_">
			<use xlink:href="#SVGID_133_"  style="overflow:visible;"/>
		</clipPath>
		<g class="st36">
			<defs>
				<polygon id="SVGID_135_" points="141.3,156.68 190.37,128.16 239.77,156.68 190.7,185.2 				"/>
			</defs>
			<clipPath id="SVGID_34_">
				<use xlink:href="#SVGID_135_"  style="overflow:visible;"/>
			</clipPath>
			<path class="st37" d="M175.81,136.9l14.55-8.46l14.65,8.46l-14.55,8.46L175.81,136.9z M205.5,136.89l-15.13-8.73l-15.03,8.73
				l15.12,8.73L205.5,136.89"/>
			<path class="st37" d="M192.95,146.79l14.55-8.46l14.66,8.46l-14.55,8.46L192.95,146.79z M222.63,146.79l-15.13-8.73l-15.03,8.73
				l15.12,8.73L222.63,146.79"/>
			<path class="st37" d="M210.08,156.68l14.55-8.46l14.66,8.46l-14.55,8.46L210.08,156.68z M239.77,156.68l-15.13-8.73l-15.03,8.73
				l15.12,8.73L239.77,156.68"/>
			<path class="st37" d="M158.79,146.79l14.55-8.46l14.65,8.46l-14.55,8.46L158.79,146.79z M188.48,146.79l-15.12-8.73l-15.03,8.73
				l15.12,8.73L188.48,146.79"/>
			<path class="st37" d="M175.92,156.68l14.55-8.46l14.66,8.46l-14.55,8.46L175.92,156.68z M205.61,156.68l-15.12-8.73l-15.03,8.73
				l15.12,8.73L205.61,156.68"/>
			<path class="st37" d="M193.06,166.57l14.55-8.46l14.66,8.46l-14.55,8.46L193.06,166.57z M222.75,166.57l-15.12-8.73l-15.03,8.73
				l15.12,8.73L222.75,166.57"/>
			<path class="st37" d="M158.9,166.57l14.55-8.46l14.66,8.46l-14.55,8.46L158.9,166.57z M188.59,166.57l-15.12-8.73l-15.03,8.73
				l15.12,8.73L188.59,166.57"/>
			<path class="st37" d="M176.04,176.47l14.55-8.46l14.66,8.46l-14.55,8.46L176.04,176.47z M205.72,176.47l-15.12-8.73l-15.03,8.73
				l15.12,8.73L205.72,176.47"/>
		</g>
	</g>
</g>
<g>
	<g>
		<line class="st38" x1="54.36" y1="60.5" x2="54.36" y2="61.1"/>
		<line class="st39" x1="54.37" y1="63.56" x2="54.6" y2="154.37"/>
		<line class="st38" x1="54.6" y1="155.6" x2="54.6" y2="156.2"/>
	</g>
</g>
<g>
</g>
<g>
</g>
<g>
</g>
<g>
</g>
<g>
</g>
<g>
</g>
<g>
</g>
<g>
</g>
<g>
</g>
<g>
</g>
<g>
</g>
<g>
</g>
<g>
</g>
<g>
</g>
<g>
</g>
</svg>
