<?xml version="1.0" encoding="utf-8"?>
<!-- Generator: Adobe Illustrator 25.2.0, SVG Export Plug-In . SVG Version: 6.00 Build 0)  -->
<svg version="1.1" id="Layer_1" xmlns="http://www.w3.org/2000/svg" xmlns:xlink="http://www.w3.org/1999/xlink" x="0px" y="0px"
	 viewBox="0 0 283.06 309.89" style="enable-background:new 0 0 283.06 309.89;" xml:space="preserve">
<style type="text/css">
	.st0{clip-path:url(#SVGID_1_);}
	.st1{clip-path:url(#SVGID_2_);fill:#6CE87D;}
	.st2{clip-path:url(#SVGID_2_);}
	.st3{clip-path:url(#SVGID_2_);fill:none;}
	.st4{clip-path:url(#SVGID_3_);}
	.st5{clip-path:url(#SVGID_4_);}
	.st6{clip-path:url(#SVGID_5_);}
	.st7{clip-path:url(#SVGID_6_);}
	.st8{fill:#C4C4C4;}
	.st9{fill:none;stroke:#000000;stroke-width:0.602;stroke-miterlimit:10;stroke-dasharray:1.205,2.41;}
</style>
<g>
	<g>
		<defs>
			<rect id="SVGID_13_" x="40.11" width="205.81" height="119.22"/>
		</defs>
		<clipPath id="SVGID_1_">
			<use xlink:href="#SVGID_13_"  style="overflow:visible;"/>
		</clipPath>
		<g class="st0">
			<defs>
				<polygon id="SVGID_15_" points="40.11,59.6 142.67,0 245.92,59.61 143.36,119.22 				"/>
			</defs>
			<clipPath id="SVGID_2_">
				<use xlink:href="#SVGID_15_"  style="overflow:visible;"/>
			</clipPath>
			<path class="st1" d="M117.66,68.11l-0.2-0.11l-0.82,0.38l-4.32,1.42l2.25,1.3l2.44-2.51L117.66,68.11 M103.3,37.57l-2.05-1.18
				l-2.96,1.72l2.05,1.18c1.05,0.6,2.25,0.6,3.14,0.09C104.36,38.86,104.35,38.18,103.3,37.57 M120.29,47.38l-2.12-1.22l-2.77,1.61
				l2.12,1.22c1,0.58,2.08,0.62,2.97,0.1C121.41,48.56,121.27,47.95,120.29,47.38 M145.84,62.13l-2.11-1.22l-2.77,1.61l2.11,1.22
				c1,0.58,2.08,0.62,2.97,0.1C146.96,63.31,146.82,62.7,145.84,62.13 M136.96,56.78c-1.49-0.86-3.38-0.58-5.89,0.87
				c-2.49,1.45-2.98,2.55-1.48,3.41c1.5,0.86,3.4,0.58,5.89-0.87C137.98,58.73,138.45,57.64,136.96,56.78 M131.47,31.01l-2.11-1.22
				l-2.77,1.61l2.11,1.22c1.01,0.58,2.09,0.63,2.98,0.11C132.61,32.19,132.45,31.57,131.47,31.01 M122.6,25.65
				c-1.5-0.86-3.37-0.58-5.88,0.88c-2.49,1.45-2.99,2.54-1.5,3.41c1.5,0.86,3.4,0.58,5.89-0.87
				C123.62,27.61,124.09,26.51,122.6,25.65 M151.24,19l-0.21-0.12l-0.81,0.39l-4.33,1.43l2.24,1.29l2.46-2.51L151.24,19
				 M133.44,87.37l1.77-1.03l1.81,1.05l-1.76,1.03L133.44,87.37 M84.34,57.76c1.12,0.65,2.46,0.63,3.6-0.04l6.63-3.85l1.38,0.79
				l-6.63,3.86c-1.86,1.08-4.42,1.07-6.28-0.01c-1.87-1.08-1.9-2.56-0.04-3.64l6.63-3.85l1.38,0.79l-6.63,3.85
				C83.23,56.33,83.23,57.12,84.34,57.76 M104.71,61.22l1.3-0.75l7.64,4.41l-1.3,0.75l-3.13-1.81l-8.26,4.8l-1.38-0.79l8.26-4.8
				L104.71,61.22 M104.91,70.9l12.36-3.94l2.18,1.26l-6.75,7.17l-1.48-0.86l2.43-2.47l-2.97-1.71l-4.27,1.41L104.91,70.9
				 M122.5,71.41l1.23-0.71l6.26,3.62l-1.23,0.71l-2.44-1.41l-7.1,4.13l2.44,1.41l-1.23,0.71l-6.26-3.62l1.23-0.71l2.45,1.41
				l7.1-4.13L122.5,71.41 M128.76,83.11l0.2,0.11l8.2-4.77l1.38,0.79l-9.56,5.55l-2.21-1.28l4.54-5.31l1.15-0.91l-0.21-0.12
				l-8.2,4.77l-1.36-0.79l9.56-5.55l2.2,1.27l-4.53,5.31L128.76,83.11 M75.81,52.85c1.18,0.68,2.47,0.73,3.39,0.2
				c0.74-0.43,0.79-0.98-0.2-1.81l-0.87-0.72c-1.34-1.13-1.28-2.16,0.1-2.97c1.73-1.01,4.25-0.9,6.31,0.29
				c2.16,1.24,2.23,2.62,0.07,3.88l-1.47-0.85c1.34-0.78,1.43-1.53,0.07-2.32c-1.25-0.72-2.54-0.74-3.43-0.22
				c-0.72,0.42-0.76,0.97,0.22,1.79l0.85,0.73c1.33,1.13,1.29,2.17-0.13,3c-1.72,1-4.13,0.92-6.23-0.29
				c-2.23-1.29-2.32-2.62-0.07-3.93l1.47,0.85C74.52,51.28,74.44,52.07,75.81,52.85 M92.84,62.69c1.17,0.67,2.47,0.73,3.39,0.2
				c0.74-0.43,0.78-0.99-0.2-1.81l-0.87-0.72c-1.34-1.13-1.28-2.16,0.1-2.97c1.73-1.01,4.25-0.9,6.32,0.29
				c2.15,1.24,2.23,2.62,0.07,3.87l-1.47-0.85c1.34-0.78,1.43-1.53,0.07-2.32c-1.25-0.72-2.54-0.73-3.43-0.22
				c-0.72,0.42-0.76,0.97,0.22,1.79l0.85,0.73c1.33,1.13,1.29,2.17-0.14,3c-1.72,1-4.13,0.92-6.23-0.29
				c-2.23-1.29-2.32-2.62-0.07-3.93l1.47,0.85C91.56,61.12,91.48,61.9,92.84,62.69 M153.15,75.92l1.76-1.03l1.81,1.05l-1.77,1.03
				L153.15,75.92 M91.61,40.39l9.56-5.55l3.42,1.98c1.81,1.05,2.01,2.37,0.28,3.37c-1.73,1.01-4.02,0.9-5.83-0.14l-2.05-1.18
				l-4,2.33L91.61,40.39 M100.2,45.35l9.56-5.55l5.75,3.32l-1.3,0.75l-4.37-2.52L107,42.99l4.23,2.44l-1.29,0.75l-4.23-2.44
				l-2.84,1.65l4.37,2.52l-1.3,0.75L100.2,45.35 M108.55,50.17l9.56-5.55l3.3,1.9c1.98,1.14,2.36,2.3,0.5,3.38
				c-1.73,1.01-3.69,0.7-5.47-0.28l-0.21,0.12l0.15,0.31l-1.36,3.86l-1.74-1.01l1.51-4.06l-0.61-0.35l-4.26,2.47L108.55,50.17
				 M117.45,55.31l9.56-5.55l6.02,3.47l-1.3,0.76l-4.65-2.69l-2.83,1.64l4.37,2.52l-1.29,0.75l-4.37-2.52l-4.14,2.41L117.45,55.31
				 M134.1,64.92l9.56-5.55l3.3,1.9c1.98,1.14,2.36,2.3,0.5,3.38c-1.73,1.01-3.69,0.7-5.47-0.28l-0.21,0.12l0.15,0.31l-1.36,3.86
				l-1.74-1.01l1.51-4.06l-0.6-0.35l-4.26,2.47L134.1,64.92 M149.46,69.14l0.2,0.12l0.61-0.34l5.97-2.28l2.01,1.16l-9.56,5.55
				l-1.31-0.76l8.2-4.77l-0.19-0.11l-1.31,0.67l-5.22,1.9l-1.19-0.69l3.27-3.03l1.15-0.76l-0.21-0.12l-8.2,4.77l-1.29-0.75
				l9.56-5.55l2.02,1.17l-3.92,3.47L149.46,69.14 M128.3,61.81c-2.38-1.37-1.91-3.11,1.34-4.99c3.25-1.89,6.24-2.17,8.62-0.79
				c2.38,1.37,1.91,3.11-1.34,5C133.67,62.9,130.68,63.18,128.3,61.81 M119.73,33.79l9.55-5.55l3.3,1.9
				c1.98,1.14,2.38,2.3,0.52,3.38c-1.73,1.01-3.7,0.69-5.48-0.29l-0.21,0.12l0.15,0.31l-1.35,3.87l-1.75-1.01l1.51-4.06l-0.6-0.35
				l-4.26,2.47L119.73,33.79 M136.36,33.76l1.23-0.71l6.26,3.62l-1.23,0.71l-2.45-1.41l-7.09,4.12l2.45,1.41l-1.23,0.71l-6.26-3.62
				l1.23-0.71l2.45,1.41l7.09-4.12L136.36,33.76 M153.4,43.59l1.23-0.71l6.26,3.62l-1.23,0.71l-2.45-1.41l-7.09,4.12l2.45,1.41
				l-1.23,0.71l-6.26-3.62l1.23-0.71l2.45,1.41l7.09-4.12L153.4,43.59 M159.66,55.29l0.2,0.11l8.2-4.77l1.38,0.79l-9.55,5.55
				l-2.21-1.28l4.52-5.3l1.15-0.92l-0.2-0.12l-8.2,4.77l-1.38-0.79l9.54-5.55l2.21,1.28l-4.52,5.3L159.66,55.29 M113.93,30.69
				c-2.38-1.37-1.89-3.11,1.34-5c3.25-1.89,6.24-2.17,8.62-0.79c2.38,1.37,1.9,3.11-1.35,5C119.31,31.77,116.31,32.06,113.93,30.69
				 M139.11,45.23c-2.05-1.18-1.47-2.88,1.76-4.76c3.33-1.94,6.25-2.16,8.83-0.67c1.98,1.14,1.87,2.76-0.24,3.97l-1.4-0.81
				c1.4-0.82,1.53-1.72,0.34-2.41c-1.68-0.97-3.51-0.75-6.1,0.75c-2.55,1.48-3.03,2.52-1.55,3.37c1.15,0.67,2.75,0.54,4.54-0.36
				l-2.26-1.3l1.28-0.74l3.57,2.06l-4.94,2.87l-1.38-0.79l2.45-1l-0.21-0.12C141.98,45.97,140.42,45.98,139.11,45.23 M136.77,19.24
				l0.21,0.12l8.2-4.77l1.38,0.79l-9.55,5.55l-2.21-1.28l4.52-5.3l1.15-0.93l-0.2-0.11l-8.2,4.77l-1.38-0.79l9.55-5.55l2.21,1.28
				l-4.52,5.3L136.77,19.24 M138.49,21.79l12.34-3.94l2.19,1.27l-6.74,7.17l-1.48-0.86l2.43-2.47l-2.97-1.71l-4.27,1.41
				L138.49,21.79 M154.8,26.56l0.2,0.11l0.62-0.33l5.95-2.28l2.01,1.16l-9.55,5.55l-1.29-0.75l8.2-4.77l-0.2-0.12l-1.31,0.67
				l-5.22,1.9l-1.19-0.69l3.27-3.03l1.15-0.76l-0.2-0.11l-8.2,4.77l-1.31-0.75l9.55-5.55l2.02,1.17l-3.91,3.46L154.8,26.56
				 M156.65,32.28l9.55-5.55l5.74,3.32l-1.29,0.75l-4.37-2.52l-2.83,1.65l4.23,2.44l-1.3,0.75l-4.23-2.44l-2.83,1.65l4.37,2.52
				l-1.3,0.75L156.65,32.28 M242.79,59.6L142.69,1.82L43.25,59.6l100.09,57.79L242.79,59.6"/>
			<path class="st2" d="M43.25,59.61l99.44-57.79L242.79,59.6l-99.44,57.79L43.25,59.61z M245.92,59.61L142.67,0L40.11,59.61
				l103.25,59.61L245.92,59.61"/>
			<polygon class="st2" points="146.56,15.39 145.18,14.6 136.98,19.36 136.77,19.24 137.93,18.32 142.45,13.02 140.24,11.74 
				130.69,17.29 132.07,18.08 140.27,13.32 140.47,13.43 139.33,14.36 134.8,19.66 137.02,20.94 			"/>
			<path class="st2" d="M145.89,20.69l4.33-1.43l0.81-0.39l0.21,0.12l-0.65,0.48l-2.46,2.51L145.89,20.69z M153.01,19.12l-2.19-1.27
				l-12.34,3.94l1.48,0.86l4.27-1.41l2.97,1.71l-2.43,2.47l1.48,0.86L153.01,19.12"/>
			<polygon class="st2" points="163.59,25.22 161.57,24.06 155.62,26.34 155,26.68 154.81,26.56 155.39,26.21 159.3,22.75 
				157.28,21.58 147.73,27.12 149.04,27.88 157.24,23.11 157.44,23.23 156.29,23.99 153.02,27.02 154.21,27.71 159.44,25.81 
				160.75,25.14 160.95,25.26 152.75,30.02 154.04,30.77 			"/>
			<polygon class="st2" points="171.95,30.05 166.2,26.73 156.66,32.28 162.4,35.59 163.7,34.84 159.33,32.32 162.16,30.67 
				166.39,33.11 167.69,32.36 163.46,29.92 166.29,28.27 170.66,30.79 			"/>
			<path class="st2" d="M115.23,29.93c-1.49-0.86-1-1.96,1.5-3.41c2.5-1.45,4.38-1.74,5.88-0.88c1.49,0.86,1.02,1.96-1.48,3.41
				C118.62,30.51,116.72,30.8,115.23,29.93 M123.9,24.89c-2.38-1.37-5.37-1.1-8.62,0.79c-3.24,1.88-3.72,3.62-1.35,5
				c2.38,1.37,5.38,1.09,8.62-0.8C125.8,28,126.27,26.27,123.9,24.89"/>
			<path class="st2" d="M126.6,31.4l2.77-1.61l2.11,1.22c0.98,0.57,1.13,1.18,0.21,1.72c-0.89,0.52-1.97,0.48-2.98-0.11L126.6,31.4
				 M132.57,30.15l-3.3-1.9l-9.55,5.55l1.38,0.79l4.26-2.47l0.6,0.35l-1.51,4.06l1.75,1.01l1.35-3.87l-0.15-0.31l0.21-0.12
				c1.78,0.98,3.75,1.3,5.48,0.29C134.96,32.45,134.55,31.29,132.57,30.15"/>
			<polygon class="st2" points="143.85,36.66 137.59,33.04 136.36,33.76 138.81,35.17 131.72,39.29 129.27,37.88 128.04,38.59 
				134.31,42.21 135.54,41.49 133.09,40.08 140.18,35.96 142.62,37.37 			"/>
			<path class="st2" d="M149.7,39.8c-2.58-1.49-5.5-1.27-8.83,0.67c-3.23,1.88-3.81,3.58-1.76,4.76c1.31,0.75,2.87,0.75,4.68,0.05
				l0.21,0.12l-2.45,1l1.38,0.79l4.93-2.87l-3.57-2.06L143.03,43l2.26,1.3c-1.79,0.91-3.39,1.03-4.54,0.36
				c-1.47-0.85-1-1.89,1.55-3.37c2.59-1.5,4.41-1.72,6.1-0.75c1.19,0.69,1.07,1.59-0.34,2.41l1.4,0.81
				C151.57,42.56,151.68,40.94,149.7,39.8"/>
			<polygon class="st2" points="160.89,46.5 154.63,42.88 153.4,43.59 155.85,45.01 148.76,49.13 146.31,47.71 145.08,48.43 
				151.34,52.04 152.57,51.33 150.12,49.92 157.21,45.8 159.66,47.21 			"/>
			<polygon class="st2" points="169.44,51.43 168.06,50.64 159.86,55.4 159.66,55.29 160.81,54.36 165.33,49.06 163.11,47.78 
				153.57,53.33 154.95,54.13 163.15,49.36 163.35,49.47 162.2,50.4 157.68,55.7 159.89,56.98 			"/>
			<path class="st2" d="M98.29,38.11l2.96-1.72l2.05,1.18c1.05,0.6,1.06,1.29,0.18,1.81c-0.89,0.52-2.09,0.52-3.14-0.09L98.29,38.11
				 M104.6,36.82l-3.43-1.98l-9.56,5.55l1.38,0.8l4-2.33l2.05,1.18c1.81,1.05,4.1,1.15,5.83,0.14
				C106.61,39.18,106.41,37.87,104.6,36.82"/>
			<polygon class="st2" points="115.5,43.11 109.75,39.8 100.2,45.35 105.94,48.67 107.24,47.91 102.87,45.39 105.72,43.74 
				109.94,46.18 111.23,45.43 107,42.99 109.83,41.35 114.2,43.87 			"/>
			<path class="st2" d="M115.4,47.77l2.77-1.61l2.12,1.22c0.98,0.56,1.12,1.18,0.2,1.71c-0.89,0.52-1.97,0.48-2.97-0.1L115.4,47.77
				 M121.4,46.52l-3.3-1.9l-9.56,5.55l1.37,0.79l4.26-2.47l0.61,0.35l-1.52,4.06l1.74,1.01l1.36-3.86l-0.15-0.31l0.21-0.12
				c1.78,0.99,3.74,1.29,5.47,0.29C123.76,48.82,123.38,47.66,121.4,46.52"/>
			<polygon class="st2" points="133.02,53.23 127,49.75 117.45,55.31 118.81,56.1 122.95,53.69 127.32,56.21 128.61,55.46 
				124.24,52.94 127.07,51.3 131.72,53.98 			"/>
			<path class="st2" d="M129.59,61.06c-1.5-0.86-1.01-1.96,1.48-3.41c2.5-1.46,4.39-1.73,5.89-0.87c1.5,0.86,1.02,1.96-1.48,3.41
				C132.99,61.64,131.09,61.92,129.59,61.06 M138.26,56.02c-2.38-1.37-5.37-1.09-8.62,0.79c-3.24,1.88-3.71,3.62-1.33,4.99
				c2.38,1.37,5.37,1.09,8.61-0.79C140.17,59.13,140.64,57.4,138.26,56.02"/>
			<path class="st2" d="M140.96,62.53l2.77-1.61l2.11,1.22c0.98,0.56,1.12,1.18,0.2,1.71c-0.89,0.52-1.97,0.48-2.97-0.1
				L140.96,62.53 M146.95,61.27l-3.3-1.9l-9.56,5.55l1.38,0.8l4.26-2.47l0.6,0.35l-1.51,4.06l1.74,1.01l1.36-3.86l-0.15-0.31
				l0.21-0.12c1.78,0.99,3.74,1.29,5.47,0.29C149.31,63.57,148.93,62.41,146.95,61.27"/>
			<polygon class="st2" points="158.25,67.8 156.24,66.63 150.27,68.92 149.66,69.26 149.46,69.14 150.04,68.79 153.97,65.32 
				151.94,64.15 142.38,69.71 143.68,70.45 151.88,65.69 152.09,65.81 150.95,66.57 147.68,69.6 148.87,70.29 154.09,68.39 
				155.4,67.72 155.59,67.83 147.39,72.6 148.7,73.35 			"/>
			<polygon class="st2" points="156.73,75.94 154.91,74.89 153.15,75.92 154.96,76.97 			"/>
			<path class="st2" d="M84.54,47.84c-2.06-1.19-4.58-1.29-6.32-0.29c-1.38,0.8-1.44,1.84-0.1,2.97L79,51.24
				c0.99,0.83,0.93,1.38,0.2,1.81c-0.92,0.54-2.21,0.48-3.39-0.2c-1.36-0.79-1.29-1.57,0.08-2.37l-1.47-0.85
				c-2.25,1.3-2.16,2.64,0.07,3.93c2.11,1.22,4.51,1.29,6.24,0.29c1.43-0.83,1.47-1.86,0.13-3L80,50.13
				c-0.98-0.82-0.95-1.37-0.22-1.79c0.89-0.52,2.18-0.5,3.43,0.22c1.36,0.79,1.28,1.54-0.07,2.32l1.47,0.85
				C86.78,50.46,86.7,49.09,84.54,47.84"/>
			<path class="st2" d="M95.96,54.66l-1.38-0.79l-6.63,3.85c-1.15,0.67-2.48,0.68-3.6,0.03c-1.11-0.64-1.11-1.43,0.04-2.09
				l6.63-3.85l-1.38-0.79L83,54.87c-1.86,1.08-1.83,2.56,0.04,3.64c1.86,1.08,4.42,1.09,6.28,0.01L95.96,54.66"/>
			<path class="st2" d="M101.58,57.68c-2.06-1.19-4.58-1.29-6.32-0.29c-1.38,0.8-1.44,1.84-0.1,2.97l0.87,0.72
				c0.98,0.82,0.93,1.38,0.2,1.81c-0.92,0.54-2.23,0.48-3.39-0.2c-1.36-0.79-1.29-1.57,0.08-2.37l-1.47-0.85
				c-2.25,1.31-2.16,2.64,0.07,3.93c2.11,1.22,4.51,1.29,6.23,0.29c1.43-0.83,1.47-1.86,0.14-3l-0.85-0.73
				c-0.98-0.82-0.95-1.37-0.22-1.79c0.89-0.52,2.18-0.5,3.43,0.22c1.37,0.79,1.28,1.54-0.07,2.32l1.47,0.85
				C103.81,60.3,103.74,58.93,101.58,57.68"/>
			<polygon class="st2" points="113.65,64.88 106.01,60.47 104.71,61.22 107.84,63.03 99.58,67.83 100.96,68.62 109.22,63.83 
				112.35,65.63 			"/>
			<path class="st2" d="M112.32,69.8l4.32-1.42l0.82-0.38l0.2,0.12L117,68.59l-2.44,2.51L112.32,69.8z M119.44,68.22l-2.18-1.26
				l-12.36,3.94l1.48,0.86l4.28-1.41l2.97,1.71l-2.43,2.47l1.48,0.86L119.44,68.22"/>
			<polygon class="st2" points="129.99,74.31 123.73,70.7 122.5,71.41 124.95,72.83 117.85,76.95 115.4,75.54 114.17,76.25 
				120.44,79.87 121.66,79.16 119.23,77.75 126.33,73.62 128.77,75.03 			"/>
			<polygon class="st2" points="138.54,79.25 137.16,78.45 128.96,83.22 128.76,83.1 129.9,82.19 134.43,76.88 132.23,75.61 
				122.68,81.16 124.04,81.95 132.24,77.18 132.45,77.31 131.31,78.22 126.77,83.53 128.98,84.8 			"/>
			<polygon class="st2" points="137.01,87.39 135.2,86.35 133.44,87.37 135.25,88.42 			"/>
			<polygon class="st3" points="2.87,59.66 142.64,-21.57 283.16,59.56 143.39,140.79 			"/>
		</g>
	</g>
	<g>
		<defs>
			<rect id="SVGID_17_" x="192.48" y="55.41" width="57.93" height="33.56"/>
		</defs>
		<clipPath id="SVGID_3_">
			<use xlink:href="#SVGID_17_"  style="overflow:visible;"/>
		</clipPath>
		<g class="st4">
			<defs>
				<polygon id="SVGID_19_" points="192.48,72.19 221.35,55.41 250.41,72.19 221.54,88.97 				"/>
			</defs>
			<clipPath id="SVGID_4_">
				<use xlink:href="#SVGID_19_"  style="overflow:visible;"/>
			</clipPath>
			<path class="st5" d="M208.58,79.67c-7.15-4.13-7.18-10.83-0.08-14.96c7.09-4.12,18.67-4.13,25.82,0
				c7.13,4.12,7.17,10.84,0.08,14.96C227.29,83.79,215.71,83.78,208.58,79.67 M235.88,63.8c-8.01-4.62-21.01-4.62-28.96,0
				c-7.97,4.63-7.91,12.15,0.09,16.78c8.01,4.62,21,4.63,28.96,0C243.93,75.95,243.88,68.42,235.88,63.8"/>
		</g>
	</g>
	<g>
		<defs>
			<rect id="SVGID_21_" x="29.14" y="50.14" width="36.02" height="20.86"/>
		</defs>
		<clipPath id="SVGID_5_">
			<use xlink:href="#SVGID_21_"  style="overflow:visible;"/>
		</clipPath>
		<g class="st6">
			<defs>
				<polygon id="SVGID_23_" points="29.14,60.57 47.09,50.14 65.16,60.57 47.21,71 				"/>
			</defs>
			<clipPath id="SVGID_6_">
				<use xlink:href="#SVGID_23_"  style="overflow:visible;"/>
			</clipPath>
			<path class="st7" d="M32.29,60.57l14.81-8.61l14.92,8.61L47.2,69.18L32.29,60.57z M65.16,60.57L47.09,50.14L29.14,60.57L47.21,71
				L65.16,60.57"/>
		</g>
	</g>
	<polyline class="st8" points="162.72,279.52 110.12,249.15 57.86,279.52 110.46,309.89 162.72,279.52 	"/>
	<path d="M110.12,249.15l-52.25,30.37l52.6,30.37l52.25-30.37L110.12,249.15z M110.45,308.96l-50.99-29.44l50.66-29.44l50.99,29.44
		L110.45,308.96z"/>
	<g>
		<path d="M106.95,257.58c0.23-0.13,0.5-0.24,0.81-0.32c0.31-0.08,0.64-0.12,0.98-0.13c0.34-0.01,0.69,0.03,1.03,0.1
			s0.67,0.2,0.98,0.38c0.36,0.21,0.59,0.43,0.7,0.67c0.11,0.24,0.11,0.47-0.01,0.68l-0.97-0.11c0.05-0.09,0.08-0.18,0.08-0.26
			c0-0.08-0.02-0.16-0.06-0.24c-0.04-0.07-0.1-0.14-0.17-0.21c-0.07-0.06-0.15-0.12-0.24-0.17c-0.19-0.11-0.39-0.19-0.61-0.22
			c-0.21-0.04-0.43-0.05-0.64-0.04c-0.21,0.01-0.42,0.05-0.61,0.11c-0.2,0.06-0.37,0.13-0.52,0.22c-0.17,0.1-0.3,0.2-0.4,0.32
			c-0.1,0.12-0.16,0.24-0.17,0.37c-0.02,0.13,0.01,0.25,0.08,0.37c0.07,0.12,0.19,0.23,0.36,0.33c0.09,0.05,0.19,0.1,0.31,0.14
			c0.12,0.04,0.24,0.08,0.37,0.1s0.27,0.04,0.42,0.04s0.29-0.02,0.44-0.05l0.28,0.56c-0.2,0.04-0.42,0.07-0.64,0.06
			c-0.22,0-0.44-0.03-0.66-0.07c-0.22-0.04-0.43-0.1-0.63-0.17c-0.2-0.07-0.38-0.16-0.54-0.25c-0.28-0.16-0.48-0.34-0.6-0.54
			c-0.12-0.2-0.17-0.4-0.16-0.6c0.02-0.2,0.09-0.39,0.23-0.58C106.52,257.88,106.71,257.72,106.95,257.58z"/>
		<path d="M112.4,262.2l-0.64,0.37l-2.71-1.57l3.75-2.17l2.66,1.54l-0.64,0.37l-1.9-1.1l-0.9,0.52l1.64,0.95l-0.59,0.34l-1.64-0.95
			l-0.98,0.56L112.4,262.2z"/>
		<path d="M112.35,262.91l3.75-2.17l1.73,1c0.18,0.1,0.31,0.22,0.39,0.35c0.08,0.13,0.12,0.26,0.11,0.39
			c-0.01,0.13-0.06,0.26-0.14,0.38c-0.09,0.12-0.21,0.23-0.36,0.31c-0.24,0.14-0.53,0.23-0.85,0.27c-0.33,0.04-0.64,0.03-0.95-0.05
			l-0.52,1.33l-0.85-0.49l0.46-1.19l-0.75-0.43l-1.26,0.73L112.35,262.91z M115.01,262.26l0.95,0.55c0.07,0.04,0.15,0.07,0.24,0.09
			c0.09,0.02,0.19,0.02,0.29,0.02s0.2-0.02,0.3-0.05c0.1-0.03,0.19-0.07,0.27-0.12c0.09-0.05,0.16-0.11,0.2-0.17
			c0.04-0.06,0.07-0.12,0.08-0.18c0.01-0.06-0.01-0.12-0.04-0.17c-0.03-0.05-0.08-0.1-0.15-0.14l-0.92-0.53L115.01,262.26z"/>
		<path d="M121.98,264.89l-1.25-0.72l-3.12,1.8l-0.75-0.44l3.12-1.8l-1.25-0.72l0.64-0.37l3.25,1.88L121.98,264.89z"/>
		<path d="M119.35,266.97l3.75-2.17l0.76,0.44l-3.75,2.17L119.35,266.97z"/>
		<path d="M120.92,267.88l3.75-2.17l2.62,1.52l-0.64,0.37l-1.86-1.08l-0.97,0.56l1.55,0.9l-0.59,0.34l-1.55-0.9l-1.55,0.9
			L120.92,267.88z"/>
		<path d="M124.08,269.7l3.75-2.17l0.76,0.44l-3.75,2.17L124.08,269.7z"/>
		<path d="M127.32,269.38c0.23-0.13,0.5-0.24,0.81-0.32c0.31-0.08,0.64-0.12,0.98-0.13c0.34-0.01,0.68,0.03,1.03,0.1
			c0.35,0.07,0.67,0.2,0.98,0.38c0.36,0.21,0.59,0.43,0.7,0.67c0.11,0.24,0.11,0.47-0.01,0.68l-0.97-0.11
			c0.05-0.09,0.08-0.18,0.08-0.26s-0.02-0.16-0.06-0.24c-0.04-0.07-0.1-0.14-0.17-0.21c-0.07-0.07-0.15-0.12-0.24-0.17
			c-0.19-0.11-0.39-0.19-0.61-0.22c-0.22-0.04-0.43-0.05-0.64-0.04c-0.21,0.01-0.42,0.05-0.61,0.11c-0.2,0.06-0.37,0.13-0.52,0.22
			c-0.17,0.1-0.3,0.2-0.4,0.32c-0.1,0.12-0.16,0.24-0.17,0.37s0.01,0.25,0.08,0.37c0.07,0.12,0.19,0.23,0.36,0.33
			c0.09,0.05,0.19,0.1,0.31,0.14s0.24,0.08,0.37,0.1c0.13,0.02,0.27,0.04,0.42,0.04c0.15,0,0.29-0.02,0.44-0.05l0.28,0.56
			c-0.2,0.05-0.42,0.07-0.64,0.06c-0.22-0.01-0.44-0.03-0.66-0.07c-0.22-0.04-0.43-0.1-0.63-0.17c-0.2-0.07-0.38-0.16-0.54-0.25
			c-0.28-0.16-0.48-0.34-0.59-0.54c-0.12-0.2-0.17-0.4-0.16-0.6c0.01-0.2,0.09-0.4,0.23-0.58
			C126.89,269.68,127.08,269.52,127.32,269.38z"/>
		<path d="M134.23,271.24l0.67,0.39l-2.27,3.03l-0.78-0.45l0.57-0.75l-1.36-0.79l-1.29,0.33l-0.78-0.45L134.23,271.24z
			 M132.8,273.08l0.94-1.16l-2.04,0.53L132.8,273.08z"/>
		<path d="M138.71,274.57l-1.25-0.72l-3.12,1.8l-0.75-0.44l3.12-1.8l-1.25-0.72l0.64-0.37l3.25,1.88L138.71,274.57z"/>
		<path d="M136.08,276.65l3.75-2.17l0.76,0.44l-3.75,2.17L136.08,276.65z"/>
		<path d="M139.29,278.54c-0.29-0.17-0.49-0.35-0.62-0.54c-0.13-0.2-0.18-0.4-0.17-0.59s0.09-0.39,0.22-0.58
			c0.14-0.18,0.33-0.35,0.57-0.48c0.25-0.14,0.54-0.26,0.86-0.33s0.66-0.12,1.01-0.12c0.35,0,0.69,0.03,1.03,0.11
			s0.64,0.19,0.92,0.35c0.28,0.16,0.48,0.34,0.61,0.54c0.12,0.2,0.18,0.4,0.16,0.6c-0.01,0.2-0.09,0.39-0.23,0.58
			s-0.32,0.35-0.56,0.48c-0.25,0.14-0.54,0.25-0.86,0.33c-0.32,0.08-0.66,0.12-1,0.12s-0.68-0.03-1.02-0.11
			C139.87,278.82,139.56,278.7,139.29,278.54z M140.06,276.79c-0.16,0.09-0.29,0.2-0.39,0.32c-0.1,0.12-0.16,0.24-0.18,0.36
			c-0.02,0.12,0,0.25,0.08,0.37c0.07,0.12,0.2,0.24,0.38,0.34c0.18,0.11,0.38,0.18,0.6,0.22c0.21,0.04,0.43,0.05,0.65,0.04
			c0.22-0.01,0.42-0.05,0.62-0.11c0.2-0.06,0.38-0.13,0.53-0.22c0.16-0.09,0.29-0.2,0.39-0.32c0.1-0.12,0.16-0.24,0.18-0.36
			c0.02-0.12-0.01-0.25-0.08-0.37c-0.07-0.12-0.2-0.23-0.37-0.33c-0.18-0.11-0.38-0.18-0.6-0.22c-0.22-0.04-0.43-0.06-0.64-0.04
			s-0.42,0.05-0.62,0.11C140.39,276.62,140.21,276.7,140.06,276.79z"/>
		<path d="M144.97,279.02l-2.41,1.39l-0.76-0.44l3.75-2.17l0.59,0.34l-0.43,2.6l2.46-1.42l0.76,0.44l-3.75,2.17l-0.62-0.36
			L144.97,279.02z"/>
	</g>
	<polyline class="st8" points="222.18,200.34 169.58,169.97 117.32,200.34 169.92,230.71 222.18,200.34 	"/>
	<path d="M169.58,169.97l-52.25,30.37l52.6,30.37l52.25-30.37L169.58,169.97z M169.92,229.78l-50.99-29.44l50.66-29.44l50.99,29.44
		L169.92,229.78z"/>
	<g>
		<path d="M172.26,179.55l-1.54-0.89l-3.83,2.21l-0.93-0.54l3.83-2.21l-1.54-0.89l0.79-0.46l4,2.32L172.26,179.55z"/>
		<path d="M173.15,183.59l-0.79,0.46l-3.34-1.93l4.62-2.67l3.28,1.9l-0.79,0.46l-2.34-1.36l-1.11,0.64l2.02,1.17l-0.73,0.42
			l-2.02-1.17l-1.2,0.7L173.15,183.59z"/>
		<path d="M175.04,182.89c0.28-0.16,0.61-0.29,1-0.39s0.78-0.15,1.2-0.16c0.42-0.01,0.84,0.04,1.27,0.13
			c0.43,0.09,0.83,0.25,1.2,0.46c0.44,0.26,0.73,0.53,0.87,0.83s0.13,0.57-0.01,0.84l-1.19-0.14c0.07-0.11,0.1-0.22,0.1-0.32
			c0-0.1-0.03-0.2-0.08-0.29c-0.05-0.09-0.12-0.18-0.21-0.25c-0.09-0.08-0.19-0.15-0.29-0.21c-0.23-0.14-0.49-0.23-0.75-0.28
			c-0.26-0.05-0.53-0.06-0.79-0.05c-0.26,0.02-0.51,0.06-0.76,0.13c-0.24,0.07-0.46,0.16-0.64,0.27c-0.2,0.12-0.37,0.25-0.49,0.4
			c-0.12,0.15-0.19,0.3-0.21,0.45s0.01,0.31,0.1,0.46c0.09,0.15,0.23,0.29,0.44,0.41c0.11,0.06,0.23,0.12,0.38,0.17
			c0.14,0.05,0.3,0.09,0.46,0.12c0.16,0.03,0.33,0.04,0.51,0.04c0.18,0,0.36-0.02,0.54-0.06l0.34,0.69
			c-0.25,0.06-0.51,0.08-0.79,0.07c-0.27,0-0.55-0.03-0.82-0.08c-0.27-0.05-0.53-0.12-0.78-0.21c-0.25-0.09-0.47-0.19-0.67-0.3
			c-0.34-0.2-0.59-0.42-0.73-0.66c-0.14-0.25-0.21-0.49-0.19-0.74c0.02-0.25,0.11-0.49,0.28-0.72
			C174.51,183.26,174.75,183.06,175.04,182.89z"/>
		<path d="M186.29,186.77l-4.62,2.67l-0.93-0.54l1.97-1.14l-2.18-1.26l-1.97,1.14l-0.93-0.54l4.62-2.67l0.93,0.54l-1.87,1.08
			l2.18,1.26l1.87-1.08L186.29,186.77z"/>
		<path d="M186.57,188.85l-2.96,1.71l-0.93-0.54l4.62-2.67l0.72,0.42l-0.53,3.2l3.03-1.75l0.93,0.54l-4.62,2.67l-0.76-0.44
			L186.57,188.85z"/>
		<path d="M187.83,193.01l4.62-2.67l0.93,0.54l-4.62,2.67L187.83,193.01z"/>
		<path d="M191.82,192.61c0.28-0.16,0.61-0.29,1-0.39c0.38-0.1,0.78-0.15,1.2-0.16c0.42-0.01,0.84,0.03,1.27,0.13
			c0.43,0.09,0.83,0.25,1.2,0.46c0.44,0.26,0.73,0.53,0.87,0.83c0.14,0.29,0.13,0.57-0.01,0.84l-1.19-0.14
			c0.07-0.11,0.1-0.22,0.1-0.32c0-0.1-0.03-0.2-0.08-0.29c-0.05-0.09-0.12-0.17-0.21-0.25c-0.09-0.08-0.19-0.15-0.29-0.21
			c-0.24-0.14-0.49-0.23-0.75-0.28c-0.27-0.05-0.53-0.06-0.79-0.04c-0.26,0.02-0.51,0.06-0.76,0.13c-0.24,0.07-0.46,0.16-0.64,0.27
			c-0.2,0.12-0.37,0.25-0.49,0.4c-0.12,0.15-0.19,0.3-0.21,0.46c-0.02,0.15,0.01,0.31,0.1,0.46c0.09,0.15,0.23,0.29,0.44,0.41
			c0.11,0.06,0.23,0.12,0.38,0.17c0.14,0.05,0.3,0.09,0.46,0.12c0.16,0.03,0.33,0.04,0.51,0.04c0.18,0,0.36-0.02,0.54-0.06
			l0.34,0.69c-0.25,0.06-0.51,0.08-0.79,0.07c-0.28,0-0.55-0.03-0.82-0.08s-0.53-0.12-0.78-0.21c-0.25-0.09-0.47-0.19-0.67-0.3
			c-0.34-0.2-0.59-0.42-0.73-0.67s-0.21-0.49-0.19-0.74s0.11-0.49,0.28-0.72S191.53,192.78,191.82,192.61z"/>
		<path d="M200.33,194.9l0.83,0.48l-2.79,3.73l-0.96-0.56l0.71-0.92l-1.68-0.97l-1.59,0.41l-0.96-0.56L200.33,194.9z M198.57,197.16
			l1.15-1.43l-2.51,0.65L198.57,197.16z"/>
		<path d="M198.89,199.41l4.62-2.67l0.93,0.54l-3.83,2.21l2.45,1.42l-0.79,0.46L198.89,199.41z"/>
		<path d="M154.66,185.56l4.62-2.67l1.75,1.01c0.39,0.23,0.68,0.46,0.85,0.7c0.17,0.24,0.26,0.48,0.25,0.71
			c-0.01,0.24-0.1,0.46-0.29,0.68c-0.18,0.22-0.43,0.42-0.75,0.6c-0.35,0.2-0.73,0.35-1.12,0.46c-0.4,0.1-0.8,0.15-1.21,0.14
			s-0.82-0.06-1.22-0.16c-0.4-0.1-0.78-0.26-1.14-0.47L154.66,185.56z M160.16,186.06c0.22-0.13,0.39-0.26,0.52-0.41
			c0.12-0.14,0.19-0.29,0.2-0.44c0.01-0.15-0.03-0.29-0.14-0.44c-0.1-0.15-0.27-0.28-0.5-0.41l-0.81-0.47l-3.05,1.76l0.81,0.47
			c0.23,0.13,0.47,0.23,0.73,0.29c0.26,0.06,0.51,0.08,0.77,0.07c0.26-0.01,0.51-0.05,0.76-0.12
			C159.7,186.28,159.94,186.19,160.16,186.06z"/>
		<path d="M165.33,186.39l0.83,0.48l-2.79,3.73l-0.96-0.56l0.71-0.92l-1.68-0.97l-1.59,0.41l-0.96-0.56L165.33,186.39z
			 M163.57,188.65l1.15-1.43l-2.51,0.65L163.57,188.65z"/>
		<path d="M170.84,190.49l-1.54-0.89l-3.83,2.21l-0.93-0.54l3.83-2.21l-1.54-0.89l0.79-0.46l4,2.32L170.84,190.49z"/>
		<path d="M173.12,190.9l0.83,0.48l-2.79,3.73l-0.96-0.56l0.71-0.92l-1.68-0.97l-1.59,0.41l-0.96-0.56L173.12,190.9z M171.36,193.16
			l1.15-1.43l-2.51,0.65L171.36,193.16z"/>
		<path d="M150.77,191.12c0-0.04-0.02-0.09-0.05-0.17c-0.03-0.08-0.08-0.17-0.15-0.26c-0.07-0.1-0.16-0.2-0.26-0.3
			c-0.11-0.1-0.23-0.19-0.37-0.28c-0.26-0.15-0.5-0.23-0.71-0.25c-0.22-0.02-0.41,0.02-0.57,0.11c-0.1,0.05-0.15,0.12-0.17,0.18
			c-0.01,0.06,0,0.14,0.04,0.22c0.04,0.08,0.11,0.17,0.21,0.27c0.1,0.1,0.22,0.22,0.35,0.35c0.17,0.17,0.32,0.33,0.44,0.48
			c0.12,0.15,0.2,0.29,0.23,0.43c0.03,0.14,0.01,0.27-0.07,0.39s-0.22,0.25-0.43,0.37c-0.25,0.14-0.51,0.24-0.78,0.28
			c-0.27,0.04-0.55,0.05-0.82,0.02c-0.27-0.03-0.54-0.1-0.81-0.19c-0.26-0.09-0.51-0.21-0.75-0.35c-0.36-0.21-0.67-0.45-0.91-0.71
			c-0.25-0.26-0.42-0.53-0.5-0.8l1.19-0.21c0,0.05,0.02,0.12,0.07,0.22c0.04,0.1,0.1,0.21,0.19,0.33c0.08,0.12,0.19,0.24,0.32,0.37
			c0.13,0.13,0.29,0.24,0.47,0.35c0.51,0.3,0.93,0.36,1.25,0.17c0.1-0.06,0.15-0.12,0.17-0.2c0.01-0.07-0.01-0.16-0.07-0.25
			c-0.05-0.09-0.14-0.2-0.25-0.31c-0.11-0.11-0.23-0.24-0.37-0.38c-0.17-0.17-0.3-0.32-0.4-0.46c-0.1-0.14-0.15-0.27-0.17-0.39
			c-0.02-0.12,0.01-0.24,0.08-0.34s0.2-0.21,0.38-0.31c0.23-0.13,0.49-0.23,0.76-0.28c0.27-0.05,0.55-0.07,0.83-0.05
			c0.28,0.02,0.56,0.08,0.83,0.16c0.27,0.09,0.53,0.2,0.78,0.34c0.34,0.2,0.6,0.41,0.78,0.63c0.18,0.22,0.31,0.44,0.38,0.64
			L150.77,191.12z"/>
		<path d="M157.3,193.51l-4.62,2.67l-0.93-0.54l1.97-1.14l-2.18-1.26l-1.97,1.14l-0.93-0.54l4.62-2.67l0.93,0.54l-1.87,1.08
			l2.18,1.26l1.87-1.08L157.3,193.51z"/>
		<path d="M157.81,198.23l-0.79,0.45l-3.34-1.93l4.62-2.67l3.27,1.9l-0.79,0.46l-2.34-1.36l-1.11,0.64l2.02,1.17l-0.73,0.42
			l-2.02-1.17l-1.21,0.7L157.81,198.23z"/>
		<path d="M161.87,200.59l-0.79,0.46l-3.34-1.93l4.62-2.67l3.27,1.9l-0.79,0.46l-2.34-1.36l-1.11,0.64l2.02,1.17l-0.73,0.42
			l-2.02-1.17l-1.21,0.7L161.87,200.59z"/>
		<path d="M169.24,201.33l-1.54-0.89l-3.83,2.21l-0.93-0.54l3.83-2.21l-1.54-0.89l0.79-0.45l4,2.32L169.24,201.33z"/>
	</g>
	<polyline class="st8" points="283.06,278.6 230.45,248.23 178.2,278.59 230.8,308.96 283.06,278.6 	"/>
	<path d="M230.45,248.23l-52.25,30.37l52.6,30.37l52.25-30.37L230.45,248.23z M230.79,308.04L179.8,278.6l50.66-29.44l50.99,29.44
		L230.79,308.04z"/>
	<g>
		<path d="M231.99,257.64c0-0.04-0.02-0.09-0.05-0.17c-0.03-0.08-0.08-0.17-0.15-0.27c-0.07-0.1-0.16-0.2-0.26-0.3
			c-0.11-0.1-0.23-0.19-0.38-0.28c-0.26-0.15-0.49-0.23-0.71-0.25c-0.22-0.02-0.41,0.02-0.57,0.11c-0.1,0.05-0.15,0.11-0.17,0.18
			c-0.01,0.06,0,0.14,0.04,0.22c0.04,0.08,0.11,0.17,0.21,0.27c0.1,0.1,0.22,0.22,0.35,0.35c0.17,0.17,0.32,0.33,0.44,0.48
			c0.12,0.15,0.2,0.29,0.23,0.43c0.03,0.14,0.01,0.27-0.07,0.39c-0.07,0.13-0.22,0.25-0.43,0.37c-0.25,0.14-0.51,0.24-0.78,0.28
			c-0.27,0.04-0.54,0.05-0.82,0.02s-0.54-0.1-0.81-0.19c-0.26-0.09-0.51-0.21-0.75-0.35c-0.36-0.21-0.67-0.45-0.91-0.71
			c-0.25-0.26-0.42-0.53-0.5-0.8l1.19-0.21c0,0.05,0.02,0.12,0.07,0.22c0.04,0.1,0.1,0.21,0.19,0.33c0.08,0.12,0.19,0.24,0.32,0.37
			c0.13,0.13,0.29,0.24,0.47,0.35c0.51,0.3,0.93,0.36,1.25,0.17c0.1-0.06,0.16-0.12,0.17-0.2s-0.01-0.16-0.07-0.25
			s-0.14-0.2-0.25-0.31c-0.11-0.11-0.23-0.24-0.37-0.38c-0.17-0.17-0.3-0.32-0.4-0.46c-0.1-0.14-0.15-0.27-0.17-0.39
			c-0.02-0.12,0.01-0.24,0.08-0.34c0.07-0.11,0.2-0.21,0.37-0.31c0.23-0.14,0.49-0.23,0.76-0.28c0.27-0.05,0.55-0.07,0.83-0.04
			c0.28,0.02,0.56,0.08,0.83,0.16c0.28,0.09,0.54,0.2,0.78,0.34c0.34,0.2,0.6,0.41,0.78,0.63c0.18,0.22,0.31,0.44,0.38,0.64
			L231.99,257.64z"/>
		<path d="M235.77,258.43l0.83,0.48l-2.79,3.73l-0.96-0.56l0.71-0.92l-1.68-0.97l-1.59,0.41l-0.96-0.56L235.77,258.43z
			 M234.01,260.69l1.15-1.43l-2.51,0.65L234.01,260.69z"/>
		<path d="M234.33,262.94l4.62-2.67l3.23,1.87l-0.79,0.46l-2.29-1.33l-1.19,0.69l1.91,1.1l-0.73,0.42l-1.91-1.1l-1.91,1.11
			L234.33,262.94z"/>
		<path d="M242.34,266.66l-0.79,0.46l-3.33-1.93l4.62-2.67l3.27,1.9l-0.79,0.46l-2.34-1.36l-1.11,0.64l2.02,1.17l-0.73,0.42
			l-2.02-1.17l-1.2,0.7L242.34,266.66z"/>
		<path d="M249.71,267.41l-1.54-0.89l-3.83,2.21l-0.93-0.54l3.83-2.21l-1.54-0.89l0.79-0.46l4,2.31L249.71,267.41z"/>
		<path d="M251.63,267.61l-1.04,1.97l3.43-0.59l1.01,0.58l-4.75,0.73l-1.61,0.93l-0.93-0.54l1.63-0.94l1.26-2.74L251.63,267.61z"/>
		<path d="M215.55,263.82l4.62-2.67l1.75,1.01c0.39,0.23,0.68,0.46,0.85,0.7s0.26,0.48,0.25,0.71c-0.01,0.24-0.1,0.46-0.29,0.68
			c-0.18,0.22-0.43,0.42-0.75,0.6c-0.35,0.2-0.73,0.35-1.12,0.45c-0.4,0.1-0.8,0.15-1.21,0.15s-0.82-0.06-1.22-0.16
			c-0.4-0.1-0.78-0.26-1.14-0.47L215.55,263.82z M221.04,264.32c0.22-0.13,0.39-0.26,0.52-0.41c0.12-0.14,0.19-0.29,0.2-0.44
			c0.01-0.15-0.03-0.29-0.14-0.44c-0.11-0.15-0.27-0.28-0.5-0.41l-0.81-0.47l-3.05,1.76l0.81,0.47c0.23,0.13,0.47,0.23,0.73,0.29
			c0.26,0.06,0.51,0.08,0.77,0.07c0.26-0.01,0.51-0.05,0.76-0.12C220.59,264.54,220.82,264.45,221.04,264.32z"/>
		<path d="M226.21,264.65l0.83,0.48l-2.8,3.73l-0.96-0.56l0.71-0.92l-1.68-0.97l-1.59,0.41l-0.96-0.56L226.21,264.65z
			 M224.45,266.91l1.15-1.43l-2.51,0.65L224.45,266.91z"/>
		<path d="M231.72,268.75l-1.54-0.89l-3.83,2.21l-0.93-0.54l3.83-2.21l-1.54-0.89l0.79-0.46l4,2.32L231.72,268.75z"/>
		<path d="M234,269.16l0.83,0.48l-2.79,3.73l-0.96-0.56l0.71-0.92l-1.68-0.97l-1.59,0.41l-0.96-0.56L234,269.16z M232.24,271.42
			l1.15-1.43l-2.51,0.65L232.24,271.42z"/>
		<path d="M211.65,269.38c0-0.04-0.02-0.09-0.05-0.17c-0.03-0.08-0.08-0.17-0.15-0.26c-0.07-0.1-0.16-0.2-0.26-0.3
			c-0.11-0.1-0.23-0.19-0.37-0.28c-0.26-0.15-0.5-0.23-0.71-0.25c-0.22-0.02-0.41,0.02-0.57,0.11c-0.1,0.05-0.15,0.11-0.17,0.18
			c-0.01,0.06,0,0.14,0.04,0.21c0.04,0.08,0.11,0.17,0.21,0.27c0.1,0.1,0.22,0.22,0.35,0.35c0.17,0.17,0.32,0.33,0.44,0.48
			c0.12,0.15,0.2,0.29,0.23,0.43c0.03,0.14,0.01,0.27-0.07,0.39c-0.07,0.12-0.22,0.25-0.43,0.37c-0.25,0.14-0.51,0.24-0.78,0.28
			c-0.27,0.04-0.55,0.05-0.82,0.02c-0.27-0.03-0.54-0.1-0.81-0.19c-0.26-0.1-0.51-0.21-0.75-0.35c-0.36-0.21-0.67-0.45-0.91-0.71
			c-0.25-0.26-0.42-0.53-0.5-0.8l1.19-0.21c0,0.05,0.02,0.12,0.07,0.22s0.1,0.21,0.19,0.33c0.08,0.12,0.19,0.24,0.32,0.37
			c0.13,0.13,0.29,0.24,0.47,0.35c0.51,0.3,0.93,0.36,1.25,0.17c0.1-0.06,0.15-0.12,0.17-0.2c0.01-0.07-0.01-0.16-0.07-0.25
			c-0.05-0.09-0.14-0.2-0.25-0.31c-0.11-0.11-0.23-0.24-0.37-0.38c-0.17-0.17-0.3-0.32-0.4-0.46s-0.15-0.27-0.17-0.39
			c-0.01-0.12,0.01-0.24,0.08-0.34c0.07-0.11,0.2-0.21,0.37-0.31c0.23-0.13,0.49-0.23,0.76-0.28c0.27-0.05,0.55-0.07,0.83-0.04
			c0.28,0.02,0.56,0.08,0.83,0.16c0.27,0.09,0.53,0.2,0.78,0.34c0.34,0.2,0.6,0.41,0.78,0.63c0.18,0.22,0.31,0.44,0.38,0.64
			L211.65,269.38z"/>
		<path d="M218.18,271.77l-4.62,2.67l-0.93-0.54l1.97-1.14l-2.18-1.26l-1.97,1.14l-0.93-0.54l4.62-2.67l0.93,0.54l-1.87,1.08
			l2.18,1.26l1.87-1.08L218.18,271.77z"/>
		<path d="M218.69,276.49l-0.79,0.46l-3.34-1.93l4.62-2.67l3.27,1.9l-0.79,0.46l-2.34-1.36l-1.11,0.64l2.02,1.17l-0.73,0.42
			l-2.02-1.17l-1.21,0.7L218.69,276.49z"/>
		<path d="M222.75,278.85l-0.79,0.46l-3.34-1.93l4.62-2.67l3.27,1.9l-0.79,0.46l-2.34-1.36l-1.11,0.64l2.02,1.17l-0.73,0.42
			l-2.02-1.17l-1.21,0.7L222.75,278.85z"/>
		<path d="M230.12,279.59l-1.54-0.89l-3.83,2.21l-0.93-0.54l3.83-2.21l-1.54-0.89l0.79-0.46l4,2.32L230.12,279.59z"/>
	</g>
	<line class="st9" x1="169.75" y1="164.56" x2="169.75" y2="118.93"/>
	<polygon points="173.53,119.23 172.85,119.86 169.75,116.52 166.65,119.86 165.97,119.23 169.75,115.16 	"/>
	<polyline class="st8" points="104.86,200.34 52.25,169.97 0,200.34 52.6,230.71 104.86,200.34 	"/>
	<path d="M52.25,169.97L0,200.34l52.6,30.37l52.25-30.37L52.25,169.97z M52.59,229.78L1.6,200.34l50.66-29.44l50.99,29.44
		L52.59,229.78z"/>
	<g>
		<path d="M47.51,179.69l4.62-2.67l2.04,1.18c0.22,0.13,0.38,0.27,0.48,0.43c0.1,0.16,0.14,0.32,0.13,0.48
			c-0.01,0.16-0.07,0.32-0.18,0.47c-0.11,0.15-0.25,0.28-0.44,0.39c-0.2,0.11-0.42,0.2-0.68,0.27c-0.26,0.07-0.52,0.1-0.8,0.11
			c-0.27,0.01-0.55-0.02-0.82-0.08c-0.27-0.06-0.52-0.15-0.74-0.28L50,179.33l-1.55,0.89L47.51,179.69z M50.79,178.88l1.08,0.63
			c0.17,0.1,0.38,0.14,0.63,0.13c0.25-0.01,0.49-0.08,0.72-0.22c0.12-0.07,0.2-0.14,0.26-0.21c0.06-0.08,0.09-0.15,0.1-0.22
			c0.01-0.07-0.01-0.14-0.06-0.2c-0.05-0.07-0.11-0.12-0.19-0.17l-1.04-0.6L50.79,178.88z"/>
		<path d="M51.73,182.13l4.62-2.67l2.12,1.23c0.22,0.13,0.38,0.27,0.48,0.43c0.1,0.16,0.14,0.32,0.13,0.48
			c-0.01,0.16-0.07,0.32-0.18,0.47c-0.11,0.15-0.25,0.28-0.44,0.39c-0.3,0.17-0.65,0.29-1.05,0.34s-0.79,0.03-1.16-0.06l-0.64,1.64
			l-1.05-0.61l0.57-1.46l-0.92-0.53l-1.55,0.9L51.73,182.13z M55,181.32l1.17,0.68c0.08,0.05,0.18,0.08,0.3,0.11
			c0.11,0.02,0.23,0.03,0.35,0.02c0.12-0.01,0.24-0.03,0.37-0.06c0.12-0.03,0.24-0.08,0.34-0.14c0.11-0.06,0.19-0.13,0.24-0.2
			c0.05-0.07,0.09-0.15,0.09-0.22s-0.01-0.14-0.05-0.21c-0.04-0.07-0.1-0.12-0.18-0.17l-1.13-0.65L55,181.32z"/>
		<path d="M58.25,185.94c-0.35-0.2-0.61-0.43-0.76-0.67c-0.15-0.24-0.22-0.49-0.21-0.73c0.01-0.25,0.11-0.48,0.27-0.71
			c0.17-0.23,0.4-0.43,0.7-0.6c0.31-0.18,0.66-0.31,1.06-0.41c0.4-0.09,0.82-0.14,1.24-0.15c0.43,0,0.85,0.04,1.27,0.13
			c0.42,0.09,0.79,0.24,1.13,0.43c0.35,0.2,0.6,0.42,0.75,0.67s0.21,0.49,0.2,0.74c-0.02,0.25-0.11,0.48-0.28,0.71
			c-0.17,0.23-0.4,0.43-0.69,0.59c-0.31,0.18-0.66,0.31-1.06,0.41s-0.81,0.14-1.23,0.15c-0.42,0-0.84-0.04-1.26-0.13
			C58.96,186.28,58.59,186.14,58.25,185.94z M59.2,183.78c-0.2,0.12-0.36,0.25-0.48,0.39c-0.12,0.14-0.2,0.29-0.22,0.45
			c-0.02,0.15,0.01,0.3,0.09,0.45c0.09,0.15,0.24,0.29,0.46,0.42c0.23,0.13,0.47,0.22,0.73,0.27c0.26,0.05,0.53,0.07,0.79,0.05
			c0.27-0.02,0.52-0.06,0.77-0.13s0.46-0.16,0.65-0.27c0.2-0.12,0.36-0.25,0.48-0.39c0.12-0.15,0.19-0.29,0.22-0.45
			c0.02-0.15-0.01-0.3-0.1-0.45c-0.09-0.15-0.24-0.29-0.46-0.41c-0.23-0.13-0.47-0.22-0.74-0.27c-0.27-0.05-0.53-0.07-0.79-0.05
			s-0.52,0.06-0.76,0.13C59.61,183.58,59.39,183.67,59.2,183.78z"/>
		<path d="M61.34,187.7l4.62-2.67l1.75,1.01c0.39,0.23,0.68,0.46,0.85,0.7c0.17,0.24,0.26,0.48,0.25,0.71s-0.1,0.46-0.28,0.68
			c-0.18,0.22-0.43,0.42-0.75,0.6c-0.35,0.2-0.73,0.35-1.12,0.46s-0.8,0.15-1.21,0.14c-0.41,0-0.81-0.06-1.22-0.16
			c-0.4-0.1-0.78-0.26-1.14-0.47L61.34,187.7z M66.84,188.2c0.22-0.13,0.39-0.26,0.52-0.41c0.12-0.15,0.19-0.29,0.2-0.44
			c0.01-0.15-0.03-0.3-0.14-0.44c-0.11-0.15-0.27-0.28-0.5-0.42l-0.81-0.47l-3.05,1.76l0.81,0.47c0.23,0.13,0.47,0.23,0.73,0.29
			c0.26,0.06,0.51,0.08,0.77,0.07c0.26-0.01,0.51-0.05,0.76-0.12C66.39,188.42,66.62,188.32,66.84,188.2z"/>
		<path d="M68.98,191.24c0.22,0.13,0.45,0.21,0.69,0.25c0.24,0.04,0.47,0.04,0.7,0.02c0.23-0.03,0.46-0.08,0.67-0.16
			s0.42-0.18,0.61-0.29l2.36-1.36l0.93,0.54l-2.36,1.36c-0.32,0.18-0.65,0.33-1.01,0.45c-0.36,0.12-0.72,0.18-1.1,0.21
			c-0.38,0.02-0.76-0.01-1.15-0.09c-0.39-0.08-0.77-0.23-1.14-0.45c-0.38-0.22-0.65-0.45-0.79-0.68c-0.14-0.23-0.19-0.45-0.15-0.67
			c0.04-0.22,0.17-0.43,0.37-0.63c0.2-0.2,0.45-0.39,0.75-0.56l2.36-1.36l0.93,0.54l-2.36,1.36c-0.19,0.11-0.36,0.23-0.51,0.36
			c-0.14,0.13-0.24,0.26-0.28,0.39c-0.05,0.13-0.04,0.27,0.03,0.4S68.77,191.11,68.98,191.24z"/>
		<path d="M73.32,191.92c0.28-0.16,0.61-0.29,1-0.39c0.38-0.1,0.78-0.15,1.2-0.16s0.84,0.03,1.27,0.13c0.43,0.09,0.83,0.25,1.2,0.46
			c0.44,0.26,0.73,0.53,0.87,0.83c0.13,0.29,0.13,0.57-0.01,0.84l-1.19-0.14c0.07-0.11,0.1-0.22,0.1-0.32c0-0.1-0.03-0.2-0.08-0.29
			c-0.05-0.09-0.12-0.17-0.21-0.25c-0.09-0.08-0.19-0.15-0.3-0.21c-0.24-0.13-0.48-0.23-0.75-0.28c-0.26-0.05-0.53-0.06-0.79-0.05
			c-0.26,0.02-0.51,0.06-0.76,0.14s-0.46,0.16-0.64,0.27c-0.2,0.12-0.37,0.25-0.49,0.4c-0.12,0.15-0.19,0.3-0.21,0.46
			c-0.02,0.15,0.01,0.31,0.1,0.46c0.09,0.15,0.23,0.29,0.44,0.41c0.11,0.06,0.23,0.12,0.38,0.17c0.14,0.05,0.3,0.09,0.46,0.12
			c0.16,0.03,0.33,0.04,0.51,0.04c0.18,0,0.36-0.02,0.54-0.06l0.34,0.69c-0.25,0.05-0.51,0.08-0.79,0.07
			c-0.27-0.01-0.55-0.03-0.81-0.08c-0.27-0.05-0.53-0.12-0.78-0.21s-0.47-0.19-0.67-0.3c-0.34-0.2-0.59-0.42-0.73-0.67
			c-0.15-0.25-0.21-0.49-0.19-0.74c0.02-0.25,0.11-0.49,0.28-0.72C72.79,192.29,73.02,192.09,73.32,191.92z"/>
		<path d="M83.29,195.97l-1.54-0.89l-3.83,2.21l-0.93-0.54l3.83-2.21l-1.54-0.89l0.79-0.46l4,2.32L83.29,195.97z"/>
		<path d="M37.34,185.56l4.62-2.67l0.93,0.54l-4.62,2.67L37.34,185.56z"/>
		<path d="M43.18,185.51l-2.96,1.71l-0.93-0.54l4.62-2.67l0.72,0.42l-0.53,3.2l3.03-1.75l0.93,0.54l-4.62,2.67l-0.76-0.44
			L43.18,185.51z"/>
		<path d="M44.44,189.67l4.62-2.67l3.23,1.87l-0.79,0.46L49.21,188l-1.19,0.69l1.91,1.11l-0.73,0.42l-1.91-1.1l-1.91,1.11
			L44.44,189.67z"/>
		<path d="M50.24,193.06c-0.35-0.2-0.6-0.43-0.76-0.67s-0.22-0.49-0.21-0.73c0.01-0.25,0.11-0.48,0.27-0.71
			c0.17-0.23,0.4-0.43,0.7-0.6c0.31-0.18,0.66-0.31,1.06-0.41c0.4-0.09,0.82-0.14,1.24-0.15c0.43,0,0.85,0.04,1.26,0.13
			c0.42,0.09,0.79,0.24,1.13,0.43c0.35,0.2,0.6,0.42,0.75,0.67c0.15,0.24,0.22,0.49,0.2,0.73c-0.02,0.25-0.11,0.48-0.28,0.71
			c-0.17,0.23-0.4,0.43-0.69,0.59c-0.31,0.18-0.66,0.31-1.06,0.41s-0.81,0.14-1.23,0.15c-0.42,0-0.84-0.04-1.26-0.13
			C50.95,193.4,50.57,193.26,50.24,193.06z M51.19,190.9c-0.2,0.12-0.36,0.25-0.48,0.39s-0.2,0.29-0.22,0.44
			c-0.02,0.15,0.01,0.3,0.09,0.45c0.09,0.15,0.24,0.29,0.46,0.42c0.22,0.13,0.47,0.22,0.73,0.27c0.26,0.05,0.53,0.07,0.79,0.05
			c0.27-0.02,0.52-0.06,0.77-0.13c0.25-0.07,0.46-0.16,0.66-0.27c0.2-0.12,0.36-0.25,0.48-0.39c0.12-0.15,0.19-0.29,0.22-0.45
			c0.02-0.15-0.01-0.3-0.1-0.45c-0.09-0.15-0.24-0.29-0.46-0.41c-0.23-0.13-0.47-0.22-0.74-0.27c-0.27-0.05-0.53-0.07-0.79-0.05
			c-0.26,0.02-0.52,0.06-0.76,0.13C51.59,190.7,51.38,190.79,51.19,190.9z"/>
	</g>
	<line class="st9" x1="52.43" y1="164.56" x2="52.43" y2="82.37"/>
	<polygon points="56.21,82.67 55.53,83.3 52.43,79.97 49.33,83.31 48.65,82.67 52.43,78.61 	"/>
	<line class="st9" x1="230.63" y1="242.82" x2="230.63" y2="88.97"/>
	<polygon points="234.41,89.27 233.73,89.9 230.63,86.56 227.53,89.9 226.85,89.27 230.63,85.21 	"/>
	<line class="st9" x1="110.29" y1="242.82" x2="110.29" y2="115.57"/>
	<polygon points="114.07,115.87 113.39,116.5 110.29,113.16 107.19,116.5 106.51,115.87 110.29,111.8 	"/>
</g>
<g>
</g>
<g>
</g>
<g>
</g>
<g>
</g>
<g>
</g>
<g>
</g>
<g>
</g>
<g>
</g>
<g>
</g>
<g>
</g>
<g>
</g>
<g>
</g>
<g>
</g>
<g>
</g>
<g>
</g>
</svg>
